<?xml version="1.0" encoding="utf-8"?>
<!-- Generator: Adobe Illustrator 23.0.6, SVG Export Plug-In . SVG Version: 6.00 Build 0)  -->
<svg version="1.1" id="Layer_1" xmlns="http://www.w3.org/2000/svg" xmlns:xlink="http://www.w3.org/1999/xlink" x="0px" y="0px"
	 viewBox="0 0 970 970" style="enable-background:new 0 0 970 970;" xml:space="preserve">
<style type="text/css">
	.st0{fill:#FFFFFF;}
	.st1{fill:#005C99;}
</style>
<circle class="st0" cx="485" cy="485" r="410"/>
<path class="st1" d="M485,81.2c222.7,0,403.8,181.1,403.8,403.8S707.7,888.8,485,888.8S81.2,707.7,81.2,485S262.3,81.2,485,81.2
	 M485,0C217.1,0,0,217.1,0,485s217.1,485,485,485s485-217.1,485-485S752.9,0,485,0z"/>
<path class="st1" d="M619.3,564.1L619.3,564.1l-187.9-224l64-53.7l162.9,194.2h151.2C807.1,303.3,662.8,160.3,485,160.3
	s-322.1,143-324.5,320.3h160.7l70,83.5v0.1H170.4C205.8,705.1,333,809.7,485,809.7s279.2-104.6,314.6-245.6H619.3z"/>
</svg>
