<?xml version="1.0" encoding="UTF-8"?>
<svg width="96" height="96" version="1.1" viewBox="0 0 25.4 25.4" xmlns="http://www.w3.org/2000/svg" xmlns:xlink="http://www.w3.org/1999/xlink">
 <defs>
  <linearGradient id="linearGradient1498" x1="11.906" x2="11.906" y1="23.812" y2="2.3812" gradientUnits="userSpaceOnUse">
   <stop stop-color="#f8f7e9" offset="0"/>
   <stop stop-color="#fff" offset="1"/>
  </linearGradient>
 </defs>
 <g stroke="#000" stroke-linecap="round" stroke-linejoin="round">
  <rect x=".79375" y=".79375" width="23.812" height="23.812" rx="5.9608e-7" ry="1.0975" fill="url(#linearGradient1498)" stroke-width="1.0583"/>
  <g fill="#ff2162" stroke-width=".13229" aria-label="APD">
   <path d="m6.0626 15.037-0.76619 3.3679h1.5379zm-0.99219-1.4883h1.9899l2.2214 8.2297h-1.6261l-0.50712-2.034h-2.1773l-0.49609 2.034h-1.6261z"/>
   <path d="m11.983 14.916v2.4143h0.66697q0.79926 0 1.119-0.2701 0.32522-0.2701 0.32522-0.93707 0-0.66697-0.32522-0.93707-0.3197-0.2701-1.119-0.2701zm-1.6261-1.367h2.2324q1.7033 0 2.4474 0.60634 0.74965 0.60634 0.74965 1.9678 0 1.3615-0.74965 1.9678-0.74414 0.60634-2.4474 0.60634h-0.60634v3.0813h-1.6261z"/>
   <path d="m18.641 15.015v5.2972h0.44097q0.95912 0 1.367-0.60082 0.4079-0.60634 0.4079-2.056 0-1.4387-0.4079-2.0395t-1.367-0.60082zm-1.6261-1.4662h1.7418q2.0174 0 2.9049 0.96463 0.88746 0.95912 0.88746 3.1419 0 2.1883-0.88746 3.1585-0.88746 0.96463-2.9049 0.96463h-1.7418z"/>
  </g>
 </g>
</svg>
