<?xml version="1.0" encoding="utf-8"?>
<!-- Generator: Adobe Illustrator 15.0.0, SVG Export Plug-In . SVG Version: 6.00 Build 0)  -->
<!DOCTYPE svg PUBLIC "-//W3C//DTD SVG 1.1//EN" "http://www.w3.org/Graphics/SVG/1.1/DTD/svg11.dtd">
<svg version="1.1" id="Ebene_1" xmlns="http://www.w3.org/2000/svg" xmlns:xlink="http://www.w3.org/1999/xlink" x="0px" y="0px"
	 width="145.333px" height="150px" viewBox="0 0 145.333 150" enable-background="new 0 0 145.333 150" xml:space="preserve">
<g>
	<path fill="#FFFFFF" d="M40.918,101.399c-1.609,0-2.89,0.869-2.89,2.1v0.033c0,1.119,1.074,2.066,2.89,2.066s2.89-0.947,2.89-2.066
		v-0.033C43.808,102.269,42.529,101.399,40.918,101.399z"/>
	<path fill="#FFFFFF" d="M42.92,82.563c0.872,0,2.34-0.212,2.34-1.635v-0.037c0-0.967-0.793-1.521-2.165-1.521h-2.944h-0.093v0.095
		v3.003v0.096h0.093H42.92z"/>
	<polygon fill="#FFFFFF" points="77.339,102.487 82.376,102.487 79.867,96.851 	"/>
	<path fill="#FFFFFF" d="M40.151,84.876h-0.092v0.096v3.117v0.096h0.092h3.456c0.893,0,2.395-0.215,2.395-1.654v-0.035
		c0-1.059-0.888-1.619-2.565-1.619H40.151z"/>
	<path fill="#FFFFFF" d="M43.446,98.353v-0.033c0-1.09-1.09-1.91-2.527-1.91c-1.437,0-2.525,0.805-2.525,1.91v0.033
		c0,1.199,1.121,2.021,2.525,2.021S43.446,99.552,43.446,98.353z"/>
	<path fill="#FFFFFF" d="M70.732,98.841V98.81c0-1.359-1.044-2.178-2.827-2.178h-3.411v4.484h3.396
		C69.547,101.116,70.732,100.263,70.732,98.841z"/>
	<path fill="#FFFFFF" d="M72.667,8.845C36.129,8.845,6.511,38.463,6.511,75c0,36.538,29.618,66.155,66.155,66.155
		c36.536,0,66.155-29.617,66.155-66.155C138.822,38.463,109.203,8.845,72.667,8.845z M104.138,50.732
		c2.512,0,4.557,2.043,4.557,4.556c0,2.513-2.045,4.556-4.557,4.556c-2.514,0-4.556-2.042-4.556-4.556
		C99.583,52.776,101.625,50.732,104.138,50.732z M104.138,63.146c2.512,0,4.557,2.044,4.557,4.556c0,2.513-2.045,4.556-4.557,4.556
		c-2.514,0-4.556-2.043-4.556-4.556C99.583,65.19,101.625,63.146,104.138,63.146z M91.728,38.32c2.51,0,4.555,2.045,4.555,4.556
		c0,2.514-2.045,4.558-4.555,4.558c-2.512,0-4.559-2.043-4.559-4.558C87.169,40.365,89.216,38.32,91.728,38.32z M91.728,50.732
		c2.51,0,4.555,2.043,4.555,4.556c0,2.513-2.045,4.556-4.555,4.556c-2.512,0-4.559-2.042-4.559-4.556
		C87.169,52.776,89.216,50.732,91.728,50.732z M91.728,63.146c2.51,0,4.555,2.044,4.555,4.556c0,2.513-2.045,4.556-4.555,4.556
		c-2.512,0-4.559-2.043-4.559-4.556C87.169,65.19,89.216,63.146,91.728,63.146z M93.763,77.129v13.298
		c0,0.094-0.076,0.166-0.168,0.166h-2.336c-0.094,0-0.168-0.074-0.168-0.166V77.129c0-0.091,0.074-0.168,0.168-0.168h2.336
		C93.687,76.961,93.763,77.038,93.763,77.129z M79.314,38.32c2.512,0,4.557,2.045,4.557,4.556c0,2.514-2.045,4.558-4.557,4.558
		s-4.557-2.043-4.557-4.558C74.757,40.365,76.802,38.32,79.314,38.32z M79.314,50.732c2.512,0,4.557,2.043,4.557,4.556
		c0,2.513-2.045,4.556-4.557,4.556s-4.557-2.042-4.557-4.556C74.757,52.776,76.802,50.732,79.314,50.732z M66.904,38.32
		c2.513,0,4.557,2.045,4.557,4.556c0,2.514-2.044,4.558-4.557,4.558c-2.516,0-4.555-2.043-4.555-4.558
		C62.347,40.365,64.388,38.32,66.904,38.32z M66.904,50.732c2.513,0,4.557,2.043,4.557,4.556c0,2.513-2.044,4.556-4.557,4.556
		c-2.516,0-4.555-2.042-4.555-4.556C62.347,52.776,64.388,50.732,66.904,50.732z M54.496,38.32c2.508,0,4.553,2.045,4.553,4.556
		c0,2.514-2.045,4.558-4.553,4.558c-2.513,0-4.559-2.043-4.559-4.558C49.937,40.365,51.983,38.32,54.496,38.32z M54.496,50.732
		c2.508,0,4.553,2.043,4.553,4.556c0,2.513-2.045,4.556-4.553,4.556c-2.513,0-4.559-2.042-4.559-4.556
		C49.937,52.776,51.983,50.732,54.496,50.732z M54.496,63.146c2.508,0,4.553,2.044,4.553,4.556c0,2.513-2.045,4.556-4.553,4.556
		c-2.513,0-4.559-2.043-4.559-4.556C49.937,65.19,51.983,63.146,54.496,63.146z M53.728,77.129v13.298
		c0,0.094-0.077,0.166-0.167,0.166h-2.336c-0.099,0-0.173-0.074-0.173-0.166V77.129c0-0.091,0.076-0.168,0.173-0.168h2.336
		C53.651,76.961,53.728,77.038,53.728,77.129z M42.083,50.732c2.511,0,4.553,2.043,4.553,4.556c0,2.513-2.042,4.556-4.553,4.556
		c-2.514,0-4.557-2.042-4.557-4.556C37.526,52.776,39.569,50.732,42.083,50.732z M42.083,63.146c2.511,0,4.553,2.044,4.553,4.556
		c0,2.513-2.042,4.556-4.553,4.556c-2.514,0-4.557-2.043-4.557-4.556C37.526,65.19,39.569,63.146,42.083,63.146z M37.422,77.129
		c0-0.091,0.076-0.168,0.167-0.168h5.808c1.551,0,2.795,0.426,3.596,1.228c0.631,0.631,0.942,1.393,0.942,2.32v0.04
		c0,1.228-0.495,2.155-1.517,2.831l-0.147,0.098l0.166,0.07c1.527,0.656,2.237,1.672,2.239,3.191v0.039
		c0,2.389-1.901,3.814-5.09,3.814h-5.997c-0.092,0-0.167-0.072-0.167-0.166V77.129z M45.072,103.548c0,1.877-1.8,3.142-4.153,3.142
		c-2.352,0-4.152-1.279-4.152-3.126v-0.031c0-1.312,0.947-2.244,2.272-2.717c-1.026-0.475-1.895-1.264-1.895-2.543v-0.031
		c0-1.705,1.753-2.92,3.774-2.92c2.021,0,3.773,1.215,3.773,2.92v0.031c0,1.279-0.869,2.068-1.895,2.543
		c1.311,0.488,2.274,1.389,2.274,2.699V103.548z M51.67,102.426h-4.389v-1.28h4.389V102.426z M60.874,96.632h-3.71v9.9H55.9v-9.9
		h-3.71v-1.154h8.684V96.632z M62.789,79.462v0.096v10.869c0,0.094-0.078,0.166-0.169,0.166h-2.356c-0.094,0-0.17-0.074-0.17-0.166
		V79.558v-0.095H60h-3.951c-0.094,0-0.169-0.073-0.169-0.169v-2.163c0-0.092,0.075-0.17,0.169-0.17h10.788
		c0.092,0,0.167,0.077,0.167,0.168v2.165c0,0.094-0.075,0.168-0.167,0.168h-3.954H62.789z M70.857,106.53l-3.205-4.295h-3.158v4.295
		h-1.247V95.478H68c1.357,0,2.445,0.411,3.141,1.105c0.538,0.537,0.854,1.311,0.854,2.178v0.033c0,1.832-1.263,2.906-3.002,3.221
		l3.396,4.516H70.857z M73.376,90.575l-4.635-13.39c-0.021-0.053-0.01-0.109,0.022-0.15c0.033-0.049,0.085-0.074,0.14-0.074h2.525
		c0.07,0,0.137,0.047,0.16,0.115l2.924,9.086l0.088,0.278l0.094-0.277l3.012-9.125c0.023-0.069,0.09-0.116,0.159-0.116h1.974
		c0.074,0,0.142,0.051,0.162,0.118l3.012,9.123l0.095,0.279l0.087-0.28l2.924-9.086c0.021-0.066,0.09-0.115,0.162-0.115h2.45
		c0.054,0,0.104,0.025,0.135,0.064c0.03,0.047,0.04,0.104,0.022,0.158L84.25,90.582c-0.016,0.06-0.082,0.106-0.152,0.106H82.08
		c-0.068,0-0.135-0.047-0.16-0.114l-3.012-8.822l-0.092-0.263l-0.088,0.263l-3.019,8.823c-0.022,0.068-0.087,0.113-0.161,0.113
		h-2.014C73.464,90.688,73.398,90.644,73.376,90.575z M84.16,106.53l-1.293-2.92h-6.018l-1.311,2.92h-1.279l5.039-11.131h1.168
		l5.037,11.131H84.16z M92.234,106.72c-3.189,0-5.541-2.51-5.541-5.684v-0.031c0-3.127,2.337-5.717,5.59-5.717
		c2.004,0,3.203,0.711,4.311,1.752l-0.854,0.918c-0.934-0.885-1.975-1.518-3.475-1.518c-2.445,0-4.277,1.99-4.277,4.531v0.033
		c0,2.557,1.848,4.562,4.277,4.562c1.518,0,2.51-0.584,3.568-1.594l0.82,0.804C95.501,105.946,94.238,106.72,92.234,106.72z
		 M106.885,106.532l-4.247-5.354l-2.354,2.385v2.969h-1.246V95.478h1.246v6.602l6.348-6.602h1.611l-4.738,4.832l4.943,6.223H106.885
		z M108.906,88.582c0,0.05-0.023,0.099-0.059,0.13c-1.127,0.962-3.021,2.109-5.654,2.109c-4.16,0-7.066-2.881-7.066-7.008v-0.037
		c-0.002-3.949,3.086-7.044,7.025-7.044c2.16,0,3.672,0.533,5.219,1.847c0.033,0.027,0.055,0.064,0.057,0.107
		c0.007,0.047-0.008,0.092-0.035,0.125l-1.484,1.773c-0.022,0.031-0.066,0.051-0.104,0.057c-0.084-0.004-0.107-0.02-0.133-0.041
		c-1.006-0.855-1.959-1.385-3.615-1.385c-2.283,0-4.139,2.029-4.139,4.523v0.037c0,2.697,1.787,4.58,4.35,4.58
		c1.088,0,2.179-0.324,3-0.893l0.041-0.031v-0.05v-2.087V85.2h-0.096h-3.137c-0.09,0-0.164-0.076-0.164-0.168v-2.033
		c0-0.092,0.074-0.168,0.164-0.168h5.661c0.091,0,0.169,0.076,0.169,0.168V88.582z"/>
</g>
</svg>
