<?xml version="1.0" encoding="UTF-8"?>
<svg width="64" height="64" version="1.1" viewBox="0 0 16.933 16.933" xmlns="http://www.w3.org/2000/svg">
 <defs>
  <filter id="b" x="-.013633" y="-.010717" width="1.0273" height="1.0214" color-interpolation-filters="sRGB">
   <feGaussianBlur stdDeviation="2.0004419"/>
  </filter>
  <linearGradient id="a" x1="277.71" x2="277.71" y1="-9.2709" y2="252.83" gradientTransform="matrix(0 0 0 0 16.745 .55424)" gradientUnits="userSpaceOnUse">
   <stop stop-color="#deddda" offset="0"/>
   <stop stop-color="#bebcb6" offset="1"/>
  </linearGradient>
 </defs>
 <g transform="matrix(.13788 0 0 .13788 -.4144 -309.4)" stroke-width=".50769">
  <g transform="matrix(.25 0 0 .25 0 2295)" stroke-width=".50769">
   <g stroke-width=".50769">
    <path d="m111.83-178.55h200l120.17 119.67 5e-3 296.24c3.1e-4 17.728-14.449 32.088-32.177 32.088h-288c-17.728 0-32-14.272-32-32v-384c0-17.728 14.272-32 32-32z" enable-background="new" filter="url(#b)" opacity=".4"/>
    <path d="m111.83-179.67h200l120.17 119.67 5e-3 296.24c3.1e-4 17.728-14.449 32.088-32.177 32.088h-288c-17.728 0-32-14.272-32-32v-384c0-17.728 14.272-32 32-32z" enable-background="new" fill="#f6f5f4"/>
    <path d="m311.83-179.67v88c0 17.728 14.442 31.694 32.17 31.694l88.001-0.02222z" enable-background="new" fill="#deddda"/>
   </g>
  </g>
  <rect x="-1.5e-6" y="2242" width="128" height="128" enable-background="new" fill="none" style="paint-order:normal"/>
  <g transform="matrix(0,0,0,0,134.88,2248)" stroke-width="5.4208">
   <path d="m108.05-184.87 208.22 4e-3 120.53 120.53-0.18413 306.27c-0.0108 18.192-14.827 32.929-33.02 32.929h-295.54c-18.192 0-32.838-14.646-32.838-32.838v-394.06c0-18.192 14.646-32.838 32.838-32.838z" enable-background="new" fill="#f6f5f4" stroke="url(#a)" stroke-linejoin="round" stroke-width="21.683"/>
   <path d="m79.828 226.66v9.3347c0 21.78 10.965 33.668 32 33.668h288c21.679 0 32-11.889 32-33.668v-9.3347c0 17.728-14.272 32-32 32h-288c-17.728 0-32-14.272-32-32z" enable-background="new" fill="#deddda" opacity=".417"/>
   <path d="m314.73-179.67-0.13774 85.758c-0.0285 17.728 14.442 31.694 32.17 31.694h85.42z" enable-background="new" fill="#deddda"/>
  </g>
  <g transform="matrix(0,0,0,0,136.44,2265.3)" stroke-width="8.0291">
   <path d="m108.05-182.78 210.2 4e-3 120.53 120.53-0.18413 304.18c-0.011 18.192-14.827 32.929-33.02 32.929h-297.52c-18.192 0-32.838-14.646-32.838-32.838v-391.96c0-22.386 13.468-32.838 32.838-32.838z" enable-background="new" fill="#f6f5f4" stroke="url(#linearGradient7099)" stroke-linejoin="round" stroke-width="32.116"/>
   <path d="m79.828 220.37v14.227c0 21.78 10.965 33.668 32 33.668h288c21.679 0 32-11.889 32-33.668v-14.227c0 17.728-14.272 32-32 32h-288c-17.728 0-32-14.272-32-32z" enable-background="new" fill="#deddda" opacity=".417"/>
   <path d="m304.91-191.5-0.15009 108.06c-0.0268 19.316 15.736 34.533 35.052 34.533h106.59z" enable-background="new" fill="#deddda"/>
  </g>
  <g transform="matrix(0,0,0,0,136.49,2277.1)" stroke-width="11.993">
   <path d="m115.36-182.78 202.89 4e-3 120.53 120.53-0.18413 296.87c-0.0113 18.192-14.827 32.929-33.02 32.929h-290.21c-18.192 0-32.838-14.646-32.838-32.838v-384.65c0-22.386 13.468-32.838 32.838-32.838z" enable-background="new" fill="#f6f5f4" stroke="url(#linearGradient7167)" stroke-linejoin="round" stroke-width="47.974"/>
   <path d="m94.445 200.53v22.579c0 21.78 10.965 33.668 32 33.668h269.21c21.679 0 32-11.889 32-33.668v-22.579c0 17.728-14.272 32-32 32h-269.21c-17.728 0-32-14.272-32-32z" enable-background="new" fill="#deddda" opacity=".417"/>
   <path d="m304.91-191.5-0.15009 108.06c-0.0268 19.316 15.736 34.533 35.052 34.533h106.59z" enable-background="new" fill="#deddda"/>
  </g>
  <g transform="matrix(0,0,0,0,136.47,2286.9)" stroke-width="15.823">
   <path d="m115.36-182.78 190.49 4e-3 120.53 120.53-0.18413 310.64c-0.0108 18.192-14.827 32.929-33.02 32.929h-277.82c-18.192 0-32.838-14.646-32.838-32.838v-398.43c0-22.386 13.468-32.838 32.838-32.838z" enable-background="new" fill="#f6f5f4" stroke="#bebcb6" stroke-linejoin="round" stroke-width="63.293"/>
   <path d="m94.445 203.29v30.844c0 21.78 10.965 33.668 32 33.668h254.06c21.679 0 32-11.889 32-33.668v-30.844c0 17.728-14.272 32-32 32h-254.06c-17.728 0-32-14.272-32-32z" enable-background="new" fill="#deddda" opacity=".417"/>
   <path d="m285.63-188.74-0.15009 108.06c-0.0268 19.316 15.736 34.533 35.052 34.533h106.59z" enable-background="new" fill="#bebcb6"/>
  </g>
 </g>
 <path d="m4.9925 5.1558c0.36803 0.11387 0.71728 0.36143 0.85048 0.69864 0.18099 0.33777 0.21454 0.72781 0.10507 1.0936-0.23828 0.59908-0.81692 0.94125-1.4236 0.77511-0.00936-0.00495-0.023654-0.00495-0.033555-0.0099-0.10507-0.037957-0.15734-0.14689-0.12378-0.25196 0.028605-0.085268 0.12378-0.13313 0.21454-0.10452 0.076466 0.024202 0.11497 0.10947 0.090769 0.18099-0.014303 0.047309-0.057212 0.080867-0.10012 0.085268 0.54462 0.13808 1.1375-0.17108 1.2752-0.70799 0.10507-0.33777 0.071515-0.69919-0.13766-1.0128-0.12475-0.31357-0.40696-0.54681-0.74584-0.65134-0.43019-0.13313-0.88844-0.090218-1.2851 0.11882-0.39608 0.20905-0.6926 0.56112-0.82628 0.97315-0.33886 1.1046 0.27727 2.2643 1.3995 2.6543 0.49181 0.17108 1.0078 0.15183 1.5431 0.037958 0.018704-0.00495 0.037958-0.00495 0.052261-0.00933l0.024206-0.00495c0.31026-0.090219 0.54426-0.29926 0.54426-0.54187 0 0 0.57797 0.19035 1.2084-0.052264 0.82628-0.31851 1.7004-0.65134 2.6368-0.75586h-0.07647c-0.21509-0.037978-0.42029-0.10454-0.60678-0.22336-0.13808-0.085818-0.27176-0.17604-0.38673-0.29046-0.11938-0.10892-0.22445-0.23269-0.32951-0.36088-0.00495-0.00495-0.00936-0.0099-0.00936-0.019252-0.024202-0.042907 0-0.099571 0.042907-0.11882 0.042907-0.023654 0.10012 0 0.11938 0.042907 0.066564 0.13753 0.14303 0.27066 0.23875 0.39444 0.095724 0.11882 0.20519 0.23324 0.34383 0.31357 0.25306 0.15238 0.54956 0.21895 0.86563 0.24261-0.36392-0.13753-0.65548-0.40379-0.80346-0.77456-0.11002-0.27615-0.10507-0.53412 0.014302-0.85103 0.11938-0.27121 0.33943-0.4852 0.61613-0.59468 0.17303-0.090218 0.4731-0.085268 0.69754 0.014303 0.22445 0.09517 0.39168 0.27121 0.48245 0.49951l0.01431 0.042907c0.05226 0.089118 0.02365 0.20905-0.06711 0.2657-0.07647 0.089175-0.18154 0.024202-0.2338-0.056661-0.04291-0.066564-0.01926-0.15679 0.04786-0.1997 0.05226-0.033555 0.11442-0.023654 0.15293 0.014303-0.0049-0.00936-0.0049-0.023654-0.0099-0.033555-0.07647-0.1997-0.2294-0.35647-0.42524-0.44174-0.19584-0.085819-0.41534-0.090769-0.61613-0.0099-0.25306 0.10012-0.45385 0.28991-0.56332 0.53746-0.11002 0.27896-0.11497 0.5226-0.014303 0.77456 0.17659 0.44725 0.58257 0.7421 1.0364 0.79877 0.09076 0 0.18649 0 0.27726 0.00495h0.0286v0.00495c0.30091 0.014303 0.61117 0.056662 0.92639 0.13753-0.01431-0.00438-0.0286-0.00933-0.04291-0.014306 0.05721 0.019255 0.11002 0.033551 0.16228 0.052254 0.0093 0.00495 0.02421 0.00495 0.03355 0.0099 0.0093 0.00438 0.01925 0.00933 0.0286 0.00933 0.0286 0.00933 0.05721 0.018703 0.08142 0.028602 0.0044 0.00438 0.0093 0.00438 0.01431 0.00933 1.4617 0.55616 2.24 2.1724 1.7433 3.6604-0.21359 0.83556-1.0702 1.8726-2.078 2.4859l-0.21984-0.0082c0.67719-0.59508 1.2429-1.2643 1.3336-1.5548 0.04786-0.14688 0.09005-0.30454 0.08069-0.45692-0.0099-0.15183-0.04346-0.30422-0.09077-0.45164-0.01431-0.04731 0.01431-0.09957 0.06216-0.11387 0.0473-0.01431 0.10012 0.01431 0.11442 0.06161 0 0.0049 5e-3 0.01431 5e-3 0.01925 0.0093 0.16173 0.01431 0.32787 0.0044 0.48961-0.0093 0.16173-0.04786 0.31851-0.09077 0.4753-0.05721 0.20905-0.16724 0.39938-0.30091 0.57047l-0.13368 0.11883c0.55892-0.38508 0.9792-0.94621 1.218-1.6686 0.49675-1.4787-0.31522-3.0856-1.8054-3.5752-0.11442-0.037958-0.2294-0.06656-0.34382-0.085814-0.58257-0.06161-0.8934 0.095171-1.0463 0.428 0 0-0.86423 0.10947-1.2559 0.62273-0.085904 0.14302-0.16236 0.29981-0.21517 0.46595-0.15293 0.4566-0.11442 0.94125 0.10012 1.3692 0.21509 0.428 0.58753 0.74651 1.0807 0.89834 0.32874 0.11882 0.71547 0.09077 1.0593-0.07592 0.34437-0.17108 0.59743-0.46099 0.7168-0.82242 0.19089-0.57542-0.11002-1.1932-0.66894-1.4072 0.03355 0.033551 0.04786 0.080865 0.0286 0.13313-0.02365 0.075916-0.10507 0.11883-0.18154 0.095172-0.09076-0.0286-0.13808-0.12378-0.11442-0.20905 0.03355-0.10452 0.13863-0.16173 0.2437-0.13313h0.0044c0.31081 0.10452 0.56882 0.32292 0.71185 0.61284 0.14798 0.29487 0.17219 0.62768 0.06711 0.9418-0.12928 0.38509-0.40159 0.69864-0.76906 0.88403-0.36803 0.18043-0.78336 0.21399-1.1701 0.08582-0.48237-0.1617-0.87405-0.49452-1.1034-0.95112-0.2294-0.45164-0.26735-0.96491-0.10507-1.4452 0.21509-0.64638 0.6926-1.136 1.2809-1.3978v-0.00438c0.17088-0.076468 0.35241-0.13313 0.53889-0.16669-0.03355 0-0.06711-0.00438-0.09572-0.00438-0.13368 0.00438-0.2767 0.018703-0.44317 0.033009 0.15216-0.019255 0.29023-0.033009 0.43876-0.033009h-0.0049c-1.1944-0.0098953-2.3023 0.4181-3.3243 0.81748-0.095721 0.037958-0.19584 0.075916-0.29156 0.11387h-0.00495c-1.0315 0.39505-2.0107 0.72291-2.9234 0.47591l-0.14303-0.042989c-1.18-0.40873-1.8198-1.6212-1.4666-2.7873 0.2393-0.7356 0.94125-1.2252 1.4166-1.2467 0.4753-0.021454 0.65189 0.0022 0.83343 0.059412z" fill="#002447" stroke-width=".26458"/>
 <g transform="matrix(.12046 0 0 .12006 0 1.1399)" fill-rule="evenodd">
  <path d="m15.504 126.93c0.15234 0.64844 0.74219 1.0117 1.3906 0.85937l81.918-19.23c0.64453-0.15234 0.80469-0.70312 0.65625-1.3516z" fill="#c0bfbc" stroke-width="1.1"/>
  <path d="m21.535 86.031 5.6797 24.18 32.543-7.6406zm-20.063-21.172 14.422 61.438 81.918-19.23z" fill="#57e389" fill-opacity=".9" stroke="#3d3846" stroke-width="1.1"/>
  <path transform="matrix(1.1703 -.27476 .27476 1.1703 65.301 -197.08)" d="m-98.5 249.5 1e-3 2.9243" fill="#26a269" stroke="#3d3846" stroke-linecap="round" stroke-width=".91507"/>
  <path transform="matrix(1.1703 -.27476 .27476 1.1703 65.301 -197.08)" d="m-95.493 249.5 0.0018 2.9211" fill="#26a269" stroke="#3d3846" stroke-linecap="round" stroke-width=".91507"/>
  <path transform="matrix(1.1703 -.27476 .27476 1.1703 65.301 -197.08)" d="m-92.485 249.5 1e-3 2.9243" fill="#26a269" stroke="#3d3846" stroke-linecap="round" stroke-width=".91507"/>
  <path transform="matrix(1.1703 -.27476 .27476 1.1703 65.301 -197.08)" d="m-89.478 249.5 0.0018 2.9211" fill="#26a269" stroke="#3d3846" stroke-linecap="round" stroke-width=".91507"/>
  <path transform="matrix(1.1703 -.27476 .27476 1.1703 65.301 -197.08)" d="m-86.47 249.5 1e-3 2.9243" fill="#26a269" stroke="#3d3846" stroke-linecap="round" stroke-width=".91507"/>
  <path transform="matrix(1.1703 -.27476 .27476 1.1703 65.301 -197.08)" d="m-83.462 249.5 1e-3 2.9243" fill="#26a269" stroke="#3d3846" stroke-linecap="round" stroke-width=".91507"/>
  <path transform="matrix(1.1703 -.27476 .27476 1.1703 65.301 -197.08)" d="m-80.452 249.5-0.0021 2.9235" fill="#26a269" stroke="#3d3846" stroke-linecap="round" stroke-width=".91507"/>
  <path transform="matrix(1.1703 -.27476 .27476 1.1703 65.301 -197.08)" d="m-77.444 249.5-0.0021 2.9235" fill="#26a269" stroke="#3d3846" stroke-linecap="round" stroke-width=".91507"/>
  <path transform="matrix(1.1703 -.27476 .27476 1.1703 65.301 -197.08)" d="m-74.437 249.5-0.0014 2.9204" fill="#26a269" stroke="#3d3846" stroke-linecap="round" stroke-width=".91507"/>
  <path transform="matrix(1.1703 -.27476 .27476 1.1703 65.301 -197.08)" d="m-71.429 249.5-0.0021 2.9235" fill="#26a269" stroke="#3d3846" stroke-linecap="round" stroke-width=".91507"/>
  <path transform="matrix(1.1703 -.27476 .27476 1.1703 65.301 -197.08)" d="m-68.422 249.5-0.0014 2.9204" fill="#26a269" stroke="#3d3846" stroke-linecap="round" stroke-width=".91507"/>
  <path transform="matrix(1.1703 -.27476 .27476 1.1703 65.301 -197.08)" d="m-65.415 249.5 1e-3 2.9243" fill="#26a269" stroke="#3d3846" stroke-linecap="round" stroke-width=".91507"/>
  <path transform="matrix(1.1703 -.27476 .27476 1.1703 65.301 -197.08)" d="m-59.4 249.5 1e-3 2.9243" fill="#26a269" stroke="#3d3846" stroke-linecap="round" stroke-width=".91507"/>
  <path transform="matrix(1.1703 -.27476 .27476 1.1703 65.301 -197.08)" d="m-53.385 249.5 1e-3 2.9243" fill="#26a269" stroke="#3d3846" stroke-linecap="round" stroke-width=".91507"/>
  <path transform="matrix(1.1703 -.27476 .27476 1.1703 65.301 -197.08)" d="m-62.407 249.5 0.0018 2.9211" fill="#26a269" stroke="#3d3846" stroke-linecap="round" stroke-width=".91507"/>
  <path transform="matrix(1.1703 -.27476 .27476 1.1703 65.301 -197.08)" d="m-56.392 249.5 1e-3 2.9243" fill="#26a269" stroke="#3d3846" stroke-linecap="round" stroke-width=".91507"/>
  <path transform="matrix(1.1703 -.27476 .27476 1.1703 65.301 -197.08)" d="m-50.377 249.5 1e-3 2.9243" fill="#26a269" stroke="#3d3846" stroke-linecap="round" stroke-width=".91507"/>
  <path transform="matrix(1.1703 -.27476 .27476 1.1703 65.301 -197.08)" d="m-47.37 249.5 0.0018 2.9211" fill="#26a269" stroke="#3d3846" stroke-linecap="round" stroke-width=".91507"/>
  <path transform="matrix(1.1703 -.27476 .27476 1.1703 65.301 -197.08)" d="m-44.359 249.5-0.0021 2.9235" fill="#26a269" stroke="#3d3846" stroke-linecap="round" stroke-width=".91507"/>
  <path transform="matrix(1.1703 -.27476 .27476 1.1703 65.301 -197.08)" d="m-41.352 249.5-0.0014 2.9204" fill="#26a269" stroke="#3d3846" stroke-linecap="round" stroke-width=".91507"/>
  <path transform="matrix(1.1703 -.27476 .27476 1.1703 65.301 -197.08)" d="m-38.344 249.5-0.0021 2.9235" fill="#26a269" stroke="#3d3846" stroke-linecap="round" stroke-width=".91507"/>
 </g>
</svg>
