<?xml version="1.0" encoding="UTF-8" standalone="no"?>
<svg xmlns:svg="http://www.w3.org/2000/svg" xmlns="http://www.w3.org/2000/svg" width="300px" height="300px" viewBox="95 10 320 320">
<defs>
  <linearGradient id="g1" x1="383.94928" y1="213" x2="115" y2="213"
     gradientUnits="userSpaceOnUse">
  <stop offset="0.0" style="stop-color:#608;"/>
  <stop offset="0.5" style="stop-color:#f00;"/>
  <stop offset="0.8" style="stop-color:#fa0;"/>
  <stop offset="1.0" style="stop-color:#ffa;"/>
</linearGradient>
<linearGradient id="g2" x1="305" y1="90" x2="227" y2="300" gradientUnits="userSpaceOnUse">
  <stop offset="0.0" style="stop-color:#44f;stop-opacity:0.8;"/>
  <stop offset="0.3" style="stop-color:#0ff;stop-opacity:0.4;"/>
  <stop offset="1.0" style="stop-color:#0f4;stop-opacity:1.0;"/>
</linearGradient>
</defs>
<path style="fill:#fff;opacity:0.4" d="m232.6,296.8c5.9,3.1 21.3,7.1 30.9,-5.2L382.6,137.5c6,-10.3-2.9,-16.4-9.3,-15.3-54.1,8.6-106.8,-16.6-135.8,-64-5.3,-9-17.9,-4.7-17.9,4.2 0,17.8 1,150.1 0.6,212.9-0.7,9.4 3.3,16.6 12.3,21.3z"/>
<path style="fill:url(#g1)" d="m 220,300 h -20 c -46.4,0 -84,-37.6 -84,-84 0,-46.4 37.6,-83.9 84,-84 l 55.96733,0.002 c 3.36789,0.0516 4.76649,0.46398 7.92991,4.06 35.33269,43.28211 90.88214,111.02799 118.72578,148.14318 5.58281,10.0215 -3.19877,15.22279 -6.87016,15.21342"/>
<path style="fill:url(#g2)" d="m 232.6,296.8 c 5.9,3.1 21.56657,6.56595 31.20303,-5.04848 L 382.6,137.5 c 6,-10.3 -2.9,-16.4 -9.3,-15.3 -54.1,8.6 -106.8,-16.6 -135.8,-64 -5.3,-9 -17.9,-4.7 -17.9,4.2 0,17.8 1,150.1 0.6,212.9 0.1173,8.53677 4.73877,15.95604 12.3,21.3 z"/>
</svg>
