<?xml version="1.0" encoding="UTF-8" standalone="no"?>
<svg
   xmlns:dc="http://purl.org/dc/elements/1.1/"
   xmlns:cc="http://creativecommons.org/ns#"
   xmlns:rdf="http://www.w3.org/1999/02/22-rdf-syntax-ns#"
   xmlns:svg="http://www.w3.org/2000/svg"
   xmlns="http://www.w3.org/2000/svg"
   version="1.1"
   id="svg4284"
   viewBox="0 0 63.999999 63.999999"
   height="64"
   width="64">
  <defs
     id="defs4286" />
  <metadata
     id="metadata4289">
    <rdf:RDF>
      <cc:Work
         rdf:about="">
        <dc:format>image/svg+xml</dc:format>
        <dc:type
           rdf:resource="http://purl.org/dc/dcmitype/StillImage" />
        <dc:title>CuteMaze Icon</dc:title>
        <dc:date>2009-09-19</dc:date>
        <dc:creator>
          <cc:Agent>
            <dc:title>Graeme Gott</dc:title>
          </cc:Agent>
        </dc:creator>
        <cc:license
           rdf:resource="http://www.gnu.org/licenses/gpl-3.0.txt" />
      </cc:Work>
    </rdf:RDF>
  </metadata>
  <g
     transform="translate(0,-988.3622)"
     id="layer1">
    <path
       style="fill:#f2c7ce;fill-opacity:1;stroke:#000000;stroke-width:1;stroke-linecap:round;stroke-linejoin:round;stroke-miterlimit:4;stroke-dasharray:none;stroke-opacity:1"
       id="path3180"
       d="m 23.792421,1017.6266 c -1.791657,-0.5296 -1.791742,-3.3907 -3.036689,-3.6171 -0.511403,0.474 -0.840153,1.1365 -1.510799,1.3713 -0.337129,0.9537 0.743275,1.7328 1.158873,2.4961 0.751644,0.7241 2.576767,1.3224 3.751481,2.1083" />
    <path
       style="fill:none;fill-opacity:1;stroke:#000000;stroke-width:1;stroke-linecap:round;stroke-linejoin:round;stroke-miterlimit:4;stroke-dasharray:none;stroke-opacity:1"
       id="path3207"
       d="m 30.057204,993.42197 c -2.25181,0.29536 -5.237237,-1.60178 -6.865189,0.79932" />
    <path
       style="fill:none;fill-opacity:1;stroke:#000000;stroke-width:1;stroke-linecap:round;stroke-linejoin:round;stroke-miterlimit:4;stroke-dasharray:none;stroke-opacity:1"
       id="path3209"
       d="m 34.481566,993.218 c 1.409296,-0.0239 2.950874,-0.52053 4.243449,0.2829" />
    <path
       style="fill:none;fill-opacity:1;stroke:#000000;stroke-width:1;stroke-linecap:round;stroke-linejoin:round;stroke-miterlimit:4;stroke-dasharray:none;stroke-opacity:1"
       id="path3211"
       d="m 29.955221,995.19828 c -2.260239,0.94212 -5.572234,-1.67759 -7.072415,1.13158" />
    <path
       style="fill:none;fill-opacity:1;stroke:#000000;stroke-width:1;stroke-linecap:round;stroke-linejoin:round;stroke-miterlimit:4;stroke-dasharray:none;stroke-opacity:1"
       id="path3213"
       d="m 34.481566,995.19828 c 1.589004,0.30582 3.590572,-0.61257 4.809243,0.84869" />
    <path
       style="fill:#f2c7ce;fill-opacity:1;stroke:#000000;stroke-width:1;stroke-linecap:round;stroke-linejoin:round;stroke-miterlimit:4;stroke-dasharray:none;stroke-opacity:1"
       id="path3221"
       d="m 30.521014,1025.1853 c -1.151058,5.7035 -0.245685,11.5333 -0.55053,17.2924 0.240733,2.9452 -0.411427,6.0445 0.776161,8.8515 0.995209,0.7986 0.643,-1.3237 0.826317,-1.9177 0.168864,-3.0213 -0.209155,-6.0592 0.211515,-9.0691 0.265389,-2.8334 0.202396,-5.6797 0.200971,-8.5207 0.02626,-2.2834 0.128788,-4.5862 0.670444,-6.814" />
    <path
       style="fill:#a2680f;fill-opacity:1;stroke:#000000;stroke-width:1;stroke-linecap:round;stroke-linejoin:round;stroke-miterlimit:4;stroke-dasharray:none;stroke-opacity:1"
       id="path3203"
       d="m 31.086808,991.23773 c 3.665927,0.74664 3.532354,5.19886 4.268779,8.06027 1.587324,3.2083 3.996389,7.8625 3.960859,11.8503 0.403151,3.5851 0.245438,4.4282 -0.49269,7.8628 -1.215779,3.3027 -4.313446,7.0257 -8.205534,6.286 -4.91497,-1.0244 -7.700157,-6.41 -7.060926,-11.1471 -0.02407,-3.8955 0.309717,-8.2357 3.123481,-11.2182 1.711419,-3.79763 1.066981,-8.69825 4.406031,-11.69407 z" />
    <path
       style="fill:#f2c7ce;fill-opacity:1;stroke:#000000;stroke-width:1;stroke-linecap:round;stroke-linejoin:round;stroke-miterlimit:4;stroke-dasharray:none;stroke-opacity:1"
       id="path3201"
       d="m 30.781005,989.39732 c -2.743345,1.16475 1.397968,4.97132 2.348084,2.07805 0.59303,-1.34291 -1.105038,-2.73612 -2.348084,-2.07805 z" />
    <path
       style="fill:#c7bb89;fill-opacity:1;stroke:#000000;stroke-width:1;stroke-linecap:round;stroke-linejoin:round;stroke-miterlimit:4;stroke-dasharray:none;stroke-opacity:1"
       id="path3215"
       d="m 27.616377,1000.1736 c -2.428507,0.6256 -6.068891,-0.18371 -7.325974,2.5634 -0.177992,3.8211 6.302765,4.1605 8.116701,1.4028 0.975806,-1.2118 0.860085,-3.4056 -0.790727,-3.9662 z" />
    <path
       style="fill:#c7bb89;fill-opacity:1;stroke:#000000;stroke-width:1;stroke-linecap:round;stroke-linejoin:round;stroke-miterlimit:4;stroke-dasharray:none;stroke-opacity:1"
       id="path3217"
       d="m 34.66696,1003.3155 c 1.772589,3.2529 7.087703,6.207 7.690454,1.9284 0.516811,-6.00159 -8.438121,-7.68532 -7.690454,-1.9284 z" />
    <path
       style="fill:#f2c7ce;fill-opacity:1;stroke:#000000;stroke-width:1;stroke-linecap:round;stroke-linejoin:round;stroke-miterlimit:4;stroke-dasharray:none;stroke-opacity:1"
       id="path4151"
       d="m 38.579296,1020.4388 c 0.987637,-0.7815 2.221714,-1.1886 3.140862,-2.0699 0.589673,-0.6205 2.32371,-1.8858 1.258427,-2.6464 -0.797407,0.1191 -0.891558,-1.5285 -1.851562,-0.6642 -0.604,0.6232 -1.088478,1.3551 -1.640556,2.024" />
    <path
       style="fill:#000000;fill-opacity:1;stroke:#000000;stroke-width:1;stroke-linecap:round;stroke-linejoin:round;stroke-miterlimit:4;stroke-dasharray:none;stroke-opacity:1"
       id="path2188"
       d="m 30.056796,997.46725 c -0.765996,0.34764 -1.080421,0.90577 -0.425612,1.56057 0.703377,0.70338 1.134966,-0.44338 1.134966,-0.99309 0,-0.30281 -0.472902,-0.37832 -0.709354,-0.56748 z" />
    <path
       style="fill:#000000;fill-opacity:1;stroke:#000000;stroke-width:1;stroke-linecap:round;stroke-linejoin:round;stroke-miterlimit:4;stroke-dasharray:none;stroke-opacity:1"
       id="path2190"
       d="m 33.036082,997.32538 c 0,-0.50934 -0.795264,0.96314 -0.567484,1.4187 0.302455,0.60491 1.403808,0.25394 0.993096,-0.56748 -0.02991,-0.0598 -0.09458,-0.0946 -0.141871,-0.14187 -0.180076,-0.18008 -0.189161,-0.4729 -0.283741,-0.70935 z" />
  </g>
</svg>
