<svg height="128" width="128" xmlns:xlink="http://www.w3.org/1999/xlink" xmlns="http://www.w3.org/2000/svg"><defs><clipPath id="t"><path d="M24 70h80v12H24zm0 0"/></clipPath><clipPath id="u"><path d="M24 70v2h18c0 3.574 1.906 6.875 5 8.66s6.906 1.785 10 0a10.015 10.015 0 0 0 4.793-6.73v.097c.207-2.675 4.207-2.656 4.414 0v-.113A10.003 10.003 0 0 0 71 80.66c3.094 1.785 6.906 1.785 10 0s5-5.086 5-8.66h18v-2zm0 0"/></clipPath><clipPath id="v"><path d="M38 70h20v12H38zm0 0"/></clipPath><clipPath id="w"><path d="M24 70v2h18c0 3.574 1.906 6.875 5 8.66s6.906 1.785 10 0a10.015 10.015 0 0 0 4.793-6.73v.097c.207-2.675 4.207-2.656 4.414 0v-.113A10.003 10.003 0 0 0 71 80.66c3.094 1.785 6.906 1.785 10 0s5-5.086 5-8.66h18v-2zm0 0"/></clipPath><clipPath id="x"><path d="M47 70h18v12H47zm0 0"/></clipPath><clipPath id="y"><path d="M24 70v2h18c0 3.574 1.906 6.875 5 8.66s6.906 1.785 10 0a10.015 10.015 0 0 0 4.793-6.73v.097c.207-2.675 4.207-2.656 4.414 0v-.113A10.003 10.003 0 0 0 71 80.66c3.094 1.785 6.906 1.785 10 0s5-5.086 5-8.66h18v-2zm0 0"/></clipPath><clipPath id="z"><path d="M70 70h18v12H70zm0 0"/></clipPath><clipPath id="A"><path d="M24 70v2h18c0 3.574 1.906 6.875 5 8.66s6.906 1.785 10 0a10.015 10.015 0 0 0 4.793-6.73v.097c.207-2.675 4.207-2.656 4.414 0v-.113A10.003 10.003 0 0 0 71 80.66c3.094 1.785 6.906 1.785 10 0s5-5.086 5-8.66h18v-2zm0 0"/></clipPath><clipPath id="b"><path d="M0 0h192v152H0z"/></clipPath><clipPath id="i"><path d="M24 70h80v12H24zm0 0"/></clipPath><clipPath id="j"><path d="M24 70v2h18c0 3.574 1.906 6.875 5 8.66s6.906 1.785 10 0a10.015 10.015 0 0 0 4.793-6.73v.097c.207-2.675 4.207-2.656 4.414 0v-.113A10.003 10.003 0 0 0 71 80.66c3.094 1.785 6.906 1.785 10 0s5-5.086 5-8.66h18v-2zm0 0"/></clipPath><clipPath id="l"><path d="M38 70h20v12H38zm0 0"/></clipPath><clipPath id="m"><path d="M24 70v2h18c0 3.574 1.906 6.875 5 8.66s6.906 1.785 10 0a10.015 10.015 0 0 0 4.793-6.73v.097c.207-2.675 4.207-2.656 4.414 0v-.113A10.003 10.003 0 0 0 71 80.66c3.094 1.785 6.906 1.785 10 0s5-5.086 5-8.66h18v-2zm0 0"/></clipPath><clipPath id="n"><path d="M47 70h18v12H47zm0 0"/></clipPath><clipPath id="o"><path d="M24 70v2h18c0 3.574 1.906 6.875 5 8.66s6.906 1.785 10 0a10.015 10.015 0 0 0 4.793-6.73v.097c.207-2.675 4.207-2.656 4.414 0v-.113A10.003 10.003 0 0 0 71 80.66c3.094 1.785 6.906 1.785 10 0s5-5.086 5-8.66h18v-2zm0 0"/></clipPath><clipPath id="p"><path d="M70 70h18v12H70zm0 0"/></clipPath><clipPath id="q"><path d="M24 70v2h18c0 3.574 1.906 6.875 5 8.66s6.906 1.785 10 0a10.015 10.015 0 0 0 4.793-6.73v.097c.207-2.675 4.207-2.656 4.414 0v-.113A10.003 10.003 0 0 0 71 80.66c3.094 1.785 6.906 1.785 10 0s5-5.086 5-8.66h18v-2zm0 0"/></clipPath><clipPath id="d"><path d="M0 0h128v128H0z"/></clipPath><clipPath id="c"><path d="M0 0h128v128H0z"/></clipPath><clipPath id="D"><path d="M0 0h128v128H0z"/></clipPath><clipPath clipPathUnits="userSpaceOnUse" id="B"><path style="fill:url(#r)" d="M16 92v17.84c0 .345.035.682.09 1.012H16A9.13 9.13 0 0 0 25.148 120h77.704a9.13 9.13 0 0 0 9.148-9.148h-.09c.055-.33.09-.667.09-1.012V92l-4.48 3.36a19.862 19.862 0 0 1-7.825 3.546l-29.472 6.203a6.55 6.55 0 0 0-5.07 5.121l-.126.622h-2.054l-.125-.622a6.55 6.55 0 0 0-5.07-5.12l-29.473-6.204a19.862 19.862 0 0 1-7.825-3.547z"/></clipPath><linearGradient id="e" gradientUnits="userSpaceOnUse" x1="15.952" x2="111.993" y1="118.187" y2="118.187"><stop offset="0" stop-color="#8d6542"/><stop offset=".056" stop-color="#bb926f" stop-opacity=".988"/><stop offset=".123" stop-color="#8d6542" stop-opacity=".976"/><stop offset=".87" stop-color="#8d6542" stop-opacity=".871"/><stop offset=".926" stop-color="#60452d" stop-opacity=".863"/><stop offset="1" stop-color="#8d6542" stop-opacity=".855"/></linearGradient><linearGradient id="f" gradientUnits="userSpaceOnUse" x1="28" x2="102.852" y1="90" y2="90"><stop offset="0" stop-color="#e5ca89"/><stop offset=".267" stop-color="#fadb8a"/><stop offset="1" stop-color="#dbb55b"/></linearGradient><linearGradient id="k" gradientUnits="userSpaceOnUse" x1="32" x2="89" y1="77" y2="77"><stop offset="0" stop-color="#3d3846"/><stop offset=".387" stop-color="#4f485a"/><stop offset="1" stop-color="#201d24"/></linearGradient><linearGradient id="F" gradientTransform="matrix(0 .37 -.98462 0 295.385 -30.36)" gradientUnits="userSpaceOnUse" x1="300" x2="428" y1="235" y2="235"><stop offset="0" stop-color="#f9f06b"/><stop offset="1" stop-color="#f5c211"/></linearGradient><linearGradient xlink:href="#e" id="r" gradientUnits="userSpaceOnUse" x1="15.952" y1="118.187" x2="111.993" y2="118.187"/><mask id="s"><g filter="url(#a)"><path fill-opacity=".171" d="M0 0h128v128H0z"/></g></mask><mask id="g"><g filter="url(#a)"><path fill-opacity=".171" d="M0 0h128v128H0z"/></g></mask><mask id="C"><g clip-path="url(#c)" filter="url(#a)"><g clip-path="url(#d)"><path d="M18.418 94A2.412 2.412 0 0 0 16 96.418v14.434A9.13 9.13 0 0 0 25.148 120h77.704a9.13 9.13 0 0 0 9.148-9.148V96.418A2.412 2.412 0 0 0 109.582 94zm0 0" fill="url(#e)"/><path d="M18.418 88A2.412 2.412 0 0 0 16 90.418v14.434A9.13 9.13 0 0 0 25.148 114h77.704a9.13 9.13 0 0 0 9.148-9.148V90.418A2.412 2.412 0 0 0 109.582 88zm0 0" fill="#b5835a"/><path d="M18.418 90A2.412 2.412 0 0 0 16 92.418v14.434A9.13 9.13 0 0 0 25.148 116h77.704a9.13 9.13 0 0 0 9.148-9.148V92.418A2.412 2.412 0 0 0 109.582 90zm0 0" fill="#664930"/><path d="M26.25 56h75.5c1.242 0 2.25 1.082 2.25 2.418v55.164c0 1.336-1.008 2.418-2.25 2.418h-75.5c-1.242 0-2.25-1.082-2.25-2.418V58.418C24 57.082 25.008 56 26.25 56zm0 0" fill="url(#f)"/><path d="m110.703 92.969-5.406 4.054a6.527 6.527 0 0 1-2.899 1.223l-32.136 5.082a6.028 6.028 0 0 0-5 4.922l-1.332 7.668 41.914-1.672A6.412 6.412 0 0 0 112 107.84V93.617a.807.807 0 0 0-.45-.726.803.803 0 0 0-.847.078zm0 0" fill-opacity=".146"/><path d="M24 72v2h18c0 3.574 1.906 6.875 5 8.66s6.906 1.785 10 0a10.015 10.015 0 0 0 4.793-6.73v.097c.207-2.675 4.207-2.656 4.414 0v-.113A10.003 10.003 0 0 0 71 82.66c3.094 1.785 6.906 1.785 10 0s5-5.086 5-8.66h18v-2zm0 0" fill-opacity=".261"/><path d="m17.227 92.969 5.406 4.054a6.527 6.527 0 0 0 2.898 1.223l32.137 5.082a6.028 6.028 0 0 1 5 4.922L64 115.918l-41.914-1.672a6.412 6.412 0 0 1-6.156-6.406V93.617c0-.308.172-.59.449-.726a.803.803 0 0 1 .848.078zm0 0" fill-opacity=".146"/><path d="m16 92 4.48 3.36a19.862 19.862 0 0 0 7.825 3.546l29.472 6.203a6.55 6.55 0 0 1 5.07 5.121L64 116H22.16a6.16 6.16 0 0 1-6.16-6.16zm0 0" fill="#b5835a"/><path d="m112 92-4.48 3.36a19.862 19.862 0 0 1-7.825 3.546l-29.472 6.203a6.55 6.55 0 0 0-5.07 5.121L64 116h41.84a6.16 6.16 0 0 0 6.16-6.16zm0 0" fill="#9e6e47"/><path d="m16 60 21.64-46.887a4.32 4.32 0 0 1 6.688-1.508l15.344 12.79a6.76 6.76 0 0 0 8.656 0l15.344-12.79a4.32 4.32 0 0 1 6.688 1.508L112 60zm0 0" fill="#986a44"/><path d="M86.688 20.512a4.72 4.72 0 0 1 4.078 2.379L111.973 60H64.027V35.95a6.752 6.752 0 0 0 4.274-1.555l15.344-12.79a4.721 4.721 0 0 1 3.043-1.093zm0 0" fill="#8f6440"/><use mask="url(#g)" transform="translate(-8 -16)" xlink:href="#h"/><path d="M12 56h104c2.21 0 4 1.79 4 4s-1.79 4-4 4H12c-2.21 0-4-1.79-4-4s1.79-4 4-4zm0 0" fill="#b5835a" fill-opacity=".959"/><g clip-path="url(#i)"><g clip-path="url(#j)"><path d="M24.418 68h78.164A2.417 2.417 0 0 1 105 70.418v11.164A2.417 2.417 0 0 1 102.582 84H24.418A2.417 2.417 0 0 1 22 81.582V70.418A2.417 2.417 0 0 1 24.418 68zm0 0" fill="url(#k)"/></g></g><g clip-path="url(#l)"><g clip-path="url(#m)"><path d="m54.188 65 3.539 3.535-15.454 15.45-3.535-3.536zm0 0" fill="#5e5c64"/></g></g><g clip-path="url(#n)"><g clip-path="url(#o)"><path d="m62.727 67.043 1.492 1.492-15.45 15.45-1.496-1.493zm0 0" fill="#5e5c64"/></g></g><g clip-path="url(#p)"><g clip-path="url(#q)"><path d="m85.98 67.043 1.493 1.492-15.453 15.45-1.493-1.493zm0 0" fill="#5e5c64"/></g></g></g></g></mask><mask id="E"><g filter="url(#a)"><path fill-opacity=".8" d="M0 0h128v128H0z"/></g></mask><filter id="a" height="1" width="1" x="0" y="0"><feColorMatrix in="SourceGraphic" values="0 0 0 0 1 0 0 0 0 1 0 0 0 0 1 0 0 0 1 0"/></filter><g id="h" clip-path="url(#b)"><path d="m111.73 76.027-79.699-.07-.14 8.211 80.16 12.031zm0 0"/></g></defs><path d="M18.418 94A2.412 2.412 0 0 0 16 96.418v14.434A9.13 9.13 0 0 0 25.148 120h77.704a9.13 9.13 0 0 0 9.148-9.148V96.418A2.412 2.412 0 0 0 109.582 94zm0 0" fill="url(#e)"/><path d="M18.418 88A2.412 2.412 0 0 0 16 90.418v14.434A9.13 9.13 0 0 0 25.148 114h77.704a9.13 9.13 0 0 0 9.148-9.148V90.418A2.412 2.412 0 0 0 109.582 88zm0 0" fill="#b5835a"/><path d="M18.418 90A2.412 2.412 0 0 0 16 92.418v14.434A9.13 9.13 0 0 0 25.148 116h77.704a9.13 9.13 0 0 0 9.148-9.148V92.418A2.412 2.412 0 0 0 109.582 90zm0 0" fill="#664930"/><path d="M26.25 56h75.5c1.242 0 2.25 1.082 2.25 2.418v55.164c0 1.336-1.008 2.418-2.25 2.418h-75.5c-1.242 0-2.25-1.082-2.25-2.418V58.418C24 57.082 25.008 56 26.25 56zm0 0" fill="url(#f)"/><path d="m110.703 92.969-5.406 4.054a6.527 6.527 0 0 1-2.899 1.223l-32.136 5.082a6.028 6.028 0 0 0-5 4.922l-1.332 7.668 41.914-1.672A6.412 6.412 0 0 0 112 107.84V93.617a.807.807 0 0 0-.45-.726.803.803 0 0 0-.847.078zm0 0" fill-opacity=".146"/><path d="M24 72v2h18c0 3.574 1.906 6.875 5 8.66s6.906 1.785 10 0a10.015 10.015 0 0 0 4.793-6.73v.097c.207-2.675 4.207-2.656 4.414 0v-.113A10.003 10.003 0 0 0 71 82.66c3.094 1.785 6.906 1.785 10 0s5-5.086 5-8.66h18v-2zm0 0" fill-opacity=".261"/><path d="m17.227 92.969 5.406 4.054a6.527 6.527 0 0 0 2.898 1.223l32.137 5.082a6.028 6.028 0 0 1 5 4.922L64 115.918l-41.914-1.672a6.412 6.412 0 0 1-6.156-6.406V93.617c0-.308.172-.59.449-.726a.803.803 0 0 1 .848.078zm0 0" fill-opacity=".146"/><path d="m16 92 4.48 3.36a19.862 19.862 0 0 0 7.825 3.546l29.472 6.203a6.55 6.55 0 0 1 5.07 5.121L64 116H22.16a6.16 6.16 0 0 1-6.16-6.16zm0 0" fill="#b5835a"/><path d="m112 92-4.48 3.36a19.862 19.862 0 0 1-7.825 3.546l-29.472 6.203a6.55 6.55 0 0 0-5.07 5.121L64 116h41.84a6.16 6.16 0 0 0 6.16-6.16zm0 0" fill="#9e6e47"/><path d="m16 60 21.64-46.887a4.32 4.32 0 0 1 6.688-1.508l15.344 12.79a6.76 6.76 0 0 0 8.656 0l15.344-12.79a4.32 4.32 0 0 1 6.688 1.508L112 60zm0 0" fill="#986a44"/><path d="M86.688 20.512a4.72 4.72 0 0 1 4.078 2.379L111.973 60H64.027V35.95a6.752 6.752 0 0 0 4.274-1.555l15.344-12.79a4.721 4.721 0 0 1 3.043-1.093zm0 0" fill="#8f6440"/><use mask="url(#s)" transform="translate(-8 -16)" xlink:href="#h"/><path d="M12 56h104c2.21 0 4 1.79 4 4s-1.79 4-4 4H12c-2.21 0-4-1.79-4-4s1.79-4 4-4zm0 0" fill="#b5835a" fill-opacity=".959"/><g clip-path="url(#t)"><g clip-path="url(#u)"><path d="M24.418 68h78.164A2.417 2.417 0 0 1 105 70.418v11.164A2.417 2.417 0 0 1 102.582 84H24.418A2.417 2.417 0 0 1 22 81.582V70.418A2.417 2.417 0 0 1 24.418 68zm0 0" fill="url(#k)"/></g></g><g clip-path="url(#v)"><g clip-path="url(#w)"><path d="m54.188 65 3.539 3.535-15.454 15.45-3.535-3.536zm0 0" fill="#5e5c64"/></g></g><g clip-path="url(#x)"><g clip-path="url(#y)"><path d="m62.727 67.043 1.492 1.492-15.45 15.45-1.496-1.493zm0 0" fill="#5e5c64"/></g></g><g clip-path="url(#z)"><g clip-path="url(#A)"><path d="m85.98 67.043 1.493 1.492-15.453 15.45-1.493-1.493zm0 0" fill="#5e5c64"/></g></g><g clip-path="url(#B)" mask="url(#C)"><g clip-path="url(#D)" mask="url(#E)"><path d="M128 80.64V128H0V80.64Zm0 0" fill="url(#F)" style="fill:url(#F)"/><path d="M13.309 80.64 60.664 128H81.88l-47.36-47.36Zm42.421 0L103.094 128h21.215L76.945 80.64Zm42.43 0L128 110.48V89.27l-8.629-8.63zM0 88.548v21.215L18.238 128h21.215zm0 0"/></g></g></svg>