<?xml version="1.0" encoding="UTF-8" standalone="no"?>
<!--
SPDX-License-Identifier: CC-BY-SA-4.0
SPDX-FileCopyrightText: Jakub Steiner <jimmac@gmail.com>
-->

<svg
   xmlns:dc="http://purl.org/dc/elements/1.1/"
   xmlns:cc="http://creativecommons.org/ns#"
   xmlns:rdf="http://www.w3.org/1999/02/22-rdf-syntax-ns#"
   xmlns:svg="http://www.w3.org/2000/svg"
   xmlns="http://www.w3.org/2000/svg"
   xmlns:xlink="http://www.w3.org/1999/xlink"
   xmlns:sodipodi="http://sodipodi.sourceforge.net/DTD/sodipodi-0.dtd"
   xmlns:inkscape="http://www.inkscape.org/namespaces/inkscape"
   width="128"
   height="128"
   version="1.0"
   id="svg123"
   sodipodi:docname="org.gnome.DejaDup.svg"
   inkscape:version="0.92.4 (5da689c313, 2019-01-14)">
  <metadata
     id="metadata127">
    <rdf:RDF>
      <cc:Work
         rdf:about="">
        <dc:format>image/svg+xml</dc:format>
        <dc:type
           rdf:resource="http://purl.org/dc/dcmitype/StillImage" />
        <dc:title></dc:title>
      </cc:Work>
    </rdf:RDF>
  </metadata>
  <sodipodi:namedview
     pagecolor="#ffffff"
     bordercolor="#666666"
     borderopacity="1"
     objecttolerance="10"
     gridtolerance="10"
     guidetolerance="10"
     inkscape:pageopacity="0"
     inkscape:pageshadow="2"
     inkscape:window-width="1191"
     inkscape:window-height="783"
     id="namedview125"
     showgrid="false"
     inkscape:zoom="1.84375"
     inkscape:cx="4.6101695"
     inkscape:cy="61.559322"
     inkscape:window-x="70"
     inkscape:window-y="27"
     inkscape:window-maximized="0"
     inkscape:current-layer="svg123" />
  <defs
     id="defs69">
    <linearGradient
       id="e">
      <stop
         offset="0"
         stop-color="#deddda"
         id="stop2" />
      <stop
         offset="1"
         stop-color="#77767b"
         id="stop4" />
    </linearGradient>
    <linearGradient
       id="f">
      <stop
         offset="0"
         stop-color="#deddda"
         id="stop7" />
      <stop
         offset="1"
         stop-color="#77767b"
         id="stop9" />
    </linearGradient>
    <linearGradient
       id="g">
      <stop
         offset="0"
         stop-color="#9a9996"
         id="stop12" />
      <stop
         offset="1"
         stop-color="#77767b"
         id="stop14" />
    </linearGradient>
    <linearGradient
       id="h">
      <stop
         offset="0"
         stop-color="#3d3846"
         id="stop17" />
      <stop
         offset=".045"
         stop-color="#5e5c64"
         id="stop19" />
      <stop
         offset=".091"
         stop-color="#3d3846"
         id="stop21" />
      <stop
         offset=".909"
         stop-color="#3d3846"
         id="stop23" />
      <stop
         offset=".955"
         stop-color="#5e5c64"
         id="stop25" />
      <stop
         offset="1"
         stop-color="#3d3846"
         id="stop27" />
    </linearGradient>
    <linearGradient
       id="a">
      <stop
         offset="0"
         stop-color="#d5d3cf"
         id="stop30" />
      <stop
         offset="1"
         stop-color="#f6f5f4"
         id="stop32" />
    </linearGradient>
    <linearGradient
       id="b">
      <stop
         offset="0"
         stop-color="#d5d3cf"
         id="stop35" />
      <stop
         offset="1"
         stop-color="#949390"
         id="stop37" />
    </linearGradient>
    <linearGradient
       id="c">
      <stop
         offset="0"
         stop-color="#9a9996"
         id="stop40" />
      <stop
         offset="1"
         stop-color="#77767b"
         id="stop42" />
    </linearGradient>
    <linearGradient
       id="i">
      <stop
         offset="0"
         stop-color="#deddda"
         id="stop45" />
      <stop
         offset="1"
         stop-color="#c0bfbc"
         id="stop47" />
    </linearGradient>
    <linearGradient
       id="d">
      <stop
         offset="0"
         stop-color="#c0bfbc"
         id="stop50" />
      <stop
         offset=".351"
         stop-color="#fff"
         id="stop52" />
      <stop
         offset=".602"
         stop-color="#9a9996"
         id="stop54" />
      <stop
         offset="1"
         stop-color="#77767b"
         id="stop56" />
    </linearGradient>
    <linearGradient
       xlink:href="#d"
       id="o"
       gradientUnits="userSpaceOnUse"
       gradientTransform="matrix(.75 0 0 .7 -29 80)"
       x1="60"
       y1="199.856"
       x2="68"
       y2="199.856" />
    <radialGradient
       xlink:href="#e"
       id="m"
       gradientUnits="userSpaceOnUse"
       gradientTransform="matrix(.75 0 0 .75 -42.25 16)"
       cx="-223"
       cy="64"
       fx="-223"
       fy="64"
       r="24" />
    <linearGradient
       xlink:href="#d"
       id="n"
       gradientUnits="userSpaceOnUse"
       gradientTransform="matrix(.75 0 0 .7 -29 113)"
       x1="60"
       y1="199.856"
       x2="68"
       y2="199.856" />
    <radialGradient
       xlink:href="#f"
       id="l"
       gradientUnits="userSpaceOnUse"
       gradientTransform="matrix(.77778 0 0 .77778 -35.306 14.222)"
       cx="-223"
       cy="64"
       fx="-223"
       fy="64"
       r="24" />
    <linearGradient
       xlink:href="#g"
       id="k"
       gradientUnits="userSpaceOnUse"
       gradientTransform="matrix(.8372 0 0 1.22857 -117.581 -49.114)"
       x1="83.111"
       y1="199.512"
       x2="102.222"
       y2="289.047" />
    <linearGradient
       xlink:href="#h"
       id="j"
       gradientUnits="userSpaceOnUse"
       gradientTransform="matrix(.21154 0 0 .25 9.846 229)"
       x1="48"
       y1="204"
       x2="464"
       y2="204" />
    <radialGradient
       xlink:href="#i"
       id="p"
       gradientUnits="userSpaceOnUse"
       gradientTransform="translate(-104.556 -33.778) scale(.47222)"
       cx="-236"
       cy="-64"
       fx="-236"
       fy="-64"
       r="12" />
    <linearGradient
       xlink:href="#d"
       id="r"
       gradientUnits="userSpaceOnUse"
       gradientTransform="scale(-1 1) rotate(30 -5.577 44.98)"
       x1="50.981"
       y1="248.218"
       x2="50.981"
       y2="252.218" />
    <linearGradient
       xlink:href="#d"
       id="q"
       gradientUnits="userSpaceOnUse"
       gradientTransform="rotate(30 58.423 283.831)"
       x1="50.981"
       y1="248.218"
       x2="50.981"
       y2="252.218" />
    <linearGradient
       xlink:href="#d"
       id="s"
       gradientUnits="userSpaceOnUse"
       gradientTransform="matrix(0 1 1 0 -186.218 202.02)"
       x1="50.981"
       y1="248.218"
       x2="50.981"
       y2="252.218" />
  </defs>
  <g
     transform="translate(0 -172)"
     id="g121">
    <rect
       style="marker:none"
       width="88"
       height="84"
       x="20"
       y="208"
       rx="8"
       ry="8"
       fill="url(#j)"
       id="rect71" />
    <rect
       ry="8"
       rx="8"
       y="180"
       x="20"
       height="104"
       width="88"
       style="marker:none"
       fill="#5e5c64"
       id="rect73" />
    <g
       transform="translate(0 4)"
       id="g79">
      <rect
         style="marker:none"
         width="72"
         height="80"
         x="28"
         y="194"
         rx="3"
         ry="3"
         fill="#3d3846"
         id="rect75" />
      <path
         fill="#5e5c64"
         d="M24 244h6v14h-6z"
         id="path77" />
    </g>
    <rect
       style="marker:none"
       width="72"
       height="88"
       x="-100"
       y="188"
       rx="3"
       ry="3"
       transform="scale(-1 1)"
       fill="url(#k)"
       id="rect81" />
    <g
       opacity=".2"
       fill="none"
       stroke="#000"
       stroke-width="4"
       stroke-linecap="round"
       id="g85">
      <path
         d="M63.588 250L48 241M64.412 250L80 241M64 266v-17"
         id="path83" />
    </g>
    <circle
       r="6"
       cy="-64"
       cx="-248"
       transform="matrix(0 -1 -1 0 0 0)"
       fill="#3d3846"
       id="circle87" />
    <circle
       cx="-216"
       cy="64"
       r="14"
       transform="rotate(-90)"
       fill="#5e5c64"
       id="circle89" />
    <circle
       transform="rotate(-90)"
       r="14"
       cy="64"
       cx="-214"
       fill="url(#l)"
       id="circle91" />
    <g
       stroke-width="2.857"
       fill="none"
       stroke="#000"
       opacity=".222"
       id="g95">
      <path
         d="M64 223.333V228M64 200v28M57 201.876l14 24.248M51.876 207l24.248 14M50 214h28M51.876 221l24.248-14M57 226.124l14-24.248"
         stroke-width="1.9999"
         id="path93" />
    </g>
    <circle
       cx="-214"
       cy="64"
       r="9"
       transform="rotate(-90)"
       fill="url(#m)"
       id="circle97" />
    <circle
       transform="matrix(0 -1 -1 0 0 0)"
       cx="-214"
       cy="-64"
       r="6"
       fill="#3d3846"
       id="circle99" />
    <path
       d="M19 245a3 1 0 0 0-3 1v14h6v-14a3 1 0 0 0-3-1z"
       fill="url(#n)"
       transform="translate(8)"
       id="path101" />
    <path
       style="marker:none"
       d="M27 259a3 1 0 0 0-3 1 3 1 0 0 0 3 1 3 1 0 0 0 1-.059V260h2a3 1 0 0 0-3-1zM27 251c-1.657 0-3 .448-3 1v2c0-.552 1.343-1 3-1s3 .448 3 1v-2c0-.552-1.343-1-3-1zm1.197 2.916l-.056.008.056-.008z"
       fill="#3d3846"
       id="path103" />
    <path
       d="M19 212a3 1 0 0 0-3 1v14h6v-14a3 1 0 0 0-3-1z"
       fill="url(#o)"
       transform="translate(8 -9)"
       id="path105" />
    <path
       d="M27 217a3 1 0 0 0-3 1 3 1 0 0 0 3 1 3 1 0 0 0 1-.059V218h2a3 1 0 0 0-3-1zM27 209c-1.657 0-3 .448-3 1v2c0-.552 1.343-1 3-1s3 .448 3 1v-2c0-.552-1.343-1-3-1zm1.197 2.916l-.056.008.056-.008z"
       style="marker:none"
       fill="#3d3846"
       id="path107" />
    <circle
       r="4"
       cy="-64"
       cx="-214"
       transform="matrix(0 -1 -1 0 0 0)"
       fill="url(#p)"
       id="circle109" />
    <g
       fill="none"
       stroke-width="4"
       stroke-linecap="round"
       id="g117">
      <path
         d="M63.588 248L48 239"
         stroke="url(#q)"
         id="path111" />
      <path
         d="M64.412 248L80 239"
         stroke="url(#r)"
         id="path113" />
      <path
         d="M64 264v-17"
         stroke="url(#s)"
         id="path115" />
    </g>
    <circle
       transform="matrix(0 -1 -1 0 0 0)"
       cx="-248"
       cy="-64"
       r="4"
       fill="#f6f5f4"
       id="circle119" />
  </g>
</svg>
