<?xml version="1.0" encoding="UTF-8" standalone="no"?>
<!-- Created with Inkscape (http://www.inkscape.org/) -->

<svg
   xmlns:dc="http://purl.org/dc/elements/1.1/"
   xmlns:cc="http://creativecommons.org/ns#"
   xmlns:rdf="http://www.w3.org/1999/02/22-rdf-syntax-ns#"
   xmlns:svg="http://www.w3.org/2000/svg"
   xmlns="http://www.w3.org/2000/svg"
   xmlns:sodipodi="http://sodipodi.sourceforge.net/DTD/sodipodi-0.dtd"
   xmlns:inkscape="http://www.inkscape.org/namespaces/inkscape"
   id="svg2985"
   version="1.1"
   inkscape:version="0.48.4 r9939"
   width="400"
   height="400"
   sodipodi:docname="dfasma.svg">
  <metadata
     id="metadata2991">
    <rdf:RDF>
      <cc:Work
         rdf:about="">
        <dc:format>image/svg+xml</dc:format>
        <dc:type
           rdf:resource="http://purl.org/dc/dcmitype/StillImage" />
        <dc:title />
      </cc:Work>
    </rdf:RDF>
  </metadata>
  <defs
     id="defs2989" />
  <sodipodi:namedview
     pagecolor="#ffffff"
     bordercolor="#666666"
     borderopacity="1"
     objecttolerance="10"
     gridtolerance="10"
     guidetolerance="10"
     inkscape:pageopacity="0"
     inkscape:pageshadow="2"
     inkscape:window-width="1559"
     inkscape:window-height="876"
     id="namedview2987"
     showgrid="false"
     inkscape:zoom="0.89979338"
     inkscape:cx="286.48054"
     inkscape:cy="194.44762"
     inkscape:window-x="41"
     inkscape:window-y="24"
     inkscape:window-maximized="1"
     inkscape:current-layer="svg2985" />
  <text
     xml:space="preserve"
     style="font-size:2236.05664062px;font-style:normal;font-weight:normal;line-height:125%;letter-spacing:0px;word-spacing:0px;fill:#000000;fill-opacity:1;stroke:none;font-family:Sans"
     x="77.972221"
     y="357.62909"
     id="text4132"
     sodipodi:linespacing="125%"><tspan
       sodipodi:role="line"
       id="tspan4134"
       x="77.972221"
       y="357.62909"
       style="font-size:516.50799561px;font-style:normal;font-variant:normal;font-weight:normal;font-stretch:normal;font-family:Times New Roman;-inkscape-font-specification:Times New Roman">Δ</tspan></text>
  <path
     style="fill:#a0b600;fill-opacity:1;stroke:#000000;stroke-width:3.15600000000000014;stroke-linecap:butt;stroke-linejoin:miter;stroke-opacity:1;stroke-miterlimit:4;stroke-dasharray:none"
     d="m 292.18209,213.91343 c -57.16162,24.86154 -31.8349,-8.19062 -59.03223,-27.5237 28.81026,7.04846 12.80476,45.75145 59.03223,27.5237 z"
     id="path3765-1-9-4-82-5"
     inkscape:connector-curvature="0"
     sodipodi:nodetypes="ccc" />
  <path
     style="fill:#a0b600;fill-opacity:1;stroke:#000000;stroke-width:3.15600000000000014;stroke-linecap:butt;stroke-linejoin:miter;stroke-opacity:1;stroke-miterlimit:4;stroke-dasharray:none"
     d="m 233.46395,181.49894 c -48.81476,19.72933 -21.85891,-15.17084 -35.13036,-36.01001 20.45463,12.49598 -8.12791,49.58713 35.13036,36.01001 z"
     id="path3765-1-9-4-82-5-52"
     inkscape:connector-curvature="0"
     sodipodi:nodetypes="ccc" />
  <path
     style="fill:#00aa00;fill-opacity:1;stroke:#000000;stroke-width:3.15600000000000014;stroke-linecap:butt;stroke-linejoin:miter;stroke-opacity:1;stroke-miterlimit:4;stroke-dasharray:none"
     d="M 40.867825,10.673565 C 27.494745,42.060925 54.491953,27.996774 5.5830949,89.133638 8.5254976,142.88911 32.189635,198.54395 44.931046,214.89074 c 12.741431,16.34678 73.177054,37.872 110.348224,15.02694 37.17116,-22.84502 48.22604,-81.92622 37.13653,-99.43259 C 173.08197,99.963881 152.59661,57.151666 121.31161,31.02034 53.345767,28.201087 73.184858,12.165983 40.867825,10.673565 z"
     id="path2995"
     inkscape:connector-curvature="0"
     sodipodi:nodetypes="cczzscc" />
  <path
     style="fill:#00aa00;fill-opacity:1;stroke:#000000;stroke-width:3.15600000000000014;stroke-linecap:butt;stroke-linejoin:miter;stroke-opacity:1;stroke-miterlimit:4;stroke-dasharray:none"
     d="m 200.84469,142.87473 c 3.40883,20.42003 11.56509,51.92094 -15.26151,67.40565 -5.60925,-71.10966 15.26151,-67.40565 15.26151,-67.40565 z"
     id="path3765"
     inkscape:connector-curvature="0"
     sodipodi:nodetypes="ccc" />
  <path
     style="fill:#a0b600;fill-opacity:1;stroke:#000000;stroke-width:3.15600000000000014;stroke-linecap:butt;stroke-linejoin:miter;stroke-opacity:1;stroke-miterlimit:4;stroke-dasharray:none"
     d="m 293.90388,310.82966 c -44.2172,-7.35479 -24.27892,-23.15303 -2.98381,-53.18666 -36.02067,59.68847 -3.13624,41.29201 2.98381,53.18666 z"
     id="path3765-1-9-4-82"
     inkscape:connector-curvature="0"
     sodipodi:nodetypes="ccc" />
  <path
     style="fill:#a0b600;fill-opacity:1;stroke:#000000;stroke-width:3.15600000000000014;stroke-linecap:butt;stroke-linejoin:miter;stroke-opacity:1;stroke-miterlimit:4;stroke-dasharray:none"
     d="m 78.004431,339.8605 c 25.679469,-49.5902 -23.113993,-49.00313 -8.222717,-73.41353 7.703587,27.88162 41.380266,29.14217 8.222717,73.41353 z"
     id="path3765-1-9-4-82-5-5"
     inkscape:connector-curvature="0"
     sodipodi:nodetypes="ccc" />
  <path
     style="fill:#00aa00;fill-opacity:1;stroke:#000000;stroke-width:3.15600000000000014;stroke-linecap:butt;stroke-linejoin:miter;stroke-opacity:1;stroke-miterlimit:4;stroke-dasharray:none"
     d="m 141.98012,262.18204 c -6.2169,22.26165 -67.731225,30.97387 -73.264796,2.87183 24.141646,-33.69003 58.895286,-6.96334 73.264796,-2.87183 z"
     id="path3765-1"
     inkscape:connector-curvature="0"
     sodipodi:nodetypes="ccc" />
  <path
     style="fill:#a0b600;fill-opacity:1;stroke:#000000;stroke-width:3.15600000000000014;stroke-linecap:butt;stroke-linejoin:miter;stroke-opacity:1;stroke-miterlimit:4;stroke-dasharray:none"
     d="m 169.83064,396.63004 c -5.1189,-9.55471 22.65044,-14.62691 -18.18581,-46.00285 39.20249,2.42865 25.9792,33.69084 18.18581,46.00285 z"
     id="path3765-1-9-4-82-4"
     inkscape:connector-curvature="0"
     sodipodi:nodetypes="ccc" />
  <path
     style="fill:#a0b600;fill-opacity:1;stroke:#000000;stroke-width:3.15600000000000014;stroke-linecap:butt;stroke-linejoin:miter;stroke-opacity:1;stroke-miterlimit:4;stroke-dasharray:none"
     d="m 22.180971,253.55275 c 33.196683,1.04501 -16.648572,-40.79086 15.583028,-46.86919 -13.786634,30.4079 18.551938,47.69622 -15.583028,46.86919 z"
     id="path3765-1-9-4-82-5-5-1"
     inkscape:connector-curvature="0"
     sodipodi:nodetypes="ccc" />
  <path
     style="fill:#00aa00;fill-opacity:1;stroke:#000000;stroke-width:3.15600000000000014;stroke-linecap:butt;stroke-linejoin:miter;stroke-opacity:1;stroke-miterlimit:4;stroke-dasharray:none"
     d="m 126.67494,242.50082 c -23.59442,5.26731 -84.642443,-8.94164 -91.984435,-36.20145 29.789268,-12.11304 77.255815,28.97622 91.984435,36.20145 z"
     id="path3765-1-7"
     inkscape:connector-curvature="0"
     sodipodi:nodetypes="ccc" />
  <path
     style="fill:#00aa00;fill-opacity:1;stroke:#000000;stroke-width:3.15600000000000014;stroke-linecap:butt;stroke-linejoin:miter;stroke-opacity:1;stroke-miterlimit:4;stroke-dasharray:none"
     d="m 234.91985,185.26657 c 2.50287,29.64409 -21.91498,52.32888 -44.71566,51.41426 3.67961,-36.0439 13.73611,-51.95131 44.71566,-51.41426 z"
     id="path3765-1-4"
     inkscape:connector-curvature="0"
     sodipodi:nodetypes="ccc" />
  <path
     style="fill:#00aa00;fill-opacity:1;stroke:#000000;stroke-width:3.15600000000000014;stroke-linecap:butt;stroke-linejoin:miter;stroke-opacity:1;stroke-miterlimit:4;stroke-dasharray:none"
     d="m 178.28756,280.082 c -18.02475,60.77412 13.95736,39.16728 -24.12776,74.72774 -45.28354,-24.46395 10.1046,-59.17464 24.12776,-74.72774 z"
     id="path3765-1-9"
     inkscape:connector-curvature="0"
     sodipodi:nodetypes="ccc" />
  <path
     style="fill:#00aa00;fill-opacity:1;stroke:#000000;stroke-width:3.15600000000000014;stroke-linecap:butt;stroke-linejoin:miter;stroke-opacity:1;stroke-miterlimit:4;stroke-dasharray:none"
     d="m 193.60953,267.40035 c 30.94317,-30.25515 73.89496,-39.16606 97.5296,-8.89095 -64.18707,61.5829 -20.06705,-7.81991 -97.5296,8.89095 z"
     id="path3765-1-9-4"
     inkscape:connector-curvature="0"
     sodipodi:nodetypes="ccc" />
  <path
     style="fill:#00aa00;fill-opacity:1;stroke:#000000;stroke-width:3.15600000000000014;stroke-linecap:butt;stroke-linejoin:miter;stroke-opacity:1;stroke-miterlimit:4;stroke-dasharray:none"
     d="m 168.89089,248.89536 c 42.41193,6.65615 63.19088,56.92624 45.09717,47.21749 10.21828,17.68781 -53.32434,0.62672 -45.09717,-47.21749 z"
     id="path3765-1-9-4-8"
     inkscape:connector-curvature="0"
     sodipodi:nodetypes="ccc" />
  <path
     style="fill:#008800;fill-opacity:1;stroke:#000000;stroke-width:3.15600000000000014;stroke-linecap:butt;stroke-linejoin:miter;stroke-opacity:1;stroke-miterlimit:4;stroke-dasharray:none"
     d="M 132.02539,194.51137 C 108.85986,148.64033 43.343446,12.683731 42.971473,13.937476 42.279785,24.988843 102.34125,146.8844 118.41802,200.10417 c 6.22555,20.60869 1.35101,22.44935 4.37794,31.9511 15.00079,1.98701 9.22943,-37.5439 9.22943,-37.5439 z"
     id="path3994"
     inkscape:connector-curvature="0"
     sodipodi:nodetypes="ccscc" />
  <path
     style="fill:#4cc64c;fill-opacity:1;stroke:#000000;stroke-width:3.15600000000000014;stroke-linecap:butt;stroke-linejoin:miter;stroke-opacity:1;stroke-miterlimit:4;stroke-dasharray:none"
     d="M 145.93127,187.9847 C 122.76574,142.11367 43.570084,12.637841 43.19811,13.891586 c 5.592455,12.014945 64.99781,131.151044 90.29624,181.726584 9.63105,19.25405 10.50179,6.8171 14.72805,6.26397 4.22624,-0.55313 -2.29113,-13.89744 -2.29113,-13.89744 z"
     id="path3994-7"
     inkscape:connector-curvature="0"
     sodipodi:nodetypes="ccszc" />
  <path
     style="fill:#00aa00;fill-opacity:1;stroke:#000000;stroke-width:3.15600000000000014;stroke-linecap:butt;stroke-linejoin:miter;stroke-opacity:1;stroke-miterlimit:4;stroke-dasharray:none"
     d="m 170.66142,251.81172 c -9.89572,26.17563 -75.286444,13.80632 -37.26891,-55.92487 38.59616,-23.9169 92.84451,56.00924 37.26891,55.92487 z"
     id="path3765-1-4-0"
     inkscape:connector-curvature="0"
     sodipodi:nodetypes="ccc" />
  <path
     transform="matrix(-1.1333145,-0.03150857,-0.03150857,1.1333145,529.59414,14.045095)"
     sodipodi:type="arc"
     style="fill:#b6ffb6;fill-opacity:1;stroke:#000000;stroke-opacity:1;stroke-width:2.78367653000000015;stroke-miterlimit:4;stroke-dasharray:none"
     id="path4014-1"
     sodipodi:cx="268.88336"
     sodipodi:cy="251.00467"
     sodipodi:rx="3.1137033"
     sodipodi:ry="3.1137033"
     d="m 271.99707,251.00467 a 3.1137033,3.1137033 0 1 1 -6.22741,0 3.1137033,3.1137033 0 1 1 6.22741,0 z" />
  <path
     transform="matrix(-1.1333145,-0.03150857,-0.03150857,1.1333145,520.818,23.267481)"
     sodipodi:type="arc"
     style="fill:#b6ffb6;fill-opacity:1;stroke:#000000;stroke-opacity:1;stroke-width:2.78367653000000015;stroke-miterlimit:4;stroke-dasharray:none"
     id="path4014-1-1"
     sodipodi:cx="268.88336"
     sodipodi:cy="251.00467"
     sodipodi:rx="3.1137033"
     sodipodi:ry="3.1137033"
     d="m 271.99707,251.00467 a 3.1137033,3.1137033 0 1 1 -6.22741,0 3.1137033,3.1137033 0 1 1 6.22741,0 z" />
</svg>
