<?xml version="1.0" encoding="UTF-8" standalone="no"?>
<svg
   xmlns:dc="http://purl.org/dc/elements/1.1/"
   xmlns:cc="http://creativecommons.org/ns#"
   xmlns:rdf="http://www.w3.org/1999/02/22-rdf-syntax-ns#"
   xmlns:svg="http://www.w3.org/2000/svg"
   xmlns="http://www.w3.org/2000/svg"
   xmlns:xlink="http://www.w3.org/1999/xlink"
   xmlns:sodipodi="http://sodipodi.sourceforge.net/DTD/sodipodi-0.dtd"
   xmlns:inkscape="http://www.inkscape.org/namespaces/inkscape"
   inkscape:export-ydpi="48"
   inkscape:export-xdpi="48"
   inkscape:export-filename="/home/raster/C/th-efl/th/img/ic/file-040.png"
   inkscape:version="1.0.2 (e86c870879, 2021-01-15, custom)"
   sodipodi:docname="ecrire.svg"
   viewBox="0 0 80 80"
   height="80"
   width="80"
   id="svg2"
   version="1.1">
  <metadata
     id="metadata8">
    <rdf:RDF>
      <cc:Work
         rdf:about="">
        <dc:format>image/svg+xml</dc:format>
        <dc:type
           rdf:resource="http://purl.org/dc/dcmitype/StillImage" />
        <dc:title></dc:title>
      </cc:Work>
    </rdf:RDF>
  </metadata>
  <defs
     id="defs6">
    <linearGradient
       inkscape:collect="always"
       id="linearGradient1599">
      <stop
         style="stop-color:#343434;stop-opacity:1"
         offset="0"
         id="stop1595" />
      <stop
         style="stop-color:#c8c8c8;stop-opacity:1"
         offset="1"
         id="stop1597" />
    </linearGradient>
    <linearGradient
       inkscape:collect="always"
       id="linearGradient1591">
      <stop
         style="stop-color:#bdd1dd;stop-opacity:1"
         offset="0"
         id="stop1587" />
      <stop
         style="stop-color:#5486aa;stop-opacity:1"
         offset="1"
         id="stop1589" />
    </linearGradient>
    <linearGradient
       inkscape:collect="always"
       id="linearGradient1581">
      <stop
         style="stop-color:#000000;stop-opacity:1;"
         offset="0"
         id="stop1577" />
      <stop
         style="stop-color:#000000;stop-opacity:0;"
         offset="1"
         id="stop1579" />
    </linearGradient>
    <rect
       id="rect878"
       height="30"
       width="40"
       y="20"
       x="20" />
    <rect
       id="rect872"
       height="30"
       width="40"
       y="50"
       x="20" />
    <rect
       id="rect864"
       height="30"
       width="40"
       y="20"
       x="20" />
    <rect
       id="rect858"
       height="30"
       width="40"
       y="20"
       x="20" />
    <rect
       id="rect852"
       height="30"
       width="40"
       y="20"
       x="20" />
    <linearGradient
       inkscape:collect="always"
       xlink:href="#linearGradient1581"
       id="linearGradient1583"
       x1="47"
       y1="64"
       x2="59"
       y2="46"
       gradientUnits="userSpaceOnUse" />
    <linearGradient
       inkscape:collect="always"
       xlink:href="#linearGradient1591"
       id="linearGradient1593"
       x1="50.884632"
       y1="47.202782"
       x2="58.416481"
       y2="30.846972"
       gradientUnits="userSpaceOnUse" />
    <linearGradient
       inkscape:collect="always"
       xlink:href="#linearGradient1599"
       id="linearGradient1601"
       x1="48.231785"
       y1="56.434341"
       x2="55.154549"
       y2="37.770287"
       gradientUnits="userSpaceOnUse" />
  </defs>
  <sodipodi:namedview
     borderlayer="true"
     inkscape:snap-nodes="true"
     inkscape:snap-others="false"
     inkscape:bbox-nodes="true"
     inkscape:snap-bbox="true"
     showguides="false"
     inkscape:current-layer="g10"
     inkscape:window-maximized="0"
     inkscape:window-y="0"
     inkscape:window-x="0"
     inkscape:cy="40.037987"
     inkscape:cx="40"
     inkscape:zoom="13.1625"
     showgrid="true"
     id="namedview4"
     inkscape:window-height="1372"
     inkscape:window-width="2560"
     inkscape:pageshadow="2"
     inkscape:pageopacity="0"
     guidetolerance="10"
     gridtolerance="10"
     objecttolerance="10"
     borderopacity="1"
     bordercolor="#666666"
     pagecolor="#404040"
     inkscape:document-rotation="0">
    <inkscape:grid
       id="grid837"
       type="xygrid"
       empspacing="4"
       enabled="true" />
  </sodipodi:namedview>
  <g
     id="g10"
     inkscape:label="Image"
     inkscape:groupmode="layer">
    <path
       id="path27896"
       d="M 64,8 V 72 H 16 V 28 L 36,8 Z"
       style="opacity:1;fill:#ffffff;fill-opacity:1;stroke:none;stroke-width:1.1;stroke-linecap:round;stroke-linejoin:round;stroke-miterlimit:4;stroke-dasharray:none;stroke-opacity:1"
       sodipodi:nodetypes="cccccc" />
    <path
       style="opacity:0.25;fill:#000000;stroke-width:3.77953"
       id="path1566"
       d="m 28.999988,37.999956 c -0.275438,-0.01058 -1.049424,-0.193675 -0.826318,-0.03179 0.540834,0.392412 1.293133,0.40338 1.849168,0.77394 0.131493,0.08764 -0.09401,0.366934 0.02267,0.473515 0.614673,0.561549 3.28256,1.842267 3.755986,2.190958 0.312089,0.229866 0.472749,0.61438 0.709122,0.921569 -0.14509,0.226829 -0.636464,0.501528 -0.435276,0.680486 0.784177,0.697531 1.920797,0.864372 2.805963,1.428255 3.656193,2.329127 -0.629648,-0.160769 1.09109,1.653595 0.364092,0.383905 0.899675,0.559147 1.325892,0.872654 0.231462,0.170251 0.428137,0.383325 0.642205,0.574988 0.107354,0.1173 0.172676,0.297374 0.322039,0.351902 3.016647,1.101294 6.040227,2.196746 9.123067,3.096243 0.207686,0.06059 0.385269,-0.205034 0.594259,-0.260969 0.370987,-0.0993 0.752232,-0.163213 1.134346,-0.20169 2.130612,-0.214555 1.55977,0.526491 2.086871,-1.003179 0.756766,-2.816453 -0.568346,0.937795 2.016377,-1.695022 0.826213,-0.841594 -0.481015,-2.326112 -0.595737,-2.911752 -0.08093,-0.413229 0.199058,-0.828011 0.189328,-1.248981 -0.01007,-0.455078 -0.166129,-0.895111 -0.249206,-1.342665 -0.595246,-0.668637 -0.0146,-1.78936 -0.492193,-2.486178 -0.432076,-0.630337 -1.21615,-0.950323 -1.687759,-1.551655 -0.244946,-0.312325 -0.260614,-0.750101 -0.406848,-1.119102 -0.422331,-1.0657 -0.44014,-1.027153 -0.981825,-2.018698 -1.256862,-0.433041 -2.176427,-1.424921 -3.318691,-2.043919 -2.397916,-1.299448 -9.560253,-3.489578 -9.776334,-3.564087 -3.293489,-1.135658 -1.794991,-0.889687 -4.389437,-1.073089 -0.838933,0.776807 -0.729704,0.837013 -2.057779,1.163779 -0.704822,0.17342 -1.548565,-0.06088 -2.149941,0.345563 -0.368099,0.248785 0.04563,1.007161 -0.287126,1.301567 -2.395328,0.819021 -1.467674,0.16108 -2.93301,1.743069 0.188716,0.59034 0.871276,1.231569 0.566142,1.771021 -0.362297,0.640508 -1.800147,0.143565 -2.042185,0.838495 -0.255632,0.733957 1.048665,1.320047 1.019875,2.096716 -0.02256,0.608411 -1.208611,0.812823 -1.150193,1.418844 0.564985,5.860878 2.747918,-0.401681 0.765438,4.115608 1.758244,6.77893 -1.35938,-3.930925 2.780719,4.658813 1.568367,3.253993 -2.01673,0.27626 0.04991,3.541 0.570427,0.90112 1.56148,1.453741 2.315364,2.208104 0.612971,0.613357 1.189167,1.262397 1.78375,1.893596 0.154572,0.460137 0.173718,0.991158 0.463717,1.380416 0.22339,0.299846 2.844921,2.483136 3.217504,2.802635 0.397724,0.341057 0.88464,0.603719 1.184147,1.033602 0.114832,0.164827 -0.03022,0.400634 -0.04532,0.600952 0.533397,0.278165 1.066796,0.556332 1.600195,0.834499 0.402575,0.207492 0.80515,0.414984 1.207724,0.622476 0,0 7.685064,1.629245 7.685064,1.629245 v 0 c -0.475305,-0.20758 -0.950612,-0.415159 -1.425917,-0.622738 -0.286186,-0.207645 -0.57536,-0.411237 -0.858558,-0.62294 -0.352261,-0.263328 -0.684437,-0.554055 -1.047664,-0.80204 -0.579145,-0.395399 -1.221853,-0.697671 -1.776838,-1.126323 -0.441129,-0.340711 -0.777129,-0.800827 -1.195352,-1.169296 -2.733975,-2.408721 -1.029831,-0.482737 -3.053237,-3.034171 -0.446321,-0.57851 -0.892641,-1.157021 -1.338962,-1.73553 0.149436,-0.471803 0.624654,-0.952992 0.448307,-1.415411 -0.334186,-0.8763 -1.275111,-1.383773 -1.809677,-2.15437 -0.449397,-0.647827 -0.867425,-1.335027 -1.127303,-2.079405 -1.582517,-4.532861 1.901918,1.123388 -1.968239,-4.294258 0.02881,-0.345091 0.296416,-3.205437 0.214884,-3.580425 -0.15368,-0.706825 -0.868354,-1.260633 -0.879288,-1.983889 -0.0077,-0.508583 0.609647,-0.822025 0.829934,-1.280487 1.021107,-2.125126 -0.475839,-0.743578 1.792338,-2.213409 0.454227,-0.277365 1.139633,-0.348873 1.362682,-0.832095 0.764703,-1.65667 -1.770951,-1.487037 0.880167,-2.287711 0.684125,-0.206615 1.420346,-0.170908 2.134239,-0.203657 0.698206,-0.03202 1.522285,0.407627 2.096797,0.0096 0.332912,-0.230663 -0.359222,-0.726018 -0.538832,-1.089026 0.743221,0.18696 1.479608,0.403556 2.229661,0.560878 0.348814,0.07315 1.38943,0.268645 1.061351,0.129408 -1.716155,-0.72834 -3.479308,-1.347386 -5.256725,-1.909935 -0.389447,-0.123255 0.716011,0.393445 1.075888,0.586707 0.544949,0.292656 1.08299,0.599066 1.638554,0.871028 0.887529,0.434471 1.79281,0.83169 2.689216,1.247533 0.459186,1.747398 -0.20284,-0.272908 1.21033,1.88988 0.199779,0.305749 0.159082,0.738959 0.385256,1.025734 0.435432,0.5521 1.19316,0.824362 1.551182,1.429537 0.378813,0.640322 -0.747916,1.62665 0.133732,2.227941 -0.03078,1.750129 -0.222602,0.834852 0.886967,2.661587 -0.0059,0.425823 -0.82777,0.454209 -0.940269,0.864942 -0.116079,0.423822 0.32391,0.831131 0.355669,1.269413 0.08841,1.219858 -0.297125,1.057303 -1.25859,1.533423 -0.428569,0.0985 -0.851129,0.228312 -1.285708,0.295515 -0.260636,0.0403 -1.928582,0.147052 -2.322051,0.184202 -0.202152,0.01909 -0.787912,-0.01133 -0.604436,0.07565 7.032604,3.333959 7.675319,3.967258 5.855529,2.311332 -0.49174,-0.228223 -1.034415,-0.369101 -1.475225,-0.684668 -0.585662,-0.419263 -0.08792,-1.858538 -1.512547,-1.543127 -0.780834,-0.481142 -1.754806,-0.669656 -2.430378,-1.289978 -0.183643,-0.168627 0.175286,-0.46681 0.262929,-0.700214 -0.771063,-0.440157 -1.542126,-0.880313 -2.31319,-1.32047 0.04778,-0.237425 0.240799,-0.490572 0.143325,-0.712273 -0.164167,-0.373392 -0.577728,-0.576897 -0.845431,-0.884639 -0.196508,-0.225902 -0.322901,-0.513249 -0.545129,-0.713901 -0.306785,-0.277007 -0.78473,-0.363432 -1.022489,-0.701545 -0.0837,-0.119012 0.417879,-0.0609 0.386445,-0.202961 -0.04044,-0.182793 -0.327661,-0.1812 -0.49149,-0.271799 C 37.784599,40.176904 29,38 29,38 Z" />
    <path
       id="path1572"
       style="opacity:0.25;fill:url(#linearGradient1583);fill-opacity:1;stroke-width:3.77953"
       d="m 104.33161,8 c 0,0 -32.381678,19.485557 -40.165802,28 -6.705509,7.33463 -8.389792,14.616061 -8.730532,16.501953 C 51.688521,56.952565 48.797883,60.885976 47,64 49.622552,60.830179 53.097152,56.807357 57.232481,52.257812 60.615915,50.853135 68.019995,47.43821 74.701706,42 83.704993,34.672272 104.33161,8 104.33161,8 Z" />
    <path
       sodipodi:nodetypes="cccc"
       id="path27900"
       d="M 16,28 38,32 36,8 Z"
       style="opacity:0.25;fill:#000000;fill-opacity:1;stroke:none;stroke-width:1.1;stroke-linecap:round;stroke-linejoin:round;stroke-miterlimit:4;stroke-dasharray:none;stroke-opacity:1" />
    <path
       id="path27898"
       d="M 16,28 H 36 V 8 Z"
       style="opacity:1;fill:#ffffff;fill-opacity:1;stroke:none;stroke-width:1.1;stroke-linecap:round;stroke-linejoin:round;stroke-miterlimit:4;stroke-dasharray:none;stroke-opacity:1"
       sodipodi:nodetypes="cccc" />
    <path
       style="opacity:1;fill:url(#linearGradient1593);fill-opacity:1;stroke-width:3.77953"
       d="m 72,8 c 0,0 -21.131692,19.485557 -24,28 -2.868308,8.514443 1,17 1,17 0,0 8.227379,-3.672272 13,-11 C 66.772621,34.672272 72,8 72,8 Z"
       id="path1570"
       sodipodi:nodetypes="czczc" />
    <path
       style="opacity:0.25;fill:#000000;fill-opacity:1;stroke-width:3.77953"
       d="m 49,53 -1.202988,-6.959743 1.855441,5.393927 -1.767272,-12.099077 2.525291,10.178114 -1.036937,-9.591369 1.842123,6.247157 -0.45802,-7.711495 1.33151,5.611784 0.306778,-7.981108 0.741835,5.507511 1.125162,-7.830232 0.120646,4.598988 1.946726,-8.345413 -0.306453,4.736226 3.11439,-9.018765 -1.749503,6.894626 2.961581,-3.360942 -3.510366,5.653643 2.329431,-1.807591 -4.038165,5.442105 3.331618,-2.551058 -4.415296,5.647522 2.748499,-1.436512 -4.000308,4.295688 5.567816,-3.866557 -6.062246,5.768253 5.427879,-2.740895 -6.190154,4.446981 4.337839,-1.434759 -5.12763,3.881303 4.084813,-1.811454 -5.227299,3.696127 z"
       id="path1585" />
    <path
       style="opacity:1;fill:url(#linearGradient1601);stroke-width:3.77953;fill-opacity:1"
       d="M 47,64 C 47,52 56,28 72,8 58,28 50,52 47,64 Z"
       id="path1568"
       sodipodi:nodetypes="ccc" />
  </g>
</svg>
