<?xml version="1.0" encoding="iso-8859-1"?>
<!-- Generator: Adobe Illustrator 19.0.0, SVG Export Plug-In . SVG Version: 6.00 Build 0)  -->
<svg version="1.1" id="Layer_1" xmlns="http://www.w3.org/2000/svg" xmlns:xlink="http://www.w3.org/1999/xlink" x="0px" y="0px"
	 viewBox="0 0 330 330" style="enable-background:new 0 0 330 330;" xml:space="preserve">
<g id="XMLID_525_">
	<path id="XMLID_526_" d="M320.96,151.235l-60.002-25.981l24.057-60.801c2.2-5.56,0.887-11.896-3.342-16.125
		c-4.229-4.229-10.565-5.542-16.125-3.341l-60.802,24.056L178.766,9.04C176.39,3.552,170.98,0,165.001,0
		c-5.98,0-11.389,3.552-13.765,9.04l-25.982,60.003L64.452,44.986c-5.559-2.2-11.896-0.887-16.125,3.341
		c-4.229,4.229-5.542,10.565-3.341,16.125l24.057,60.8L9.04,151.235C3.552,153.611,0,159.02,0,165s3.552,11.389,9.04,13.765
		l60.003,25.982l-24.057,60.8c-2.2,5.561-0.887,11.896,3.341,16.125c2.867,2.868,6.703,4.394,10.609,4.394
		c1.854,0,3.726-0.344,5.516-1.053l60.801-24.057l25.982,60.003c2.376,5.488,7.785,9.04,13.765,9.04
		c5.98,0,11.389-3.552,13.765-9.04l25.98-60.003l60.802,24.057c1.79,0.708,3.66,1.053,5.516,1.053c3.906,0,7.742-1.527,10.609-4.394
		c4.228-4.229,5.542-10.564,3.342-16.125l-24.058-60.8l60.003-25.981c5.488-2.376,9.04-7.785,9.04-13.765
		S326.448,153.611,320.96,151.235z M244.374,85.627l-10.96,27.701l-11.684-5.059l-5.059-11.682L244.374,85.627z M113.326,96.586
		l-5.059,11.682l-11.681,5.058L85.627,85.627L113.326,96.586z M85.627,244.373l10.959-27.699l11.682,5.058l5.059,11.682
		L85.627,244.373z M216.673,233.413l5.058-11.681l11.683-5.059l10.96,27.7L216.673,233.413z M204.364,196.56
		c-3.499,1.515-6.29,4.306-7.805,7.805L165,277.25l-31.561-72.886c-1.515-3.499-4.306-6.29-7.805-7.804L52.749,165l72.886-31.561
		c3.498-1.515,6.289-4.305,7.805-7.804L165,52.75l31.56,72.885c1.515,3.499,4.306,6.29,7.805,7.805L277.25,165L204.364,196.56z"/>
	<circle id="XMLID_535_" cx="165.001" cy="165" r="25"/>
</g>
<g>
</g>
<g>
</g>
<g>
</g>
<g>
</g>
<g>
</g>
<g>
</g>
<g>
</g>
<g>
</g>
<g>
</g>
<g>
</g>
<g>
</g>
<g>
</g>
<g>
</g>
<g>
</g>
<g>
</g>
</svg>
