<svg width="48" version="1.0" xmlns="http://www.w3.org/2000/svg" height="48" xmlns:xlink="http://www.w3.org/1999/xlink">
<defs id="defs48">
<linearGradient id="linearGradient3765">
<stop offset="0" style="stop-color:#fff" id="stop3767"/>
<stop offset="0.76" style="stop-color:#fff" id="stop3797"/>
<stop offset="0.77" id="stop3795"/>
<stop offset="1" id="stop3769"/>
</linearGradient>
<linearGradient gradientTransform="matrix(0.96334295,0,0,0.93440737,-1.4011705,7.6162338)" id="linearGradient3807" xlink:href="#linearGradient3765" y1="8.0864058" y2="34.527084" x1="28.344072" x2="8.0732231" gradientUnits="userSpaceOnUse"/>
</defs>
<g style="stroke-width:1.189" id="g28">
<path style="fill:#fff;stroke:#555753;stroke-linejoin:round;stroke-linecap:round" id="rect3790" d="m 2.5946,5.5953 42.8108,0 0,35.0534 0,4.1622 -42.8108,0 0,-4.1625 z "/>
<rect width="41.62162" x="3.1891892" y="40.648605" height="3.5799332" style="fill:#d3d7cf" id="rect2757"/>
<g style="fill:#888a85" id="g26">
<rect width="7.7297297" x="31.729868" y="13.297256" rx="0.77297294" height="1.1891892" ry=".5946" style="opacity:.48" id="rect3297"/>
<rect width="3.5102072" x="7.7973018" y="15.675633" rx="0.29260847" height="1.1891892" ry=".5946" style="opacity:.48" id="rect3305"/>
<rect width="4.9611487" x="6.5523686" y="34.70266" rx="0.54807508" height="1.1891892" ry=".5946" style="opacity:.48" id="rect3287"/>
<rect width="2.5757153" x="7.4814234" y="19.2432" rx="0.15348771" height="1.1891892" ry=".5946" style="opacity:.48" id="rect3307"/>
<rect width="6.3217282" x="7.3327746" y="21.62158" rx="0.89046586" height="1.1891892" ry=".5946" style="opacity:.48" id="rect3309"/>
<rect width="10.702703" x="29.946083" y="31.135094" rx="0.58249855" height="1.1891892" ry=".5946" style="opacity:.48" id="rect3313"/>
<rect width="3.5675676" x="22.216217" y="34.70266" rx="0.5945946" height="1.1891892" ry=".5946" style="opacity:.48" id="rect2940"/>
<rect width="5.9459462" x="32.918919" y="19.2432" rx="0.64498395" height="1.1891892" ry=".5946" style="opacity:.48" id="rect2915"/>
<rect width="3.1402028" x="7.1841259" y="25.189148" rx="0.5945946" height="1.1891892" ry=".5946" style="opacity:.48" id="rect2885"/>
<rect width="6.6432238" x="7.9459457" y="13.297256" rx="0.55360186" height="1.1891892" ry=".5946" style="opacity:.48" id="rect2893"/>
<rect width="3.8503492" x="24.311947" y="21.62158" rx="0.43275401" height="1.1891892" ry=".5946" style="opacity:.48" id="rect2925"/>
<rect width="2.3783784" x="19.837839" y="25.189148" rx="0.64498395" height="1.1891892" ry=".5946" style="opacity:.48" id="rect2935"/>
<rect width="7.1351352" x="12.702703" y="34.70266" rx="0.64498395" height="1.1891892" ry=".5946" style="opacity:.48" id="rect2938"/>
<rect width="4.7567568" x="6.7567568" y="31.135094" rx="0.73598552" height="1.1891892" ry=".5946" style="opacity:.48" id="rect2942"/>
<rect width="13.081081" x="13.77311" y="31.135094" rx="0.56516534" height="1.1891892" ry=".5946" style="opacity:.48" id="rect2949"/>
</g>
</g>
<g style="fill:#fff;stroke:#555753;stroke-linecap:square;stroke-width:1.192;stroke-dashoffset:1.2" id="g36">
<rect width="2.375998" x="10.722713" y="3.1903355" rx="1.188" height="5.9982834" ry="1.792384" id="rect2776"/>
<rect width="2.375998" x="15.479465" y="3.1903355" rx="1.188" height="5.9982834" ry="1.792384" id="rect3907"/>
<rect width="2.375998" x="20.236225" y="3.1903355" rx="1.188" ry="1.792384" height="5.9982834" id="rect3043"/>
<rect width="2.375998" x="25.387766" y="3.1903355" rx="1.188" ry="1.792384" height="5.9982834" id="rect3040"/>
<rect width="2.375998" x="30.144524" y="3.1903355" rx="1.188" ry="1.792384" height="5.9982834" id="rect3042"/>
<rect width="2.375998" x="34.901291" y="3.1903355" rx="1.188" height="5.9982834" ry="1.792384" id="rect3044"/>
</g>
<path style="fill:#4976a8;fill-rule:evenodd" id="path2906" d="m 9.3048,33.4066 c 4.63348,-0.485722 7.22831,-2.13937 8.7797,-4.23278 -2.65975,-3.31409 -1.95895,-2.79562 0.280585,-0.688994 1.0537,0.991163 2.73032,1.90035 3.88368,-1.18556 0.885426,-2.36902 1.9246,-3.02582 1.9246,-3.02582 -1.57918,-0.620116 -4.51969,-2.76615 0.224894,-0.877049 1.50423,-2.21151 3.60285,-3.70765 5.52841,-5.4121 -4.3051,-0.0056 -3.0827,-1.7716 0.703915,-0.50922 1.80219,-3.24521 6.17828,-3.19352 11.1131,-2.42614 -3.62339,-1.75793 -7.65849,-4.05427 -8.82756,-2.60257 l -.1698,-1.085 c -3.34771,-0.731499 -11.0359,-1.22127 -11.1146,-0.485304 -0.06047,0.565371 -0.382802,1.72951 -0.431475,2.96598 -0.241452,-0.89332 -0.385938,-1.8144 -0.426672,-2.76519 -2.21883,0.144067 -6.01105,2.14507 -6.025,3.08956 -0.0081,0.546349 0.511203,5.01525 1.13497,7.20913 -1.15723,-2.1587 -1.65423,-4.36118 -2.18152,-6.56165 -0.668237,0.682061 -3.91523,0.653986 -1.66036,9.96489 -0.926659,-1.4468 -1.07967,-3.06173 -1.54426,-4.60896 -1.67949,2.64777 -2.74627,7.32406 -1.63878,13.1171"/>
<path style="fill:url(#linearGradient3807)" id="path878" d="m 25.8656,14.8884 c -8.64991,5.46618 -16.9523,12.8611 -19.766,24.8714 l .4805,.2539 c 0.182078,-0.487632 0.518425,-0.89749 0.818359,-1.1875 0.447665,-0.432845 1.09269,-0.536967 1.625,-0.761714 0.347409,-2.96039 0.987667,-5.2126 2.14514,-7.51125 1.744,-3.24362 3.71436,-5.39905 6.69666,-8.45555 2.65181,-2.69373 5.31496,-4.75645 8.12683,-7.01746 z "/>
</svg>
