<?xml version="1.0" encoding="UTF-8"?>
<svg height="128px" viewBox="0 0 128 128" width="128px" xmlns="http://www.w3.org/2000/svg" xmlns:xlink="http://www.w3.org/1999/xlink">
    <linearGradient id="a" gradientUnits="userSpaceOnUse" x1="43.172993" x2="91.66568" y1="21.40773" y2="104.889435">
        <stop offset="0" stop-color="#ffa348"/>
        <stop offset="1" stop-color="#e66100"/>
    </linearGradient>
    <path d="m 124 66 c 0 33.136719 -26.863281 60 -60 60 s -60 -26.863281 -60 -60 s 26.863281 -60 60 -60 s 60 26.863281 60 60 z m 0 0" fill="#d5d3cf"/>
    <path d="m 64 8 c 30.929688 0 56 25.074219 56 56 v 2 c 0 30.929688 -25.070312 56 -56 56 s -56 -25.070312 -56 -56 v -2 c 0 -30.925781 25.070312 -56 56 -56 z m 0 0" fill="#d5d3cf"/>
    <path d="m 124 64 c 0 33.136719 -26.863281 60 -60 60 s -60 -26.863281 -60 -60 s 26.863281 -60 60 -60 s 60 26.863281 60 60 z m 0 0" fill="#f6f5f4"/>
    <path d="m 118 64 c 0 29.824219 -24.175781 54 -54 54 s -54 -24.175781 -54 -54 s 24.175781 -54 54 -54 s 54 24.175781 54 54 z m 0 0" fill="url(#a)"/>
    <path d="m 87.851562 67.363281 l -1.492187 1.027344 c -12.355469 8.511719 -31.269531 15.261719 -48.871094 14.890625 c 2.492188 9.789062 12.417969 16.398438 12.925781 16.722656 c 0.332032 0.210938 2.664063 1.503906 13.355469 1.503906 c 10.6875 0 13.382813 -1.292968 13.710938 -1.503906 c 0.617187 -0.390625 15.007812 -9.871094 13.390625 -23.230468 c -0.371094 -3.050782 -1.511719 -6.210938 -3.019532 -9.410157 z m 0 0" fill="#ffffff"/>
    <path d="m 55.574219 28.496094 c -1.132813 0 -2.050781 0.941406 -2.050781 2.109375 v 8.441406 c 0 4.792969 -3.867188 11.484375 -7.601563 17.820313 c -3.949219 6.691406 -8.035156 13.613281 -8.804687 20.046874 c -0.09375 0.785157 -0.121094 1.550782 -0.113282 2.304688 c 24.628906 0.886719 46.445313 -14.039062 46.679688 -14.203125 l 1.875 -1.304687 c -1.234375 -2.289063 -2.574219 -4.578126 -3.910156 -6.84375 c -3.738282 -6.335938 -7.601563 -13.027344 -7.601563 -17.820313 v -8.441406 c 0 -1.167969 -0.921875 -2.109375 -2.054687 -2.109375 z m 0 0" fill="#ffffff"/>
    <path d="m 64 10 c -29.824219 0 -54 24.175781 -54 54 c 0 0.332031 0.003906 0.667969 0.011719 1 c 0.542969 -29.425781 24.554687 -52.996094 53.988281 -53 c 29.433594 0.003906 53.445312 23.574219 53.988281 53 c 0.007813 -0.332031 0.011719 -0.664062 0.011719 -1 c 0 -29.824219 -24.175781 -54 -54 -54 z m 0 0" fill="#241f31" fill-opacity="0.1"/>
</svg>
