<?xml version="1.0" encoding="UTF-8" standalone="no"?>
<svg
   xmlns:dc="http://purl.org/dc/elements/1.1/"
   xmlns:cc="http://creativecommons.org/ns#"
   xmlns:rdf="http://www.w3.org/1999/02/22-rdf-syntax-ns#"
   xmlns:svg="http://www.w3.org/2000/svg"
   xmlns="http://www.w3.org/2000/svg"
   xmlns:sodipodi="http://sodipodi.sourceforge.net/DTD/sodipodi-0.dtd"
   xmlns:inkscape="http://www.inkscape.org/namespaces/inkscape"
   width="16"
   height="16"
   version="1.1"
   id="svg8"
   sodipodi:docname="weather-showers-symbolic (copy).svg"
   inkscape:version="1.0.1 (3bc2e813f5, 2020-09-07)">
  <metadata
     id="metadata14">
    <rdf:RDF>
      <cc:Work
         rdf:about="">
        <dc:format>image/svg+xml</dc:format>
        <dc:type
           rdf:resource="http://purl.org/dc/dcmitype/StillImage" />
      </cc:Work>
    </rdf:RDF>
  </metadata>
  <defs
     id="defs12" />
  <sodipodi:namedview
     pagecolor="#ffffff"
     bordercolor="#666666"
     borderopacity="1"
     objecttolerance="10"
     gridtolerance="10"
     guidetolerance="10"
     inkscape:pageopacity="0"
     inkscape:pageshadow="2"
     inkscape:window-width="1440"
     inkscape:window-height="836"
     id="namedview10"
     showgrid="false"
     inkscape:zoom="8.1206795"
     inkscape:cx="-14.977186"
     inkscape:cy="9.9708181"
     inkscape:window-x="0"
     inkscape:window-y="0"
     inkscape:window-maximized="1"
     inkscape:current-layer="svg8"
     inkscape:document-rotation="0" />
  <path
     d="M 9.465,0 C 8.192,0 7.158,0.973 7.017,2.219 6.693,2.097 6.361,2 5.994,2 4.351,2 3.02,3.343 3.02,5 c 0,0.098 0.022,0.185 0.031,0.281 A 1.983,1.983 0 0 0 2.028,5 1.992,1.992 0 0 0 0.044,7 c 0,1.105 0.888,2 1.984,2 H 14.424 C 15.245,9 15.911,8.328 15.911,7.5 15.911,6.672 15.245,6 14.424,6 14.218,6 14.013,6.05 13.835,6.125 13.887,5.923 13.928,5.718 13.928,5.5 13.928,4.27 13.042,3.272 11.883,3.062 11.924,2.882 11.945,2.694 11.945,2.5 11.945,1.12 10.835,0 9.465,0 Z"
     style="color:#000000;fill:#deddda;fill-opacity:1;marker:none"
     overflow="visible"
     id="path2" />
  <path
     style="fill:#619ee8;fill-opacity:1;fill-rule:nonzero;stroke:none;stroke-width:0.27693"
     d="m 5.0077556,10.110007 -1.6468987,1.676389 0.00322,0.0022 c -0.2777002,0.279398 -0.3613319,0.702861 -0.2122965,1.070663 0.147964,0.367801 0.5007178,0.60791 0.8909989,0.60791 0.5328826,3e-6 0.9649792,-0.439831 0.9649792,-0.982257 z m 3.5714977,1.114318 -1.6468993,1.67639 0.00429,0.0012 c -0.2776998,0.279399 -0.3613309,0.702861 -0.2133678,1.070662 0.1490348,0.367804 0.5007163,0.607912 0.8920686,0.607912 0.5328837,0 0.9649802,-0.439834 0.963908,-0.981168 z m 3.0160977,-1.3958998 -1.165481,1.1863518 0.0032,0.0011 c -0.197286,0.197543 -0.256256,0.497678 -0.15118,0.75743 0.105076,0.259753 0.354897,0.430012 0.631524,0.430012 0.376342,2e-6 0.68192,-0.311047 0.68192,-0.694128 z m 0,0"
     id="path35" />
</svg>
