<?xml version="1.0" encoding="UTF-8"?>
<svg height="128px" viewBox="0 0 128 128" width="128px" xmlns="http://www.w3.org/2000/svg" xmlns:xlink="http://www.w3.org/1999/xlink">
    <linearGradient id="a" gradientUnits="userSpaceOnUse" x1="12" x2="114.92955" y1="108" y2="108">
        <stop offset="0" stop-color="#57e389"/>
        <stop offset="0.0580037" stop-color="#26a269"/>
        <stop offset="0.0985148" stop-color="#1a7049"/>
        <stop offset="0.954622" stop-color="#26a269"/>
        <stop offset="1" stop-color="#2ec27e"/>
    </linearGradient>
    <filter id="b" height="100%" width="100%" x="0%" y="0%">
        <feColorMatrix in="SourceGraphic" type="matrix" values="0 0 0 0 1 0 0 0 0 1 0 0 0 0 1 0 0 0 1 0"/>
    </filter>
    <mask id="c">
        <g filter="url(#b)">
            <rect fill-opacity="0.461104" height="128" width="128"/>
        </g>
    </mask>
    <clipPath id="d">
        <rect height="152" width="192"/>
    </clipPath>
    <symbol id="e" overflow="visible">
        <path d="m 12.234375 -8.6875 c 1.234375 -0.765625 1.9375 -1.921875 1.9375 -3.40625 c 0 -2.90625 -2.59375 -4.734375 -6.40625 -4.734375 c -3.75 0 -6.34375 1.828125 -6.34375 4.734375 c 0 1.484375 0.6875 2.640625 1.90625 3.40625 c -1.578125 0.796875 -2.5 2.125 -2.5 3.890625 c 0 3.125 2.765625 5.078125 6.9375 5.078125 c 4.21875 0 7 -1.953125 7 -5.078125 c 0 -1.765625 -0.921875 -3.09375 -2.53125 -3.890625 z m -4.46875 -5.328125 c 1.5625 0 2.609375 0.78125 2.609375 2.078125 c 0 1.265625 -1.015625 2.03125 -2.609375 2.03125 c -1.546875 0 -2.546875 -0.765625 -2.546875 -2.03125 c 0 -1.296875 1.015625 -2.078125 2.546875 -2.078125 z m 0 11.484375 c -1.890625 0 -3.0625 -0.921875 -3.0625 -2.375 c 0 -1.46875 1.171875 -2.375 3.0625 -2.375 c 1.921875 0 3.125 0.90625 3.125 2.375 c 0 1.453125 -1.203125 2.375 -3.125 2.375 z m 0 0"/>
    </symbol>
    <symbol id="f" overflow="visible">
        <path d="m 8.890625 -10.375 c -1.734375 0 -3.125 0.5 -4.09375 1.46875 c 0.109375 -3.171875 1.890625 -4.796875 4.65625 -4.796875 c 1.109375 0 2.171875 0.21875 3.09375 0.828125 l 1.421875 -2.8125 c -1.15625 -0.734375 -2.859375 -1.140625 -4.609375 -1.140625 c -4.984375 0 -8.4375 3.203125 -8.4375 8.90625 c 0 5.34375 2.828125 8.203125 7.390625 8.203125 c 3.5 0 6.265625 -2.125 6.265625 -5.5 c 0 -3.125 -2.5 -5.15625 -5.6875 -5.15625 z m -0.78125 7.796875 c -1.84375 0 -2.90625 -1.03125 -2.90625 -2.453125 c 0 -1.4375 1.171875 -2.484375 2.859375 -2.484375 s 2.8125 0.96875 2.8125 2.484375 s -1.140625 2.453125 -2.765625 2.453125 z m 0 0"/>
    </symbol>
    <symbol id="g" overflow="visible">
        <path d="m 15.90625 -6.53125 h -2.671875 v -3.0625 h -3.578125 v 3.0625 h -4.390625 l 7.15625 -9.84375 h -3.984375 l -7.71875 10.390625 v 2.546875 h 8.828125 v 3.4375 h 3.6875 v -3.4375 h 2.671875 z m 0 0"/>
    </symbol>
    <symbol id="h" overflow="visible">
        <path d="m 6.40625 -16.015625 c -3.328125 0 -5.953125 2.015625 -5.953125 5.234375 c 0 2.96875 2.375 4.90625 5.421875 4.90625 c 1.640625 0 2.984375 -0.5 3.90625 -1.421875 c -0.109375 3.046875 -1.8125 4.59375 -4.421875 4.59375 c -1.078125 0 -2.09375 -0.203125 -2.953125 -0.78125 l -1.34375 2.671875 c 1.09375 0.703125 2.6875 1.078125 4.359375 1.078125 c 4.765625 0 8.03125 -3.03125 8.03125 -8.484375 c 0 -5.078125 -2.671875 -7.796875 -7.046875 -7.796875 z m 0.28125 7.421875 c -1.625 0 -2.6875 -0.921875 -2.6875 -2.359375 s 1.078125 -2.34375 2.640625 -2.34375 c 1.734375 0 2.734375 0.984375 2.734375 2.34375 c 0 1.375 -1.09375 2.359375 -2.6875 2.359375 z m 0 0"/>
    </symbol>
    <path d="m 20 16 h 88 c 4.417969 0 8 3.582031 8 8 v 84 c 0 4.417969 -3.582031 8 -8 8 h -88 c -4.417969 0 -8 -3.582031 -8 -8 v -84 c 0 -4.417969 3.582031 -8 8 -8 z m 0 0" fill="url(#a)"/>
    <path d="m 20 12 h 88 c 4.417969 0 8 3.582031 8 8 v 84 c 0 4.417969 -3.582031 8 -8 8 h -88 c -4.417969 0 -8 -3.582031 -8 -8 v -84 c 0 -4.417969 3.582031 -8 8 -8 z m 0 0" fill="#deddda"/>
    <path d="m 14.386719 109.644531 c -1.472657 -1.449219 -2.386719 -3.464843 -2.386719 -5.703125 v -83.648437 c 0 -4.429688 3.566406 -8 8 -8 h 88 c 2.191406 0 4.171875 0.878906 5.613281 2.296875 z m 0 0" fill="#f6f5f4"/>
    <g clip-path="url(#d)" mask="url(#c)" transform="matrix(1 0 0 1 -8 -16)">
        <path d="m 22.359375 34.320312 c -1.457031 1.449219 -2.359375 3.453126 -2.359375 5.679688 v 84 c 0 2.226562 0.902344 4.230469 2.359375 5.679688 z m 0 0" fill="#1c71d8"/>
    </g>
    <path d="m 109.738281 109.621094 c -1.449219 1.472656 -3.46875 2.386718 -5.707031 2.386718 h -84 c -4.429688 0 -8 -3.566406 -8 -8 v -83.75 c 0 -2.191406 0.875 -4.171874 2.296875 -5.613281 z m 0 0" fill="#99c1f1"/>
    <path d="m 113.664062 92.0625 c -0.085937 6.238281 -0.085937 21.667969 -0.085937 21.667969 c 1.566406 -1.460938 2.546875 -3.535157 2.546875 -5.855469 v -15.8125 z m 0 0" fill="#813d9c"/>
    <path d="m 113.726562 14.292969 c 1.472657 1.453125 2.386719 3.46875 2.386719 5.707031 v 84 c 0 4.433594 -3.566406 8 -8 8 h -88 c -2.191406 0 -4.171875 -0.875 -5.613281 -2.292969 z m 0 0" fill="#c061cb"/>
    <path d="m 20 112 c -2.222656 0 -4.226562 -0.898438 -5.675781 -2.351562 l 48.664062 -46.566407 l 50.625 46.714844 c -1.441406 1.421875 -3.421875 2.203125 -5.613281 2.203125 z m 0 0" fill="#57e389"/>
    <use fill="#ffffff" x="86.203125" xlink:href="#e" y="72.269531"/>
    <g fill="#3d3846">
        <use x="27.261719" xlink:href="#f" y="72.824219"/>
        <use x="53.6875" xlink:href="#g" y="96.291016"/>
        <use x="57.019531" xlink:href="#h" y="43.931641"/>
    </g>
</svg>
