<svg xmlns="http://www.w3.org/2000/svg" xmlns:xlink="http://www.w3.org/1999/xlink" width="128" height="128" version="1.0"><defs><linearGradient id="f"><stop offset="0" stop-color="#dbdad9"/><stop offset="1" stop-color="#f2f1ef"/></linearGradient><linearGradient id="e"><stop offset="0" stop-color="#fff"/><stop offset="1" stop-color="#f6f5f4"/></linearGradient><linearGradient id="d"><stop offset="0" stop-color="#c0bfbc"/><stop offset=".065" stop-color="#dcdbd8"/><stop offset=".11" stop-color="#c0bfbc"/><stop offset=".846" stop-color="#c0bfbc"/><stop offset=".923" stop-color="#deddda"/><stop offset="1" stop-color="#c0bfbc"/></linearGradient><linearGradient id="b"><stop offset="0" stop-color="#33d17a"/><stop offset="1" stop-color="#8ff0a4"/></linearGradient><linearGradient id="c"><stop offset="0" stop-color="#edece9"/><stop offset="1" stop-color="#fff"/></linearGradient><linearGradient id="a"><stop offset="0" stop-color="#2dc0af"/><stop offset=".416" stop-color="#2dc0af" stop-opacity=".949"/><stop offset=".439" stop-color="#1f8277" stop-opacity=".945"/><stop offset=".581" stop-color="#26a193" stop-opacity=".929"/><stop offset=".604" stop-color="#2dc0af" stop-opacity=".925"/><stop offset="1" stop-color="#2dc0af" stop-opacity=".888"/></linearGradient><linearGradient xlink:href="#c" id="h" gradientUnits="userSpaceOnUse" gradientTransform="matrix(.25 0 0 .25 4 215)" x1="144" y1="-84" x2="144" y2="366.066"/><linearGradient gradientTransform="translate(-60 -206)" xlink:href="#d" id="g" gradientUnits="userSpaceOnUse" x1="69.009" y1="487.904" x2="180.208" y2="487.904"/><linearGradient xlink:href="#e" id="j" x1="82.75" y1="217.375" x2="99.5" y2="192.75" gradientUnits="userSpaceOnUse"/><linearGradient xlink:href="#f" id="i" x1="114.137" y1="221.436" x2="120" y2="211.922" gradientUnits="userSpaceOnUse"/></defs><path style="marker:none" d="M16 40c-4.432 0-8 3.568-8 8v60c0 4.432 3.568 8 8 8h96c4.432 0 8-3.568 8-8V48c0-4.432-3.568-8-8-8z" fill="#813d9c"/><path d="M16 210c-4.432 0-8 3.568-8 8v60c0 4.432 3.568 8 8 8h96c4.432 0 8-3.568 8-8v-60c0-4.432-3.568-8-8-8z" style="marker:none" fill="url(#g)" transform="translate(0 -172)"/><path style="marker:none" d="M64 194v86H16c-4.432 0-8-3.568-8-8v-70c0-4.432 3.568-8 8-8z" fill="url(#h)" transform="translate(0 -172)"/><path d="M42.225 76.617c-2.164 2.112-4.164 1.492-5.282.375L26.03 66.08V12h4v52.421z" style="line-height:normal;font-variant-ligatures:normal;font-variant-position:normal;font-variant-caps:normal;font-variant-numeric:normal;font-variant-alternates:normal;font-feature-settings:normal;text-indent:0;text-align:start;text-decoration-line:none;text-decoration-style:solid;text-decoration-color:#000;text-transform:none;text-orientation:mixed;white-space:normal;shape-padding:0;isolation:auto;mix-blend-mode:normal;solid-color:#000;solid-opacity:1" color="#000" font-weight="400" font-family="sans-serif" overflow="visible" fill="#9a9996"/><path style="line-height:normal;font-variant-ligatures:normal;font-variant-position:normal;font-variant-caps:normal;font-variant-numeric:normal;font-variant-alternates:normal;font-feature-settings:normal;text-indent:0;text-align:start;text-decoration-line:none;text-decoration-style:solid;text-decoration-color:#000;text-transform:none;text-orientation:mixed;white-space:normal;shape-padding:0;isolation:auto;mix-blend-mode:normal;solid-color:#000;solid-opacity:1;marker:none" d="M22 13c-1.043.209-2 .828-2 2V49s.002 1.578.994 2.752a5.882 5.882 0 0 0-2.228 2.266 6.192 6.192 0 0 0 0 5.964 5.883 5.883 0 0 0 2.22 2.262C20.42 62.836 20 63.706 20 65v34c0 .88.905 2 2 2h8v-1l-2-5h5.154A4.858 4.858 0 0 0 38 90.154V65.846A4.858 4.858 0 0 0 33.154 61H24l-.086.008a1.04 1.04 0 0 0-.137-.008c-1.333 0-2.574-.74-3.26-1.982a4.217 4.217 0 0 1 0-4.036C21.204 53.74 22.445 53 23.778 53c.04 0 .08-.002.12-.006.036 0 .066.006.103.006h9.154A4.858 4.858 0 0 0 38 48.154V23.846A4.858 4.858 0 0 0 33.154 19H28v-4c0-2 2-2 2-2l.03-1H27zm2.846 8h8.308A2.818 2.818 0 0 1 36 23.846v24.308A2.818 2.818 0 0 1 33.154 51h-8.308c-.035 0-.066-.009-.1-.01-.436-.026-.73-.326-.73-.775v-28.43c0-.45.294-.75.73-.775.034-.001.065-.01.1-.01zm0 42h8.308A2.818 2.818 0 0 1 36 65.846v24.308A2.818 2.818 0 0 1 33.154 93h-8.308c-.047 0-.09-.012-.135-.014-.425-.034-.711-.33-.711-.771v-28.43c0-.453.301-.715.742-.775.035-.001.068-.01.104-.01z" color="#000" font-weight="400" font-family="sans-serif" overflow="visible" opacity=".1"/><path d="M42.195 35.383c-2.164-2.112-4.164-1.492-5.281-.375L26 45.92V100h4V47.579z" style="line-height:normal;font-variant-ligatures:normal;font-variant-position:normal;font-variant-caps:normal;font-variant-numeric:normal;font-variant-alternates:normal;font-feature-settings:normal;text-indent:0;text-align:start;text-decoration-line:none;text-decoration-style:solid;text-decoration-color:#000;text-transform:none;text-orientation:mixed;white-space:normal;shape-padding:0;isolation:auto;mix-blend-mode:normal;solid-color:#000;solid-opacity:1" color="#000" font-weight="400" font-family="sans-serif" overflow="visible" fill="#9a9996"/><g transform="matrix(0 .25 -.25 0 48.587 189.875)"><path d="M-515.5 99.242a20 19.102 0 0 1-10 16.543 20 19.102 0 0 1-20 0 20 19.102 0 0 1-10-16.543" style="marker:none" fill="none" stroke="#813d9c" stroke-width="8" stroke-linecap="round"/><rect style="marker:none" width="128" height="56" x="-515.5" y="46.35" rx="9.078" ry="9.078" fill="#fff" fill-opacity=".441"/><rect ry="15.38" rx="15.38" y="46.35" x="387.5" height="64" width="128" style="marker:none" transform="scale(-1 1)" fill="none" stroke="#813d9c" stroke-width="8" stroke-linecap="round"/><rect ry="9.078" rx="9.078" y="46.35" x="-683.5" height="56" width="128" style="marker:none" fill="#fff" fill-opacity=".441"/><rect transform="scale(-1 1)" style="marker:none" width="128" height="64" x="555.5" y="46.35" rx="15.38" ry="15.38" fill="none" stroke="#813d9c" stroke-width="8" stroke-linecap="round"/><path style="line-height:normal;font-variant-ligatures:normal;font-variant-position:normal;font-variant-caps:normal;font-variant-numeric:normal;font-variant-alternates:normal;font-feature-settings:normal;text-indent:0;text-align:start;text-decoration-line:none;text-decoration-style:solid;text-decoration-color:#000;text-transform:none;text-orientation:mixed;white-space:normal;shape-padding:0;isolation:auto;mix-blend-mode:normal;solid-color:#000;solid-opacity:1;marker:none" d="M-711.5 106.35c0 4.253 3.31 8 8 8h136s16 0 16-16v-16h-8v12.796c0 1.877-1.264 3.141-3.14 3.141h-113.72c-1.876 0-3.14-1.264-3.14-3.14V82.35h-24c-8 0-8-8-8-8zm192-24v16s0 16 16 16h136c3.52 0 8-3.622 8-8v-32s0 8.08-8 8h-24v12.859c0 1.876-1.264 3.14-3.14 3.14h-113.72c-1.876 0-2.948-1.274-3.14-3.14l-.5-12.86z" color="#000" font-weight="400" font-family="sans-serif" overflow="visible" fill="#813d9c"/></g><path d="M64 194v86h48c4.432 0 8-3.568 8-8v-70c0-4.432-3.568-8-8-8z" style="marker:none" fill="url(#i)" transform="translate(0 -172)"/><path style="marker:none" d="M64 194v86l41.579-15.84c2.638-.706 4.421-3.444 4.421-6.16v-73.5c0-4.655-3.633-6.243-8-4.5z" fill="url(#j)" transform="translate(0 -172)"/></svg>