<?xml version="1.0" encoding="UTF-8"?>
<svg xmlns="http://www.w3.org/2000/svg" xmlns:xlink="http://www.w3.org/1999/xlink" width="128px" height="128px" viewBox="0 0 128 128" version="1.1">
<defs>
<linearGradient id="linear0" gradientUnits="userSpaceOnUse" x1="8" y1="264" x2="120" y2="264" gradientTransform="matrix(1,0,0,1,0,-160.000006)">
<stop offset="0" style="stop-color:rgb(64.705884%,11.372549%,17.647059%);stop-opacity:1;"/>
<stop offset="0.0343218" style="stop-color:rgb(92.941177%,20%,23.137255%);stop-opacity:1;"/>
<stop offset="0.0706241" style="stop-color:rgb(75.294119%,10.980392%,15.686275%);stop-opacity:1;"/>
<stop offset="0.927675" style="stop-color:rgb(75.294119%,10.980392%,15.686275%);stop-opacity:1;"/>
<stop offset="0.964286" style="stop-color:rgb(92.941177%,20%,23.137255%);stop-opacity:1;"/>
<stop offset="1" style="stop-color:rgb(75.294119%,10.980392%,15.686275%);stop-opacity:1;"/>
</linearGradient>
<clipPath id="clip1">
  <path d="M 52 62 L 76 62 L 76 74 L 52 74 Z M 52 62 "/>
</clipPath>
<filter id="alpha" filterUnits="objectBoundingBox" x="0%" y="0%" width="100%" height="100%">
  <feColorMatrix type="matrix" in="SourceGraphic" values="0 0 0 0 1 0 0 0 0 1 0 0 0 0 1 0 0 0 1 0"/>
</filter>
<mask id="mask0">
  <g filter="url(#alpha)">
<rect x="0" y="0" width="128" height="128" style="fill:rgb(0%,0%,0%);fill-opacity:0.5;stroke:none;"/>
  </g>
</mask>
<clipPath id="clip2">
  <rect x="0" y="0" width="192" height="152"/>
</clipPath>
<g id="surface29618" clip-path="url(#clip2)">
<path style=" stroke:none;fill-rule:nonzero;fill:rgb(25.882354%,25.098041%,28.235295%);fill-opacity:1;" d="M 76 84 C 76 99.464844 63.464844 112 48 112 C 32.535156 112 20 99.464844 20 84 C 20 68.535156 32.535156 56 48 56 C 63.464844 56 76 68.535156 76 84 Z M 76 84 "/>
</g>
<linearGradient id="linear1" gradientUnits="userSpaceOnUse" x1="8" y1="264" x2="120" y2="264" gradientTransform="matrix(1,0,0,1,0,-160.000006)">
<stop offset="0" style="stop-color:rgb(64.705884%,11.372549%,17.647059%);stop-opacity:1;"/>
<stop offset="0.0343218" style="stop-color:rgb(92.941177%,20%,23.137255%);stop-opacity:1;"/>
<stop offset="0.0706241" style="stop-color:rgb(75.294119%,10.980392%,15.686275%);stop-opacity:1;"/>
<stop offset="0.927675" style="stop-color:rgb(75.294119%,10.980392%,15.686275%);stop-opacity:1;"/>
<stop offset="0.964286" style="stop-color:rgb(92.941177%,20%,23.137255%);stop-opacity:1;"/>
<stop offset="1" style="stop-color:rgb(75.294119%,10.980392%,15.686275%);stop-opacity:1;"/>
</linearGradient>
<clipPath id="clip5">
  <path d="M 52 62 L 76 62 L 76 74 L 52 74 Z M 52 62 "/>
</clipPath>
<mask id="mask2">
  <g filter="url(#alpha)">
<rect x="0" y="0" width="128" height="128" style="fill:rgb(0%,0%,0%);fill-opacity:0.5;stroke:none;"/>
  </g>
</mask>
<clipPath id="clip6">
  <rect x="0" y="0" width="192" height="152"/>
</clipPath>
<g id="surface29618" clip-path="url(#clip6)">
<path style=" stroke:none;fill-rule:nonzero;fill:rgb(25.882354%,25.098041%,28.235295%);fill-opacity:1;" d="M 76 84 C 76 99.464844 63.464844 112 48 112 C 32.535156 112 20 99.464844 20 84 C 20 68.535156 32.535156 56 48 56 C 63.464844 56 76 68.535156 76 84 Z M 76 84 "/>
</g>
<clipPath id="clip4">
  <rect x="0" y="0" width="128" height="128"/>
</clipPath>
<g id="surface29630" clip-path="url(#clip4)">
<path style=" stroke:none;fill-rule:nonzero;fill:url(#linear1);" d="M 16 92 L 112 92 C 116.417969 92 120 95.582031 120 100 L 120 108 C 120 112.417969 116.417969 116 112 116 L 16 116 C 11.582031 116 8 112.417969 8 108 L 8 100 C 8 95.582031 11.582031 92 16 92 Z M 16 92 "/>
<path style=" stroke:none;fill-rule:nonzero;fill:rgb(92.941177%,20%,23.137255%);fill-opacity:1;" d="M 16 28 L 112 28 C 116.417969 28 120 31.957031 120 36.84375 L 120 103.15625 C 120 108.042969 116.417969 112 112 112 L 16 112 C 11.582031 112 8 108.042969 8 103.15625 L 8 36.84375 C 8 31.957031 11.582031 28 16 28 Z M 16 28 "/>
<path style="fill-rule:nonzero;fill:rgb(36.862746%,36.078432%,39.215687%);fill-opacity:1;stroke-width:8;stroke-linecap:round;stroke-linejoin:round;stroke:rgb(36.862746%,36.078432%,39.215687%);stroke-opacity:1;stroke-miterlimit:4;" d="M 36 281.999994 L 92 281.999994 L 88 271.999994 L 40 271.999994 Z M 36 281.999994 " transform="matrix(1,0,0,1,0,-171.999994)"/>
<path style=" stroke:none;fill-rule:nonzero;fill:rgb(25.882354%,25.098041%,28.235295%);fill-opacity:1;" d="M 32 110 L 96 110 L 96 116 L 32 116 Z M 32 110 "/>
<path style=" stroke:none;fill-rule:nonzero;fill:rgb(96.470588%,96.078432%,95.686275%);fill-opacity:1;" d="M 24 36 L 104 36 L 112 44 L 112 96 L 16 96 L 16 44 Z M 24 36 "/>
<path style=" stroke:none;fill-rule:nonzero;fill:rgb(25.882354%,25.098041%,28.235295%);fill-opacity:1;" d="M 16 52 L 112 52 L 112 84 L 16 84 Z M 16 52 "/>
<path style=" stroke:none;fill-rule:nonzero;fill:rgb(96.470588%,96.078432%,95.686275%);fill-opacity:1;" d="M 46 68 C 46 71.3125 43.3125 74 40 74 C 36.6875 74 34 71.3125 34 68 C 34 64.6875 36.6875 62 40 62 C 43.3125 62 46 64.6875 46 68 Z M 46 68 "/>
<path style=" stroke:none;fill-rule:nonzero;fill:rgb(96.470588%,96.078432%,95.686275%);fill-opacity:1;" d="M 94 68 C 94 71.3125 91.3125 74 88 74 C 84.6875 74 82 71.3125 82 68 C 82 64.6875 84.6875 62 88 62 C 91.3125 62 94 64.6875 94 68 Z M 94 68 "/>
<path style=" stroke:none;fill-rule:nonzero;fill:rgb(58.039218%,57.647061%,56.470591%);fill-opacity:1;" d="M 52 62 L 76 62 L 76 74 L 52 74 Z M 52 62 "/>
<g clip-path="url(#clip5)" clip-rule="nonzero">
<use xlink:href="#surface29618" transform="matrix(1,0,0,1,-8,-16)" mask="url(#mask2)"/>
</g>
</g>
<clipPath id="clip3">
  <rect x="0" y="0" width="128" height="128"/>
</clipPath>
<g id="surface29633" clip-path="url(#clip3)" filter="url(#alpha)">
<use xlink:href="#surface29630"/>
</g>
<mask id="mask1">
<use xlink:href="#surface29633"/>
</mask>
<mask id="mask3">
  <g filter="url(#alpha)">
<rect x="0" y="0" width="128" height="128" style="fill:rgb(0%,0%,0%);fill-opacity:0.8;stroke:none;"/>
  </g>
</mask>
<linearGradient id="linear2" gradientUnits="userSpaceOnUse" x1="300" y1="235" x2="428" y2="235" gradientTransform="matrix(0.000000000000000023,0.37,-0.98462,0.00000000000000006,295.38501,-30.360001)">
<stop offset="0" style="stop-color:rgb(97.647059%,94.117647%,41.960785%);stop-opacity:1;"/>
<stop offset="1" style="stop-color:rgb(96.078432%,76.078433%,6.666667%);stop-opacity:1;"/>
</linearGradient>
<clipPath id="clip8">
  <rect x="0" y="0" width="128" height="128"/>
</clipPath>
<g id="surface29627" clip-path="url(#clip8)">
<path style=" stroke:none;fill-rule:nonzero;fill:url(#linear2);" d="M 128 80.640625 L 128 128 L 0 128 L 0 80.640625 Z M 128 80.640625 "/>
<path style=" stroke:none;fill-rule:nonzero;fill:rgb(0%,0%,0%);fill-opacity:1;" d="M 13.308594 80.640625 L 60.664062 128 L 81.878906 128 L 34.519531 80.640625 Z M 55.730469 80.640625 L 103.09375 128 L 124.308594 128 L 76.945312 80.640625 Z M 98.160156 80.640625 L 128 110.480469 L 128 89.269531 L 119.371094 80.640625 Z M 0 88.546875 L 0 109.761719 L 18.238281 128 L 39.453125 128 Z M 0 88.546875 "/>
</g>
<clipPath id="clip7">
  <rect x="0" y="0" width="128" height="128"/>
</clipPath>
<g id="surface29632" clip-path="url(#clip7)">
<use xlink:href="#surface29627" mask="url(#mask3)"/>
</g>
</defs>
<g id="surface29613">
<path style=" stroke:none;fill-rule:nonzero;fill:url(#linear0);" d="M 16 92 L 112 92 C 116.417969 92 120 95.582031 120 100 L 120 108 C 120 112.417969 116.417969 116 112 116 L 16 116 C 11.582031 116 8 112.417969 8 108 L 8 100 C 8 95.582031 11.582031 92 16 92 Z M 16 92 "/>
<path style=" stroke:none;fill-rule:nonzero;fill:rgb(92.941177%,20%,23.137255%);fill-opacity:1;" d="M 16 28 L 112 28 C 116.417969 28 120 31.957031 120 36.84375 L 120 103.15625 C 120 108.042969 116.417969 112 112 112 L 16 112 C 11.582031 112 8 108.042969 8 103.15625 L 8 36.84375 C 8 31.957031 11.582031 28 16 28 Z M 16 28 "/>
<path style="fill-rule:nonzero;fill:rgb(36.862746%,36.078432%,39.215687%);fill-opacity:1;stroke-width:8;stroke-linecap:round;stroke-linejoin:round;stroke:rgb(36.862746%,36.078432%,39.215687%);stroke-opacity:1;stroke-miterlimit:4;" d="M 36 281.999994 L 92 281.999994 L 88 271.999994 L 40 271.999994 Z M 36 281.999994 " transform="matrix(1,0,0,1,0,-171.999994)"/>
<path style=" stroke:none;fill-rule:nonzero;fill:rgb(25.882354%,25.098041%,28.235295%);fill-opacity:1;" d="M 32 110 L 96 110 L 96 116 L 32 116 Z M 32 110 "/>
<path style=" stroke:none;fill-rule:nonzero;fill:rgb(96.470588%,96.078432%,95.686275%);fill-opacity:1;" d="M 24 36 L 104 36 L 112 44 L 112 96 L 16 96 L 16 44 Z M 24 36 "/>
<path style=" stroke:none;fill-rule:nonzero;fill:rgb(25.882354%,25.098041%,28.235295%);fill-opacity:1;" d="M 16 52 L 112 52 L 112 84 L 16 84 Z M 16 52 "/>
<path style=" stroke:none;fill-rule:nonzero;fill:rgb(96.470588%,96.078432%,95.686275%);fill-opacity:1;" d="M 46 68 C 46 71.3125 43.3125 74 40 74 C 36.6875 74 34 71.3125 34 68 C 34 64.6875 36.6875 62 40 62 C 43.3125 62 46 64.6875 46 68 Z M 46 68 "/>
<path style=" stroke:none;fill-rule:nonzero;fill:rgb(96.470588%,96.078432%,95.686275%);fill-opacity:1;" d="M 94 68 C 94 71.3125 91.3125 74 88 74 C 84.6875 74 82 71.3125 82 68 C 82 64.6875 84.6875 62 88 62 C 91.3125 62 94 64.6875 94 68 Z M 94 68 "/>
<path style=" stroke:none;fill-rule:nonzero;fill:rgb(58.039218%,57.647061%,56.470591%);fill-opacity:1;" d="M 52 62 L 76 62 L 76 74 L 52 74 Z M 52 62 "/>
<g clip-path="url(#clip1)" clip-rule="nonzero">
<use xlink:href="#surface29618" transform="matrix(1,0,0,1,-8,-16)" mask="url(#mask0)"/>
</g>
<use xlink:href="#surface29632" mask="url(#mask1)"/>
</g>
</svg>
