<?xml version="1.0" encoding="UTF-8" standalone="no"?>
<svg
   xmlns:dc="http://purl.org/dc/elements/1.1/"
   xmlns:cc="http://creativecommons.org/ns#"
   xmlns:rdf="http://www.w3.org/1999/02/22-rdf-syntax-ns#"
   xmlns:svg="http://www.w3.org/2000/svg"
   xmlns="http://www.w3.org/2000/svg"
   xmlns:xlink="http://www.w3.org/1999/xlink"
   xmlns:sodipodi="http://sodipodi.sourceforge.net/DTD/sodipodi-0.dtd"
   xmlns:inkscape="http://www.inkscape.org/namespaces/inkscape"
   inkscape:version="1.0 (4035a4fb49, 2020-05-01)"
   sodipodi:docname="gnome-latex.svg"
   width="128"
   height="128"
   id="svg11300"
   version="1.0"
   style="display:inline;enable-background:new"
   viewBox="0 0 128 128">
  <sodipodi:namedview
     inkscape:current-layer="layer9"
     inkscape:window-maximized="0"
     inkscape:window-y="27"
     inkscape:window-x="272"
     inkscape:cy="64"
     inkscape:cx="90.560375"
     inkscape:zoom="6.6640625"
     showgrid="false"
     id="namedview59"
     inkscape:window-height="1015"
     inkscape:window-width="1648"
     inkscape:pageshadow="2"
     inkscape:pageopacity="0"
     guidetolerance="10"
     gridtolerance="10"
     objecttolerance="10"
     borderopacity="1"
     bordercolor="#666666"
     pagecolor="#ffffff" />
  <title
     id="title4162">Adwaita Icon Template</title>
  <defs
     id="defs3">
    <rect
       id="rect888"
       height="90.029489"
       width="111.08542"
       y="188.43903"
       x="11.550539" />
    <linearGradient
       id="linearGradient1038">
      <stop
         id="stop1026"
         offset="0"
         style="stop-color:#c0bfbc;stop-opacity:1" />
      <stop
         style="stop-color:#ffffff;stop-opacity:1"
         offset="0.04545454"
         id="stop1028" />
      <stop
         style="stop-color:#deddda;stop-opacity:1"
         offset="0.09090909"
         id="stop1030" />
      <stop
         style="stop-color:#deddda;stop-opacity:1"
         offset="0.90909088"
         id="stop1032" />
      <stop
         id="stop1034"
         offset="0.95454544"
         style="stop-color:#ffffff;stop-opacity:1" />
      <stop
         id="stop1036"
         offset="1"
         style="stop-color:#c0bfbc;stop-opacity:1" />
    </linearGradient>
    <clipPath
       clipPathUnits="userSpaceOnUse"
       id="clipPath2213">
      <rect
         style="display:inline;opacity:1;vector-effect:none;fill:none;fill-opacity:1;stroke:#000000;stroke-width:1;stroke-linecap:butt;stroke-linejoin:miter;stroke-miterlimit:4;stroke-dasharray:none;stroke-dashoffset:0;stroke-opacity:1;marker:none;marker-start:none;marker-mid:none;marker-end:none;paint-order:normal;enable-background:new"
         id="rect2215"
         width="16"
         height="56"
         x="160"
         y="-188"
         rx="8"
         ry="8" />
    </clipPath>
    <linearGradient
       id="linearGradient1005">
      <stop
         id="stop1001"
         offset="0"
         style="stop-color:#d0bb8e;stop-opacity:1" />
      <stop
         id="stop1003"
         offset="1"
         style="stop-color:#ffffff;stop-opacity:1" />
    </linearGradient>
    <linearGradient
       id="linearGradient1351-3">
      <stop
         style="stop-color:#d5d3cf;stop-opacity:1"
         offset="0"
         id="stop1347" />
      <stop
         style="stop-color:#ffffff;stop-opacity:1"
         offset="1"
         id="stop1349-6" />
    </linearGradient>
    <linearGradient
       xlink:href="#linearGradient1038"
       id="linearGradient1159"
       x1="27.99999"
       y1="-276"
       x2="115.99999"
       y2="-276"
       gradientUnits="userSpaceOnUse"
       gradientTransform="translate(-135.99999)" />
    <linearGradient
       xlink:href="#linearGradient1005"
       id="linearGradient1103"
       gradientUnits="userSpaceOnUse"
       x1="128.81717"
       y1="-97.698288"
       x2="158.51802"
       y2="-127.39915"
       gradientTransform="matrix(0.07621224,-0.44419723,0.44419725,-0.07621223,77.725794,331.83807)" />
    <clipPath
       clipPathUnits="userSpaceOnUse"
       id="clipPath1609-7">
      <path
         id="path1611-5"
         d="m 252,116 28,-28 v -8 h -36 v 36 z"
         style="fill:#e74747;stroke:none;stroke-width:0.25px;stroke-linecap:butt;stroke-linejoin:miter;stroke-opacity:1" />
    </clipPath>
    <linearGradient
       xlink:href="#linearGradient1351-3"
       id="linearGradient1130"
       gradientUnits="userSpaceOnUse"
       gradientTransform="matrix(0.25,0,0,0.25,180,83)"
       x1="344"
       y1="76"
       x2="340"
       y2="72" />
    <clipPath
       clipPathUnits="userSpaceOnUse"
       id="clipPath1062">
      <rect
         clip-path="none"
         ry="8"
         rx="8"
         y="-116"
         x="-108"
         height="108"
         width="88"
         id="rect1064"
         style="opacity:1;vector-effect:none;fill:#f6f5f4;fill-opacity:1;stroke:none;stroke-width:13.71876526;stroke-linecap:butt;stroke-linejoin:miter;stroke-miterlimit:4;stroke-dasharray:none;stroke-dashoffset:0;stroke-opacity:1;marker:none;marker-start:none;marker-mid:none;marker-end:none;paint-order:normal"
         transform="scale(-1)" />
    </clipPath>
  </defs>
  <metadata
     id="metadata4">
    <rdf:RDF>
      <cc:Work
         rdf:about="">
        <dc:format>image/svg+xml</dc:format>
        <dc:type
           rdf:resource="http://purl.org/dc/dcmitype/StillImage" />
        <dc:creator>
          <cc:Agent>
            <dc:title>GNOME Design Team</dc:title>
          </cc:Agent>
        </dc:creator>
        <dc:source />
        <cc:license
           rdf:resource="http://creativecommons.org/licenses/by-sa/4.0/" />
        <dc:title>Adwaita Icon Template</dc:title>
        <dc:subject>
          <rdf:Bag />
        </dc:subject>
        <dc:date />
        <dc:rights>
          <cc:Agent>
            <dc:title />
          </cc:Agent>
        </dc:rights>
        <dc:publisher>
          <cc:Agent>
            <dc:title />
          </cc:Agent>
        </dc:publisher>
        <dc:identifier />
        <dc:relation />
        <dc:language />
        <dc:coverage />
        <dc:description />
        <dc:contributor>
          <cc:Agent>
            <dc:title />
          </cc:Agent>
        </dc:contributor>
      </cc:Work>
      <cc:License
         rdf:about="http://creativecommons.org/licenses/by-sa/4.0/">
        <cc:permits
           rdf:resource="http://creativecommons.org/ns#Reproduction" />
        <cc:permits
           rdf:resource="http://creativecommons.org/ns#Distribution" />
        <cc:requires
           rdf:resource="http://creativecommons.org/ns#Notice" />
        <cc:requires
           rdf:resource="http://creativecommons.org/ns#Attribution" />
        <cc:permits
           rdf:resource="http://creativecommons.org/ns#DerivativeWorks" />
        <cc:requires
           rdf:resource="http://creativecommons.org/ns#ShareAlike" />
      </cc:License>
    </rdf:RDF>
  </metadata>
  <g
     id="layer1"
     style="display:inline"
     transform="translate(0,-172)">
    <g
       id="layer2"
       style="display:none">
      <g
         style="display:inline;enable-background:new"
         id="g9211">
        <rect
           y="172"
           x="9.2651362e-08"
           height="128"
           width="128"
           id="rect13805"
           style="display:inline;overflow:visible;visibility:visible;fill:#f0f0f0;fill-opacity:1;fill-rule:nonzero;stroke:none;stroke-width:0.5;marker:none;enable-background:accumulate" />
        <circle
           style="display:inline;opacity:0.1;vector-effect:none;fill:none;fill-opacity:1;stroke:#000000;stroke-width:0.99;stroke-linecap:butt;stroke-linejoin:miter;stroke-miterlimit:4;stroke-dasharray:0.99, 0.99;stroke-dashoffset:0;stroke-opacity:1;marker:none;marker-start:none;marker-mid:none;marker-end:none;paint-order:normal;enable-background:new"
           id="circle2892"
           r="59.504131"
           cy="236"
           cx="64.000031" />
        <rect
           style="display:inline;opacity:0.1;vector-effect:none;fill:none;fill-opacity:1;stroke:#000000;stroke-width:0.99;stroke-linecap:butt;stroke-linejoin:miter;stroke-miterlimit:4;stroke-dasharray:0.99, 0.99;stroke-dashoffset:0;stroke-opacity:1;marker:none;marker-start:none;marker-mid:none;marker-end:none;paint-order:normal;enable-background:new"
           id="rect2894"
           width="87.009987"
           height="111.01005"
           x="20.495007"
           y="180.49496"
           rx="8.701004"
           ry="7.9292889" />
        <rect
           style="display:inline;opacity:0.1;vector-effect:none;fill:none;fill-opacity:1;stroke:#000000;stroke-width:0.99;stroke-linecap:butt;stroke-linejoin:miter;stroke-miterlimit:4;stroke-dasharray:0.99, 0.99;stroke-dashoffset:0;stroke-opacity:1;marker:none;marker-start:none;marker-mid:none;marker-end:none;paint-order:normal;enable-background:new"
           id="rect2896"
           width="103.00952"
           height="103.00952"
           x="12.495266"
           y="184.49524"
           rx="7.9238095"
           ry="7.9238095" />
        <rect
           style="display:inline;opacity:0.1;vector-effect:none;fill:none;fill-opacity:1;stroke:#000000;stroke-width:0.99;stroke-linecap:butt;stroke-linejoin:miter;stroke-miterlimit:4;stroke-dasharray:0.99, 0.99;stroke-dashoffset:0;stroke-opacity:1;marker:none;marker-start:none;marker-mid:none;marker-end:none;paint-order:normal;enable-background:new"
           id="rect2898"
           width="111.01004"
           height="87.010048"
           x="8.4950066"
           y="200.49496"
           rx="7.9292889"
           ry="8.701005" />
        <path
           style="display:inline;fill:none;stroke:#62a0ea;stroke-width:2;stroke-linecap:butt;stroke-linejoin:miter;stroke-miterlimit:4;stroke-dasharray:none;stroke-opacity:1;enable-background:new"
           d="M 2.6203015e-5,288.99999 H 128.00003"
           id="path2900" />
      </g>
    </g>
    <g
       id="layer9"
       style="display:inline">
      <rect
         transform="scale(-1)"
         style="opacity:1;vector-effect:none;fill:#26a269;fill-opacity:1;stroke:none;stroke-width:13.7188;stroke-linecap:butt;stroke-linejoin:miter;stroke-miterlimit:4;stroke-dasharray:none;stroke-dashoffset:0;stroke-opacity:1;marker:none;marker-start:none;marker-mid:none;marker-end:none;paint-order:normal"
         id="rect1167"
         width="88"
         height="30.25"
         x="-108"
         y="-294"
         rx="8"
         ry="8"
         clip-path="none" />
      <g
         style="display:inline;enable-background:new"
         id="g8005"
         clip-path="url(#clipPath2213)"
         transform="matrix(0.25,0,0,0.25,-374,202.04808)" />
      <g
         style="display:inline;enable-background:new"
         id="g8015"
         clip-path="url(#clipPath2213)"
         transform="matrix(0.25,0,0,0.25,-424,202.04808)" />
      <g
         style="display:inline;enable-background:new"
         id="g8025"
         clip-path="url(#clipPath2213)"
         transform="matrix(0.25,0,0,0.25,-414,202.04808)" />
      <g
         style="display:inline;enable-background:new"
         id="g8035"
         clip-path="url(#clipPath2213)"
         transform="matrix(0.25,0,0,0.25,-404,202.04808)" />
      <g
         style="display:inline;enable-background:new"
         id="g8045"
         clip-path="url(#clipPath2213)"
         transform="matrix(0.25,0,0,0.25,-394,202.04808)" />
      <g
         style="display:inline;enable-background:new"
         id="g8055"
         clip-path="url(#clipPath2213)"
         transform="matrix(0.25,0,0,0.25,-384,202.04808)" />
      <rect
         clip-path="none"
         ry="8"
         rx="8"
         y="-292"
         x="-108"
         height="40"
         width="88"
         id="rect1151"
         style="opacity:1;vector-effect:none;fill:url(#linearGradient1159);fill-opacity:1;stroke:none;stroke-width:13.7188;stroke-linecap:butt;stroke-linejoin:miter;stroke-miterlimit:4;stroke-dasharray:none;stroke-dashoffset:0;stroke-opacity:1;marker:none;marker-start:none;marker-mid:none;marker-end:none;paint-order:normal"
         transform="scale(-1)" />
      <rect
         transform="scale(-1)"
         style="opacity:1;vector-effect:none;fill:#f6f5f4;fill-opacity:1;stroke:none;stroke-width:13.7188;stroke-linecap:butt;stroke-linejoin:miter;stroke-miterlimit:4;stroke-dasharray:none;stroke-dashoffset:0;stroke-opacity:1;marker:none;marker-start:none;marker-mid:none;marker-end:none;paint-order:normal"
         id="rect1161"
         width="88"
         height="108"
         x="-108"
         y="-288"
         rx="8"
         ry="8"
         clip-path="none" />
      <g
         id="g1153"
         transform="translate(-4,2)">
        <path
           id="path950-3-7"
           d="m 32,188 c -1.10457,0 -2,0.89543 -2,2 0,1.10457 0.89543,2 2,2 1.10457,0 2,-0.89543 2,-2 0,-1.10457 -0.89543,-2 -2,-2 z m 8,0 c -1.10457,0 -2,0.89543 -2,2 0,1.10457 0.89543,2 2,2 1.10457,0 2,-0.89543 2,-2 0,-1.10457 -0.89543,-2 -2,-2 z m 8,0 c -1.10457,0 -2,0.89543 -2,2 0,1.10457 0.89543,2 2,2 1.10457,0 2,-0.89543 2,-2 0,-1.10457 -0.89543,-2 -2,-2 z m 8,0 c -1.10457,0 -2,0.89543 -2,2 0,1.10457 0.89543,2 2,2 1.10457,0 2,-0.89543 2,-2 0,-1.10457 -0.89543,-2 -2,-2 z m 8,0 c -1.10457,0 -2,0.89543 -2,2 0,1.10457 0.89543,2 2,2 1.10457,0 2,-0.89543 2,-2 0,-1.10457 -0.89543,-2 -2,-2 z m 8,0 c -1.10457,0 -2,0.89543 -2,2 0,1.10457 0.89543,2 2,2 1.10457,0 2,-0.89543 2,-2 0,-1.10457 -0.89543,-2 -2,-2 z m 8,0 c -1.10457,0 -2,0.89543 -2,2 0,1.10457 0.89543,2 2,2 1.10457,0 2,-0.89543 2,-2 0,-1.10457 -0.89543,-2 -2,-2 z m 8,0 c -1.10457,0 -2,0.89543 -2,2 0,1.10457 0.89543,2 2,2 1.10457,0 2,-0.89543 2,-2 0,-1.10457 -0.89543,-2 -2,-2 z m 8,0 c -1.10457,0 -2,0.89543 -2,2 0,1.10457 0.89543,2 2,2 1.10457,0 2,-0.89543 2,-2 0,-1.10457 -0.89543,-2 -2,-2 z"
           style="display:inline;opacity:1;fill:#d5d3cf;fill-opacity:1;stroke:none;stroke-width:4;stroke-linecap:square;stroke-linejoin:round;stroke-miterlimit:4;stroke-dasharray:none;stroke-dashoffset:0;stroke-opacity:1;enable-background:new" />
        <circle
           transform="scale(-1,1)"
           style="opacity:1;vector-effect:none;fill:#d5d3cf;fill-opacity:1;stroke:none;stroke-width:16;stroke-linecap:butt;stroke-linejoin:round;stroke-miterlimit:4;stroke-dasharray:none;stroke-dashoffset:0;stroke-opacity:1"
           id="path1148"
           cx="-104"
           cy="190"
           r="2" />
        <path
           id="circle16770"
           style="opacity:1;vector-effect:none;fill:#d5d3cf;fill-opacity:1;stroke:none;stroke-width:16;stroke-linecap:butt;stroke-linejoin:round;stroke-miterlimit:4;stroke-dasharray:none;stroke-dashoffset:0;stroke-opacity:1"
           d="m 112,192 a 2,2 0 0 1 -1.73205,-1 2,2 0 0 1 0,-2 A 2,2 0 0 1 112,188" />
        <path
           id="circle16770-3"
           style="display:inline;opacity:1;vector-effect:none;fill:#d5d3cf;fill-opacity:1;stroke:none;stroke-width:16;stroke-linecap:butt;stroke-linejoin:round;stroke-miterlimit:4;stroke-dasharray:none;stroke-dashoffset:0;stroke-opacity:1;enable-background:new"
           d="m -24,192 a 2,2 0 0 1 -1.732051,-1 2,2 0 0 1 0,-2 A 2,2 0 0 1 -24,188"
           transform="scale(-1,1)" />
      </g>
      <rect
         clip-path="url(#clipPath1609-7)"
         transform="matrix(0,0.71428571,0.71428571,0,25.142858,88.000008)"
         ry="11.2"
         rx="11.2"
         y="88"
         x="252"
         height="36"
         width="36"
         id="rect1056-3"
         style="display:inline;opacity:1;fill:url(#linearGradient1130);fill-opacity:1;stroke:none;stroke-width:0.5;stroke-linecap:butt;stroke-linejoin:miter;stroke-miterlimit:4;stroke-dasharray:none;stroke-dashoffset:0;stroke-opacity:1;marker:none;marker-start:none;marker-mid:none;marker-end:none;paint-order:normal;enable-background:new" />
      <path
         style="opacity:0.2;vector-effect:none;fill:#000000;fill-opacity:1;stroke:none;stroke-width:12.4898;stroke-linecap:round;stroke-linejoin:miter;stroke-miterlimit:4;stroke-dasharray:none;stroke-dashoffset:0;stroke-opacity:1;marker:none;marker-start:none;marker-mid:none;marker-end:none;paint-order:normal"
         d="M 100,16 32,84 v 20 h 22 l 68,-68 -7.86719,-5.761719 -0.0742,-0.07227 -8.22461,-8.22461 z"
         transform="translate(0,172)"
         id="path1047"
         clip-path="url(#clipPath1062)" />
      <path
         id="path1038"
         d="m 32,276 v -20 l 20,20 z"
         style="opacity:1;vector-effect:none;fill:url(#linearGradient1103);fill-opacity:1;stroke:none;stroke-width:12.4898;stroke-linecap:round;stroke-linejoin:miter;stroke-miterlimit:4;stroke-dasharray:none;stroke-dashoffset:0;stroke-opacity:1;marker:none;marker-start:none;marker-mid:none;marker-end:none;paint-order:normal" />
      <path
         style="display:inline;opacity:1;vector-effect:none;fill:#424048;fill-opacity:1;stroke:none;stroke-width:12.4898;stroke-linecap:round;stroke-linejoin:miter;stroke-miterlimit:4;stroke-dasharray:none;stroke-dashoffset:0;stroke-opacity:1;marker:none;marker-start:none;marker-mid:none;marker-end:none;paint-order:normal;enable-background:new"
         d="m 31.999996,276 4e-6,-8 8,8 z"
         id="path1042" />
      <path
         style="display:inline;fill:#33d17a;fill-opacity:1;stroke:none;stroke-width:0.506438px;stroke-linecap:butt;stroke-linejoin:miter;stroke-opacity:1;enable-background:new"
         d="m 50,274 -16,-16 67.94696,-67.94695 16,16 z"
         id="path1044" />
      <path
         style="display:inline;opacity:1;fill:#8ff0a4;fill-opacity:1;stroke:none;stroke-width:0.358106px;stroke-linecap:butt;stroke-linejoin:miter;stroke-opacity:1;enable-background:new"
         d="M 37.887772,261.88776 32,256 l 68.00001,-67.99999 5.83472,5.9408 z"
         id="path1046" />
      <path
         style="display:inline;opacity:1;fill:#26a269;fill-opacity:1;stroke:none;stroke-width:0.358106px;stroke-linecap:butt;stroke-linejoin:miter;stroke-opacity:1;enable-background:new"
         d="M 46.112246,270.11223 52,276 l 68,-68 -5.9408,-5.83472 z"
         id="path1048" />
      <text
         transform="translate(18.782551,3.626217)"
         style="font-style:normal;font-variant:normal;font-weight:normal;font-stretch:normal;font-size:42.6667px;line-height:1.25;font-family:'Liberation Serif';-inkscape-font-specification:'Liberation Serif, Normal';font-variant-ligatures:normal;font-variant-caps:normal;font-variant-numeric:normal;font-variant-east-asian:normal;white-space:pre;shape-inside:url(#rect888);fill:#424048;fill-opacity:1;stroke:none;"
         id="text886"
         xml:space="preserve"><tspan
           x="11.550781"
           y="226.3113"><tspan
             style="font-style:normal;font-variant:normal;font-weight:normal;font-stretch:normal;font-size:42.6667px;font-family:'Liberation Serif';-inkscape-font-specification:'Liberation Serif, Normal';font-variant-ligatures:normal;font-variant-caps:normal;font-variant-numeric:normal;font-variant-east-asian:normal;fill:#424048;fill-opacity:1">Σ</tspan></tspan></text>
    </g>
  </g>
</svg>
