<?xml version="1.0" encoding="UTF-8"?>
<svg height="128px" viewBox="0 0 128 128" width="128px" xmlns="http://www.w3.org/2000/svg" xmlns:xlink="http://www.w3.org/1999/xlink">
    <defs>
        <linearGradient id="a" gradientUnits="userSpaceOnUse" x1="95.999944" x2="103.999944" y1="83" y2="83">
            <stop offset="0" stop-color="#f6f5f4"/>
            <stop offset="0.5" stop-color="#f6f5f4"/>
            <stop offset="1" stop-color="#c0bfbc"/>
        </linearGradient>
        <filter id="b" height="100%" width="100%" x="0%" y="0%">
            <feColorMatrix in="SourceGraphic" type="matrix" values="0 0 0 0 1 0 0 0 0 1 0 0 0 0 1 0 0 0 1 0"/>
        </filter>
        <mask id="c">
            <g filter="url(#b)">
                <rect fill-opacity="0.3" height="128" width="128"/>
            </g>
        </mask>
        <mask id="d">
            <g filter="url(#b)">
                <rect fill-opacity="0.1" height="128" width="128"/>
            </g>
        </mask>
        <mask id="e">
            <g filter="url(#b)">
                <rect fill-opacity="0.3" height="128" width="128"/>
            </g>
        </mask>
        <clipPath id="f">
            <rect height="128" width="128"/>
        </clipPath>
        <g id="g" clip-path="url(#f)">
            <path d="m 26 8 h 2 v 72 h -2 z m 0 0" fill="#ffffff"/>
        </g>
        <mask id="h">
            <g filter="url(#b)">
                <rect fill-opacity="0.1" height="128" width="128"/>
            </g>
        </mask>
        <clipPath id="i">
            <rect height="128" width="128"/>
        </clipPath>
        <g id="j" clip-path="url(#i)">
            <path d="m 236.000225 223.5 h 104 m -128 -16 h 65.5 m -33.5 -16 h 128 m -152 -16 h 128" stroke="#000000" stroke-linecap="round" stroke-width="8" transform="matrix(0.25 0 0 0.25 -0.000056 53.125)"/>
        </g>
        <clipPath id="k">
            <rect height="128" width="128"/>
        </clipPath>
        <clipPath id="l">
            <rect height="128" width="128"/>
        </clipPath>
        <mask id="m">
            <g clip-path="url(#l)" filter="url(#b)">
                <g clip-path="url(#k)">
                    <path d="m 24 28 v 92 h 72 c 4.433594 0 8 -3.566406 8 -8 v -76 c 0 -4.433594 -3.566406 -8 -8 -8 z m 0 0" fill="#26a269"/>
                    <path d="m 26 48 v 70 h 70 c 4.433594 0 8 -3.566406 8 -8 v -54 c 0 -4.433594 -3.566406 -8 -8 -8 z m 0 0" fill="url(#a)"/>
                    <path d="m 24 16 v 66 h 72 c 4.433594 0 8 -3.566406 8 -8 v -50 c 0 -4.433594 -3.566406 -8 -8 -8 z m 0 0" fill="#26a269"/>
                    <path d="m 24 8 v 72 h 72 c 4.433594 0 8 -3.566406 8 -8 v -56 c 0 -4.433594 -3.566406 -8 -8 -8 z m 0 0" fill="#2ec27e"/>
                    <path d="m 24 20.125 h 80 v 48 h -80 z m 0 0" fill="#57e389"/>
                    <use mask="url(#e)" xlink:href="#g"/>
                    <use mask="url(#h)" xlink:href="#j"/>
                    <path d="m 32 88.125 h 16 v 20 l -8 -7 l -8 7 z m 0 0" fill="#ed333b"/>
                    <path d="m 49.96875 44.40625 c -0.878906 0 -1.160156 -0.121094 -1.039062 -0.519531 l 3.558593 -8.960938 h 0.28125 l 3.28125 9.480469 z m -4.320312 8.160156 l 2.121093 -5.5625 c 0.199219 -0.519531 0.441407 -0.679687 1.398438 -0.679687 h 7.601562 l 2.238281 6.519531 c 0.5625 1.640625 -1.078124 1.480469 -2.957031 1.601562 c -0.242187 0.238282 -0.242187 1.121094 0 1.359376 c 1.480469 -0.039063 5.277344 -0.078126 6.839844 -0.078126 c 1.640625 0 3.878906 0.039063 5.359375 0.078126 c 0.238281 -0.238282 0.238281 -1.121094 0 -1.359376 c -1.558594 -0.121093 -2.878906 -0.121093 -3.601562 -2.160156 l -8.238282 -22.878906 c -0.601562 0.359375 -3 1.757812 -4.441406 1.757812 l -8.640625 20.480469 c -1.039063 2.480469 -2.277344 2.679688 -4 2.800781 c -0.238281 0.238282 -0.238281 1.121094 0 1.359376 c 1.480469 -0.039063 2.203125 -0.078126 3.761719 -0.078126 c 1.640625 0 3.839844 0.039063 5.320312 0.078126 c 0.238282 -0.238282 0.238282 -1.121094 0 -1.359376 c -1.519531 -0.082031 -3.402344 -0.242187 -2.761718 -1.878906 z m 0 0" fill="#1f8455"/>
                    <path d="m 79.992188 53.804688 c 0.277343 1.601562 1.359374 2.320312 3.117187 2.320312 c 2.199219 0 3.761719 -0.839844 5.242187 -2.238281 c -0.121093 -0.441407 -0.28125 -0.761719 -0.722656 -1.121094 c -0.519531 0.398437 -0.917968 0.558594 -1.679687 0.558594 c -0.878907 0 -1.117188 -0.71875 -1.117188 -2.679688 l 0.078125 -5.757812 c 0 -5.761719 -3.558594 -6.921875 -6.839844 -6.921875 c -2.921874 0 -7.441406 1.679687 -7.441406 4.320312 c 0 1.160156 0.480469 2.039063 2.082032 2.039063 c 1.398437 0 2.480468 -0.878907 2.480468 -1.878907 c 0 -0.519531 -0.28125 -1.199218 -0.199218 -1.878906 c 0.078124 -0.441406 0.359374 -0.921875 1.71875 -0.921875 c 1.679687 0 3.078124 0.71875 3.078124 5.800781 l -2.679687 0.839844 c -4.238281 1.320313 -7.160156 2.480469 -7.160156 5.640625 c 0 2.757813 1.519531 4.199219 5 4.199219 c 1.160156 0 3.480469 -1.28125 4.800781 -2.320312 z m -0.203126 -6.800782 v 5.28125 c -1 0.800782 -2 1.441406 -2.71875 1.441406 c -1.71875 0 -2.320312 -1.160156 -2.320312 -2.402343 c 0 -1.480469 0.121094 -2.679688 2.960938 -3.640625 z m 0 0" fill="#1f8455"/>
                </g>
            </g>
        </mask>
        <mask id="n">
            <g filter="url(#b)">
                <rect fill-opacity="0.8" height="128" width="128"/>
            </g>
        </mask>
        <linearGradient id="o" gradientTransform="matrix(0 0.37 -0.98462 0 295.38501 -30.360001)" gradientUnits="userSpaceOnUse" x1="300" x2="428" y1="235" y2="235">
            <stop offset="0" stop-color="#f9f06b"/>
            <stop offset="1" stop-color="#f5c211"/>
        </linearGradient>
        <clipPath id="p">
            <rect height="128" width="128"/>
        </clipPath>
        <clipPath id="q">
            <rect height="128" width="128"/>
        </clipPath>
    </defs>
    <path d="m 24 28 v 92 h 72 c 4.433594 0 8 -3.566406 8 -8 v -76 c 0 -4.433594 -3.566406 -8 -8 -8 z m 0 0" fill="#26a269"/>
    <path d="m 26 48 v 70 h 70 c 4.433594 0 8 -3.566406 8 -8 v -54 c 0 -4.433594 -3.566406 -8 -8 -8 z m 0 0" fill="url(#a)"/>
    <path d="m 24 16 v 66 h 72 c 4.433594 0 8 -3.566406 8 -8 v -50 c 0 -4.433594 -3.566406 -8 -8 -8 z m 0 0" fill="#26a269"/>
    <path d="m 24 8 v 72 h 72 c 4.433594 0 8 -3.566406 8 -8 v -56 c 0 -4.433594 -3.566406 -8 -8 -8 z m 0 0" fill="#2ec27e"/>
    <path d="m 24 20.125 h 80 v 48 h -80 z m 0 0" fill="#57e389"/>
    <use mask="url(#c)" xlink:href="#g"/>
    <use mask="url(#d)" xlink:href="#j"/>
    <path d="m 32 88.125 h 16 v 20 l -8 -7 l -8 7 z m 0 0" fill="#ed333b"/>
    <path d="m 49.96875 44.40625 c -0.878906 0 -1.160156 -0.121094 -1.039062 -0.519531 l 3.558593 -8.960938 h 0.28125 l 3.28125 9.480469 z m -4.320312 8.160156 l 2.121093 -5.5625 c 0.199219 -0.519531 0.441407 -0.679687 1.398438 -0.679687 h 7.601562 l 2.238281 6.519531 c 0.5625 1.640625 -1.078124 1.480469 -2.957031 1.601562 c -0.242187 0.238282 -0.242187 1.121094 0 1.359376 c 1.480469 -0.039063 5.277344 -0.078126 6.839844 -0.078126 c 1.640625 0 3.878906 0.039063 5.359375 0.078126 c 0.238281 -0.238282 0.238281 -1.121094 0 -1.359376 c -1.558594 -0.121093 -2.878906 -0.121093 -3.601562 -2.160156 l -8.238282 -22.878906 c -0.601562 0.359375 -3 1.757812 -4.441406 1.757812 l -8.640625 20.480469 c -1.039063 2.480469 -2.277344 2.679688 -4 2.800781 c -0.238281 0.238282 -0.238281 1.121094 0 1.359376 c 1.480469 -0.039063 2.203125 -0.078126 3.761719 -0.078126 c 1.640625 0 3.839844 0.039063 5.320312 0.078126 c 0.238282 -0.238282 0.238282 -1.121094 0 -1.359376 c -1.519531 -0.082031 -3.402344 -0.242187 -2.761718 -1.878906 z m 0 0" fill="#1f8455"/>
    <path d="m 79.992188 53.804688 c 0.277343 1.601562 1.359374 2.320312 3.117187 2.320312 c 2.199219 0 3.761719 -0.839844 5.242187 -2.238281 c -0.121093 -0.441407 -0.28125 -0.761719 -0.722656 -1.121094 c -0.519531 0.398437 -0.917968 0.558594 -1.679687 0.558594 c -0.878907 0 -1.117188 -0.71875 -1.117188 -2.679688 l 0.078125 -5.757812 c 0 -5.761719 -3.558594 -6.921875 -6.839844 -6.921875 c -2.921874 0 -7.441406 1.679687 -7.441406 4.320312 c 0 1.160156 0.480469 2.039063 2.082032 2.039063 c 1.398437 0 2.480468 -0.878907 2.480468 -1.878907 c 0 -0.519531 -0.28125 -1.199218 -0.199218 -1.878906 c 0.078124 -0.441406 0.359374 -0.921875 1.71875 -0.921875 c 1.679687 0 3.078124 0.71875 3.078124 5.800781 l -2.679687 0.839844 c -4.238281 1.320313 -7.160156 2.480469 -7.160156 5.640625 c 0 2.757813 1.519531 4.199219 5 4.199219 c 1.160156 0 3.480469 -1.28125 4.800781 -2.320312 z m -0.203126 -6.800782 v 5.28125 c -1 0.800782 -2 1.441406 -2.71875 1.441406 c -1.71875 0 -2.320312 -1.160156 -2.320312 -2.402343 c 0 -1.480469 0.121094 -2.679688 2.960938 -3.640625 z m 0 0" fill="#1f8455"/>
    <g clip-path="url(#q)" mask="url(#m)">
        <g clip-path="url(#p)" mask="url(#n)">
            <path d="m 128 80.640625 v 47.359375 h -128 v -47.359375 z m 0 0" fill="url(#o)"/>
            <path d="m 13.308594 80.640625 l 47.355468 47.359375 h 21.214844 l -47.359375 -47.359375 z m 42.421875 0 l 47.363281 47.359375 h 21.214844 l -47.363282 -47.359375 z m 42.429687 0 l 29.839844 29.839844 v -21.210938 l -8.628906 -8.628906 z m -98.160156 7.90625 v 21.214844 l 18.238281 18.238281 h 21.214844 z m 0 0"/>
        </g>
    </g>
</svg>
