<?xml version="1.0" encoding="UTF-8"?>
<svg height="16px" viewBox="0 0 16 16" width="16px" xmlns="http://www.w3.org/2000/svg">
    <g fill="#bebebe">
        <path d="m 0.699219 4.203125 c 0 1.933594 1.570312 3.503906 3.503906 3.503906 s 3.503906 -1.570312 3.503906 -3.503906 s -1.570312 -3.503906 -3.503906 -3.503906 s -3.503906 1.570312 -3.503906 3.503906 z m 2.003906 1.972656 c 0 -0.277343 0.21875 -0.503906 0.492187 -0.503906 c 0.273438 0 0.492188 0.226563 0.492188 0.503906 c 0 0.277344 -0.21875 0.5 -0.492188 0.5 c -0.273437 0 -0.492187 -0.222656 -0.492187 -0.5 z m 0 0" fill-opacity="0.364706"/>
        <path d="m 0.699219 11.796875 c 0 1.933594 1.570312 3.503906 3.503906 3.503906 s 3.503906 -1.570312 3.503906 -3.503906 s -1.570312 -3.5 -3.503906 -3.5 s -3.503906 1.566406 -3.503906 3.5 z m 2.003906 2.003906 c 0 -0.269531 0.21875 -0.488281 0.492187 -0.488281 c 0.273438 0 0.492188 0.21875 0.492188 0.488281 s -0.21875 0.488281 -0.492188 0.488281 c -0.273437 0 -0.492187 -0.21875 -0.492187 -0.488281 z m 0 0"/>
        <g fill-opacity="0.364706">
            <path d="m 8.296875 4.203125 c 0 1.933594 1.566406 3.503906 3.5 3.503906 s 3.503906 -1.570312 3.503906 -3.503906 s -1.570312 -3.503906 -3.503906 -3.503906 s -3.5 1.570312 -3.5 3.503906 z m 2 2 c 0 -0.277344 0.222656 -0.503906 0.5 -0.503906 c 0.273437 0 0.5 0.226562 0.5 0.503906 s -0.226563 0.5 -0.5 0.5 c -0.277344 0 -0.5 -0.222656 -0.5 -0.5 z m 0 0"/>
            <path d="m 8.296875 11.796875 c 0 1.933594 1.566406 3.503906 3.5 3.503906 s 3.503906 -1.570312 3.503906 -3.503906 s -1.570312 -3.5 -3.503906 -3.5 s -3.5 1.566406 -3.5 3.5 z m 1.996094 2.003906 c 0 -0.277343 0.222656 -0.5 0.5 -0.5 c 0.273437 0 0.496093 0.222657 0.496093 0.5 c 0 0.277344 -0.222656 0.5 -0.496093 0.5 c -0.277344 0 -0.5 -0.222656 -0.5 -0.5 z m 0 0"/>
        </g>
    </g>
</svg>
