<svg xmlns="http://www.w3.org/2000/svg" xmlns:xlink="http://www.w3.org/1999/xlink" width="128" height="128"><defs><linearGradient id="p" gradientUnits="userSpaceOnUse" x1="384" y1="120" x2="416" y2="120" gradientTransform="matrix(.25 0 0 .25 4 53)"><stop offset="0" stop-color="#deddda"/><stop offset=".511" stop-color="#fff"/><stop offset="1" stop-color="#c0bfbc"/></linearGradient><filter id="a" filterUnits="objectBoundingBox" x="0%" y="0%" width="100%" height="100%"><feColorMatrix in="SourceGraphic" values="0 0 0 0 1 0 0 0 0 1 0 0 0 0 1 0 0 0 1 0"/></filter><mask id="q"><g filter="url(#a)"><path fill-opacity=".187" d="M0 0h128v128H0z"/></g></mask><clipPath id="b"><path d="M0 0h128v128H0z"/></clipPath><g id="f" clip-path="url(#b)"><path d="M22 8h2v102h-2zm0 0" fill="#fff"/></g><linearGradient id="e" gradientUnits="userSpaceOnUse" x1="384" y1="120" x2="416" y2="120" gradientTransform="matrix(.25 0 0 .25 4 53)"><stop offset="0" stop-color="#deddda"/><stop offset=".511" stop-color="#fff"/><stop offset="1" stop-color="#c0bfbc"/></linearGradient><mask id="g"><g filter="url(#a)"><path fill-opacity=".187" d="M0 0h128v128H0z"/></g></mask><clipPath id="c"><path d="M0 0h128v128H0z"/></clipPath><clipPath id="d"><path d="M0 0h128v128H0z"/></clipPath><g id="i" clip-path="url(#d)"><path d="M108 24c4.418 0 8 3.582 8 8.004v7.992a8.001 8.001 0 1 1-16 0v-7.992A8.001 8.001 0 0 1 108 24zm0 0" fill="#f8e45c"/><path d="M108 40c4.418 0 8 3.582 8 8.004v7.992a8.001 8.001 0 1 1-16 0v-7.992A8.001 8.001 0 0 1 108 40zm0 0" fill="#2ec27e"/><path d="M108 56c4.418 0 8 3.582 8 8.004v7.992a8.001 8.001 0 1 1-16 0v-7.992A8.001 8.001 0 0 1 108 56zm0 0" fill="#c061cb"/><path d="M108 72c4.418 0 8 3.582 8 8.004v7.992a8.001 8.001 0 1 1-16 0v-7.992A8.001 8.001 0 0 1 108 72zm0 0" fill="#f66151"/><path d="M20 28v92h80c4.434 0 8-3.566 8-8V36c0-4.434-3.566-8-8-8zm0 0" fill="#1d60b5"/><path d="M22 48v70h78c4.434 0 8-3.566 8-8V56c0-4.434-3.566-8-8-8zm0 0" fill="url(#e)"/><path d="M20 28v84h80c4.434 0 8-3.566 8-8V36c0-4.434-3.566-8-8-8zm0 0" fill="#2864b0"/><path d="M20 8v102h80c4.434 0 8-3.566 8-8V16c0-4.434-3.566-8-8-8zm0 0" fill="#3584e4"/><use xlink:href="#f" mask="url(#g)"/><path d="M59.742 60.09c0 1.86.39 3.324 1.176 4.394.8 1.07 1.883 1.61 3.242 1.61 1.344 0 2.414-.54 3.215-1.61.8-1.086 1.2-2.55 1.2-4.394 0-1.828-.407-3.27-1.223-4.324-.801-1.075-1.88-1.61-3.239-1.61-1.328 0-2.394.535-3.195 1.61-.785 1.054-1.176 2.496-1.176 4.324zm9.285 6.816a5.233 5.233 0 0 1-2.195 2.516c-.996.59-2.168.883-3.512.883-2.597 0-4.71-.938-6.34-2.809-1.617-1.887-2.425-4.34-2.425-7.36 0-3.019.816-5.476 2.445-7.363 1.633-1.886 3.738-2.832 6.32-2.832 1.344 0 2.516.305 3.512.907a5.25 5.25 0 0 1 2.195 2.515v-2.968h4.735v15.699c1.87-.29 3.343-1.188 4.418-2.696 1.07-1.527 1.605-3.472 1.605-5.843 0-1.512-.219-2.922-.656-4.239a11.453 11.453 0 0 0-1.992-3.644c-1.434-1.844-3.23-3.262-5.39-4.258-2.145-.996-4.47-1.496-6.977-1.496-1.75 0-3.426.234-5.028.703a16 16 0 0 0-4.441 2.016 15.584 15.584 0 0 0-5.23 5.754c-1.239 2.34-1.856 4.875-1.856 7.609 0 2.25.398 4.363 1.2 6.34a15.775 15.775 0 0 0 3.51 5.21 15.44 15.44 0 0 0 5.184 3.376c1.965.785 4.055 1.176 6.278 1.176 1.902 0 3.804-.352 5.707-1.063 1.902-.71 3.523-1.668 4.867-2.875l2.426 3.668a21.37 21.37 0 0 1-6.184 3.352 20.17 20.17 0 0 1-6.773 1.18c-2.793 0-5.426-.5-7.903-1.497a19.874 19.874 0 0 1-6.617-4.305 19.255 19.255 0 0 1-4.414-6.546c-1.012-2.489-1.52-5.164-1.52-8.016 0-2.75.516-5.367 1.544-7.86a19.745 19.745 0 0 1 4.39-6.57 20.335 20.335 0 0 1 6.637-4.347 20.817 20.817 0 0 1 7.883-1.54c3.382 0 6.457.649 9.218 1.946a18.333 18.333 0 0 1 6.93 5.574 16.307 16.307 0 0 1 2.563 4.824c.586 1.723.882 3.532.882 5.434 0 4.094-1.23 7.273-3.691 9.539-2.465 2.262-5.937 3.395-10.422 3.395h-.883zm0 0" fill="#fff"/></g><clipPath id="h"><path d="M0 0h128v128H0z"/></clipPath><g id="j" clip-path="url(#h)" filter="url(#a)"><use xlink:href="#i"/></g><mask id="s"><use xlink:href="#j"/></mask><mask id="o"><g filter="url(#a)"><path fill-opacity=".8" d="M0 0h128v128H0z"/></g></mask><linearGradient id="l" gradientUnits="userSpaceOnUse" x1="300" y1="235" x2="428" y2="235" gradientTransform="matrix(0 .37 -.98462 0 295.385 -30.36)"><stop offset="0" stop-color="#f9f06b"/><stop offset="1" stop-color="#f5c211"/></linearGradient><clipPath id="k"><path d="M0 0h128v128H0z"/></clipPath><g id="n" clip-path="url(#k)"><path d="M128 80.64V128H0V80.64zm0 0" fill="url(#l)"/><path d="M13.309 80.64L60.664 128H81.88l-47.36-47.36zm42.421 0L103.094 128h21.215L76.945 80.64zm42.43 0L128 110.48V89.27l-8.629-8.63zM0 88.548v21.215L18.238 128h21.215zm0 0"/></g><clipPath id="m"><path d="M0 0h128v128H0z"/></clipPath><g id="r" clip-path="url(#m)"><use xlink:href="#n" mask="url(#o)"/></g></defs><path d="M108 24c4.418 0 8 3.582 8 8.004v7.992a8.001 8.001 0 1 1-16 0v-7.992A8.001 8.001 0 0 1 108 24zm0 0" fill="#f8e45c"/><path d="M108 40c4.418 0 8 3.582 8 8.004v7.992a8.001 8.001 0 1 1-16 0v-7.992A8.001 8.001 0 0 1 108 40zm0 0" fill="#2ec27e"/><path d="M108 56c4.418 0 8 3.582 8 8.004v7.992a8.001 8.001 0 1 1-16 0v-7.992A8.001 8.001 0 0 1 108 56zm0 0" fill="#c061cb"/><path d="M108 72c4.418 0 8 3.582 8 8.004v7.992a8.001 8.001 0 1 1-16 0v-7.992A8.001 8.001 0 0 1 108 72zm0 0" fill="#f66151"/><path d="M20 28v92h80c4.434 0 8-3.566 8-8V36c0-4.434-3.566-8-8-8zm0 0" fill="#1d60b5"/><path d="M22 48v70h78c4.434 0 8-3.566 8-8V56c0-4.434-3.566-8-8-8zm0 0" fill="url(#p)"/><path d="M20 28v84h80c4.434 0 8-3.566 8-8V36c0-4.434-3.566-8-8-8zm0 0" fill="#2864b0"/><path d="M20 8v102h80c4.434 0 8-3.566 8-8V16c0-4.434-3.566-8-8-8zm0 0" fill="#3584e4"/><use xlink:href="#f" mask="url(#q)"/><path d="M59.742 60.09c0 1.86.39 3.324 1.176 4.394.8 1.07 1.883 1.61 3.242 1.61 1.344 0 2.414-.54 3.215-1.61.8-1.086 1.2-2.55 1.2-4.394 0-1.828-.407-3.27-1.223-4.324-.801-1.075-1.88-1.61-3.239-1.61-1.328 0-2.394.535-3.195 1.61-.785 1.054-1.176 2.496-1.176 4.324zm9.285 6.816a5.233 5.233 0 0 1-2.195 2.516c-.996.59-2.168.883-3.512.883-2.597 0-4.71-.938-6.34-2.809-1.617-1.887-2.425-4.34-2.425-7.36 0-3.019.816-5.476 2.445-7.363 1.633-1.886 3.738-2.832 6.32-2.832 1.344 0 2.516.305 3.512.907a5.25 5.25 0 0 1 2.195 2.515v-2.968h4.735v15.699c1.87-.29 3.343-1.188 4.418-2.696 1.07-1.527 1.605-3.472 1.605-5.843 0-1.512-.219-2.922-.656-4.239a11.453 11.453 0 0 0-1.992-3.644c-1.434-1.844-3.23-3.262-5.39-4.258-2.145-.996-4.47-1.496-6.977-1.496-1.75 0-3.426.234-5.028.703a16 16 0 0 0-4.441 2.016 15.584 15.584 0 0 0-5.23 5.754c-1.239 2.34-1.856 4.875-1.856 7.609 0 2.25.398 4.363 1.2 6.34a15.775 15.775 0 0 0 3.51 5.21 15.44 15.44 0 0 0 5.184 3.376c1.965.785 4.055 1.176 6.278 1.176 1.902 0 3.804-.352 5.707-1.063 1.902-.71 3.523-1.668 4.867-2.875l2.426 3.668a21.37 21.37 0 0 1-6.184 3.352 20.17 20.17 0 0 1-6.773 1.18c-2.793 0-5.426-.5-7.903-1.497a19.874 19.874 0 0 1-6.617-4.305 19.255 19.255 0 0 1-4.414-6.546c-1.012-2.489-1.52-5.164-1.52-8.016 0-2.75.516-5.367 1.544-7.86a19.745 19.745 0 0 1 4.39-6.57 20.335 20.335 0 0 1 6.637-4.347 20.817 20.817 0 0 1 7.883-1.54c3.382 0 6.457.649 9.218 1.946a18.333 18.333 0 0 1 6.93 5.574 16.307 16.307 0 0 1 2.563 4.824c.586 1.723.882 3.532.882 5.434 0 4.094-1.23 7.273-3.691 9.539-2.465 2.262-5.937 3.395-10.422 3.395h-.883zm0 0" fill="#fff"/><use xlink:href="#r" mask="url(#s)"/></svg>