<?xml version="1.0" encoding="UTF-8" standalone="no"?>
<svg
   xmlns:dc="http://purl.org/dc/elements/1.1/"
   xmlns:cc="http://creativecommons.org/ns#"
   xmlns:rdf="http://www.w3.org/1999/02/22-rdf-syntax-ns#"
   xmlns:svg="http://www.w3.org/2000/svg"
   xmlns="http://www.w3.org/2000/svg"
   xmlns:xlink="http://www.w3.org/1999/xlink"
   xmlns:sodipodi="http://sodipodi.sourceforge.net/DTD/sodipodi-0.dtd"
   xmlns:inkscape="http://www.inkscape.org/namespaces/inkscape"
   width="128"
   height="128"
   id="svg3085"
   version="1.1"
   inkscape:version="1.0.2 (e86c870879, 2021-01-15)"
   sodipodi:docname="org.gnome.Gtranslator.svg">
  <defs
     id="defs3087">
    <inkscape:perspective
       sodipodi:type="inkscape:persp3d"
       inkscape:vp_x="0 : 24 : 1"
       inkscape:vp_y="0 : 1000 : 0"
       inkscape:vp_z="48 : 24 : 1"
       inkscape:persp3d-origin="24 : 16 : 1"
       id="perspective3093" />
    <inkscape:perspective
       id="perspective3254"
       inkscape:persp3d-origin="0.5 : 0.33333333 : 1"
       inkscape:vp_z="1 : 0.5 : 1"
       inkscape:vp_y="0 : 1000 : 0"
       inkscape:vp_x="0 : 0.5 : 1"
       sodipodi:type="inkscape:persp3d" />
    <linearGradient
       inkscape:collect="always"
       id="linearGradient10239">
      <stop
         style="stop-color:#000000;stop-opacity:1;"
         offset="0"
         id="stop10241" />
      <stop
         style="stop-color:#000000;stop-opacity:0;"
         offset="1"
         id="stop10243" />
    </linearGradient>
    <radialGradient
       inkscape:collect="always"
       xlink:href="#linearGradient10239"
       id="radialGradient10421"
       gradientUnits="userSpaceOnUse"
       gradientTransform="matrix(1,0,0,0.1531531,0,172.42861)"
       cx="307.2821"
       cy="203.6125"
       fx="306.28568"
       fy="203.6125"
       r="4.9055533" />
    <linearGradient
       inkscape:collect="always"
       xlink:href="#linearGradient1351-3"
       id="linearGradient8550"
       gradientUnits="userSpaceOnUse"
       gradientTransform="matrix(0.25,0,0,0.25,180,83)"
       x1="344"
       y1="76"
       x2="340"
       y2="72" />
    <linearGradient
       id="linearGradient1351-3">
      <stop
         id="stop1347"
         offset="0"
         style="stop-color:#d5d3cf;stop-opacity:1" />
      <stop
         id="stop1349-6"
         offset="1"
         style="stop-color:#ffffff;stop-opacity:1" />
    </linearGradient>
    <clipPath
       id="clipPath1609-7"
       clipPathUnits="userSpaceOnUse">
      <path
         inkscape:connector-curvature="0"
         style="fill:#e74747;stroke:none;stroke-width:0.25px;stroke-linecap:butt;stroke-linejoin:miter;stroke-opacity:1"
         d="m 252,116 28,-28 v -8 h -36 v 36 z"
         id="path1611-5" />
    </clipPath>
    <linearGradient
       inkscape:collect="always"
       xlink:href="#linearGradient1723"
       id="linearGradient8548"
       gradientUnits="userSpaceOnUse"
       gradientTransform="translate(-16.436501,243.42857)"
       x1="7.99998"
       y1="-244.84381"
       x2="111.99999"
       y2="-244" />
    <linearGradient
       id="linearGradient1723">
      <stop
         id="stop1719"
         offset="0"
         style="stop-color:#d5d3cf;stop-opacity:1" />
      <stop
         style="stop-color:#f6f5f4;stop-opacity:1"
         offset="0.04545454"
         id="stop1731" />
      <stop
         style="stop-color:#d5d3cf;stop-opacity:1"
         offset="0.09090909"
         id="stop1729" />
      <stop
         style="stop-color:#d5d3cf;stop-opacity:1"
         offset="0.90909088"
         id="stop1727" />
      <stop
         id="stop1733"
         offset="0.95454544"
         style="stop-color:#eeeeec;stop-opacity:1" />
      <stop
         id="stop1721"
         offset="1"
         style="stop-color:#d5d3cf;stop-opacity:1" />
    </linearGradient>
  </defs>
  <sodipodi:namedview
     id="base"
     pagecolor="#ffffff"
     bordercolor="#666666"
     borderopacity="1.0"
     inkscape:pageopacity="0.0"
     inkscape:pageshadow="2"
     inkscape:zoom="3.5"
     inkscape:cx="90.953508"
     inkscape:cy="88.024484"
     inkscape:current-layer="g3557"
     showgrid="true"
     inkscape:grid-bbox="true"
     inkscape:document-units="px"
     inkscape:window-width="1366"
     inkscape:window-height="699"
     inkscape:window-x="0"
     inkscape:window-y="0"
     inkscape:window-maximized="1"
     inkscape:document-rotation="0" />
  <metadata
     id="metadata3090">
    <rdf:RDF>
      <cc:Work
         rdf:about="">
        <dc:format>image/svg+xml</dc:format>
        <dc:type
           rdf:resource="http://purl.org/dc/dcmitype/StillImage" />
        <dc:title />
      </cc:Work>
    </rdf:RDF>
  </metadata>
  <g
     id="layer1"
     inkscape:label="Layer 1"
     inkscape:groupmode="layer"
     transform="translate(0,80)">
    <g
       id="g3557"
       transform="translate(107.42857,-4.5714302)"
       style="opacity:1">
      <rect
         clip-path="none"
         ry="8"
         rx="8"
         y="-40.571434"
         x="-8.4365215"
         height="27.596491"
         width="104"
         id="rect8496"
         style="display:inline;opacity:1;vector-effect:none;fill:#26a269;fill-opacity:1;stroke:none;stroke-width:13.7188;stroke-linecap:butt;stroke-linejoin:miter;stroke-miterlimit:4;stroke-dasharray:none;stroke-dashoffset:0;stroke-opacity:1;marker:none;marker-start:none;marker-mid:none;marker-end:none;paint-order:normal;enable-background:new"
         transform="scale(-1)" />
      <rect
         transform="scale(-1)"
         style="display:inline;opacity:1;vector-effect:none;fill:url(#linearGradient8548);fill-opacity:1;stroke:none;stroke-width:13.7188;stroke-linecap:butt;stroke-linejoin:miter;stroke-miterlimit:4;stroke-dasharray:none;stroke-dashoffset:0;stroke-opacity:1;marker:none;marker-start:none;marker-mid:none;marker-end:none;paint-order:normal;enable-background:new"
         id="rect8510"
         width="104"
         height="36.491226"
         x="-8.4365215"
         y="-38.74688"
         rx="8"
         ry="8"
         clip-path="none" />
      <rect
         transform="scale(-1)"
         style="display:inline;opacity:1;vector-effect:none;fill:#f6f5f4;fill-opacity:1;stroke:none;stroke-width:13.7188;stroke-linecap:butt;stroke-linejoin:miter;stroke-miterlimit:4;stroke-dasharray:none;stroke-dashoffset:0;stroke-opacity:1;marker:none;marker-start:none;marker-mid:none;marker-end:none;paint-order:normal;enable-background:new"
         id="rect8512"
         width="104"
         height="43.789474"
         x="-8.4365215"
         y="19.639093"
         clip-path="none" />
      <rect
         clip-path="none"
         ry="8"
         rx="8"
         y="-35.09774"
         x="-8.4365215"
         height="98.526314"
         width="104"
         id="rect8514"
         style="display:inline;opacity:1;vector-effect:none;fill:#f6f5f4;fill-opacity:1;stroke:none;stroke-width:13.7188;stroke-linecap:butt;stroke-linejoin:miter;stroke-miterlimit:4;stroke-dasharray:none;stroke-dashoffset:0;stroke-opacity:1;marker:none;marker-start:none;marker-mid:none;marker-end:none;paint-order:normal;enable-background:new"
         transform="scale(-1)" />
      <path
         sodipodi:nodetypes="ccccccccccccccc"
         inkscape:connector-curvature="0"
         id="path10150"
         style="font-style:normal;font-variant:normal;font-weight:bold;font-stretch:normal;font-size:40px;line-height:0%;font-family:FreeSans;-inkscape-font-specification:'FreeSans Bold';text-align:center;text-anchor:middle;fill:#241f31;fill-opacity:0.141176;stroke:none;stroke-width:1.10453"
         d="m -61.735654,18.839412 h -11.201932 l -2.010604,5.732011 h -6.278006 l -0.0034,-1.999994 10.630848,-26.4261006 h 6.811432 l 10.375362,26.4261006 -0.03511,1.999994 h -6.319038 z m -1.682341,-4.874158 -3.898109,-11.1130829 -3.898108,11.1130829 z" />
      <path
         d="m -16.850722,-14.438647 h 6.340821 v -2.51172 h 2.6008762 v 6.20897 H -21.824661 v -3.878095 q 2.961582,-0.643 4.480341,-3.69725 1.51876,-3.05425 1.51876,-8.399187 0,-5.927656 -1.89845,-9.022093 -1.898449,-3.114532 -5.543473,-3.114532 -3.645023,0 -5.543473,3.114532 -1.879465,3.094437 -1.879465,9.06228 0,5.24447 1.537745,8.338907 1.537744,3.074343 4.461356,3.717343 v 3.878095 h -13.93462 v -6.20897 h 2.581891 v 2.51172 h 6.359807 q -4.499327,-1.848625 -6.815435,-5.063625 -2.316109,-3.235095 -2.316109,-7.65572 0,-6.349625 4.252528,-10.227718 4.271512,-3.898187 11.295775,-3.898187 7.024265,0 11.295776,3.898187 4.2715117,3.878093 4.2715117,10.227718 0,4.420625 -2.3161087,7.65572 -2.316109,3.215 -6.834418,5.063625 z"
         style="font-style:normal;font-weight:bold;font-size:40px;line-height:0%;font-family:FreeSans;-inkscape-font-specification:'Sans Bold';text-align:center;text-anchor:middle;fill:#241f31;fill-opacity:0.141176;stroke:none;stroke-width:1.10453"
         id="path971" />
      <path
         d="M -61.730168,16.839419 H -72.9321 l -2.010603,5.732011 h -6.278007 l 10.627475,-28.4260956 h 6.811431 L -53.441558,22.57143 h -6.319039 z M -63.412509,11.96526 -67.310618,0.85217711 -71.208726,11.96526 Z"
         style="font-style:normal;font-variant:normal;font-weight:bold;font-stretch:normal;font-size:40px;line-height:0%;font-family:FreeSans;-inkscape-font-specification:'FreeSans Bold';text-align:center;text-anchor:middle;fill:#5e5c64;fill-opacity:1;stroke:none;stroke-width:1.10453"
         id="path967" />
      <path
         d="m -16.850722,-16.438651 h 6.340821 v -2.511718 h 2.6008762 v 6.208968 H -21.824661 v -3.878093 q 2.961582,-0.643 4.480341,-3.69725 1.51876,-3.05425 1.51876,-8.399188 0,-5.927656 -1.89845,-9.022094 -1.898449,-3.114531 -5.543473,-3.114531 -3.645023,0 -5.543473,3.114531 -1.879465,3.094438 -1.879465,9.062282 0,5.244468 1.537745,8.338906 1.537744,3.074344 4.461356,3.717344 v 3.878093 h -13.93462 v -6.208968 h 2.581891 v 2.511718 h 6.359807 q -4.499327,-1.848625 -6.815435,-5.063625 -2.316109,-3.235093 -2.316109,-7.655718 0,-6.349625 4.252528,-10.227719 4.271512,-3.898188 11.295775,-3.898188 7.024265,0 11.295776,3.898188 4.2715117,3.878094 4.2715117,10.227719 0,4.420625 -2.3161087,7.655718 -2.316109,3.215 -6.834418,5.063625 z"
         style="font-style:normal;font-weight:bold;font-size:40px;line-height:0%;font-family:FreeSans;-inkscape-font-specification:'Sans Bold';text-align:center;text-anchor:middle;fill:#5e5c64;fill-opacity:1;stroke:none;stroke-width:1.10453"
         id="path963" />
      <rect
         style="display:inline;opacity:1;fill:url(#linearGradient8550);fill-opacity:1;stroke:none;stroke-width:0.5;stroke-linecap:butt;stroke-linejoin:miter;stroke-miterlimit:4;stroke-dasharray:none;stroke-dashoffset:0;stroke-opacity:1;marker:none;marker-start:none;marker-mid:none;marker-end:none;paint-order:normal;enable-background:new"
         id="rect8518"
         width="36"
         height="36"
         x="252"
         y="88"
         rx="11.2"
         ry="11.2"
         transform="matrix(0,0.71428571,0.71428571,0,-74.150807,-164.63714)"
         clip-path="url(#clipPath1609-7)" />
      <path
         id="path8536"
         d="m -87.563479,-57.428568 c -1.10457,0 -2,0.89543 -2,2 0,1.10457 0.89543,2.000001 2,2.000001 1.10457,0 2,-0.895431 2,-2.000001 0,-1.10457 -0.89543,-2 -2,-2 z m 8,0 c -1.10457,0 -2,0.89543 -2,2 0,1.10457 0.89543,2.000001 2,2.000001 1.10457,0 2,-0.895431 2,-2.000001 0,-1.10457 -0.89543,-2 -2,-2 z m 8,0 c -1.10457,0 -2,0.89543 -2,2 0,1.10457 0.89543,2.000001 2,2.000001 1.10457,0 2,-0.895431 2,-2.000001 0,-1.10457 -0.89543,-2 -2,-2 z m 8,0 c -1.10457,0 -2,0.89543 -2,2 0,1.10457 0.89543,2.000001 2,2.000001 1.10457,0 2,-0.895431 2,-2.000001 0,-1.10457 -0.89543,-2 -2,-2 z m 8,0 c -1.10457,0 -2,0.89543 -2,2 0,1.10457 0.89543,2.000001 2,2.000001 1.10457,0 2,-0.895431 2,-2.000001 0,-1.10457 -0.89543,-2 -2,-2 z m 8,0 c -1.10457,0 -2,0.89543 -2,2 0,1.10457 0.89543,2.000001 2,2.000001 1.10457,0 2,-0.895431 2,-2.000001 0,-1.10457 -0.89543,-2 -2,-2 z m 8,0 c -1.10457,0 -2,0.89543 -2,2 0,1.10457 0.89543,2.000001 2,2.000001 1.10457,0 2,-0.895431 2,-2.000001 0,-1.10457 -0.89543,-2 -2,-2 z m 8,0 c -1.10457,0 -2,0.89543 -2,2 0,1.10457 0.89543,2.000001 2,2.000001 1.10457,0 2,-0.895431 2,-2.000001 0,-1.10457 -0.89543,-2 -2,-2 z m 8,0 c -1.10457,0 -2,0.89543 -2,2 0,1.10457 0.89543,2.000001 2,2.000001 1.10457,0 2,-0.895431 2,-2.000001 0,-1.10457 -0.89543,-2 -2,-2 z"
         style="display:inline;opacity:1;fill:#d5d3cf;fill-opacity:1;stroke:none;stroke-width:4;stroke-linecap:square;stroke-linejoin:round;stroke-miterlimit:4;stroke-dasharray:none;stroke-dashoffset:0;stroke-opacity:1;enable-background:new"
         inkscape:connector-curvature="0" />
      <path
         d="m -95.563479,-57.428568 a 2,2 0 0 1 2,2 2,2 0 0 1 -2,2.000001 v -2.000001 z"
         id="path8538"
         style="display:inline;opacity:1;vector-effect:none;fill:#d5d3cf;fill-opacity:1;stroke:none;stroke-width:16;stroke-linecap:butt;stroke-linejoin:round;stroke-miterlimit:4;stroke-dasharray:none;stroke-dashoffset:0;stroke-opacity:1;enable-background:new"
         inkscape:connector-curvature="0" />
      <path
         style="display:inline;opacity:1;vector-effect:none;fill:#d5d3cf;fill-opacity:1;stroke:none;stroke-width:16;stroke-linecap:butt;stroke-linejoin:round;stroke-miterlimit:4;stroke-dasharray:none;stroke-dashoffset:0;stroke-opacity:1;enable-background:new"
         id="path8540"
         d="m 8.4365214,-57.428568 a 2,2 0 0 0 -2,2 2,2 0 0 0 2,2.000001 v -2.000001 z"
         inkscape:connector-curvature="0" />
      <path
         inkscape:connector-curvature="0"
         style="display:inline;opacity:1;fill:#d5d3cf;fill-opacity:1;stroke:none;stroke-width:4;stroke-linecap:square;stroke-linejoin:round;stroke-miterlimit:4;stroke-dasharray:none;stroke-dashoffset:0;stroke-opacity:1;enable-background:new"
         d="m -63.563479,-57.428568 c -1.10457,0 -2,0.89543 -2,2 0,1.10457 0.89543,2.000001 2,2.000001 1.10457,0 2,-0.895431 2,-2.000001 0,-1.10457 -0.89543,-2 -2,-2 z m 8,0 c -1.10457,0 -2,0.89543 -2,2 0,1.10457 0.89543,2.000001 2,2.000001 1.10457,0 2,-0.895431 2,-2.000001 0,-1.10457 -0.89543,-2 -2,-2 z m 8,0 c -1.10457,0 -2,0.89543 -2,2 0,1.10457 0.89543,2.000001 2,2.000001 1.10457,0 2,-0.895431 2,-2.000001 0,-1.10457 -0.89543,-2 -2,-2 z m 8,0 c -1.10457,0 -2,0.89543 -2,2 0,1.10457 0.89543,2.000001 2,2.000001 1.10457,0 2,-0.895431 2,-2.000001 0,-1.10457 -0.89543,-2 -2,-2 z m 8,0 c -1.10457,0 -2,0.89543 -2,2 0,1.10457 0.89543,2.000001 2,2.000001 1.10457,0 2,-0.895431 2,-2.000001 0,-1.10457 -0.89543,-2 -2,-2 z m 8,0 c -1.10457,0 -2,0.89543 -2,2 0,1.10457 0.89543,2.000001 2,2.000001 1.10457,0 2,-0.895431 2,-2.000001 0,-1.10457 -0.89543,-2 -2,-2 z m 8,0 c -1.10457,0 -2,0.89543 -2,2 0,1.10457 0.89543,2.000001 2,2.000001 1.10457,0 2,-0.895431 2,-2.000001 0,-1.10457 -0.89543,-2 -2,-2 z m 8.0000004,0 c -1.10457,0 -2,0.89543 -2,2 0,1.10457 0.89543,2.000001 2,2.000001 1.104572,0 2.000002,-0.895431 2.000002,-2.000001 0,-1.10457 -0.89543,-2 -2.000002,-2 z m 8.00000199,0 c -1.10457,0 -1.99999999,0.89543 -1.99999999,2 0,1.10457 0.89542999,2.000001 1.99999999,2.000001 1.10457001,0 2.00000001,-0.895431 2.00000001,-2.000001 0,-1.10457 -0.89543,-2 -2.00000001,-2 z"
         id="path8626" />
      <path
         style="display:inline;opacity:1;fill:#424040;fill-opacity:0.141176;stroke:none;stroke-width:1;stroke-linecap:round;stroke-linejoin:round;stroke-miterlimit:4;stroke-dasharray:none;stroke-opacity:1;enable-background:new"
         d="m -54.990577,-28.231957 1.5814,4.83266 11.022049,-12.14429 v -2.93699 l -16.019933,-5.08485 0.05112,2.80593 0.883963,4.60191 c -14.024732,7.0668 -19.629899,18.48872 -19.629899,19.01046 v 2.93699 l 8.903131,1.46896 c 2.013853,-8.5135 6.961348,-12.81866 13.208171,-15.49078 z"
         id="path10126"
         inkscape:connector-curvature="0"
         sodipodi:nodetypes="cccccccsccc" />
      <path
         sodipodi:nodetypes="cccccccc"
         inkscape:connector-curvature="0"
         id="path10058"
         d="m -54.990577,-31.168937 1.5814,4.83265 11.022049,-12.14429 -16.019933,-5.08485 0.935075,4.47085 c -15.804688,7.9637 -17.454299,14.93718 -19.629893,21.94745 l 8.53494,1.50988 c 2.013853,-8.51351 7.329539,-12.85958 13.576362,-15.53169 z"
         style="display:inline;opacity:1;fill:#33d17a;fill-opacity:1;stroke:none;stroke-width:1;stroke-linecap:round;stroke-linejoin:round;stroke-miterlimit:4;stroke-dasharray:none;stroke-opacity:1;enable-background:new" />
      <path
         sodipodi:nodetypes="cccccccccccc"
         inkscape:connector-curvature="0"
         id="path10124"
         d="m -34.918688,11.852913 -1.581401,-4.8326602 -11.910461,9.3579802 0.0076,2.78631 16.072632,5.49891 -0.08702,-3.2594 -0.512868,-1.5072 c 15.804688,-7.9637 18.683942,-18.5633402 19.196122,-21.0855202 l 0.01508,-3.77218 -7.623353,1.28207 c -2.013853,8.5135 -7.329539,12.85957 -13.576361,15.5316902 z"
         style="display:inline;opacity:1;fill:#000000;fill-opacity:0.141914;stroke:none;stroke-width:1;stroke-linecap:round;stroke-linejoin:round;stroke-miterlimit:4;stroke-dasharray:none;stroke-opacity:1;enable-background:new" />
      <path
         style="display:inline;opacity:1;fill:#33d17a;fill-opacity:1;stroke:none;stroke-width:1;stroke-linecap:round;stroke-linejoin:round;stroke-miterlimit:4;stroke-dasharray:none;stroke-opacity:1;enable-background:new"
         d="m -35.818304,9.0794828 -1.5814,-4.83265 -11.022049,12.1442802 16.019933,5.08485 -0.935075,-4.47084 C -17.532207,9.0414228 -15.882596,2.0679328 -13.707002,-4.9423272 l -8.53494,-1.50988 c -2.013853,8.51351 -7.329539,12.85957 -13.576362,15.53169 z"
         id="path10060"
         inkscape:connector-curvature="0"
         sodipodi:nodetypes="cccccccc" />
    </g>
  </g>
</svg>
