<?xml version="1.0" encoding="UTF-8" standalone="no"?>
<!-- Created with Inkscape (http://www.inkscape.org/) -->

<svg
   xmlns:dc="http://purl.org/dc/elements/1.1/"
   xmlns:cc="http://creativecommons.org/ns#"
   xmlns:rdf="http://www.w3.org/1999/02/22-rdf-syntax-ns#"
   xmlns:svg="http://www.w3.org/2000/svg"
   xmlns="http://www.w3.org/2000/svg"
   version="1.1"
   width="100%"
   height="100%"
   viewBox="0 0 32 32"
   id="svg3070">
  <metadata
     id="metadata3115">
    <rdf:RDF>
      <cc:Work
         rdf:about="">
        <dc:format>image/svg+xml</dc:format>
        <dc:type
           rdf:resource="http://purl.org/dc/dcmitype/StillImage" />
        <dc:title></dc:title>
      </cc:Work>
    </rdf:RDF>
  </metadata>
  <defs
     id="defs3072">
    <linearGradient
       id="linearGradient3887">
      <stop
         id="stop3889"
         style="stop-color:#000000;stop-opacity:1"
         offset="0" />
    </linearGradient>
    <linearGradient
       y1="46.834999"
       x2="0"
       y2="1"
       id="linearGradient3021"
       gradientUnits="userSpaceOnUse">
      <stop
         id="stop3075"
         style="stop-color:#596679;stop-opacity:1"
         offset="0" />
      <stop
         id="stop3077"
         style="stop-color:#617085;stop-opacity:1"
         offset="1" />
    </linearGradient>
  </defs>
  <path
     d="m 15.979185,0.6928819 c 8.468646,0 15.333295,6.8646501 15.333295,15.3332951 0,8.468646 -6.864649,15.333295 -15.333295,15.333295 -8.4686458,0 -15.3332953,-6.864649 -15.3332953,-15.333295 0,-8.468645 6.8646495,-15.3332951 15.3332953,-15.3332951 z"
     id="path3089"
     style="fill:#ffffff;fill-opacity:1;stroke:none" />
  <path
     d="m 1.4273816,16.495367 29.0143434,0"
     id="path3894"
     style="fill:#0000ff;stroke:#0000ff;stroke-width:1;stroke-linecap:butt;stroke-linejoin:miter;stroke-miterlimit:4;stroke-opacity:1;stroke-dasharray:none" />
  <path
     d="m 1.9792196,17.359507 c 6.66665,-9.999975 8.6666454,15.333295 12.6666354,-1.33333 3.150287,-13.1261952 8.520777,1.921929 9.999975,-0.666665 2.66666,-4.666655 3.99999,1.33333 4.666655,1.999995"
     id="path4550"
     style="fill:none;stroke:#000000;stroke-width:0.80000001;stroke-linecap:butt;stroke-linejoin:miter;stroke-miterlimit:4;stroke-opacity:1;stroke-dasharray:none" />
  <path
     d="m 16.498751,1.9452015 0,28.0478235"
     id="path3902"
     style="fill:none;stroke:#ff0000;stroke-width:1;stroke-linecap:butt;stroke-linejoin:miter;stroke-miterlimit:4;stroke-opacity:1;stroke-dasharray:none" />
  <path
     d="m 15.979185,0.6928819 c 8.468646,0 15.333295,6.8646501 15.333295,15.3332951 0,8.468646 -6.864649,15.333295 -15.333295,15.333295 -8.4686458,0 -15.3332953,-6.864649 -15.3332953,-15.333295 0,-8.468645 6.8646495,-15.3332951 15.3332953,-15.3332951 z"
     id="path3896"
     style="fill:none;stroke:#000000;stroke-width:0.66666502;stroke-opacity:1" />
</svg>
