<?xml version="1.0" encoding="UTF-8" standalone="no"?>
<!-- Created with Inkscape (http://www.inkscape.org/) -->

<svg
   xmlns:dc="http://purl.org/dc/elements/1.1/"
   xmlns:cc="http://creativecommons.org/ns#"
   xmlns:rdf="http://www.w3.org/1999/02/22-rdf-syntax-ns#"
   xmlns:svg="http://www.w3.org/2000/svg"
   xmlns="http://www.w3.org/2000/svg"
   xmlns:xlink="http://www.w3.org/1999/xlink"
   xmlns:sodipodi="http://sodipodi.sourceforge.net/DTD/sodipodi-0.dtd"
   xmlns:inkscape="http://www.inkscape.org/namespaces/inkscape"
   width="32"
   height="32"
   viewBox="0 0 32 32.000001"
   id="svg4166"
   version="1.1"
   inkscape:version="0.91 r13725"
   sodipodi:docname="artemanufrij.hashit.svg">
  <defs
     id="defs4168">
    <linearGradient
       inkscape:collect="always"
       id="linearGradient4191">
      <stop
         style="stop-color:#000000;stop-opacity:0"
         offset="0"
         id="stop4193" />
      <stop
         style="stop-color:#000000;stop-opacity:0.03921569"
         offset="1"
         id="stop4195" />
    </linearGradient>
    <linearGradient
       inkscape:collect="always"
       id="linearGradient4202">
      <stop
         offset="0"
         id="stop4204"
         style="stop-color:#ffffff;stop-opacity:0.1" />
      <stop
         id="stop4187"
         offset="0.2"
         style="stop-color:#ffffff;stop-opacity:0.05" />
      <stop
         id="stop4185"
         offset="0.80000001"
         style="stop-color:#ffffff;stop-opacity:0.05" />
      <stop
         offset="1"
         id="stop4206"
         style="stop-color:#ffffff;stop-opacity:0.30000001" />
    </linearGradient>
    <filter
       style="color-interpolation-filters:sRGB;"
       inkscape:label="Drop Shadow"
       id="filter4190">
      <feFlood
         flood-opacity="0.498039"
         flood-color="rgb(0,0,0)"
         result="flood"
         id="feFlood4192" />
      <feComposite
         in="flood"
         in2="SourceGraphic"
         operator="in"
         result="composite1"
         id="feComposite4194" />
      <feGaussianBlur
         in="composite1"
         stdDeviation="1"
         result="blur"
         id="feGaussianBlur4196" />
      <feOffset
         dx="1.38778e-16"
         dy="1"
         result="offset"
         id="feOffset4198" />
      <feComposite
         in="SourceGraphic"
         in2="offset"
         operator="over"
         result="composite2"
         id="feComposite4200" />
    </filter>
    <linearGradient
       inkscape:collect="always"
       xlink:href="#linearGradient4202"
       id="linearGradient4208"
       x1="16"
       y1="1049"
       x2="16"
       y2="1024"
       gradientUnits="userSpaceOnUse" />
    <filter
       style="color-interpolation-filters:sRGB;"
       inkscape:label="Drop Shadow"
       id="filter4181">
      <feFlood
         flood-opacity="0.498039"
         flood-color="rgb(0,0,0)"
         result="flood"
         id="feFlood4183" />
      <feComposite
         in="flood"
         in2="SourceGraphic"
         operator="in"
         result="composite1"
         id="feComposite4185" />
      <feGaussianBlur
         in="composite1"
         stdDeviation="1"
         result="blur"
         id="feGaussianBlur4187" />
      <feOffset
         dx="1.38778e-16"
         dy="1"
         result="offset"
         id="feOffset4189" />
      <feComposite
         in="SourceGraphic"
         in2="offset"
         operator="over"
         result="composite2"
         id="feComposite4191" />
    </filter>
    <radialGradient
       inkscape:collect="always"
       xlink:href="#linearGradient4173"
       id="radialGradient4179"
       cx="16"
       cy="-2.8"
       fx="16"
       fy="-2.8"
       r="14"
       gradientTransform="matrix(0.92857143,0,0,0.71428572,1.14286,5)"
       gradientUnits="userSpaceOnUse" />
    <linearGradient
       inkscape:collect="always"
       id="linearGradient4173">
      <stop
         style="stop-color:#ffffff;stop-opacity:0.26666668"
         offset="0"
         id="stop4175" />
      <stop
         style="stop-color:#ffffff;stop-opacity:0"
         offset="1"
         id="stop4177" />
    </linearGradient>
    <linearGradient
       inkscape:collect="always"
       xlink:href="#linearGradient4191"
       id="linearGradient4197"
       x1="16"
       y1="1024"
       x2="16"
       y2="1049"
       gradientUnits="userSpaceOnUse"
       gradientTransform="matrix(1.0833333,0,0,1.0833333,-1.3333333,-86.363496)" />
  </defs>
  <sodipodi:namedview
     id="base"
     pagecolor="#ffffff"
     bordercolor="#666666"
     borderopacity="1.0"
     inkscape:pageopacity="0.0"
     inkscape:pageshadow="2"
     inkscape:zoom="16"
     inkscape:cx="26.752852"
     inkscape:cy="13.942461"
     inkscape:document-units="px"
     inkscape:current-layer="layer1"
     showgrid="false"
     units="px"
     inkscape:window-width="1640"
     inkscape:window-height="1241"
     inkscape:window-x="891"
     inkscape:window-y="98"
     inkscape:window-maximized="0" />
  <metadata
     id="metadata4171">
    <rdf:RDF>
      <cc:Work
         rdf:about="">
        <dc:format>image/svg+xml</dc:format>
        <dc:type
           rdf:resource="http://purl.org/dc/dcmitype/StillImage" />
        <dc:title />
      </cc:Work>
    </rdf:RDF>
  </metadata>
  <g
     inkscape:label="Layer 1"
     inkscape:groupmode="layer"
     id="layer1"
     transform="translate(0,-1020.3622)"
     style="opacity:1">
    <rect
       style="opacity:1;fill:#808080;fill-opacity:1;stroke:none;stroke-width:1;stroke-miterlimit:4;stroke-dasharray:none;stroke-opacity:0"
       id="rect4716"
       width="28"
       height="28"
       x="2"
       y="1022.3622"
       rx="3"
       ry="3" />
    <rect
       ry="2.5"
       rx="2.5"
       y="1022.8622"
       x="2.5"
       height="27"
       width="27"
       id="rect4718"
       style="opacity:1;fill:none;fill-opacity:1;stroke:#000000;stroke-width:1;stroke-miterlimit:4;stroke-dasharray:none;stroke-opacity:0.33000004" />
    <rect
       style="opacity:1;fill:none;fill-opacity:1;stroke:url(#linearGradient4208);stroke-width:1;stroke-miterlimit:4;stroke-dasharray:none;stroke-opacity:1"
       id="rect4728"
       width="25"
       height="25"
       x="3.5"
       y="1023.8622"
       rx="1.5"
       ry="1.5" />
    <rect
       ry="2"
       rx="2"
       y="1023.3622"
       x="3"
       height="26"
       width="26"
       id="rect4189"
       style="opacity:1;fill:url(#linearGradient4197);fill-opacity:1;stroke:none;stroke-width:1;stroke-miterlimit:4;stroke-dasharray:none;stroke-opacity:1" />
  </g>
  <g
     inkscape:groupmode="layer"
     id="layer2"
     inkscape:label="Icon"
     style="display:inline;opacity:1">
    <g
       transform="matrix(1.0595767,0,0,1.0082461,-0.95322746,0.8680624)"
       id="g4191"
       style="font-style:normal;font-weight:normal;font-size:40px;line-height:125%;font-family:sans-serif;letter-spacing:0px;word-spacing:0px;fill:#000000;fill-opacity:1;stroke:none;stroke-width:1px;stroke-linecap:butt;stroke-linejoin:miter;stroke-opacity:1;opacity:0.5">
      <path
         inkscape:connector-curvature="0"
         id="path4193"
         style="font-size:16.25px;fill:#000000;fill-opacity:1"
         d="m 14.544006,14.80188 -0.618896,2.927856 2.062988,0 0,0.856934 -2.245483,0 -0.698242,3.237305 -0.872803,0 0.682373,-3.237305 -2.8802492,0 -0.6665039,3.237305 -0.8728027,0 0.6665039,-3.237305 -1.5948486,0 0,-0.856934 1.7852783,0 0.6188965,-2.927856 -1.9995117,0 0,-0.856934 2.1740724,0 0.706177,-3.237304 0.872802,0 -0.698242,3.237304 2.880249,0 0.698242,-3.237304 0.872803,0 -0.698242,3.237304 1.674194,0 0,0.856934 -1.848755,0 z m -3.737182,0 -0.634766,2.927856 2.872315,0 0.618896,-2.927856 -2.856445,0 z" />
      <path
         inkscape:connector-curvature="0"
         id="path4195"
         style="font-size:16.25px;fill:#000000;fill-opacity:1"
         d="m 17.567078,11.413818 0,-1.364746 1.428222,0 0,1.364746 -1.428222,0 z m 0,10.410157 0,-8.585205 1.428222,0 0,8.585205 -1.428222,0 z" />
      <path
         inkscape:connector-curvature="0"
         id="path4197"
         style="font-size:16.25px;fill:#000000;fill-opacity:1"
         d="m 24.493958,21.760498 q -0.706177,0.19043 -1.444092,0.19043 -1.713867,0 -1.713867,-1.94397 l 0,-5.72876 -0.991822,0 0,-1.039428 1.047364,0 0.420532,-1.920166 0.952148,0 0,1.920166 1.586914,0 0,1.039428 -1.586914,0 0,5.419312 q 0,0.618896 0.198364,0.872802 0.206299,0.245972 0.706177,0.245972 0.285645,0 0.825196,-0.111084 l 0,1.055298 z" />
    </g>
    <g
       style="font-style:normal;font-weight:normal;font-size:40px;line-height:125%;font-family:sans-serif;letter-spacing:0px;word-spacing:0px;fill:#ffffff;fill-opacity:1;stroke:none;stroke-width:1px;stroke-linecap:butt;stroke-linejoin:miter;stroke-opacity:1"
       id="text4180"
       transform="matrix(1.0595767,0,0,1.0082461,-0.95322746,-0.1319376)">
      <path
         d="m 14.544006,14.80188 -0.618896,2.927856 2.062988,0 0,0.856934 -2.245483,0 -0.698242,3.237305 -0.872803,0 0.682373,-3.237305 -2.8802492,0 -0.6665039,3.237305 -0.8728027,0 0.6665039,-3.237305 -1.5948486,0 0,-0.856934 1.7852783,0 0.6188965,-2.927856 -1.9995117,0 0,-0.856934 2.1740724,0 0.706177,-3.237304 0.872802,0 -0.698242,3.237304 2.880249,0 0.698242,-3.237304 0.872803,0 -0.698242,3.237304 1.674194,0 0,0.856934 -1.848755,0 z m -3.737182,0 -0.634766,2.927856 2.872315,0 0.618896,-2.927856 -2.856445,0 z"
         style="font-size:16.25px;fill:#ffffff;fill-opacity:1"
         id="path4185"
         inkscape:connector-curvature="0" />
      <path
         d="m 17.567078,11.413818 0,-1.364746 1.428222,0 0,1.364746 -1.428222,0 z m 0,10.410157 0,-8.585205 1.428222,0 0,8.585205 -1.428222,0 z"
         style="font-size:16.25px;fill:#ffffff;fill-opacity:1"
         id="path4187"
         inkscape:connector-curvature="0" />
      <path
         d="m 24.493958,21.760498 q -0.706177,0.19043 -1.444092,0.19043 -1.713867,0 -1.713867,-1.94397 l 0,-5.72876 -0.991822,0 0,-1.039428 1.047364,0 0.420532,-1.920166 0.952148,0 0,1.920166 1.586914,0 0,1.039428 -1.586914,0 0,5.419312 q 0,0.618896 0.198364,0.872802 0.206299,0.245972 0.706177,0.245972 0.285645,0 0.825196,-0.111084 l 0,1.055298 z"
         style="font-size:16.25px;fill:#ffffff;fill-opacity:1"
         id="path4189"
         inkscape:connector-curvature="0" />
    </g>
  </g>
  <g
     inkscape:groupmode="layer"
     id="layer3"
     inkscape:label="Spot"
     style="display:none">
    <rect
       style="fill:url(#radialGradient4179);fill-opacity:1;fill-rule:evenodd;stroke:none;stroke-width:1px;stroke-linecap:butt;stroke-linejoin:miter;stroke-opacity:1"
       id="rect3371"
       width="26"
       height="10"
       x="3"
       y="3"
       rx="2"
       ry="2" />
  </g>
</svg>
