<?xml version="1.0" encoding="utf-8"?>
<!-- Generator: Adobe Illustrator 19.1.0, SVG Export Plug-In . SVG Version: 6.00 Build 0)  -->
<svg version="1.1" id="Layer_1" xmlns="http://www.w3.org/2000/svg" xmlns:xlink="http://www.w3.org/1999/xlink" x="0px" y="0px"
	 viewBox="-297 388.9 64 64" style="enable-background:new -297 388.9 64 64;" xml:space="preserve">
<style type="text/css">
	.st0{fill:url(#SVGID_1_);}
	.st1{fill:url(#SVGID_2_);}
	.st2{fill:url(#SVGID_3_);}
	.st3{fill:#FFFFFF;}
</style>
<g>
	<linearGradient id="SVGID_1_" gradientUnits="userSpaceOnUse" x1="-251.6431" y1="436.9397" x2="-269.2548" y2="395.4388">
		<stop  offset="0.172" style="stop-color:#FF1F51"/>
		<stop  offset="0.2798" style="stop-color:#FF3648"/>
		<stop  offset="0.4681" style="stop-color:#FF593B"/>
		<stop  offset="0.6464" style="stop-color:#FF7231"/>
		<stop  offset="0.8088" style="stop-color:#FF812B"/>
		<stop  offset="0.9409" style="stop-color:#FF8629"/>
	</linearGradient>
	<polygon class="st0" points="-243.8,388.9 -262.1,395.5 -276.5,388.9 -290.7,424.5 -274.4,418 -274.7,436 -239.9,436.6 -233,401.4 
			"/>
	<linearGradient id="SVGID_2_" gradientUnits="userSpaceOnUse" x1="-266.5918" y1="400.6721" x2="-274.0473" y2="419.4599">
		<stop  offset="2.150538e-002" style="stop-color:#9039D0"/>
		<stop  offset="0.629" style="stop-color:#FF1F51"/>
	</linearGradient>
	<polygon class="st1" points="-250.5,409.6 -273.6,394.5 -292.2,406 -251.4,421.7 	"/>
	<linearGradient id="SVGID_3_" gradientUnits="userSpaceOnUse" x1="-296.735" y1="399.1524" x2="-255.5976" y2="451.4457">
		<stop  offset="0.1075" style="stop-color:#9039D0"/>
		<stop  offset="0.3871" style="stop-color:#FF1F51"/>
		<stop  offset="0.629" style="stop-color:#FF1F51"/>
		<stop  offset="0.6599" style="stop-color:#FF3648"/>
		<stop  offset="0.7139" style="stop-color:#FF593B"/>
		<stop  offset="0.765" style="stop-color:#FF7231"/>
		<stop  offset="0.8116" style="stop-color:#FF812B"/>
		<stop  offset="0.8495" style="stop-color:#FF8629"/>
	</linearGradient>
	<polygon class="st2" points="-270.4,451.2 -246.4,448 -254.1,433.4 -249,427.3 -248.5,423.6 -273.6,394.5 -297,400.2 -297,433.8 
		-283.5,452.9 -270.4,451.2 -270.4,451.2 -270.4,451.2 -270.4,451.2 	"/>
</g>
<g>
	<rect x="-285" y="400.9" width="40" height="40"/>
	<rect x="-281.2" y="433.4" class="st3" width="15" height="2.5"/>
	<polygon class="st3" points="-265.4,406.1 -261.4,406.1 -257.1,413.1 -252.7,406.1 -248.7,406.1 -248.7,422.7 -252.4,422.7 
		-252.4,411.8 -257.1,418.9 -257.2,418.9 -261.8,411.9 -261.8,422.7 -265.4,422.7 	"/>
	<path class="st3" d="M-281.3,406.1h7.6c2.1,0,3.7,0.6,4.8,1.7c0.9,0.9,1.4,2.2,1.4,3.8v0c0,1.3-0.3,2.4-1,3.3
		c-0.7,0.8-1.5,1.5-2.6,1.9l4.1,5.9h-4.3l-3.4-5.1h-3l0,5.1h-3.7V406.1z M-273.9,414.1c0.9,0,1.6-0.2,2.1-0.6c0.5-0.4,0.7-1,0.7-1.7
		v0c0-0.8-0.3-1.4-0.8-1.8c-0.5-0.4-1.2-0.6-2.1-0.6h-3.6v4.8H-273.9z"/>
</g>
</svg>
