<svg width="64" height="64" viewBox="0 0 64 64" fill="none" xmlns="http://www.w3.org/2000/svg">
<path d="M45.1 18.1L40.9 0H17.9L0 27.5L5.2 40.1L0 51.6L30.7 57L50.1 39.8L45.1 18.1Z" fill="url(#paint0_linear)"/>
<path d="M6.3 28.4L0 27.5L5.2 40.1L0 51.6L12.3 41.5L6.3 28.4Z" fill="url(#paint1_linear)"/>
<path d="M6.3 28.4L0 27.5L5.2 40.1L12.3 41.5L6.3 28.4Z" fill="url(#paint2_linear)"/>
<path d="M6.3 28.3L40.9 0H17.9L0 27.5L6.3 28.3Z" fill="url(#paint3_linear)"/>
<path d="M6.3 28.3L40.9 0H17.9L0 27.5L6.3 28.3Z" fill="url(#paint4_linear)"/>
<path d="M6.3 28.3L22.5 15L17.9 0L0 27.5L6.3 28.3Z" fill="url(#paint5_linear)"/>
<path d="M6.3 28.3L22.5 15L17.9 0L0 27.5L6.3 28.3Z" fill="url(#paint6_linear)"/>
<path d="M56.4 24.8L64 41.7001L50.9 64L42.9 44.5L56.4 24.8Z" fill="url(#paint7_linear)"/>
<path d="M49.6 35L64 41.7L50.9 64L42.9 44.5L49.6 35Z" fill="url(#paint8_linear)"/>
<path d="M42.9 44.5L50.9 64L30.7 57L42.9 44.5Z" fill="url(#paint9_linear)"/>
<path d="M64 13.6001L37.2 20.0001L0 51.6001L24 64.0001L42.9 44.5001L64 13.6001Z" fill="url(#paint10_linear)"/>
<path d="M15.9 52.3001L0 51.6001L24 64.0001L30.9 56.9001L15.9 52.3001Z" fill="url(#paint11_linear)"/>
<path d="M15.9 52.2999L0 51.5999L12.1 41.2L15.9 52.2999Z" fill="url(#paint12_linear)"/>
<path d="M64 13.6001L37.2 20.0001L56.0999 25.2001L64 13.6001Z" fill="url(#paint13_linear)"/>
<path d="M64 13.6001L37.2 20.0001L54.9 24.9001L64 13.6001Z" fill="url(#paint14_linear)"/>
<path d="M49.1 35.4001L45.1 18.1001L37.2001 20.0001L26.3 29.2001L49.1 35.4001Z" fill="url(#paint15_linear)"/>
<path d="M46.0999 22.4001L45.0999 18.1001L37.2 20.0001L46.0999 22.4001Z" fill="url(#paint16_linear)"/>
<path d="M12.2 41.3L42.9 44.5L56.4 24.8L46.5 26L12.2 41.3Z" fill="url(#paint17_linear)"/>
<path d="M64 13.6001L24 64.0001L42.9 44.5001L64 13.6001Z" fill="url(#paint18_linear)"/>
<path d="M64 13.6001L24 64.0001L42.9 44.5001L64 13.6001Z" fill="url(#paint19_linear)"/>
<path d="M52 12H12V52H52V12Z" fill="url(#paint20_linear)"/>
<g opacity="0.3">
<g opacity="0.3">
<path opacity="0.3" d="M37.2 20L45.1 18.1L43.7 12H26.2L12 23.6V41.4L37.2 20Z" fill="url(#paint21_linear)"/>
</g>
<path opacity="0.3" d="M12 23.6L26.2 12H12V23.6Z" fill="url(#paint22_linear)"/>
<g opacity="0.3">
<path opacity="0.3" d="M44.3 47.8L46 52L44.3 47.8Z" fill="url(#paint23_linear)"/>
<path opacity="0.3" d="M49.6 35L52 36.1V31.2L42.9 44.5L49.6 35Z" fill="url(#paint24_linear)"/>
</g>
<path opacity="0.3" d="M52 36.1L49.5 34.7L42.9 44.5L46 52H52V36.1Z" fill="url(#paint25_linear)"/>
<path opacity="0.3" d="M42.9 44.5L35.6 52H46L42.9 44.5Z" fill="url(#paint26_linear)"/>
<path opacity="0.3" d="M52 16.3999L37.2 19.9999L12 41.3999V51.9999H35.6L42.9 44.4999L52 31.1999V16.3999Z" fill="url(#paint27_linear)"/>
<path opacity="0.3" d="M52 23.9999V16.3999L37.2 19.9999L52 23.9999Z" fill="#08FF6C"/>
</g>
<path d="M32 44.45H17V46.95H32V44.45Z" fill="white"/>
<path d="M15.7001 24.5403C15.7001 20.2556 19.0732 16.7913 23.6315 16.7913C26.3664 16.7913 28.0074 17.5206 29.5572 18.8881L27.4604 21.3495C26.2753 20.3467 25.2725 19.7997 23.5403 19.7997C21.17 19.7997 19.2555 21.8965 19.2555 24.4492C19.2555 27.1841 21.17 29.1898 23.8138 29.1898C24.999 29.1898 26.0929 28.9163 26.9134 28.2781V26.0901H23.5403V23.264H30.1042V29.8279C28.5544 31.1043 26.4576 32.1982 23.7226 32.1982C18.982 32.2894 15.7001 29.0074 15.7001 24.5403Z" fill="white"/>
<path d="M32 24.5402C32 20.2554 35.3731 16.7 40.0226 16.7C44.672 16.7 47.954 20.1642 47.954 24.449C47.954 28.7338 44.5808 32.1981 39.9314 32.1981C35.282 32.2893 32 28.825 32 24.5402ZM44.4897 24.5402C44.4897 21.8964 42.5752 19.7996 39.9314 19.7996C37.2876 19.7996 35.4643 21.8964 35.4643 24.449C35.4643 27.0017 37.3788 29.1896 40.0226 29.1896C42.6664 29.2808 44.4897 27.184 44.4897 24.5402Z" fill="white"/>
<defs>
<linearGradient id="paint0_linear" x1="28.8264" y1="25.8178" x2="44.0191" y2="8.5335" gradientUnits="userSpaceOnUse">
<stop  offset="0" stop-color="#087CFA"/>
<stop offset="0.0225255" stop-color="#0D7BFA"/>
<stop offset="0.3726" stop-color="#5566F9"/>
<stop offset="0.6634" stop-color="#8A57F8"/>
<stop offset="0.8808" stop-color="#AB4EF7"/>
<stop offset="1" stop-color="#B74AF7"/>
</linearGradient>
<linearGradient id="paint1_linear" x1="-0.0215253" y1="39.518" x2="16.688" y2="38.7915" gradientUnits="userSpaceOnUse">
<stop offset="0.1204" stop-color="#2D58F9"/>
<stop offset="0.9461" stop-color="#B74AF7"/>
</linearGradient>
<linearGradient id="paint2_linear" x1="3.061" y1="25.8395" x2="9.1722" y2="42.9231" gradientUnits="userSpaceOnUse">
<stop offset="0.0852751" stop-color="#086AFA"/>
<stop offset="0.4762" stop-color="#087CFA"/>
<stop offset="0.6849" stop-color="#466AF9"/>
<stop offset="0.8976" stop-color="#8059F8"/>
<stop offset="1" stop-color="#9653F8"/>
</linearGradient>
<linearGradient id="paint3_linear" x1="2.2493" y1="22.2394" x2="37.3938" y2="-6.5028" gradientUnits="userSpaceOnUse">
<stop  offset="0" stop-color="#087CFA"/>
<stop offset="0.0188132" stop-color="#0D7BFA"/>
<stop offset="0.3112" stop-color="#5566F9"/>
<stop offset="0.5541" stop-color="#8A57F8"/>
<stop offset="0.7356" stop-color="#AB4EF7"/>
<stop offset="0.8352" stop-color="#B74AF7"/>
<stop offset="0.9797" stop-color="#DB5CFF"/>
</linearGradient>
<linearGradient id="paint4_linear" x1="18.4133" y1="12.1109" x2="25.5325" y2="17.7045" gradientUnits="userSpaceOnUse">
<stop offset="0.5234" stop-color="#B74AF7" stop-opacity="0"/>
<stop offset="0.9263" stop-color="#D66EFF"/>
</linearGradient>
<linearGradient id="paint5_linear" x1="0.8285" y1="23.3904" x2="29.6025" y2="-0.141801" gradientUnits="userSpaceOnUse">
<stop  offset="0" stop-color="#087CFA"/>
<stop offset="0.0163189" stop-color="#0D7BFA"/>
<stop offset="0.2699" stop-color="#5566F9"/>
<stop offset="0.4806" stop-color="#8A57F8"/>
<stop offset="0.6381" stop-color="#AB4EF7"/>
<stop offset="0.7245" stop-color="#B74AF7"/>
<stop offset="0.9526" stop-color="#DB5CFF"/>
</linearGradient>
<linearGradient id="paint6_linear" x1="3.0346" y1="31.4089" x2="8.4908" y2="23.8308" gradientUnits="userSpaceOnUse">
<stop  offset="0" stop-color="#8F99FF"/>
<stop offset="1" stop-color="#B74AF7" stop-opacity="0"/>
</linearGradient>
<linearGradient id="paint7_linear" x1="63.0206" y1="36.4566" x2="38.0235" y2="57.6079" gradientUnits="userSpaceOnUse">
<stop  offset="0" stop-color="#087CFA"/>
<stop offset="0.0225255" stop-color="#0D7BFA"/>
<stop offset="0.3726" stop-color="#5566F9"/>
<stop offset="0.6634" stop-color="#8A57F8"/>
<stop offset="0.8808" stop-color="#AB4EF7"/>
<stop offset="1" stop-color="#B74AF7"/>
</linearGradient>
<linearGradient id="paint8_linear" x1="62.2778" y1="47.6873" x2="39.4939" y2="51.1336" gradientUnits="userSpaceOnUse">
<stop offset="0.003297" stop-color="#2D58F9"/>
<stop offset="0.8129" stop-color="#B74AF7"/>
</linearGradient>
<linearGradient id="paint9_linear" x1="49.9629" y1="51.5219" x2="41.0363" y2="59.5089" gradientUnits="userSpaceOnUse">
<stop  offset="0" stop-color="#C386F7"/>
<stop offset="0.8129" stop-color="#B74AF7"/>
</linearGradient>
<linearGradient id="paint10_linear" x1="8.8913" y1="55.9089" x2="55.0579" y2="26.2423" gradientUnits="userSpaceOnUse">
<stop  offset="0" stop-color="#087CFA"/>
<stop offset="0.1021" stop-color="#1598D3"/>
<stop offset="0.2248" stop-color="#23B6AA"/>
<stop offset="0.3455" stop-color="#2DCC8B"/>
<stop offset="0.4619" stop-color="#35DD74"/>
<stop offset="0.5723" stop-color="#39E767"/>
<stop offset="0.6701" stop-color="#3BEA62"/>
</linearGradient>
<linearGradient id="paint11_linear" x1="11.502" y1="58.2688" x2="33.0186" y2="37.041" gradientUnits="userSpaceOnUse">
<stop  offset="0" stop-color="#087CFA"/>
<stop offset="0.1021" stop-color="#1598D3"/>
<stop offset="0.2248" stop-color="#23B6AA"/>
<stop offset="0.3455" stop-color="#2DCC8B"/>
<stop offset="0.4619" stop-color="#35DD74"/>
<stop offset="0.5723" stop-color="#39E767"/>
<stop offset="0.6701" stop-color="#3BEA62"/>
</linearGradient>
<linearGradient id="paint12_linear" x1="6.2739" y1="53.6199" x2="24.9754" y2="35.1694" gradientUnits="userSpaceOnUse">
<stop offset="0.1708" stop-color="#087CFA"/>
<stop offset="0.4017" stop-color="#19A1C8"/>
<stop offset="0.6796" stop-color="#2BC891"/>
<stop offset="0.8874" stop-color="#37E16F"/>
<stop offset="1" stop-color="#3BEA62"/>
</linearGradient>
<linearGradient id="paint13_linear" x1="41.8859" y1="26.9919" x2="60.5805" y2="9.5435" gradientUnits="userSpaceOnUse">
<stop offset="0.4926" stop-color="#00FA45"/>
<stop offset="0.8682" stop-color="#B5FF91"/>
</linearGradient>
<linearGradient id="paint14_linear" x1="46.9675" y1="14.694" x2="58.0464" y2="21.0644" gradientUnits="userSpaceOnUse">
<stop offset="0.175" stop-color="#00FA45" stop-opacity="0"/>
<stop offset="0.8682" stop-color="#A0FF5E"/>
</linearGradient>
<linearGradient id="paint15_linear" x1="49.974" y1="19.1668" x2="37.1719" y2="32.8774" gradientUnits="userSpaceOnUse">
<stop  offset="0" stop-color="#7165DF"/>
<stop offset="0.0682475" stop-color="#6475D9"/>
<stop offset="0.2346" stop-color="#4897CD"/>
<stop offset="0.3197" stop-color="#44B2AA"/>
<stop offset="0.4142" stop-color="#40CA8B"/>
<stop offset="0.506" stop-color="#3DDC74"/>
<stop offset="0.593" stop-color="#3CE667"/>
<stop offset="0.6701" stop-color="#3BEA62"/>
</linearGradient>
<linearGradient id="paint16_linear" x1="45.3541" y1="17.1985" x2="41.2016" y2="21.6458" gradientUnits="userSpaceOnUse">
<stop offset="0.3832" stop-color="#59C1DB"/>
<stop offset="0.4687" stop-color="#4FCEB4"/>
<stop offset="0.5786" stop-color="#44DD88"/>
<stop offset="0.664" stop-color="#3EE76C"/>
<stop offset="0.7139" stop-color="#3BEA62"/>
</linearGradient>
<linearGradient id="paint17_linear" x1="24.6102" y1="29.8333" x2="65.8392" y2="43.4553" gradientUnits="userSpaceOnUse">
<stop  offset="0" stop-color="#1CA7BE"/>
<stop offset="0.3751" stop-color="#2FCF87"/>
<stop offset="0.6552" stop-color="#3BEA62"/>
<stop offset="0.8574" stop-color="#5FFF58"/>
</linearGradient>
<linearGradient id="paint18_linear" x1="22.7898" y1="39.9509" x2="52.758" y2="38.3163" gradientUnits="userSpaceOnUse">
<stop offset="0.2959" stop-color="#1CA7BE"/>
<stop offset="0.3429" stop-color="#23B5AA"/>
<stop offset="0.4312" stop-color="#2DCC8B"/>
<stop offset="0.5168" stop-color="#35DD74"/>
<stop offset="0.5981" stop-color="#39E767"/>
<stop offset="0.6701" stop-color="#3BEA62"/>
<stop offset="1" stop-color="#7EEF5A"/>
</linearGradient>
<linearGradient id="paint19_linear" x1="56.1104" y1="6.3197" x2="44.7591" y2="36.7249" gradientUnits="userSpaceOnUse">
<stop offset="0.124" stop-color="#1CA563"/>
<stop offset="0.3268" stop-color="#29C163" stop-opacity="0.7473"/>
<stop offset="0.5412" stop-color="#33D862" stop-opacity="0.48"/>
<stop offset="0.7453" stop-color="#39E562" stop-opacity="0.2256"/>
<stop offset="0.9263" stop-color="#3BEA62" stop-opacity="0"/>
</linearGradient>
<linearGradient id="paint20_linear" x1="12.1563" y1="12.1563" x2="53.5156" y2="53.5156" gradientUnits="userSpaceOnUse">
<stop  offset="0" stop-color="#006396"/>
<stop offset="0.0339724" stop-color="#005682"/>
<stop offset="0.121" stop-color="#003754"/>
<stop offset="0.2043" stop-color="#001F2F"/>
<stop offset="0.2818" stop-color="#000E15"/>
<stop offset="0.3512" stop-color="#000406"/>
<stop offset="0.4058"/>
<stop offset="0.9138"/>
</linearGradient>
<linearGradient id="paint21_linear" x1="27.7208" y1="21.7914" x2="37.65" y2="10.4951" gradientUnits="userSpaceOnUse">
<stop  offset="0" stop-color="#083268"/>
<stop offset="0.0225255" stop-color="#0D336C"/>
<stop offset="0.3726" stop-color="#553DA7"/>
<stop offset="0.6634" stop-color="#8A44D2"/>
<stop offset="0.8808" stop-color="#AB48ED"/>
<stop offset="1" stop-color="#B74AF7"/>
</linearGradient>
<linearGradient id="paint22_linear" x1="15.7167" y1="15.1405" x2="20.1272" y2="18.6059" gradientUnits="userSpaceOnUse">
<stop  offset="0" stop-color="#087CFA"/>
<stop offset="0.0225255" stop-color="#0D7BFA"/>
<stop offset="0.3726" stop-color="#5566F9"/>
<stop offset="0.6634" stop-color="#8A57F8"/>
<stop offset="0.8808" stop-color="#AB4EF7"/>
<stop offset="1" stop-color="#B74AF7"/>
</linearGradient>
<linearGradient id="paint23_linear" x1="45.5826" y1="49.5534" x2="44.4156" y2="50.5408" gradientUnits="userSpaceOnUse">
<stop  offset="0" stop-color="#087CFA"/>
<stop offset="0.0225255" stop-color="#0D7BFA"/>
<stop offset="0.3726" stop-color="#5566F9"/>
<stop offset="0.6634" stop-color="#8A57F8"/>
<stop offset="0.8808" stop-color="#AB4EF7"/>
<stop offset="1" stop-color="#B74AF7"/>
</linearGradient>
<linearGradient id="paint24_linear" x1="52.3865" y1="33.647" x2="39.2109" y2="44.7956" gradientUnits="userSpaceOnUse">
<stop  offset="0" stop-color="#087CFA"/>
<stop offset="0.0225255" stop-color="#0D7BFA"/>
<stop offset="0.3726" stop-color="#5566F9"/>
<stop offset="0.6634" stop-color="#8A57F8"/>
<stop offset="0.8808" stop-color="#AB4EF7"/>
<stop offset="1" stop-color="#B74AF7"/>
</linearGradient>
<linearGradient id="paint25_linear" x1="51.8011" y1="43.1749" x2="40.8313" y2="44.8342" gradientUnits="userSpaceOnUse">
<stop offset="0.003297" stop-color="#103964"/>
<stop offset="0.8129" stop-color="#B74AF7"/>
</linearGradient>
<linearGradient id="paint26_linear" x1="45.7132" y1="47.1131" x2="40.3722" y2="51.8919" gradientUnits="userSpaceOnUse">
<stop  offset="0" stop-color="#3A3531"/>
<stop offset="0.8129" stop-color="#B74AF7"/>
</linearGradient>
<linearGradient id="paint27_linear" x1="29.6744" y1="48.5097" x2="36.0995" y2="14.6835" gradientUnits="userSpaceOnUse">
<stop  offset="0" stop-color="#235B5E"/>
<stop offset="0.1291" stop-color="#24635E"/>
<stop offset="0.3263" stop-color="#28785F"/>
<stop offset="0.5673" stop-color="#2E9B60"/>
<stop offset="0.84" stop-color="#36CB61"/>
<stop offset="1" stop-color="#3BEA62"/>
</linearGradient>
</defs>
</svg>
