<svg width="64" height="64" viewBox="0 0 64 64" fill="none" xmlns="http://www.w3.org/2000/svg">
<path d="M59.9 9.8999L64 35.3999L56.5 40.4999L59.9 9.8999Z" fill="url(#paint0_linear)"/>
<path d="M64 35.4L56.5 40.5L57.8 28.5L64 35.4Z" fill="url(#paint1_linear)"/>
<path d="M59.9001 9.9L37.0001 0L30.6001 5.3L59.9001 9.9Z" fill="url(#paint2_linear)"/>
<path d="M41.9001 7.2L37.0001 0L30.6001 5.3L41.9001 7.2Z" fill="url(#paint3_linear)"/>
<path d="M43.2001 64.0002L7.7001 35.7002L0.600098 57.1002L43.2001 64.0002Z" fill="url(#paint4_linear)"/>
<path d="M43.2001 64L14.7001 51.5L0.600098 57.1L43.2001 64Z" fill="url(#paint5_linear)"/>
<path d="M48.2 46.1L0 29.5L43.2 64L48.2 46.1Z" fill="url(#paint6_linear)"/>
<path d="M48.2001 46.1L45 45L40.3 51.1L43.2001 64L48.2001 46.1Z" fill="url(#paint7_linear)"/>
<path d="M40.3 51.1L0 29.5L36.9 59L43.2 64L40.3 51.1Z" fill="url(#paint8_linear)"/>
<path d="M0 0.5V29.5L55.5 48.6L59.9 9.9L0 0.5Z" fill="url(#paint9_linear)"/>
<path d="M0 0.5V29.5L55.5 48.6L49 19.4L0 0.5Z" fill="url(#paint10_linear)"/>
<path d="M0 0.5V29.5L13.3 21.5L0 0.5Z" fill="url(#paint11_linear)"/>
<path d="M14.7001 51.5001L49.2001 19.6001L12.8001 21.8001L0.600098 57.1001L14.7001 51.5001Z" fill="url(#paint12_linear)"/>
<path d="M14.7001 51.5002L15.9001 42.1002L7.7001 35.7002L0.600098 57.1002L14.7001 51.5002Z" fill="url(#paint13_linear)"/>
<path d="M14.7001 51.5002L15.9001 42.1002L7.7001 35.7002L0.600098 57.1002L14.7001 51.5002Z" fill="url(#paint14_linear)"/>
<path d="M59.9 9.8999L55.5 48.5999L49 19.3999L59.9 9.8999Z" fill="url(#paint15_linear)"/>
<path d="M55.5001 48.6L56.5001 40.5L54.1001 42.2L55.5001 48.6Z" fill="url(#paint16_linear)"/>
<path d="M55.5 48.6002L48.2 46.1002L54.0999 42.2002L55.5 48.6002Z" fill="url(#paint17_linear)"/>
<path d="M59.9 9.8998L44.1 23.8998L12.5 21.6998L30.6 5.2998L59.9 9.8998Z" fill="url(#paint18_linear)"/>
<path d="M49 19.4L59.9 9.9L0 0.5L49 19.4Z" fill="url(#paint19_linear)"/>
<path d="M49 19.4L59.9 9.9L0 0.5L49 19.4Z" fill="url(#paint20_linear)"/>
<path d="M25.2 10.1998L49 19.3998L49.7999 18.6998L41.7999 7.0998L30.6 5.2998L25.2 10.1998Z" fill="url(#paint21_linear)"/>
<path d="M52 12H12V52H52V12Z" fill="url(#paint22_linear)"/>
<g opacity="0.5">
<path opacity="0.3" d="M12 39.2002V52.0002H28.1L12 39.2002Z" fill="url(#paint23_linear)"/>
<path opacity="0.3" d="M12 39.2002V52.0002H13.7L14.7 51.6002L20.65 46.1002L12 39.2002Z" fill="url(#paint24_linear)"/>
<path opacity="0.3" d="M12 39.2L28.1 52H46.6L48.2 46.2L12 33.75V39.2Z" fill="url(#paint25_linear)"/>
<path opacity="0.3" d="M40.3001 51.2002L40.5001 52.0002H46.6001L48.2001 46.2002L38.6001 42.9502L40.3001 51.2002Z" fill="url(#paint26_linear)"/>
<path opacity="0.3" d="M52 16.8999L49 19.4999L52 32.8499V16.8999Z" fill="url(#paint27_linear)"/>
<path opacity="0.3" d="M51.9999 12H29.6499L48.9999 19.5L51.9999 16.9V12Z" fill="url(#paint28_linear)"/>
<path opacity="0.3" d="M52 47.5V32.85L49 19.5L29.65 12H12V33.75L52 47.5Z" fill="url(#paint29_linear)"/>
</g>
<path d="M32 44.4502H17V46.9502H32V44.4502Z" fill="white"/>
<path d="M16.5498 17.0259H22.3792C27.079 17.0259 30.3326 20.2343 30.3326 24.4821V24.5273C30.3326 28.73 27.079 32.0288 22.3792 32.0288H16.5498V17.0259ZM19.8486 20.0084V29.0463H22.3792C25.0906 29.0463 26.8982 27.2387 26.8982 24.5725V24.5273C26.8982 21.8612 25.0906 20.0084 22.3792 20.0084H19.8486Z" fill="white"/>
<path d="M31.6702 24.5724C31.6702 20.2794 34.969 16.7998 39.5331 16.7998C42.2445 16.7998 43.8713 17.5228 45.4078 18.8333L43.3291 21.3188C42.1541 20.3698 41.16 19.7823 39.3976 19.7823C37.0025 19.7823 35.1046 21.9062 35.1046 24.4368V24.5272C35.1046 27.2838 37.0025 29.2721 39.6235 29.2721C40.8436 29.2721 41.883 28.9558 42.7416 28.3683V26.2444H39.4428V23.3975H45.95V29.9048C44.4136 31.2153 42.2897 32.2998 39.5331 32.2998C34.8786 32.2546 31.6702 29.001 31.6702 24.5724Z" fill="white"/>
<defs>
<linearGradient id="paint0_linear" x1="58.6309" y1="24.0733" x2="60.5025" y2="40.3669" gradientUnits="userSpaceOnUse">
<stop offset="0.1599" stop-color="#21D789"/>
<stop offset="0.5402" stop-color="#419FBC"/>
<stop offset="1" stop-color="#6B57FF"/>
</linearGradient>
<linearGradient id="paint1_linear" x1="50.4214" y1="32.1604" x2="74.7426" y2="40.7242" gradientUnits="userSpaceOnUse">
<stop offset="0.0212475" stop-color="#B74AF7" stop-opacity="0"/>
<stop offset="0.744" stop-color="#8053FD" stop-opacity="0.7385"/>
<stop offset="1" stop-color="#6B57FF"/>
</linearGradient>
<linearGradient id="paint2_linear" x1="41.5694" y1="17.083" x2="46.3034" y2="4.973" gradientUnits="userSpaceOnUse">
<stop  offset="0" stop-color="#6B57FF"/>
<stop offset="0.9516" stop-color="#21D789"/>
</linearGradient>
<linearGradient id="paint3_linear" x1="41.6517" y1="2.0476" x2="33.9757" y2="7.4264" gradientUnits="userSpaceOnUse">
<stop  offset="0" stop-color="#00FF6A"/>
<stop offset="0.9516" stop-color="#21D789" stop-opacity="0"/>
</linearGradient>
<linearGradient id="paint4_linear" x1="43.0996" y1="73.1016" x2="-1.8527" y2="42.3161" gradientUnits="userSpaceOnUse">
<stop offset="0.09839" stop-color="#6B57FF"/>
<stop offset="0.1176" stop-color="#685CFB"/>
<stop offset="0.3447" stop-color="#4A91CA"/>
<stop offset="0.5417" stop-color="#34B7A7"/>
<stop offset="0.6991" stop-color="#26CE91"/>
<stop offset="0.7971" stop-color="#21D789"/>
</linearGradient>
<linearGradient id="paint5_linear" x1="20.0568" y1="39.2052" x2="22.6928" y2="69.7441" gradientUnits="userSpaceOnUse">
<stop offset="0.09839" stop-color="#6B57FF"/>
<stop offset="0.1176" stop-color="#685CFB"/>
<stop offset="0.3447" stop-color="#4A91CA"/>
<stop offset="0.5417" stop-color="#34B7A7"/>
<stop offset="0.6991" stop-color="#26CE91"/>
<stop offset="0.7971" stop-color="#21D789"/>
</linearGradient>
<linearGradient id="paint6_linear" x1="3.9867" y1="32.0072" x2="60.0684" y2="62.9717" gradientUnits="userSpaceOnUse">
<stop offset="0.0752688" stop-color="#21D789"/>
<stop offset="0.8874" stop-color="#6B57FF"/>
</linearGradient>
<linearGradient id="paint7_linear" x1="40.2979" y1="54.5082" x2="48.199" y2="54.5082" gradientUnits="userSpaceOnUse">
<stop offset="0.0266187" stop-color="#4F46C6"/>
<stop offset="1" stop-color="#6B57FF"/>
</linearGradient>
<linearGradient id="paint8_linear" x1="2.0043" y1="35.5976" x2="58.086" y2="66.5622" gradientUnits="userSpaceOnUse">
<stop offset="0.0266187" stop-color="#21D789"/>
<stop offset="0.6999" stop-color="#685CFA"/>
<stop offset="1" stop-color="#6B57FF"/>
</linearGradient>
<linearGradient id="paint9_linear" x1="-3.1083" y1="16.052" x2="51.8821" y2="28.0155" gradientUnits="userSpaceOnUse">
<stop offset="0.2422" stop-color="#21D789"/>
<stop offset="0.4465" stop-color="#59A3B2"/>
<stop offset="0.7668" stop-color="#B74AF7"/>
<stop offset="1" stop-color="#FF45ED"/>
</linearGradient>
<linearGradient id="paint10_linear" x1="4.0128" y1="24.5399" x2="56.2592" y2="24.5399" gradientUnits="userSpaceOnUse">
<stop offset="0.1308" stop-color="#21D789"/>
<stop offset="0.3487" stop-color="#59A3B2"/>
<stop offset="0.6901" stop-color="#B74AF7"/>
<stop offset="1" stop-color="#FF45ED"/>
</linearGradient>
<linearGradient id="paint11_linear" x1="0.9574" y1="14.9972" x2="13.4222" y2="14.9972" gradientUnits="userSpaceOnUse">
<stop offset="0.3086" stop-color="#56D789"/>
<stop offset="0.9587" stop-color="#8DFC77"/>
<stop offset="1" stop-color="#91FF76"/>
</linearGradient>
<linearGradient id="paint12_linear" x1="21.9579" y1="76.2443" x2="26.2508" y2="20.1289" gradientUnits="userSpaceOnUse">
<stop  offset="0" stop-color="#21D789"/>
<stop offset="0.9961" stop-color="#6B57FF" stop-opacity="0"/>
</linearGradient>
<linearGradient id="paint13_linear" x1="4.975" y1="35.4308" x2="8.8292" y2="52.224" gradientUnits="userSpaceOnUse">
<stop offset="0.2061" stop-color="#6B57FF"/>
<stop offset="0.3273" stop-color="#6266F1"/>
<stop offset="0.5619" stop-color="#4B8FCC"/>
<stop offset="0.8839" stop-color="#26CF90"/>
<stop offset="0.9206" stop-color="#21D789"/>
</linearGradient>
<linearGradient id="paint14_linear" x1="0.131398" y1="43.2964" x2="16.2053" y2="55.8286" gradientUnits="userSpaceOnUse">
<stop offset="0.3086" stop-color="#56D789" stop-opacity="0"/>
<stop offset="0.9587" stop-color="#8DFC77" stop-opacity="0.9403"/>
<stop offset="1" stop-color="#91FF76"/>
</linearGradient>
<linearGradient id="paint15_linear" x1="49.0111" y1="29.2879" x2="59.9187" y2="29.2879" gradientUnits="userSpaceOnUse">
<stop offset="0.2609" stop-color="#B74AF7"/>
<stop offset="1" stop-color="#FF45ED"/>
</linearGradient>
<linearGradient id="paint16_linear" x1="57.7667" y1="47.1933" x2="54.3612" y2="42.1532" gradientUnits="userSpaceOnUse">
<stop  offset="0" stop-color="#FF72F1"/>
<stop offset="0.963" stop-color="#B74AF7"/>
</linearGradient>
<linearGradient id="paint17_linear" x1="58.1767" y1="51.8842" x2="51.6382" y2="44.6646" gradientUnits="userSpaceOnUse">
<stop offset="0.668" stop-color="#FF72F1"/>
<stop offset="1" stop-color="#B74AF7"/>
</linearGradient>
<linearGradient id="paint18_linear" x1="23.1148" y1="-6.05689" x2="40.0031" y2="22.1457" gradientUnits="userSpaceOnUse">
<stop offset="0.1625" stop-color="#B74AF7" stop-opacity="0.5"/>
<stop offset="0.9989" stop-color="#00FF6A" stop-opacity="0"/>
</linearGradient>
<linearGradient id="paint19_linear" x1="48.6894" y1="27.9165" x2="35.8848" y2="12.3876" gradientUnits="userSpaceOnUse">
<stop offset="0.2973" stop-color="#FF4FFF" stop-opacity="0.96"/>
<stop offset="0.9989" stop-color="#FF45ED" stop-opacity="0"/>
</linearGradient>
<linearGradient id="paint20_linear" x1="28.6038" y1="12.7928" x2="29.966" y2="5.1645" gradientUnits="userSpaceOnUse">
<stop  offset="0" stop-color="#FF4FFF" stop-opacity="0.96"/>
<stop offset="0.9928" stop-color="#FF45ED" stop-opacity="0"/>
</linearGradient>
<linearGradient id="paint21_linear" x1="45.1391" y1="5.639" x2="38.7624" y2="13.0076" gradientUnits="userSpaceOnUse">
<stop offset="0.1209" stop-color="#A326F7"/>
<stop offset="0.9516" stop-color="#B74AF7" stop-opacity="0"/>
</linearGradient>
<linearGradient id="paint22_linear" x1="11.4627" y1="11.4627" x2="49.3349" y2="49.3349" gradientUnits="userSpaceOnUse">
<stop offset="0.0284813" stop-color="#007E67"/>
<stop offset="0.1121" stop-color="#005344"/>
<stop offset="0.1976" stop-color="#002F27"/>
<stop offset="0.2776" stop-color="#001511"/>
<stop offset="0.3494" stop-color="#000605"/>
<stop offset="0.4058"/>
<stop offset="0.9138"/>
</linearGradient>
<linearGradient id="paint23_linear" x1="27.8097" y1="56.4197" x2="7.47515" y2="42.4936" gradientUnits="userSpaceOnUse">
<stop offset="0.09839" stop-color="#6B57FF"/>
<stop offset="0.1176" stop-color="#685CFB"/>
<stop offset="0.3447" stop-color="#4A91CA"/>
<stop offset="0.5417" stop-color="#34B7A7"/>
<stop offset="0.6991" stop-color="#26CE91"/>
<stop offset="0.7971" stop-color="#21D789"/>
</linearGradient>
<linearGradient id="paint24_linear" x1="15.1777" y1="57.6714" x2="16.5124" y2="40.2254" gradientUnits="userSpaceOnUse">
<stop offset="0.0752688" stop-color="#21D789"/>
<stop offset="0.8874" stop-color="#6B57FF"/>
</linearGradient>
<linearGradient id="paint25_linear" x1="14.554" y1="36.0692" x2="54.7809" y2="58.2797" gradientUnits="userSpaceOnUse">
<stop  offset="0" stop-color="#34B7A7"/>
<stop offset="0.8874" stop-color="#000069"/>
</linearGradient>
<linearGradient id="paint26_linear" x1="38.5867" y1="47.4638" x2="48.1989" y2="47.4638" gradientUnits="userSpaceOnUse">
<stop offset="0.0266187" stop-color="#4F46C6"/>
<stop offset="1" stop-color="#1F2C61"/>
</linearGradient>
<linearGradient id="paint27_linear" x1="49.011" y1="24.8777" x2="52" y2="24.8777" gradientUnits="userSpaceOnUse">
<stop offset="0.2609" stop-color="#B74AF7"/>
<stop offset="1" stop-color="#FF45ED"/>
</linearGradient>
<linearGradient id="paint28_linear" x1="40.5655" y1="15.8916" x2="41.5237" y2="10.5258" gradientUnits="userSpaceOnUse">
<stop  offset="0" stop-color="#FF4FFF"/>
<stop offset="0.9928" stop-color="#FF75FF"/>
</linearGradient>
<linearGradient id="paint29_linear" x1="19.1458" y1="12.8853" x2="46.2314" y2="45.628" gradientUnits="userSpaceOnUse">
<stop  offset="0" stop-color="#20D185"/>
<stop offset="0.4429" stop-color="#198767"/>
<stop offset="0.844" stop-color="#12414A"/>
</linearGradient>
</defs>
</svg>
