<?xml version="1.0" encoding="UTF-8" standalone="no"?>
<!-- Created with Inkscape (http://www.inkscape.org/) -->

<svg
   xmlns:dc="http://purl.org/dc/elements/1.1/"
   xmlns:cc="http://creativecommons.org/ns#"
   xmlns:rdf="http://www.w3.org/1999/02/22-rdf-syntax-ns#"
   xmlns:svg="http://www.w3.org/2000/svg"
   xmlns="http://www.w3.org/2000/svg"
   xmlns:xlink="http://www.w3.org/1999/xlink"
   xmlns:sodipodi="http://sodipodi.sourceforge.net/DTD/sodipodi-0.dtd"
   xmlns:inkscape="http://www.inkscape.org/namespaces/inkscape"
   width="48"
   height="48"
   id="svg2"
   version="1.1"
   inkscape:version="0.48.4 r9939"
   sodipodi:docname="jsm-fonts.svg"
   inkscape:export-filename="/home/lovejesus/computerstuff/programming/jwm/JWM/jwmConfig/data/img/jsm-fonts.png"
   inkscape:export-xdpi="116.96"
   inkscape:export-ydpi="116.96">
  <defs
     id="defs4">
    <linearGradient
       id="linearGradient7622">
      <stop
         style="stop-color:#000000;stop-opacity:1;"
         offset="0"
         id="stop7624" />
      <stop
         id="stop7630"
         offset="0.5"
         style="stop-color:#000000;stop-opacity:0.251" />
      <stop
         style="stop-color:#000000;stop-opacity:1;"
         offset="1"
         id="stop7626" />
    </linearGradient>
    <linearGradient
       id="linearGradient7251">
      <stop
         style="stop-color:#fc93dc;stop-opacity:1;"
         offset="0"
         id="stop7253" />
      <stop
         style="stop-color:#da72d3;stop-opacity:1"
         offset="1"
         id="stop7255" />
    </linearGradient>
    <radialGradient
       cx="4.9929786"
       cy="43.5"
       r="2.5"
       fx="4.9929786"
       fy="43.5"
       id="radialGradient3337-2-2"
       xlink:href="#linearGradient3688-166-749-4-0-3-8"
       gradientUnits="userSpaceOnUse"
       gradientTransform="matrix(2.003784,0,0,1.4,27.98813,-17.4)" />
    <linearGradient
       id="linearGradient3688-166-749-4-0-3-8">
      <stop
         id="stop2883-4-0-1-8"
         style="stop-color:#181818;stop-opacity:1"
         offset="0" />
      <stop
         id="stop2885-9-2-9-6"
         style="stop-color:#181818;stop-opacity:0"
         offset="1" />
    </linearGradient>
    <radialGradient
       cx="4.9929786"
       cy="43.5"
       r="2.5"
       fx="4.9929786"
       fy="43.5"
       id="radialGradient3339-1-4"
       xlink:href="#linearGradient3688-464-309-9-2-4-2"
       gradientUnits="userSpaceOnUse"
       gradientTransform="matrix(2.003784,0,0,1.4,-20.01187,-104.4)" />
    <linearGradient
       id="linearGradient3688-464-309-9-2-4-2">
      <stop
         id="stop2889-7-9-6-9"
         style="stop-color:#181818;stop-opacity:1"
         offset="0" />
      <stop
         id="stop2891-6-6-1-7"
         style="stop-color:#181818;stop-opacity:0"
         offset="1" />
    </linearGradient>
    <linearGradient
       y2="39.999443"
       x2="25.058096"
       y1="47.027729"
       x1="25.058096"
       gradientUnits="userSpaceOnUse"
       id="linearGradient21034"
       xlink:href="#linearGradient3702-501-757-8-4-1-1"
       inkscape:collect="always" />
    <linearGradient
       id="linearGradient3702-501-757-8-4-1-1">
      <stop
         id="stop2895-8-9-9-1"
         style="stop-color:#181818;stop-opacity:0"
         offset="0" />
      <stop
         id="stop2897-7-8-7-7"
         style="stop-color:#181818;stop-opacity:1"
         offset="0.5" />
      <stop
         id="stop2899-4-5-1-5"
         style="stop-color:#181818;stop-opacity:0"
         offset="1" />
    </linearGradient>
    <radialGradient
       inkscape:collect="always"
       xlink:href="#linearGradient3671-580-6"
       id="radialGradient20986"
       gradientUnits="userSpaceOnUse"
       gradientTransform="matrix(0,9.1402449,-11.221301,0,136.56277,926.47473)"
       cx="7.1448598"
       cy="10.031169"
       fx="7.1448598"
       fy="10.031169"
       r="12.671875" />
    <linearGradient
       id="linearGradient3671-580-6">
      <stop
         id="stop4088-6"
         style="stop-color:#d593fc;stop-opacity:1"
         offset="0" />
      <stop
         id="stop4090-4"
         style="stop-color:#b372da;stop-opacity:1"
         offset="0.26238" />
      <stop
         id="stop4092-6"
         style="stop-color:#833fab;stop-opacity:1"
         offset="0.704952" />
      <stop
         id="stop4094-2"
         style="stop-color:#462b58;stop-opacity:1"
         offset="1" />
    </linearGradient>
    <linearGradient
       inkscape:collect="always"
       xlink:href="#linearGradient3924-2-2-5-8"
       id="linearGradient20983"
       gradientUnits="userSpaceOnUse"
       gradientTransform="translate(-2.094513e-6,1005.3622)"
       x1="23.99999"
       y1="4.999989"
       x2="23.99999"
       y2="43" />
    <linearGradient
       id="linearGradient3924-2-2-5-8">
      <stop
         id="stop3926-9-4-9-6"
         style="stop-color:#ffffff;stop-opacity:1"
         offset="0" />
      <stop
         id="stop3928-9-8-6-5"
         style="stop-color:#ffffff;stop-opacity:0.23529412"
         offset="0.06316455" />
      <stop
         id="stop3930-3-5-1-7"
         style="stop-color:#ffffff;stop-opacity:0.15686275"
         offset="0.95056331" />
      <stop
         id="stop3932-8-0-4-8"
         style="stop-color:#ffffff;stop-opacity:0.39215687"
         offset="1" />
    </linearGradient>
    <linearGradient
       id="linearGradient3707-662-8">
      <stop
         id="stop4098-9"
         style="stop-color:#542f57;stop-opacity:1"
         offset="0" />
      <stop
         id="stop4100-6"
         style="stop-color:#bb5ca4;stop-opacity:1"
         offset="1" />
    </linearGradient>
    <linearGradient
       gradientTransform="translate(-2e-7,945.36217)"
       inkscape:collect="always"
       xlink:href="#linearGradient25914"
       id="linearGradient26143"
       x1="32"
       y1="56"
       x2="32"
       y2="8"
       gradientUnits="userSpaceOnUse" />
    <linearGradient
       id="linearGradient25914">
      <stop
         style="stop-color:#000000;stop-opacity:1;"
         offset="0"
         id="stop25916" />
      <stop
         id="stop25922"
         offset="0.5"
         style="stop-color:#000000;stop-opacity:0.25098041;" />
      <stop
         style="stop-color:#000000;stop-opacity:1;"
         offset="1"
         id="stop25918" />
    </linearGradient>
    <linearGradient
       inkscape:collect="always"
       xlink:href="#linearGradient3671-580-6"
       id="linearGradient24496"
       x1="19.76383"
       y1="30.5"
       x2="52.036171"
       y2="30.5"
       gradientUnits="userSpaceOnUse" />
    <linearGradient
       id="linearGradient7833">
      <stop
         id="stop7835"
         style="stop-color:#fc93dc;stop-opacity:1"
         offset="0" />
      <stop
         id="stop7837"
         style="stop-color:#da72d3;stop-opacity:1"
         offset="0.26238" />
      <stop
         id="stop7839"
         style="stop-color:#a33fab;stop-opacity:1"
         offset="0.704952" />
      <stop
         id="stop7841"
         style="stop-color:#502b58;stop-opacity:1"
         offset="1" />
    </linearGradient>
    <linearGradient
       inkscape:collect="always"
       xlink:href="#linearGradient3671-580-6"
       id="linearGradient24500"
       gradientUnits="userSpaceOnUse"
       x1="35.900002"
       y1="14.190327"
       x2="35.900002"
       y2="46.809681" />
    <linearGradient
       id="linearGradient7844">
      <stop
         id="stop7846"
         style="stop-color:#fc93dc;stop-opacity:1"
         offset="0" />
      <stop
         id="stop7848"
         style="stop-color:#da72d3;stop-opacity:1"
         offset="0.26238" />
      <stop
         id="stop7850"
         style="stop-color:#a33fab;stop-opacity:1"
         offset="0.704952" />
      <stop
         id="stop7852"
         style="stop-color:#502b58;stop-opacity:1"
         offset="1" />
    </linearGradient>
    <linearGradient
       inkscape:collect="always"
       xlink:href="#linearGradient3671-580-6"
       id="linearGradient26148"
       gradientUnits="userSpaceOnUse"
       x1="32"
       y1="24"
       x2="32"
       y2="48"
       gradientTransform="translate(0,988.36218)" />
    <linearGradient
       id="linearGradient7855">
      <stop
         id="stop7857"
         style="stop-color:#fc93dc;stop-opacity:1"
         offset="0" />
      <stop
         id="stop7859"
         style="stop-color:#da72d3;stop-opacity:1"
         offset="0.26238" />
      <stop
         id="stop7861"
         style="stop-color:#a33fab;stop-opacity:1"
         offset="0.704952" />
      <stop
         id="stop7863"
         style="stop-color:#502b58;stop-opacity:1"
         offset="1" />
    </linearGradient>
    <linearGradient
       inkscape:collect="always"
       xlink:href="#linearGradient3702-501-757-8-4-1-1"
       id="linearGradient6326"
       gradientUnits="userSpaceOnUse"
       x1="25.058096"
       y1="47.027729"
       x2="25.058096"
       y2="39.999443"
       gradientTransform="matrix(1.2857143,0,0,0.57142854,-6.8571431,1023.5052)" />
    <radialGradient
       inkscape:collect="always"
       xlink:href="#linearGradient3688-464-309-9-2-4-2"
       id="radialGradient6329"
       gradientUnits="userSpaceOnUse"
       gradientTransform="matrix(1.6030272,0,0,0.8,-14.009496,-1083.1623)"
       cx="4.9929786"
       cy="43.5"
       fx="4.9929786"
       fy="43.5"
       r="2.5" />
    <radialGradient
       inkscape:collect="always"
       xlink:href="#linearGradient3688-166-749-4-0-3-8"
       id="radialGradient6332"
       gradientUnits="userSpaceOnUse"
       gradientTransform="matrix(1.6030272,0,0,0.8,33.990503,1013.5623)"
       cx="4.9929786"
       cy="43.5"
       fx="4.9929786"
       fy="43.5"
       r="2.5" />
  </defs>
  <sodipodi:namedview
     id="base"
     pagecolor="#ffffff"
     bordercolor="#666666"
     borderopacity="1.0"
     inkscape:pageopacity="0.0"
     inkscape:pageshadow="2"
     inkscape:zoom="1"
     inkscape:cx="77.098035"
     inkscape:cy="27.481871"
     inkscape:document-units="px"
     inkscape:current-layer="layer1"
     showgrid="false"
     inkscape:showpageshadow="false"
     inkscape:window-width="1615"
     inkscape:window-height="1026"
     inkscape:window-x="65"
     inkscape:window-y="24"
     inkscape:window-maximized="1"
     inkscape:snap-bbox="true"
     inkscape:bbox-paths="true"
     inkscape:bbox-nodes="true"
     inkscape:snap-bbox-edge-midpoints="true"
     inkscape:snap-bbox-midpoints="true">
    <inkscape:grid
       type="xygrid"
       id="grid6334"
       empspacing="12"
       visible="true"
       enabled="true"
       snapvisiblegridlinesonly="true" />
  </sodipodi:namedview>
  <metadata
     id="metadata7">
    <rdf:RDF>
      <cc:Work
         rdf:about="">
        <dc:format>image/svg+xml</dc:format>
        <dc:type
           rdf:resource="http://purl.org/dc/dcmitype/StillImage" />
        <dc:title></dc:title>
      </cc:Work>
    </rdf:RDF>
  </metadata>
  <g
     inkscape:label="Layer 1"
     inkscape:groupmode="layer"
     id="layer1"
     transform="translate(0,-1004.3622)">
    <g
       id="g6336"
       style="opacity:0.6">
      <rect
         style="opacity:1;fill:url(#radialGradient6332);fill-opacity:1;stroke:none"
         id="rect2801-5-5-7-9"
         y="1046.3623"
         x="42"
         height="4"
         width="4" />
      <rect
         style="opacity:1;fill:url(#radialGradient6329);fill-opacity:1;stroke:none"
         id="rect3696-3-0-3-7"
         transform="scale(-1,-1)"
         y="-1050.3623"
         x="-6"
         height="4"
         width="4" />
      <rect
         style="opacity:1;fill:url(#linearGradient6326);fill-opacity:1;stroke:none"
         id="rect3700-5-6-8-4"
         y="1046.3623"
         x="6"
         height="4"
         width="36" />
    </g>
    <rect
       style="color:#000000;fill:url(#radialGradient20986);fill-opacity:1.0;fill-rule:nonzero;stroke:none;stroke-width:0.99999994000000003;marker:none;visibility:visible;display:inline;overflow:visible;enable-background:accumulate"
       id="rect5505-21-3-8-5-2"
       y="1009.8622"
       x="4.5"
       ry="2"
       rx="2"
       height="39"
       width="39" />
    <rect
       style="opacity:0.3;fill:none;stroke:url(#linearGradient20983);stroke-width:1;stroke-linecap:round;stroke-linejoin:round;stroke-miterlimit:4;stroke-opacity:1;stroke-dasharray:none;stroke-dashoffset:0"
       id="rect6741-5-0-2-3"
       y="1010.8622"
       x="5.499999"
       ry="1"
       rx="1"
       height="37"
       width="37" />
    <g
       transform="translate(-293.125,786.91858)"
       style="fill:none;fill-opacity:1;display:inline;enable-background:new;stroke:#582b2b;stroke-opacity:1;stroke-width:6;stroke-miterlimit:4;stroke-dasharray:none;opacity:0.03"
       id="g4079">
      <path
         style="font-size:22.27977753000000050px;font-style:normal;font-weight:normal;fill:none;fill-opacity:1;stroke:#582b2b;display:inline;enable-background:new;font-family:Bitstream Vera Sans;stroke-opacity:1;stroke-width:6;stroke-miterlimit:4;stroke-dasharray:none"
         id="path4081"
         d="m 312.70626,234.25509 c -1.76734,0 -2.99178,0.17827 -3.67335,0.5348 -0.68157,0.35653 -1.02235,0.96473 -1.02235,1.8246 0,0.6851 0.2536,1.23039 0.76082,1.63586 0.51514,0.39847 1.21255,0.59771 2.09226,0.59771 1.21255,0 2.18339,-0.3775 2.91252,-1.13251 0.73704,-0.762 1.10556,-1.77217 1.10557,-3.03053 l 0,-0.42993 -2.17547,0 m 4.36284,-0.79696 0,6.70071 -2.18737,0 0,-1.78266 c -0.4993,0.71307 -1.12143,1.24087 -1.86639,1.58342 -0.74498,0.33556 -1.65638,0.50334 -2.7342,0.50334 -1.36315,0 -2.4489,-0.33556 -3.25727,-1.00668 -0.80045,-0.67811 -1.20068,-1.58342 -1.20067,-2.71593 -10e-6,-1.32127 0.49928,-2.31746 1.49786,-2.98858 1.0065,-0.67111 2.50437,-1.00667 4.49361,-1.00668 l 3.06706,0 0,-0.18875 c -1e-5,-0.88783 -0.33287,-1.57293 -0.99858,-2.05531 -0.6578,-0.48935 -1.58505,-0.73402 -2.78175,-0.73403 -0.76083,1e-5 -1.50184,0.0804 -2.22303,0.24118 -0.7212,0.1608 -1.41465,0.40198 -2.08037,0.72355 l 0,-1.78266 c 0.80044,-0.27263 1.57712,-0.47537 2.33002,-0.6082 0.75289,-0.13981 1.48597,-0.20972 2.19925,-0.20973 1.92582,1e-5 3.36425,0.44044 4.31528,1.32127 0.95102,0.88085 1.42653,2.2161 1.42655,4.00574"
         inkscape:connector-curvature="0" />
      <path
         inkscape:connector-curvature="0"
         style="font-size:10.17865562000000068px;font-style:normal;font-weight:normal;fill:none;fill-opacity:1;stroke:#582b2b;display:inline;enable-background:new;font-family:Bitstream Vera Sans;stroke-opacity:1;stroke-width:6;stroke-miterlimit:4;stroke-dasharray:none"
         sodipodi:nodetypes="csssssssccssssssscccccc"
         id="path4083"
         d="m 326.6244,246.28903 c 0.76538,0 1.34775,-0.29189 1.74709,-0.87567 0.40598,-0.58379 0.60898,-1.43166 0.60899,-2.54364 -10e-6,-1.11196 -0.20301,-1.95984 -0.60899,-2.54363 -0.39934,-0.58377 -0.98171,-0.87566 -1.74709,-0.87568 -0.7654,2e-5 -1.35441,0.29538 -1.76705,0.88611 -0.406,0.58379 -0.609,1.42819 -0.60899,2.5332 -10e-6,1.10503 0.20299,1.95291 0.60899,2.54364 0.41264,0.58378 1.00165,0.87567 1.76705,0.87567 m -2.37604,-7.55792 c 0.49251,-0.68107 1.03826,-1.18146 1.63727,-1.50116 0.59899,-0.32663 1.28785,-0.48995 2.06656,-0.48996 1.37769,1e-5 2.50914,0.57337 3.39435,1.72008 0.88518,1.13978 1.32777,2.60966 1.32779,4.40965 -2e-5,1.80001 -0.44261,3.27337 -1.32779,4.42009 -0.88521,1.13977 -2.01666,1.70965 -3.39435,1.70965 -0.77871,0 -1.46757,-0.15985 -2.06656,-0.47954 -0.59901,-0.32664 -1.14476,-0.8305 -1.63727,-1.51158 l 0,1.6888 -4.10438,0 0,-16.22086 4.10438,0 0,6.25483" />
      <path
         inkscape:connector-curvature="0"
         style="font-size:17.54367638000000085px;font-style:normal;font-weight:normal;fill:none;fill-opacity:1;stroke:#582b2b;display:inline;enable-background:new;font-family:Bitstream Vera Sans;stroke-opacity:1;stroke-width:6;stroke-miterlimit:4;stroke-dasharray:none"
         id="path4085"
         d="m 313.87103,253.40835 c -0.66033,1.45267 -1.57391,2.55925 -2.74074,3.31976 -1.16687,0.76051 -2.54629,1.14077 -4.13826,1.14077 -2.09853,0 -3.64528,-0.6537 -4.64027,-1.9611 -0.99499,-1.31593 -1.26635,-3.05913 -0.81408,-5.22958 0.46131,-2.17899 1.46534,-3.91791 3.01211,-5.21677 1.55579,-1.30738 3.38295,-1.96108 5.48148,-1.96109 0.91357,1e-5 1.80002,0.10255 2.65934,0.30762 0.86834,0.19655 1.71408,0.4999 2.53722,0.91005 l -0.73267,3.48639 -1.45178,0 c 0.0633,-1.1963 -0.16735,-2.06789 -0.69197,-2.61479 -0.5156,-0.54687 -1.36586,-0.82032 -2.55079,-0.82033 -1.34777,1e-5 -2.47392,0.49563 -3.37845,1.48684 -0.89549,0.9827 -1.55128,2.45672 -1.96736,4.42208 -0.41609,1.96537 -0.38896,3.44367 0.0814,4.43489 0.47939,0.99123 1.3975,1.48685 2.75431,1.48685 1.07639,0 1.98997,-0.2649 2.74074,-0.7947 0.7598,-0.52979 1.37036,-1.32875 1.83169,-2.39689 l 2.00807,0" />
    </g>
    <rect
       style="opacity:0.59999999999999998;color:#000000;fill:none;stroke:#462b58;stroke-width:1;stroke-linecap:round;stroke-linejoin:round;stroke-miterlimit:4;stroke-opacity:1;stroke-dasharray:none;stroke-dashoffset:0;marker:none;visibility:visible;display:inline;overflow:visible;enable-background:accumulate"
       id="rect5505-21-3-8-9-1-1"
       y="4.499999"
       x="-1048.8622"
       ry="2"
       rx="2"
       height="39"
       width="39"
       transform="matrix(0,-1,1,0,0,0)" />
    <g
       id="g4087"
       style="fill:none;fill-opacity:1;display:inline;enable-background:new;stroke:#582b2b;stroke-opacity:1;stroke-width:4;stroke-miterlimit:4;stroke-dasharray:none;opacity:0.06"
       transform="translate(-293.125,786.91858)">
      <path
         inkscape:connector-curvature="0"
         d="m 312.70626,234.25509 c -1.76734,0 -2.99178,0.17827 -3.67335,0.5348 -0.68157,0.35653 -1.02235,0.96473 -1.02235,1.8246 0,0.6851 0.2536,1.23039 0.76082,1.63586 0.51514,0.39847 1.21255,0.59771 2.09226,0.59771 1.21255,0 2.18339,-0.3775 2.91252,-1.13251 0.73704,-0.762 1.10556,-1.77217 1.10557,-3.03053 l 0,-0.42993 -2.17547,0 m 4.36284,-0.79696 0,6.70071 -2.18737,0 0,-1.78266 c -0.4993,0.71307 -1.12143,1.24087 -1.86639,1.58342 -0.74498,0.33556 -1.65638,0.50334 -2.7342,0.50334 -1.36315,0 -2.4489,-0.33556 -3.25727,-1.00668 -0.80045,-0.67811 -1.20068,-1.58342 -1.20067,-2.71593 -10e-6,-1.32127 0.49928,-2.31746 1.49786,-2.98858 1.0065,-0.67111 2.50437,-1.00667 4.49361,-1.00668 l 3.06706,0 0,-0.18875 c -1e-5,-0.88783 -0.33287,-1.57293 -0.99858,-2.05531 -0.6578,-0.48935 -1.58505,-0.73402 -2.78175,-0.73403 -0.76083,1e-5 -1.50184,0.0804 -2.22303,0.24118 -0.7212,0.1608 -1.41465,0.40198 -2.08037,0.72355 l 0,-1.78266 c 0.80044,-0.27263 1.57712,-0.47537 2.33002,-0.6082 0.75289,-0.13981 1.48597,-0.20972 2.19925,-0.20973 1.92582,1e-5 3.36425,0.44044 4.31528,1.32127 0.95102,0.88085 1.42653,2.2161 1.42655,4.00574"
         id="path4089"
         style="font-size:22.27977753000000050px;font-style:normal;font-weight:normal;fill:none;fill-opacity:1;stroke:#582b2b;display:inline;enable-background:new;font-family:Bitstream Vera Sans;stroke-opacity:1;stroke-width:4;stroke-miterlimit:4;stroke-dasharray:none" />
      <path
         d="m 326.6244,246.28903 c 0.76538,0 1.34775,-0.29189 1.74709,-0.87567 0.40598,-0.58379 0.60898,-1.43166 0.60899,-2.54364 -10e-6,-1.11196 -0.20301,-1.95984 -0.60899,-2.54363 -0.39934,-0.58377 -0.98171,-0.87566 -1.74709,-0.87568 -0.7654,2e-5 -1.35441,0.29538 -1.76705,0.88611 -0.406,0.58379 -0.609,1.42819 -0.60899,2.5332 -10e-6,1.10503 0.20299,1.95291 0.60899,2.54364 0.41264,0.58378 1.00165,0.87567 1.76705,0.87567 m -2.37604,-7.55792 c 0.49251,-0.68107 1.03826,-1.18146 1.63727,-1.50116 0.59899,-0.32663 1.28785,-0.48995 2.06656,-0.48996 1.37769,1e-5 2.50914,0.57337 3.39435,1.72008 0.88518,1.13978 1.32777,2.60966 1.32779,4.40965 -2e-5,1.80001 -0.44261,3.27337 -1.32779,4.42009 -0.88521,1.13977 -2.01666,1.70965 -3.39435,1.70965 -0.77871,0 -1.46757,-0.15985 -2.06656,-0.47954 -0.59901,-0.32664 -1.14476,-0.8305 -1.63727,-1.51158 l 0,1.6888 -4.10438,0 0,-16.22086 4.10438,0 0,6.25483"
         id="path4091"
         sodipodi:nodetypes="csssssssccssssssscccccc"
         style="font-size:10.17865562000000068px;font-style:normal;font-weight:normal;fill:none;fill-opacity:1;stroke:#582b2b;display:inline;enable-background:new;font-family:Bitstream Vera Sans;stroke-opacity:1;stroke-width:4;stroke-miterlimit:4;stroke-dasharray:none"
         inkscape:connector-curvature="0" />
      <path
         d="m 313.87103,253.40835 c -0.66033,1.45267 -1.57391,2.55925 -2.74074,3.31976 -1.16687,0.76051 -2.54629,1.14077 -4.13826,1.14077 -2.09853,0 -3.64528,-0.6537 -4.64027,-1.9611 -0.99499,-1.31593 -1.26635,-3.05913 -0.81408,-5.22958 0.46131,-2.17899 1.46534,-3.91791 3.01211,-5.21677 1.55579,-1.30738 3.38295,-1.96108 5.48148,-1.96109 0.91357,1e-5 1.80002,0.10255 2.65934,0.30762 0.86834,0.19655 1.71408,0.4999 2.53722,0.91005 l -0.73267,3.48639 -1.45178,0 c 0.0633,-1.1963 -0.16735,-2.06789 -0.69197,-2.61479 -0.5156,-0.54687 -1.36586,-0.82032 -2.55079,-0.82033 -1.34777,1e-5 -2.47392,0.49563 -3.37845,1.48684 -0.89549,0.9827 -1.55128,2.45672 -1.96736,4.42208 -0.41609,1.96537 -0.38896,3.44367 0.0814,4.43489 0.47939,0.99123 1.3975,1.48685 2.75431,1.48685 1.07639,0 1.98997,-0.2649 2.74074,-0.7947 0.7598,-0.52979 1.37036,-1.32875 1.83169,-2.39689 l 2.00807,0"
         id="path4093"
         style="font-size:17.54367638000000085px;font-style:normal;font-weight:normal;fill:none;fill-opacity:1;stroke:#582b2b;display:inline;enable-background:new;font-family:Bitstream Vera Sans;stroke-opacity:1;stroke-width:4;stroke-miterlimit:4;stroke-dasharray:none"
         inkscape:connector-curvature="0" />
    </g>
    <g
       transform="translate(-293.125,786.91858)"
       style="fill:none;fill-opacity:1;display:inline;enable-background:new;stroke:#582b2b;stroke-opacity:1;stroke-width:2;stroke-miterlimit:4;stroke-dasharray:none;opacity:0.12"
       id="g4095">
      <path
         style="font-size:22.27977753000000050px;font-style:normal;font-weight:normal;fill:none;fill-opacity:1;stroke:#582b2b;display:inline;enable-background:new;font-family:Bitstream Vera Sans;stroke-opacity:1;stroke-width:2;stroke-miterlimit:4;stroke-dasharray:none"
         id="path4097"
         d="m 312.70626,234.25509 c -1.76734,0 -2.99178,0.17827 -3.67335,0.5348 -0.68157,0.35653 -1.02235,0.96473 -1.02235,1.8246 0,0.6851 0.2536,1.23039 0.76082,1.63586 0.51514,0.39847 1.21255,0.59771 2.09226,0.59771 1.21255,0 2.18339,-0.3775 2.91252,-1.13251 0.73704,-0.762 1.10556,-1.77217 1.10557,-3.03053 l 0,-0.42993 -2.17547,0 m 4.36284,-0.79696 0,6.70071 -2.18737,0 0,-1.78266 c -0.4993,0.71307 -1.12143,1.24087 -1.86639,1.58342 -0.74498,0.33556 -1.65638,0.50334 -2.7342,0.50334 -1.36315,0 -2.4489,-0.33556 -3.25727,-1.00668 -0.80045,-0.67811 -1.20068,-1.58342 -1.20067,-2.71593 -10e-6,-1.32127 0.49928,-2.31746 1.49786,-2.98858 1.0065,-0.67111 2.50437,-1.00667 4.49361,-1.00668 l 3.06706,0 0,-0.18875 c -1e-5,-0.88783 -0.33287,-1.57293 -0.99858,-2.05531 -0.6578,-0.48935 -1.58505,-0.73402 -2.78175,-0.73403 -0.76083,1e-5 -1.50184,0.0804 -2.22303,0.24118 -0.7212,0.1608 -1.41465,0.40198 -2.08037,0.72355 l 0,-1.78266 c 0.80044,-0.27263 1.57712,-0.47537 2.33002,-0.6082 0.75289,-0.13981 1.48597,-0.20972 2.19925,-0.20973 1.92582,1e-5 3.36425,0.44044 4.31528,1.32127 0.95102,0.88085 1.42653,2.2161 1.42655,4.00574"
         inkscape:connector-curvature="0" />
      <path
         inkscape:connector-curvature="0"
         style="font-size:10.17865562000000068px;font-style:normal;font-weight:normal;fill:none;fill-opacity:1;stroke:#582b2b;display:inline;enable-background:new;font-family:Bitstream Vera Sans;stroke-opacity:1;stroke-width:2;stroke-miterlimit:4;stroke-dasharray:none"
         sodipodi:nodetypes="csssssssccssssssscccccc"
         id="path4099"
         d="m 326.6244,246.28903 c 0.76538,0 1.34775,-0.29189 1.74709,-0.87567 0.40598,-0.58379 0.60898,-1.43166 0.60899,-2.54364 -10e-6,-1.11196 -0.20301,-1.95984 -0.60899,-2.54363 -0.39934,-0.58377 -0.98171,-0.87566 -1.74709,-0.87568 -0.7654,2e-5 -1.35441,0.29538 -1.76705,0.88611 -0.406,0.58379 -0.609,1.42819 -0.60899,2.5332 -10e-6,1.10503 0.20299,1.95291 0.60899,2.54364 0.41264,0.58378 1.00165,0.87567 1.76705,0.87567 m -2.37604,-7.55792 c 0.49251,-0.68107 1.03826,-1.18146 1.63727,-1.50116 0.59899,-0.32663 1.28785,-0.48995 2.06656,-0.48996 1.37769,1e-5 2.50914,0.57337 3.39435,1.72008 0.88518,1.13978 1.32777,2.60966 1.32779,4.40965 -2e-5,1.80001 -0.44261,3.27337 -1.32779,4.42009 -0.88521,1.13977 -2.01666,1.70965 -3.39435,1.70965 -0.77871,0 -1.46757,-0.15985 -2.06656,-0.47954 -0.59901,-0.32664 -1.14476,-0.8305 -1.63727,-1.51158 l 0,1.6888 -4.10438,0 0,-16.22086 4.10438,0 0,6.25483" />
      <path
         inkscape:connector-curvature="0"
         style="font-size:17.54367638000000085px;font-style:normal;font-weight:normal;fill:none;fill-opacity:1;stroke:#582b2b;display:inline;enable-background:new;font-family:Bitstream Vera Sans;stroke-opacity:1;stroke-width:2;stroke-miterlimit:4;stroke-dasharray:none"
         id="path4101"
         d="m 313.87103,253.40835 c -0.66033,1.45267 -1.57391,2.55925 -2.74074,3.31976 -1.16687,0.76051 -2.54629,1.14077 -4.13826,1.14077 -2.09853,0 -3.64528,-0.6537 -4.64027,-1.9611 -0.99499,-1.31593 -1.26635,-3.05913 -0.81408,-5.22958 0.46131,-2.17899 1.46534,-3.91791 3.01211,-5.21677 1.55579,-1.30738 3.38295,-1.96108 5.48148,-1.96109 0.91357,1e-5 1.80002,0.10255 2.65934,0.30762 0.86834,0.19655 1.71408,0.4999 2.53722,0.91005 l -0.73267,3.48639 -1.45178,0 c 0.0633,-1.1963 -0.16735,-2.06789 -0.69197,-2.61479 -0.5156,-0.54687 -1.36586,-0.82032 -2.55079,-0.82033 -1.34777,1e-5 -2.47392,0.49563 -3.37845,1.48684 -0.89549,0.9827 -1.55128,2.45672 -1.96736,4.42208 -0.41609,1.96537 -0.38896,3.44367 0.0814,4.43489 0.47939,0.99123 1.3975,1.48685 2.75431,1.48685 1.07639,0 1.98997,-0.2649 2.74074,-0.7947 0.7598,-0.52979 1.37036,-1.32875 1.83169,-2.39689 l 2.00807,0" />
    </g>
    <g
       id="g3909"
       style="fill:#ffffff;fill-opacity:1;display:inline;enable-background:new"
       transform="translate(-293.125,786.91858)">
      <path
         inkscape:connector-curvature="0"
         d="m 312.70626,234.25509 c -1.76734,0 -2.99178,0.17827 -3.67335,0.5348 -0.68157,0.35653 -1.02235,0.96473 -1.02235,1.8246 0,0.6851 0.2536,1.23039 0.76082,1.63586 0.51514,0.39847 1.21255,0.59771 2.09226,0.59771 1.21255,0 2.18339,-0.3775 2.91252,-1.13251 0.73704,-0.762 1.10556,-1.77217 1.10557,-3.03053 l 0,-0.42993 -2.17547,0 m 4.36284,-0.79696 0,6.70071 -2.18737,0 0,-1.78266 c -0.4993,0.71307 -1.12143,1.24087 -1.86639,1.58342 -0.74498,0.33556 -1.65638,0.50334 -2.7342,0.50334 -1.36315,0 -2.4489,-0.33556 -3.25727,-1.00668 -0.80045,-0.67811 -1.20068,-1.58342 -1.20067,-2.71593 -10e-6,-1.32127 0.49928,-2.31746 1.49786,-2.98858 1.0065,-0.67111 2.50437,-1.00667 4.49361,-1.00668 l 3.06706,0 0,-0.18875 c -1e-5,-0.88783 -0.33287,-1.57293 -0.99858,-2.05531 -0.6578,-0.48935 -1.58505,-0.73402 -2.78175,-0.73403 -0.76083,1e-5 -1.50184,0.0804 -2.22303,0.24118 -0.7212,0.1608 -1.41465,0.40198 -2.08037,0.72355 l 0,-1.78266 c 0.80044,-0.27263 1.57712,-0.47537 2.33002,-0.6082 0.75289,-0.13981 1.48597,-0.20972 2.19925,-0.20973 1.92582,1e-5 3.36425,0.44044 4.31528,1.32127 0.95102,0.88085 1.42653,2.2161 1.42655,4.00574"
         id="text2841"
         style="font-size:22.27977753000000050px;font-style:normal;font-weight:normal;fill:#ffffff;fill-opacity:1;stroke:none;display:inline;enable-background:new;font-family:Bitstream Vera Sans" />
      <path
         d="m 326.6244,246.28903 c 0.76538,0 1.34775,-0.29189 1.74709,-0.87567 0.40598,-0.58379 0.60898,-1.43166 0.60899,-2.54364 -10e-6,-1.11196 -0.20301,-1.95984 -0.60899,-2.54363 -0.39934,-0.58377 -0.98171,-0.87566 -1.74709,-0.87568 -0.7654,2e-5 -1.35441,0.29538 -1.76705,0.88611 -0.406,0.58379 -0.609,1.42819 -0.60899,2.5332 -10e-6,1.10503 0.20299,1.95291 0.60899,2.54364 0.41264,0.58378 1.00165,0.87567 1.76705,0.87567 m -2.37604,-7.55792 c 0.49251,-0.68107 1.03826,-1.18146 1.63727,-1.50116 0.59899,-0.32663 1.28785,-0.48995 2.06656,-0.48996 1.37769,1e-5 2.50914,0.57337 3.39435,1.72008 0.88518,1.13978 1.32777,2.60966 1.32779,4.40965 -2e-5,1.80001 -0.44261,3.27337 -1.32779,4.42009 -0.88521,1.13977 -2.01666,1.70965 -3.39435,1.70965 -0.77871,0 -1.46757,-0.15985 -2.06656,-0.47954 -0.59901,-0.32664 -1.14476,-0.8305 -1.63727,-1.51158 l 0,1.6888 -4.10438,0 0,-16.22086 4.10438,0 0,6.25483"
         id="text2849"
         sodipodi:nodetypes="csssssssccssssssscccccc"
         style="font-size:10.17865562000000068px;font-style:normal;font-weight:normal;fill:#ffffff;fill-opacity:1;stroke:none;display:inline;enable-background:new;font-family:Bitstream Vera Sans"
         inkscape:connector-curvature="0" />
      <path
         d="m 313.87103,253.40835 c -0.66033,1.45267 -1.57391,2.55925 -2.74074,3.31976 -1.16687,0.76051 -2.54629,1.14077 -4.13826,1.14077 -2.09853,0 -3.64528,-0.6537 -4.64027,-1.9611 -0.99499,-1.31593 -1.26635,-3.05913 -0.81408,-5.22958 0.46131,-2.17899 1.46534,-3.91791 3.01211,-5.21677 1.55579,-1.30738 3.38295,-1.96108 5.48148,-1.96109 0.91357,1e-5 1.80002,0.10255 2.65934,0.30762 0.86834,0.19655 1.71408,0.4999 2.53722,0.91005 l -0.73267,3.48639 -1.45178,0 c 0.0633,-1.1963 -0.16735,-2.06789 -0.69197,-2.61479 -0.5156,-0.54687 -1.36586,-0.82032 -2.55079,-0.82033 -1.34777,1e-5 -2.47392,0.49563 -3.37845,1.48684 -0.89549,0.9827 -1.55128,2.45672 -1.96736,4.42208 -0.41609,1.96537 -0.38896,3.44367 0.0814,4.43489 0.47939,0.99123 1.3975,1.48685 2.75431,1.48685 1.07639,0 1.98997,-0.2649 2.74074,-0.7947 0.7598,-0.52979 1.37036,-1.32875 1.83169,-2.39689 l 2.00807,0"
         id="text2853"
         style="font-size:17.54367638000000085px;font-style:normal;font-weight:normal;fill:#ffffff;fill-opacity:1;stroke:none;display:inline;enable-background:new;font-family:Bitstream Vera Sans"
         inkscape:connector-curvature="0" />
    </g>
  </g>
</svg>
