<svg version="1.1" viewBox="0 0 48 48" xmlns="http://www.w3.org/2000/svg" xmlns:xlink="http://www.w3.org/1999/xlink">
    <defs>
        <linearGradient id="linearGradient2792-0" x1="24" x2="24" y1="44" y2="-196.08383" gradientTransform="matrix(1.0000035 0 0 .97702588 .00439272 1.0952855)" gradientUnits="userSpaceOnUse">
            <stop stop-color="#3daee9" offset="0"/>
            <stop stop-color="#fdffff" offset="1"/>
        </linearGradient>
        <linearGradient id="linearGradient3853" x1="24" x2="24" y1="44" y2="3.8579724" gradientTransform="matrix(1.0000035 0 0 .97702588 -.0474649 .10737996)" gradientUnits="userSpaceOnUse">
            <stop stop-color="#197cf1" offset="0"/>
            <stop stop-color="#20bcfa" offset="1"/>
        </linearGradient>
        <linearGradient id="linearGradient6640" x1="-3.9790393e-13" x2="0" y1="471.11673" y2="582.79797" gradientTransform="matrix(.68888909 0 0 .68888909 -257.4604 -336.83875)" gradientUnits="userSpaceOnUse">
            <stop stop-color="#f0e301" offset="0"/>
            <stop stop-color="#ff9701" offset="1"/>
        </linearGradient>
        <linearGradient id="linearGradient6642" x1="1.5916157e-12" x2="0" y1="479.92261" y2="547.79797" gradientTransform="matrix(.65849449 0 0 .65849449 -245.04202 -320.9181)" gradientUnits="userSpaceOnUse">
            <stop stop-color="#faff73" offset="0"/>
            <stop stop-color="#edd346" offset="1"/>
        </linearGradient>
        <linearGradient id="linearGradient6644" x1="414.38522" x2="414.38522" y1="511.6257" y2="535.84149" gradientTransform="matrix(.6243733 0 0 .62437329 -229.21293 -296.03795)" gradientUnits="userSpaceOnUse">
            <stop stop-color="#eff1f1" stop-opacity=".9907096" offset="0"/>
            <stop stop-color="#ebeaec" offset="1"/>
        </linearGradient>
        <linearGradient id="linearGradient942" x1="24" x2="39" y1="23" y2="38" gradientUnits="userSpaceOnUse">
            <stop offset="0"/>
            <stop stop-opacity="0" offset="1"/>
        </linearGradient>
    </defs>
    <path d="m44.004545 24.543906a20.000069 19.540518 0 0 1-20.00007 19.540518 20.000069 19.540518 0 0 1-20.00007-19.540518 20.000069 19.540518 0 0 1 20.00007-19.540518 20.000069 19.540518 0 0 1 20.00007 19.540518" fill="url(#linearGradient2792-0)" stroke-opacity="0"/>
    <path d="m43.979393 24.54994a20.000069 19.540518 0 0 1-20.000069 19.540518 20.000069 19.540518 0 0 1-20.000069-19.540518 20.000069 19.540518 0 0 1 20.000069-19.540518 20.000069 19.540518 0 0 1 20.000069 19.540518" fill="#197cf1" stroke-opacity="0"/>
    <path d="m43.979393 24.54994c0 10.79193-8.954336 19.540518-20.000069 19.540518s-20.000069-8.748588-20.000069-19.540518c1e-7 -10.79193 8.9543362-19.540518 20.000069-19.540518 11.045733 0 20.000069 8.7485878 20.000069 19.540518" color="#000000" color-rendering="auto" dominant-baseline="auto" fill-opacity=".1" image-rendering="auto" shape-rendering="auto" solid-color="#000000" stop-color="#000000" style="font-feature-settings:normal;font-variant-alternates:normal;font-variant-caps:normal;font-variant-east-asian:normal;font-variant-ligatures:normal;font-variant-numeric:normal;font-variant-position:normal;font-variation-settings:normal;inline-size:0;isolation:auto;mix-blend-mode:normal;shape-margin:0;shape-padding:0;text-decoration-color:#000000;text-decoration-line:none;text-decoration-style:solid;text-indent:0;text-orientation:mixed;text-transform:none;white-space:normal"/>
    <path d="m23.978516 4.515625c-11.306695-1e-7 -20.494141 8.969846-20.494141 20.035156 0 11.06531 9.187446 20.033203 20.494141 20.033203 11.306694 0 20.49414-8.967893 20.49414-20.033203s-9.187446-20.035156-20.49414-20.035156zm0 0.9882812c10.784771 0 19.505859 8.5283248 19.505859 19.046875s-8.721088 19.044922-19.505859 19.044922c-10.784772 0-19.50586-8.526372-19.50586-19.044922 2e-7 -10.51855 8.7210878-19.046875 19.50586-19.046875z" color="#000000" color-rendering="auto" dominant-baseline="auto" fill-opacity="0" image-rendering="auto" shape-rendering="auto" solid-color="#000000" stop-color="#000000" style="font-feature-settings:normal;font-variant-alternates:normal;font-variant-caps:normal;font-variant-east-asian:normal;font-variant-ligatures:normal;font-variant-numeric:normal;font-variant-position:normal;font-variation-settings:normal;inline-size:0;isolation:auto;mix-blend-mode:normal;shape-margin:0;shape-padding:0;text-decoration-color:#000000;text-decoration-line:none;text-decoration-style:solid;text-indent:0;text-orientation:mixed;text-transform:none;white-space:normal"/>
    <g shape-rendering="auto">
        <path d="m43.952687 23.556001c-1e-6 10.79193-8.954336 19.540517-20.000069 19.540517-11.045733 1e-6 -20.000069-8.748587-20.00007-19.540517-1e-7 -10.791931 8.954336-19.540519 20.00007-19.540518 11.045733 0 20.000069 8.7485881 20.000069 19.540518" color="#000000" color-rendering="auto" dominant-baseline="auto" fill="url(#linearGradient3853)" image-rendering="auto" solid-color="#000000" stop-color="#000000" style="font-feature-settings:normal;font-variant-alternates:normal;font-variant-caps:normal;font-variant-east-asian:normal;font-variant-ligatures:normal;font-variant-numeric:normal;font-variant-position:normal;font-variation-settings:normal;inline-size:0;isolation:auto;mix-blend-mode:normal;shape-margin:0;shape-padding:0;text-decoration-color:#000000;text-decoration-line:none;text-decoration-style:solid;text-indent:0;text-orientation:mixed;text-transform:none;white-space:normal"/>
        <path d="m23.953125 3.5214844c-11.306695-6e-7 -20.494141 8.9698456-20.494141 20.035157 6e-7 11.06531 9.1874466 20.033203 20.494141 20.033203s20.49414-8.967894 20.494141-20.033203c0-11.065311-9.187447-20.035157-20.494141-20.035157zm0 0.9882812c10.784772 0 19.505859 8.5283254 19.505859 19.046875 0 10.518549-8.721088 19.044921-19.505859 19.044921-10.784772 1e-6 -19.505859-8.526371-19.505859-19.044921 0-10.518551 8.7210874-19.046876 19.505859-19.046875z" color="#000000" color-rendering="auto" dominant-baseline="auto" fill-opacity="0" image-rendering="auto" solid-color="#000000" stop-color="#000000" style="font-feature-settings:normal;font-variant-alternates:normal;font-variant-caps:normal;font-variant-east-asian:normal;font-variant-ligatures:normal;font-variant-numeric:normal;font-variant-position:normal;font-variation-settings:normal;inline-size:0;isolation:auto;mix-blend-mode:normal;shape-margin:0;shape-padding:0;text-decoration-color:#000000;text-decoration-line:none;text-decoration-style:solid;text-indent:0;text-orientation:mixed;text-transform:none;white-space:normal"/>
    </g>
    <g shape-rendering="auto">
        <path d="m24.003906 10.226562c-7.6328 0-13.777343 6.144444-13.777344 13.777344 0 3.8164 1.535066 7.259675 4.025391 9.75 0.0091 0.0091 0.020137 0.020177 0.029297 0.029297 0.01267 0.01273 0.024389 0.026383 0.037109 0.039063 0.01497 0.01501 0.031845 0.028018 0.046875 0.042968 0.0072 0.0072 0.014285 0.014315 0.021485 0.021485 0.0221 0.02225 0.044146 0.044306 0.066406 0.066406 0.01531 0.01536 0.031505 0.029642 0.046875 0.044922 0.02046 0.02059 0.039947 0.04204 0.060547 0.0625 0.02272 0.02287 0.045479 0.045649 0.068359 0.068359 0.02206 0.02223 0.044187 0.044327 0.066406 0.066406 0.030481 0.030781 0.061027 0.061297 0.091797 0.091797 0.03278 0.03307 0.0665 0.064917 0.09961 0.097657 0.02921 0.02943 0.05842 0.05872 0.08789 0.08789 0.0337 0.03404 0.06751 0.06788 0.101563 0.101563 0.03596 0.03635 0.07301 0.07147 0.109375 0.107422 0.03917 0.03964 0.07754 0.07998 0.117187 0.11914 0.04112 0.04164 0.08335 0.08194 0.125 0.123047 0.04274 0.0433 0.0856 0.08617 0.128907 0.128906 0.04565 0.04628 0.09237 0.09109 0.138671 0.136719 0.04788 0.04858 0.09594 0.09667 0.144532 0.144531 0.05044 0.05122 0.101105 0.101921 0.152344 0.152344 0.05203 0.05285 0.103372 0.106198 0.15625 0.158203 0.051059 0.0519 0.102423 0.103217 0.154296 0.154297 0.0626 0.06382 0.125623 0.126865 0.189454 0.189453 0.056249 0.05717 0.114633 0.111786 0.171874 0.167969 0.06167 0.06284 0.12268 0.125856 0.185547 0.1875 0.06322 0.06445 0.126935 0.128214 0.191407 0.191406 0.06292 0.06419 0.127243 0.126502 0.191406 0.189453 0.07349 0.07516 0.147464 0.149194 0.222656 0.222657 0.06746 0.06882 0.136185 0.135737 0.205078 0.203125 0.06932 0.07086 0.138157 0.141584 0.208985 0.210937 0.08047 0.08249 0.161631 0.16369 0.24414 0.244141 0.07152 0.0731 0.143666 0.145303 0.216797 0.216797 0.08427 0.08649 0.169349 0.171608 0.25586 0.255859 0.076299 0.07811 0.154291 0.154194 0.232421 0.230469 0.08873 0.0912 0.178312 0.180821 0.269532 0.269531 0.08043 0.08246 0.161669 0.163725 0.24414 0.244141 0.09348 0.09624 0.188909 0.189735 0.285157 0.283203 0.0852 0.08747 0.17032 0.174591 0.257812 0.259765 0.0979 0.100914 0.197884 0.199003 0.298828 0.296875 0.08937 0.09186 0.179586 0.182148 0.271484 0.271485 0.099751 0.102965 0.19982 0.204883 0.302735 0.304687 0.102061 0.105242 0.207134 0.20666 0.3125 0.308594 0.09951 0.102505 0.200087 0.203371 0.302734 0.302734 0.10232 0.105613 0.204901 0.210215 0.310547 0.3125 0.106392 0.109972 0.214226 0.217849 0.324219 0.324219 0.108623 0.112324 0.219653 0.221512 0.332031 0.330078 0.108937 0.112676 0.219317 0.223135 0.332031 0.332032 0.113267 0.117336 0.228347 0.232457 0.345703 0.345703 0.112022 0.11609 0.225772 0.229708 0.341797 0.341797 0.079927 0.083015 0.162305 0.163279 0.244141 0.24414 0.194824 0.005572 0.389701 0.013672 0.585938 0.013672 10.654381 0 19.27935-8.27008 19.703124-18.697266-0.10449-0.107829-0.210116-0.214123-0.318359-0.318359-0.117017-0.121514-0.236025-0.240284-0.357422-0.357422-0.121463-0.126207-0.24491-0.249606-0.371093-0.371094-0.112088-0.116025-0.225707-0.229775-0.341797-0.341797-0.113246-0.117357-0.228367-0.232436-0.345703-0.345703-0.108897-0.112715-0.219356-0.223093-0.332032-0.332031-0.108566-0.112378-0.217754-0.223408-0.330078-0.332031-0.106369-0.109993-0.214248-0.217827-0.324219-0.324219-0.102285-0.105646-0.206887-0.208227-0.3125-0.310547-0.09936-0.102647-0.200228-0.203225-0.302734-0.302734-0.101934-0.105366-0.203352-0.210439-0.308594-0.3125-0.0998-0.102915-0.201722-0.202982-0.304687-0.302735-0.08934-0.091899-0.17962-0.182112-0.271485-0.271484-0.09787-0.100944-0.195961-0.200925-0.296875-0.298828-0.08517-0.08749-0.172298-0.172614-0.259765-0.257812-0.09283-0.095591-0.185692-0.190348-0.28125-0.283204-0.08108-0.08319-0.162933-0.164976-0.246094-0.246093-0.08871-0.09122-0.17833-0.180803-0.269531-0.269532-0.07628-0.07813-0.15236-0.156126-0.230469-0.232421-0.08425-0.086511-0.169365-0.171592-0.255859-0.25586-0.07149-0.07313-0.143694-0.145275-0.216797-0.216797-0.08045-0.08251-0.161647-0.163674-0.244141-0.24414-0.06935-0.07083-0.140073-0.139669-0.210937-0.208985-0.06739-0.06889-0.134308-0.137613-0.203125-0.205078-0.07346-0.07519-0.147494-0.149164-0.222657-0.222656-0.06295-0.06416-0.125259-0.128487-0.189453-0.191406-0.06319-0.06447-0.12696-0.128188-0.191406-0.191407-0.06164-0.06287-0.124663-0.123871-0.1875-0.185547-0.05618-0.05724-0.110796-0.115623-0.167969-0.171874-0.06259-0.06383-0.125635-0.126853-0.189453-0.189454-0.05108-0.05187-0.102402-0.103239-0.154297-0.154296-0.05201-0.05288-0.105351-0.10422-0.158203-0.15625-0.05042-0.05124-0.101125-0.1019-0.152344-0.152344-0.04786-0.0486-0.09595-0.096649-0.144531-0.144532-0.04563-0.0463-0.09044-0.09302-0.136719-0.138671-0.04273-0.04331-0.08561-0.08617-0.128906-0.128907-0.04111-0.04165-0.08141-0.08388-0.123047-0.125-0.03916-0.03965-0.0795-0.07801-0.11914-0.117187-0.03595-0.03636-0.07107-0.07341-0.107422-0.109375-0.03368-0.03405-0.06752-0.06786-0.101563-0.101563-0.0324-0.03274-0.064926-0.065236-0.097656-0.097656-0.0266-0.02685-0.053258-0.053438-0.080078-0.080078-0.03339-0.03375-0.065869-0.068159-0.09961-0.101563-0.02208-0.022209-0.044176-0.044336-0.066406-0.066406-0.02271-0.02288-0.045489-0.045639-0.068359-0.068359-0.02046-0.02059-0.04191-0.040077-0.0625-0.060547-0.01529-0.01538-0.029562-0.031575-0.044922-0.046875-0.0221-0.02226-0.044156-0.044296-0.066406-0.066406-0.0042-0.0042-0.007499-0.009402-0.011719-0.013672-0.01783-0.01797-0.034804-0.036818-0.052734-0.054688-0.01268-0.01272-0.028286-0.026392-0.041016-0.039062-0.0091-0.0092-0.018204-0.018224-0.027344-0.027344-2.490337-2.490312-5.93355-4.025391-9.75-4.025391z" color="#4d4d4d" color-rendering="auto" dominant-baseline="auto" fill="url(#linearGradient942)" image-rendering="auto" opacity=".199555" solid-color="#000000" stop-color="#000000" style="font-feature-settings:normal;font-variant-alternates:normal;font-variant-caps:normal;font-variant-east-asian:normal;font-variant-ligatures:normal;font-variant-numeric:normal;font-variant-position:normal;font-variation-settings:normal;inline-size:0;isolation:auto;mix-blend-mode:normal;shape-margin:0;shape-padding:0;text-decoration-color:#000000;text-decoration-line:none;text-decoration-style:solid;text-indent:0;text-orientation:mixed;text-transform:none;white-space:normal"/>
        <path d="m24.000009 10.222231c7.632886 0 13.777773 6.144887 13.777773 13.777774v1.5e-5c0 7.632887-6.144887 13.777774-13.777773 13.777774-7.632887 0-13.777774-6.144887-13.777774-13.777774v-1.5e-5c0-7.632887 6.144887-13.777774 13.777774-13.777774z" color="#000000" color-rendering="auto" dominant-baseline="auto" fill="url(#linearGradient6640)" image-rendering="auto" solid-color="#000000" stop-color="#000000" style="font-feature-settings:normal;font-variant-alternates:normal;font-variant-caps:normal;font-variant-east-asian:normal;font-variant-ligatures:normal;font-variant-numeric:normal;font-variant-position:normal;font-variation-settings:normal;inline-size:0;isolation:auto;mix-blend-mode:normal;shape-margin:0;shape-padding:0;text-decoration-color:#000000;text-decoration-line:none;text-decoration-style:solid;text-indent:0;text-orientation:mixed;text-transform:none;white-space:normal"/>
    </g>
    <g shape-rendering="auto">
        <path d="m23.999998 12.805564c6.201715 0 11.19443 4.992716 11.19443 11.19443v1.4e-5c0 6.201714-4.992715 11.19443-11.19443 11.19443-6.201714 0-11.19443-4.992716-11.19443-11.19443v-1.4e-5c0-6.201714 4.992716-11.19443 11.19443-11.19443z" color="#000000" color-rendering="auto" dominant-baseline="auto" fill="url(#linearGradient6642)" image-rendering="auto" solid-color="#000000" stop-color="#000000" style="font-feature-settings:normal;font-variant-alternates:normal;font-variant-caps:normal;font-variant-east-asian:normal;font-variant-ligatures:normal;font-variant-numeric:normal;font-variant-position:normal;font-variation-settings:normal;inline-size:0;isolation:auto;mix-blend-mode:normal;shape-margin:0;shape-padding:0;text-decoration-color:#000000;text-decoration-line:none;text-decoration-style:solid;text-indent:0;text-orientation:mixed;text-transform:none;white-space:normal"/>
        <path d="m29 23.5c3.023076 2.85e-4 5.612601 2.164221 6.149903 5.139166 2.254436 0.532756 3.847713 2.544305 3.850097 4.860833-1e-6 2.761423-2.238577 4.999998-5 5h-11.250001c-2.071067 1e-6 -3.749999-1.678931-3.749999-3.749998-4e-6 -2.07107 1.678929-3.750006 3.749999-3.750005 0.0448 0.0017 0.08957 0.0043 0.134277 0.0076-0.08715-0.41349-0.132138-0.834752-0.134277-1.25732-1e-6 -3.451781 2.79822-6.250002 6.250001-6.250001z" color="#4d4d4d" color-rendering="auto" dominant-baseline="auto" fill="url(#linearGradient6644)" image-rendering="auto" solid-color="#000000" stop-color="#000000" style="font-feature-settings:normal;font-variant-alternates:normal;font-variant-caps:normal;font-variant-east-asian:normal;font-variant-ligatures:normal;font-variant-numeric:normal;font-variant-position:normal;font-variation-settings:normal;inline-size:0;isolation:auto;mix-blend-mode:normal;shape-margin:0;shape-padding:0;text-decoration-color:#000000;text-decoration-line:none;text-decoration-style:solid;text-indent:0;text-orientation:mixed;text-transform:none;white-space:normal"/>
        <path d="m38.98534 33.183068c-0.162328 2.634993-2.345241 4.689753-4.985228 4.692558h-11.249694c-1.947189-6.19e-4 -3.569943-1.491453-3.735265-3.431611-9e-3 0.101787-0.01391 0.203902-0.01461 0.306087 5.5e-5 2.070989 1.67891 3.749843 3.749899 3.749897h11.249696c2.761315-7.7e-5 4.999785-2.238547 4.999862-4.999862-0.0015-0.105818-0.0064-0.211561-0.01461-0.317069z" color="#4d4d4d" color-rendering="auto" dominant-baseline="auto" fill="#172525" image-rendering="auto" opacity=".2" solid-color="#000000" stop-color="#000000" style="font-feature-settings:normal;font-variant-alternates:normal;font-variant-caps:normal;font-variant-east-asian:normal;font-variant-ligatures:normal;font-variant-numeric:normal;font-variant-position:normal;font-variation-settings:normal;inline-size:0;isolation:auto;mix-blend-mode:normal;shape-margin:0;shape-padding:0;text-decoration-color:#000000;text-decoration-line:none;text-decoration-style:solid;text-indent:0;text-orientation:mixed;text-transform:none;white-space:normal"/>
    </g>
</svg>
