<?xml version="1.0" encoding="UTF-8" standalone="no"?>
<!-- Generator: Adobe Illustrator 12.0.0, SVG Export Plug-In . SVG Version: 6.00 Build 51448)  -->

<svg
   xmlns:dc="http://purl.org/dc/elements/1.1/"
   xmlns:cc="http://creativecommons.org/ns#"
   xmlns:rdf="http://www.w3.org/1999/02/22-rdf-syntax-ns#"
   xmlns:svg="http://www.w3.org/2000/svg"
   xmlns="http://www.w3.org/2000/svg"
   xmlns:sodipodi="http://sodipodi.sourceforge.net/DTD/sodipodi-0.dtd"
   xmlns:inkscape="http://www.inkscape.org/namespaces/inkscape"
   version="1.1"
   id="Layer_1"
   width="88.150002"
   height="88.150002"
   viewBox="0 0 88.150001 88.149999"
   overflow="visible"
   enable-background="new 0 0 280.22 69.387"
   xml:space="preserve"
   inkscape:version="0.92.3 (2405546, 2018-03-11)"
   sodipodi:docname="sc-apps-phonon-gstreamer.svg"
   style="overflow:visible"><metadata
   id="metadata2920"><rdf:RDF><cc:Work
       rdf:about=""><dc:format>image/svg+xml</dc:format><dc:type
         rdf:resource="http://purl.org/dc/dcmitype/StillImage" /><dc:title></dc:title></cc:Work></rdf:RDF></metadata><defs
   id="defs2918"><inkscape:perspective
     sodipodi:type="inkscape:persp3d"
     inkscape:vp_x="0 : 34.693501 : 1"
     inkscape:vp_y="0 : 1000 : 0"
     inkscape:vp_z="280.22 : 34.693501 : 1"
     inkscape:persp3d-origin="140.11 : 23.129 : 1"
     id="perspective2922" /><inkscape:perspective
     id="perspective3015"
     inkscape:persp3d-origin="0.5 : 0.33333333 : 1"
     inkscape:vp_z="1 : 0.5 : 1"
     inkscape:vp_y="0 : 1000 : 0"
     inkscape:vp_x="0 : 0.5 : 1"
     sodipodi:type="inkscape:persp3d" /></defs><sodipodi:namedview
   pagecolor="#ffffff"
   bordercolor="#666666"
   borderopacity="1"
   objecttolerance="10"
   gridtolerance="10"
   guidetolerance="10"
   inkscape:pageopacity="0"
   inkscape:pageshadow="2"
   inkscape:window-width="1920"
   inkscape:window-height="1023"
   id="namedview2916"
   showgrid="false"
   inkscape:zoom="1.9127828"
   inkscape:cx="-6.5346897"
   inkscape:cy="7.2665"
   inkscape:window-x="0"
   inkscape:window-y="314"
   inkscape:window-maximized="1"
   inkscape:current-layer="Layer_1" />











<g
   id="g2924"
   transform="translate(0.0021634,-23.095072)"><path
     style="fill:#ff3131"
     id="path2910"
     d="m 47.141292,51.388999 c -5.409,0 -13.323,-4.407 -21.036,-4.407 -7.713,0 -12.32,4.407 -13.122,5.008 -0.801,0.601 -1.303,2.904 1.102,2.203 2.405,-0.701 4.407,-0.701 8.214,-0.701 3.807,0 12.922,5.209 22.138,5.209 9.216,0 16.928,-7.111 18.631,-9.616 1.703,-2.505 0.1,-3.306 -1.202,-2.704 -1.303,0.601 -9.716,5.008 -14.725,5.008 z" /><path
     style="fill:#319831"
     id="path2912"
     d="m 70.639292,65.110999 c -5.683,0 -13.997,-4.406 -22.1,-4.406 -8.103,0 -12.944,4.406 -13.786,5.008 -0.842,0.602 -1.369,2.904 1.157,2.203 2.526,-0.701 4.63,-0.701 8.629,-0.701 3.999,0 13.576,5.209 23.257,5.209 9.681,0 17.785,-7.111 19.574,-9.615 1.789,-2.505 0.105,-3.307 -1.263,-2.705 -1.368,0.602 -10.206,5.007 -15.468,5.007 z" /><path
     style="fill:#3232cc"
     id="path2914"
     d="m 37.936292,80.252999 c -5.893,0 -14.515,-4.761 -22.918,-4.761 -8.4029998,0 -13.4239998,4.761 -14.29699976,5.41 -0.873,0.649 -1.419,3.137 1.19999996,2.379 2.62,-0.757 4.802,-0.757 8.9489998,-0.757 4.147,0 14.079,5.626 24.12,5.626 10.04,0 18.443,-7.681 20.299,-10.386 1.856,-2.705 0.109,-3.57 -1.31,-2.921 -1.419,0.649 -10.586,5.41 -16.043,5.41 z" /></g>
</svg>