<svg width="48" height="48" viewBox="0 0 48.000001 47.999999" xmlns="http://www.w3.org/2000/svg" xmlns:xlink="http://www.w3.org/1999/xlink">
    <linearGradient id="a">
        <stop stop-opacity=".2" offset="0"/>
        <stop stop-opacity="0" offset="1"/>
    </linearGradient>
    <linearGradient id="b" x1="1.142857" x2="1.142857" y1="55.428571" y2="-1.714286" gradientUnits="userSpaceOnUse">
        <stop stop-color="#bfc0c1" offset="0"/>
        <stop stop-color="#eff0f1" offset="1"/>
    </linearGradient>
    <linearGradient id="c" x1="24" x2="24" y1="41" y2="-3" gradientUnits="userSpaceOnUse">
        <stop stop-color="#f47750" offset="0"/>
        <stop stop-color="#fdbc4b" offset="1"/>
    </linearGradient>
    <linearGradient id="d" x1="9" x2="24" y1="9" y2="24" gradientUnits="userSpaceOnUse" xlink:href="#a"/>
    <linearGradient id="e" x1="9" x2="16" y1="29" y2="44" gradientUnits="userSpaceOnUse" xlink:href="#a"/>
    <linearGradient id="f" x1="23" x2="41" y1="16" y2="26" gradientUnits="userSpaceOnUse" xlink:href="#a"/>
    <rect x="4" y="4" width="40" height="40" rx="5.714286" fill="url(#b)" stroke-miterlimit="0" stroke-width=".359955"/>
    <path d="m19 29-10 10 5 5h12l-2-10z" fill="url(#e)"/>
    <path d="m19 9-10 10 15 15v-20z" fill="url(#d)"/>
    <path d="m40.56 8.44-15.68 31.68 3.88 3.88h15.24v-32.12z" fill="url(#f)"/>
    <g stroke-miterlimit="0">
        <circle cx="14" cy="14" r="7.07" fill="#fcfcfc" stroke-width=".188976"/>
        <path d="m14 6.9296875a7.0700002 7.0700002 0 0 0 -7.070312 7.0703125 7.0700002 7.0700002 0 0 0 .017578.494141 7.0700002 7.0700002 0 0 1 7.052734-6.5644535 7.0700002 7.0700002 0 0 1 7.052734 6.5761715 7.0700002 7.0700002 0 0 0 .017578-.505859 7.0700002 7.0700002 0 0 0 -7.070312-7.0703125z" fill="#fff" stroke-width=".188976"/>
        <path d="m13 10v3h-3v2h3v3h2v-3h3v-2h-3v-3z" fill="#45443f" stroke-width=".436422"/>
        <path d="m7.0019531 13.996094a7.0700002 7.0700002 0 0 0-0.0722656 1.003906 7.0700002 7.0700002 0 0 0 7.0703125 7.070312 7.0700002 7.0700002 0 0 0 7.070312-7.070312 7.0700002 7.0700002 0 0 0-0.072265-0.996094 7.0700002 7.0700002 0 0 1-6.998047 6.066406 7.0700002 7.0700002 0 0 1-6.9980469-6.074218z" opacity=".1" stroke-width=".188976"/>
        <g transform="translate(.000313 20)">
            <circle cx="14" cy="14" r="7.07" fill="#fcfcfc" stroke-width=".188976"/>
            <path d="m14.000312 6.93a7.0700002 7.0700002 0 0 0 -7.070312 7.070313 7.0700002 7.0700002 0 0 0 .017578.494141 7.0700002 7.0700002 0 0 1 7.052734-6.564454 7.0700002 7.0700002 0 0 1 7.052734 6.576172 7.0700002 7.0700002 0 0 0 .017578-.505859 7.0700002 7.0700002 0 0 0 -7.070312-7.070313z" fill="#fff" stroke-width=".188976"/>
            <path transform="translate(-.000313 -20)" d="m10 33v2h8v-2z" fill="#45443f" stroke-width=".436422"/>
            <path d="m7.0019531 13.996094a7.0700002 7.0700002 0 0 0-0.0722656 1.003906 7.0700002 7.0700002 0 0 0 7.0703125 7.070312 7.0700002 7.0700002 0 0 0 7.070312-7.070312 7.0700002 7.0700002 0 0 0-0.072265-0.996094 7.0700002 7.0700002 0 0 1-6.998047 6.066406 7.0700002 7.0700002 0 0 1-6.9980469-6.074218z" opacity=".1" stroke-width=".188976"/>
        </g>
        <g stroke-width=".389585">
            <rect x="24" y="7" width="17" height="34" rx="3" ry="3.1875" fill="url(#c)"/>
            <path d="m24 36.812v2c0 1.765875 1.338 3.1875 3 3.1875h11c1.662 0 3-1.421625 3-3.1875v-2c0 1.765875-1.338 3.1875-3 3.1875h-11c-1.662 0-3-1.421625-3-3.1875z" opacity=".1"/>
            <path d="m27 7c-1.662 0-3 1.421625-3 3.1875v1c0-1.765875 1.338-3.1875 3-3.1875h11c1.662 0 3 1.421625 3 3.1875v-1c0-1.765875-1.338-3.1875-3-3.1875z" fill="#fdbc4b"/>
        </g>
        <path d="m4 37.285v1c0 3.165715 2.549129 5.714844 5.714844 5.714844h28.570312c3.165715 0 5.714844-2.549129 5.714844-5.714844v-1c0 3.165715-2.549129 5.714844-5.714844 5.714844h-28.570312c-3.165715 0-5.714844-2.549129-5.714844-5.714844z" fill="#979c9f" opacity=".5" stroke-width=".359955"/>
        <g stroke-width=".408236">
            <path d="m29 22v2h7v-2zm0 4v2h7v-2z" fill="#fcfcfc" opacity=".2"/>
            <path d="m29 21v2h7v-2zm0 4v2h7v-2z" fill="#45443f"/>
        </g>
    </g>
</svg>
