<?xml version="1.0" encoding="UTF-8"?>
<svg width="48" height="48" version="1.1" xmlns="http://www.w3.org/2000/svg" xmlns:cc="http://creativecommons.org/ns#" xmlns:dc="http://purl.org/dc/elements/1.1/" xmlns:rdf="http://www.w3.org/1999/02/22-rdf-syntax-ns#" xmlns:xlink="http://www.w3.org/1999/xlink">
 <metadata>
  <rdf:RDF>
   <cc:Work rdf:about="">
    <dc:format>image/svg+xml</dc:format>
    <dc:type rdf:resource="http://purl.org/dc/dcmitype/StillImage"/>
    <dc:title/>
   </cc:Work>
  </rdf:RDF>
 </metadata>
 <defs>
  <linearGradient id="linearGradient7236" x1="186.42" x2="228.08" y1="193.9" y2="193.9" gradientTransform="matrix(0 -.14295 .14295 0 1.4401 51.623)" gradientUnits="userSpaceOnUse">
   <stop stop-color="#f6fafa" offset="0"/>
   <stop stop-color="#2c4e4e" stop-opacity="0" offset="1"/>
  </linearGradient>
  <linearGradient id="linearGradient6578" x1="10.81" x2="37.737" y1="31.657" y2="30.152" gradientTransform="matrix(1.0091 0 0 1.0091 -1.384 -.11265)" gradientUnits="userSpaceOnUse">
   <stop stop-color="#2b5e83" offset="0"/>
   <stop stop-color="#2b5e83" stop-opacity="0" offset="1"/>
  </linearGradient>
  <linearGradient id="linearGradient6686" x1="41.223" x2="8.1602" y1="41.137" y2="-16.129" gradientTransform="matrix(1.0091 0 0 1.0091 -1.384 -.11265)" gradientUnits="userSpaceOnUse">
   <stop stop-color="#2c3e50" offset="0"/>
   <stop stop-color="#34495e" offset="1"/>
  </linearGradient>
  <linearGradient id="linearGradient6730" x1="21.073" x2="42.396" y1="16.198" y2="37.522" gradientUnits="userSpaceOnUse">
   <stop stop-color="#232629" offset="0"/>
   <stop stop-opacity="0" offset="1"/>
  </linearGradient>
  <linearGradient id="linearGradient6746" x1="650.88" x2="523.35" y1="275.03" y2="54.141" gradientTransform="matrix(.26162 0 0 .26162 -130.07 -29.554)" gradientUnits="userSpaceOnUse">
   <stop stop-color="#2c3e50" offset="0"/>
   <stop stop-color="#34495e" offset="1"/>
  </linearGradient>
 </defs>
 <g>
  <path d="m24 4c-10.803 0-19.5 8.697-19.5 19.5v1c0 10.803 8.697 19.5 19.5 19.5s19.5-8.697 19.5-19.5v-1c0-10.803-8.697-19.5-19.5-19.5z" fill="#1d2834" style="paint-order:stroke markers fill"/>
  <path d="m13.92 19.119c-0.30425 0.0033-0.61185 0.04441-0.91992 0.12695l-2.9492 0.79102c-1.9716 0.5283-3.1338 2.5401-2.6055 4.5117l0.033203 0.125c0.63776-0.20528 1.3206-0.36668 1.9785-0.54297 0.52922-0.1418 1.0691 0.17 1.2109 0.69922 0.14181 0.52923-0.16999 1.0691-0.69922 1.2109-0.65104 0.18172-1.3416 0.35776-1.9844 0.51953l0.41992 1.5703c0.63786-0.20496 1.3206-0.36668 1.9785-0.54297 0.52922-0.14181 1.0691 0.16999 1.2109 0.69922 0.14181 0.52922-0.16999 1.0691-0.69922 1.2109-0.65104 0.18172-1.3416 0.35776-1.9844 0.51953l0.42188 1.5703c0.63786-0.20496 1.3186-0.36668 1.9766-0.54297 0.52923-0.14181 1.0711 0.16999 1.2129 0.69922 0.14181 0.52923-0.16999 1.0691-0.69922 1.2109-0.65105 0.18162-1.3417 0.35766-1.9844 0.51953l0.029297 0.11133c0.5283 1.9716 2.5401 3.1338 4.5117 2.6055l0.36328-0.09766 1.9714 6.5093c0.92725 0.3728 1.8886 0.67291 2.881 0.90137l-2.415-8.065 0.14844-0.03906c1.9716-0.5283 3.1338-2.5401 2.6055-4.5117l-0.03125-0.11133c-0.63791 0.20473-1.3186 0.36669-1.9766 0.54297-0.52922 0.14181-1.0691-0.16999-1.2109-0.69922-0.14181-0.52923 0.16999-1.0691 0.69922-1.2109 0.65094-0.18175 1.3417-0.35788 1.9844-0.51953l-0.42188-1.5703c-0.63786 0.20473-1.3187 0.36669-1.9766 0.54297-0.52923 0.1418-1.0711-0.16999-1.2129-0.69922-0.1418-0.52923 0.16999-1.0691 0.69922-1.2109 0.65104-0.18173 1.3416-0.35776 1.9844-0.51953l-0.41992-1.5703c-0.63788 0.20497-1.3206 0.36667-1.9785 0.54297-0.52923 0.14181-1.0691-0.16999-1.2109-0.69922-0.1418-0.52923 0.16999-1.0691 0.69922-1.2109 0.65094-0.18175 1.3417-0.35788 1.9844-0.51953l-0.0332-0.125c-0.44576-1.6636-1.9489-2.7506-3.5918-2.7324z" fill="#bdc3c7" style="paint-order:normal"/>
  <path d="m36.984 10.127-5.248 5.0449s-2.058 0.97341-2.873 1.5039c-0.81499 0.5305-2.0293 1.6133-2.0293 1.6133-2.9163-0.32956-6.0072 0.24257-7.2754 0.51953-0.94374 0.20611-0.81707 1.9693-0.45117 2.8633 0.50437 1.2121 4.4387 1.8538 5.5957 2.6758 0.23625 1.3354-2.4505 1.8632-2.7129 2.8418-0.57935 2.1608 2.2755-0.38611 3.1895 0.16016 1.786 1.0748 1.1622 4.816 0.89648 6.1211 0.85021-0.54804 1.1895-1.9862 1.6016-3.2988 0.0022 0.0033 0.0058 0.0084 0.0078 0.01172 1.0091 2.6587 0.58437 4.4661-0.23828 7.1973 0.74846-0.93989 1.3177-1.6954 1.8379-4.0762 7.49e-4 0.0017 0.0032 0.0039 0.0039 0.0059 0.88873 2.22 0.7502 3.6721 0.27539 6.0371 0.4358-0.57843 0.93544-0.8094 1.2227-2.2051 0.78911 1.981 0.71079 3.2373 0.53711 4.416-0.05146 0.49954-0.179 0.87037-0.28707 1.1423 6.2585-2.4421 10.72-7.6773 12.037-14.136 0.31829-1.3456 0.40814-2.7424 0.4258-4.0645v-1c0-0.01179 2.1e-5 -0.02337 0-0.03516h-2e-3c-1.4423 0.0088-2.5124-0.31945-3.5293-1.1055 0.7608 0.06337 2.6914-1.0586 2.6914-1.0586s-3.1518 0.74457-4.2344-0.51953c1.0508 0.29723 2.5469-0.91211 2.5469-0.91211s-3.2048 0.60724-4.2637-0.57031c1.2394 0.04824 2.8164-1.0566 2.8164-1.0566s-2.706 0.47445-3.9512-0.08789c-0.0068-0.01568-0.0129-0.03111-0.01953-0.04687 0 0 2.4592-4.6106 2.082-7.0234-0.05949-0.38108-0.65234-0.95703-0.65234-0.95703z" fill="#bdc3c7" style="paint-order:stroke markers fill"/>
  <g>
   <path d="m43.5 23.5a19.5 19.5 0 0 1-19.5 19.5 19.5 19.5 0 0 1-19.5-19.5 19.5 19.5 0 0 1 19.5-19.5 19.5 19.5 0 0 1 19.5 19.5" fill="#596979" style="paint-order:normal"/>
   <path d="m23.818 5a19.5 19.5 0 0 0-19.311 19.012 19.5 19.5 0 0 0 19.492 18.988 19.5 19.5 0 0 0 19.492-19.012 19.5 19.5 0 0 0-19.492-18.988 19.5 19.5 0 0 0-0.18164 0z" fill="url(#linearGradient6746)" style="paint-order:normal"/>
   <path d="m36.5 23.5a12.5 12.5 0 0 1-12.5 12.5 12.5 12.5 0 0 1-12.5-12.5 12.5 12.5 0 0 1 12.5-12.5 12.5 12.5 0 0 1 12.5 12.5" fill="#e06874" style="paint-order:normal"/>
   <path d="m23.986 12a12.5 12.5 0 0 0-12.475 11.988 12.5 12.5 0 0 0 12.488 12.012 12.5 12.5 0 0 0 12.488-11.988 12.5 12.5 0 0 0-12.488-12.012 12.5 12.5 0 0 0-0.01367 0z" fill="#c62737" style="paint-order:normal"/>
  </g>
 </g>
 <path d="m7.6434 26.813a1.9977 1.9977 0 0 1 1.9977 1.9977 1.9977 1.9977 0 0 1-1.9977 1.9977 1.9977 1.9977 0 0 1-1.9977-1.9977 1.9977 1.9977 0 0 1 1.9977-1.9977" fill="#fff" fill-opacity=".2" style="paint-order:stroke markers fill"/>
 <g>
  <path d="m23.986 12a12.5 12.5 0 0 0-12.443 11.494 12.5 12.5 0 0 0 12.457 11.506 12.5 12.5 0 0 0 12.457-11.492 12.5 12.5 0 0 0-12.457-11.508 12.5 12.5 0 0 0-0.01367 0z" fill="#da4453" style="paint-order:normal"/>
  <path d="m34.174 9.5352-3.1152 5.3711-1.9219 6.2812 11.863 11.863a19.5 19.5 0 0 0 2.5-9.5508 19.5 19.5 0 0 0-2.2656-9.123l-4.25-4.25-0.81445 1.4043zm-19.793 6.9043-1.752 6.5762c-1.1752-1.3352-2.348-2.7471-3.502-4.2676l-2.5195 3.0117 1.4609 1.4609-0.5332 1.9961 1.459 1.459-0.5332 1.998 2.0996 2.0996-0.45312 1.7012 7.3711 7.3711-0.49219 1.8496a19.5 19.5 0 0 0 7.0137 1.3047 19.5 19.5 0 0 0 12.994-4.9629c-4.8839-6.9845-9.3418-15.513-16.232-15.215z" fill="url(#linearGradient6730)" opacity=".4" stroke-dashoffset="531.55" stroke-linecap="round" stroke-linejoin="round" stroke-width="75.591" style="paint-order:stroke markers fill"/>
  <path d="m13.05 16.206c-0.30425 0.0033-0.61331 0.04467-0.92138 0.12722l-2.9483 0.78996c-1.9716 0.5283-3.1337 2.5409-2.6054 4.5125l0.033388 0.12452c0.63776-0.20528 1.3199-0.3668 1.9778-0.5431 0.52922-0.1418 1.0694 0.17016 1.2112 0.69938 0.14181 0.52923-0.17015 1.0694-0.69938 1.2112-0.65104 0.18172-1.3416 0.357-1.9843 0.51877l0.42087 1.5707c0.63786-0.20497 1.3199-0.36666 1.9778-0.54295 0.52922-0.14181 1.0696 0.17015 1.2114 0.69938 0.14181 0.52922-0.17015 1.0694-0.69938 1.2112-0.65104 0.18172-1.3416 0.357-1.9843 0.51877l0.42087 1.5707c0.63786-0.20496 1.3199-0.36666 1.9778-0.54295 0.52923-0.14181 1.0696 0.17016 1.2114 0.69938 0.14181 0.52923-0.17015 1.0693-0.69938 1.2111-0.65105 0.18162-1.3416 0.35702-1.9843 0.51889l0.029608 0.11073c0.5283 1.9716 2.5409 3.1334 4.5125 2.6051l0.36234-0.09707 2.4935 8.261c0.88486 0.37896 1.9239 0.74246 2.905 0.97737l-2.9599-9.8918 0.14736-0.03948c1.9716-0.5283 3.1336-2.5408 2.6053-4.5124l-0.02959-0.11073c-0.63791 0.20473-1.3199 0.36654-1.9778 0.54282-0.52923 0.14181-1.0694-0.17001-1.2112-0.69924-0.14181-0.52923 0.17015-1.0696 0.69938-1.2114 0.65094-0.18175 1.3415-0.35697 1.9842-0.51862l-0.42089-1.5707c-0.63786 0.20473-1.3198 0.36654-1.9777 0.54282-0.52922 0.1418-1.0696-0.17002-1.2114-0.69924-0.1418-0.52923 0.17016-1.0694 0.69939-1.2112 0.65104-0.18173 1.3415-0.357 1.9843-0.51877l-0.42088-1.5707c-0.63787 0.20497-1.3199 0.36666-1.9778 0.54295-0.52923 0.14181-1.0694-0.17015-1.2112-0.69938-0.14181-0.52923 0.17015-1.0694 0.69938-1.2112 0.65094-0.18176 1.3415-0.35698 1.9842-0.51862l-0.0334-0.12452c-0.44575-1.6636-1.9481-2.7507-3.591-2.7325z" fill="#fff" style="paint-order:normal"/>
  <path d="m29.158 18.397a1.9977 1.9977 0 0 1 1.9977 1.9977 1.9977 1.9977 0 0 1-1.9977 1.9977 1.9977 1.9977 0 0 1-1.9977-1.9977 1.9977 1.9977 0 0 1 1.9977-1.9977" fill="url(#linearGradient7236)" style="paint-order:stroke markers fill"/>
 </g>
 <g fill-opacity=".2">
  <path d="m23.207 36.149a1.9977 1.9977 0 0 1 1.9977 1.9977 1.9977 1.9977 0 0 1-1.9977 1.9977 1.9977 1.9977 0 0 1-1.9977-1.9977 1.9977 1.9977 0 0 1 1.9977-1.9977" fill="#fff" style="paint-order:stroke markers fill"/>
  <path d="m31.987 7.1289a1.9977 1.9977 0 0 1 1.9977 1.9977 1.9977 1.9977 0 0 1-1.9977 1.9977 1.9977 1.9977 0 0 1-1.9977-1.9977 1.9977 1.9977 0 0 1 1.9977-1.9977" fill="#fff" style="paint-order:stroke markers fill"/>
  <path d="m23.353 15.031a1.0709 1.0709 0 0 1 1.0709 1.0709 1.0709 1.0709 0 0 1-1.0709 1.0709 1.0709 1.0709 0 0 1-1.0709-1.0709 1.0709 1.0709 0 0 1 1.0709-1.0709" fill="#fcfcfc" style="paint-order:stroke markers fill"/>
 </g>
 <g fill="#fff">
  <path d="m23.451 4.1045a1.0709 1.0709 0 0 1 1.0709 1.0709 1.0709 1.0709 0 0 1-1.0709 1.0709 1.0709 1.0709 0 0 1-1.0709-1.0709 1.0709 1.0709 0 0 1 1.0709-1.0709" fill-opacity=".2" style="paint-order:stroke markers fill"/>
  <path d="m34.175 9.5355-3.1158 5.3705c0.0049-0.0023 0.03254-0.01556 0.03569-0.01703l3.7532-3.6217c-0.01265-0.08532-0.026-0.16442-0.04056-0.23132-0.2904-1.3348-0.63259-1.5004-0.63259-1.5004z"/>
  <path d="m36.984 10.127-5.248 5.0449s-2.058 0.97341-2.873 1.5039c-0.81499 0.5305-2.0293 1.6133-2.0293 1.6133-2.9163-0.32956-6.0072 0.24257-7.2754 0.51953-0.94374 0.20611-0.81707 1.9693-0.45117 2.8633 0.50437 1.2121 4.4387 1.8538 5.5957 2.6758 0.23625 1.3354-2.4505 1.8632-2.7129 2.8418-0.57935 2.1608 2.2755-0.38611 3.1895 0.16016 1.786 1.0748 1.1622 4.816 0.89648 6.1211 0.85021-0.54804 1.1895-1.9862 1.6016-3.2988 0.0022 0.0033 0.0058 0.0084 0.0078 0.01172 1.0091 2.6587 0.58437 4.4661-0.23828 7.1973 0.74846-0.93989 1.3177-1.6954 1.8379-4.0762 7.49e-4 0.0017 0.0032 0.0039 0.0039 0.0059 0.88873 2.22 0.7502 3.6721 0.27539 6.0371 0.4358-0.57843 0.93544-0.8094 1.2227-2.2051 0.52846 1.455 0.71546 3.0818 0.53888 4.4292 6.747-2.7394 11.409-9.0108 12.087-16.252l0.0357-0.41474c0.03388-0.46756 0.05089-0.93621 0.051-1.405l-2e-3 -0.03516c-1.4423 0.0088-2.5124-0.31945-3.5293-1.1055 0.7608 0.06337 2.6914-1.0586 2.6914-1.0586s-3.1518 0.74457-4.2344-0.51953c1.0508 0.29723 2.5469-0.91211 2.5469-0.91211s-3.2048 0.60724-4.2637-0.57031c1.2394 0.04824 2.8164-1.0566 2.8164-1.0566s-2.706 0.47446-3.9512-0.08789c-0.0068-0.01568-0.0129-0.03111-0.01953-0.04687 0 0 2.4592-4.6106 2.082-7.0234-0.05949-0.38108-0.65234-0.95703-0.65234-0.95703z" style="paint-order:stroke markers fill"/>
 </g>
 <path d="m34.193 9.9688c0.18602 1.6391 0.02063 1.6229-0.4903 3.0837 0.90927-1.6484 0.89281-1.1853 0.4903-3.0837zm2.5898 1.2051c-2.4488 4.0203-3.7624 2.8802-3.8379 4.3047-0.04388 0.82775 1.5281 1.196 2.0645 1.3848-0.54657-0.40066-1.5258-0.64947-1.5996-1.3418-0.12405-1.163 1.845-0.39 3.373-4.3477zm0.08203 1.3477c-0.101 1.6466-0.51307 2.3082-1.2695 3.6582 1.1813-1.4658 1.3368-1.7188 1.2695-3.6582zm-23.77 4.334c-0.6837-0.03439-1.3459 0.12403-1.8223 0.42773 2.1711-0.33545 3.272-0.19698 4.6562 1.5664-0.49548-1.3451-1.6945-1.9368-2.834-1.9941zm16.314 0.63086c-0.45112 0.01289-0.86816 0.25842-1.1113 0.6543 0.24015-0.06164 0.49288-0.09455 0.75-0.09766 0.08369-0.16792 0.25029-0.27873 0.4375-0.29102 0.01171-3.91e-4 0.02344-3.91e-4 0.03516 0 0.25272 1.62e-4 0.46981 0.17957 0.51758 0.42774 0.24367 0.07243 0.47464 0.17179 0.68555 0.29492-0.15184-0.52895-0.5914-0.91261-1.1211-0.97852-0.0641-0.0081-0.12872-0.01131-0.19336-0.0098zm-6.5918 1.1133c-0.47869 0.01078-0.96053 0.11629-1.6719 0.3125 1.568-0.03965 1.9826-0.10351 3.3242-0.05273-0.69824-0.18608-1.1736-0.27055-1.6523-0.25977zm-3.1895 0.48438c-0.17517-0.0016-0.34558 0.26731-0.38867 0.61328-0.04511 0.36167 0.06519 0.67331 0.24609 0.69531 0.18012 0.02074 0.36173-0.25342 0.40625-0.61328 0.04436-0.35939-0.0647-0.66912-0.24414-0.69336-0.0065-1e-3 -0.01298-0.0017-0.01953-2e-3zm15.957 0.30664c1.5451 1.0755 1.8065 1.2111 3.7363 1.0078-1.6496 0.01489-2.3365-0.34803-3.7363-1.0078zm-26.484 1.1758c-0.28874 0.0283-0.65654 0.1628-1.1699 0.33594 1.3488-0.23258 1.6415-0.37553 2.2617 0.75-0.34943-0.88103-0.61057-1.1331-1.0918-1.0859zm27.996 0.31641c1.5451 1.0754 1.8084 1.2111 3.7383 1.0078-1.6496 0.01489-2.3385-0.34803-3.7383-1.0078zm-3.9863 0.35938c1.4337 1.2272 2.5751 2.6195 3.4688 4.3613-0.61988-1.8918-1.7673-3.4949-3.4688-4.3613zm-17.549 1.293c-1.4798 0.33138-1.5052 0.89587-1.2637 2.3203 0.07996-1.3489 0.09256-1.8765 1.2637-2.3203zm24.008 0.45703c1.5451 1.0754 1.8065 1.2111 3.7363 1.0078-1.6496 0.01489-2.3365-0.34803-3.7363-1.0078zm-10.328 1.7773c0.85907 1.6804 1.2366 2.4184 1.4004 4.3691 0.14641-1.9854-0.15649-2.9206-1.4004-4.3691zm-4.3496 0.41211c-1.2325 0.97016-1.5256 1.269-2.6309 2.0312 1.3415-0.5376 1.7259-0.86543 2.6309-2.0312zm1.666 1.6152c0.39993 1.8444 0.57577 2.6544 0.23438 4.582 0.65014-1.8816 0.59692-2.8631-0.23438-4.582zm8.625 0.80078c0.85908 1.6804 1.3225 3.4828 1.4863 5.4336 0.14641-1.9854-0.24243-3.985-1.4863-5.4336zm-6.834 2.2266c0.39993 1.8444 0.57577 2.6544 0.23438 4.582 0.65014-1.8816 0.59693-2.8631-0.23438-4.582zm-18.824 1.0098c0.79277 2.1521 3.3861 2.3782 4.6563 1.5684-2.1386 0.37304-3.2181 0.2116-4.6563-1.5684zm7.5723 0.69531c-1.5814 0.5092-1.2763 0.75213-0.97852 2.0781-0.10601-1.1784-0.48378-1.3674 0.97852-2.0781zm12.914 2.002c0.39993 1.8444 0.57576 2.6544 0.23438 4.582 0.65013-1.8816 0.59692-2.8631-0.23438-4.582zm-13.553 1.8535c0.38038 1.7341 0.843 2.8855 1.5762 4.3906-0.43127-1.5383-0.94138-2.9742-1.5762-4.3906zm14.76 0.92383c0.6393 1.7757 0.92055 2.5559 0.83594 4.5117 0.39672-1.9509 0.21445-2.9172-0.83594-4.5117z" fill="url(#linearGradient6686)" style="paint-order:stroke markers fill"/>
 <path d="m37.671 18.751c-1.898 0.40411-2.1737 0.2962-3.8228-0.61169 1.4612 0.5097 2.1839 0.79909 3.8228 0.61169z" fill="url(#linearGradient6578)"/>
 <path d="m15.206 9.1975a1.9977 1.9977 0 0 1 1.9977 1.9977 1.9977 1.9977 0 0 1-1.9977 1.9977 1.9977 1.9977 0 0 1-1.9977-1.9977 1.9977 1.9977 0 0 1 1.9977-1.9977" fill="#fff" fill-opacity=".2" style="paint-order:stroke markers fill"/>
</svg>
