<?xml version="1.0" encoding="UTF-8"?>
<svg viewBox="0 0 48 48" xmlns="http://www.w3.org/2000/svg" xmlns:xlink="http://www.w3.org/1999/xlink">
  <defs>
    <linearGradient id="i" x1="35.867" x2="23.692" y1="-126.48" y2="-212.9" gradientTransform="translate(17.035 83.344) scale(.33343)" gradientUnits="userSpaceOnUse">
      <stop stop-color="#197cf1" offset="0"/>
      <stop stop-color="#20bcfa" offset="1"/>
    </linearGradient>
    <linearGradient id="f" x1="34" x2="44" y1="19.008" y2="29.008" gradientTransform="translate(5.545 10.956) scale(.65572)" gradientUnits="userSpaceOnUse" xlink:href="#a"/>
    <linearGradient id="b" x1="-24.896" x2="-14.45" y1="-171.37" y2="-171.37" gradientUnits="userSpaceOnUse">
      <stop stop-color="#eff0f1" offset="0"/>
      <stop stop-color="#bdc3c7" offset="1"/>
    </linearGradient>
    <linearGradient id="e" x1="4" x2="4" y1="44" y2="4" gradientTransform="translate(5.545 10.956) scale(.65572)" gradientUnits="userSpaceOnUse">
      <stop stop-color="#dfe646" offset="0"/>
      <stop stop-color="#f5f9ab" offset="1"/>
    </linearGradient>
    <linearGradient id="d" x1="6.739" x2="10.48" y1="27.437" y2="31.492" gradientUnits="userSpaceOnUse" xlink:href="#a"/>
    <linearGradient id="c" x1="-20.34" x2="-19.166" y1="-165.86" y2="-191.26" gradientUnits="userSpaceOnUse">
      <stop stop-color="#2c3e50" offset="0"/>
      <stop stop-color="#232629" offset="1"/>
    </linearGradient>
    <linearGradient id="j" x1="35.867" x2="23.692" y1="-126.48" y2="-212.9" gradientTransform="translate(17.057 83.97) scale(.33343)" gradientUnits="userSpaceOnUse">
      <stop stop-color="#2c3e50" offset="0"/>
      <stop stop-color="#34495e" offset="1"/>
    </linearGradient>
  </defs>
  <linearGradient id="a" x1="34" x2="44" y1="19.008" y2="29.008" gradientUnits="userSpaceOnUse">
    <stop stop-color="#292c2f" offset="0"/>
    <stop stop-opacity="0" offset="1"/>
  </linearGradient>
  <path d="M34.986 11.719c-3.338.08-11.37 1.412-16.357 2.724-.117.03-.234.066-.35.097-1.584.427-3.173.932-4.577 1.771-2.655 1.588-5.476 3.736-7.005 6.085-1.53 2.35-2.548 5.11-3.055 6.384-.506 1.275-.499 1.06-.798 1.117-.298.058-.9.387-1.054 1.28-.153.895.146 2.346 1.2 3.263 1.055.916 2.861 1.292 4.907 2.261 2.025.96 4.296 2.499 10.381 3.4.063.01.112.021.176.03 6.227.898 16.389 1.131 21.682.646 5.293-.486 5.702-1.688 5.097-3.27-.605-1.582-2.224-3.545-3.843-5.507l-.264-.888-1.449-4.862c-.655-2.2-1.438-4.827-1.5-7.063-.064-2.237-1.528-3.796-1.505-5.005.024-1.21 1.536-2.07-.565-2.417-.263-.043-.644-.058-1.12-.046z" fill="url(#j)" image-rendering="optimizeSpeed" stroke="#000" stroke-dasharray="0 9.149" stroke-width=".832"/>
  <path d="M34.964 11.092c-3.338.08-11.37 1.412-16.357 2.724-.117.03-.234.066-.35.097-1.585.427-3.173.932-4.577 1.771-2.655 1.587-5.476 3.735-7.005 6.085-1.53 2.35-2.548 5.11-3.055 6.384-.506 1.275-.499 1.06-.798 1.117-.298.057-.9.386-1.054 1.28-.153.895.146 2.346 1.2 3.263 1.055.916 2.861 1.292 4.907 2.261 2.025.96 4.296 2.499 10.381 3.4l.176.03c6.227.898 16.389 1.131 21.682.646 5.293-.486 5.702-1.688 5.097-3.27-.605-1.582-2.224-3.545-3.843-5.507l-.264-.888-1.449-4.862c-.655-2.2-1.438-4.827-1.5-7.063-.064-2.237.593-4.083.617-5.292.023-1.21-.586-1.783-2.687-2.13-.263-.043-.644-.058-1.12-.046z" fill="url(#i)" image-rendering="optimizeSpeed" stroke="#000" stroke-dasharray="0 9.149" stroke-width=".832"/>
  <path d="M33.47 21.863l-4.319 6.142 4.075 4.075a13.114 13.114 0 0 0 1.17-5.387 13.114 13.114 0 0 0-.891-4.751 13.114 13.114 0 0 0-.035-.08z" fill="url(#f)" fill-rule="evenodd" opacity=".2"/>
  <path d="M21.363 13.16c-.974.216-1.917.435-2.756.656-.117.03-.234.066-.35.097-1.585.427-3.173.932-4.577 1.771-.331.198-.665.405-.999.62l-.001.001a32.633 32.633 0 0 0-1.922 1.341c-1.264.958-2.437 2.017-3.352 3.138-.229.28-.44.565-.634.852.806.231 1.671.382 2.285.35.401-.02 1.078-.539 1.078-.539h2.623v.656l.656.656v-1.311l.656-.656.655-.656h.656v-.656l.656-.655 1.311-.656.656-.656 1.311-.656v.656l1.312-.656h-.656v-.655l-.656-.656h2.623l-.656.656 1.968.655-.656-1.31v-1.312zm23.401 2.971c-.317-.005-.854.178-2.198.815-.88.417-2.556.74-4.408 1.154-.295.066-.593.138-.895.21-.2.047-.397.09-.598.14-.29.073-.577.156-.866.236-.2.055-.4.105-.598.164-.263.08-.513.172-.77.259-.22.074-.446.142-.658.223a11.597 11.597 0 0 0-1.287.567l.343.575c-.01-.011-.026-.02-.033-.033-.1-.183-.202-.364-.31-.542l-.712.237-1.312.656v.656l-1.311 1.31-.656 1.312v2.623l.656 1.312 1.311.655.656.656 3.093-.515 3.66.11c.508-.028 1.012-.05 1.51-.064.42-.01.834-.014 1.236.003.255.011.506.027.75.055 1.084.125 2.048.44 2.73.587.682.146 1.08.125 1.415-.012.336-.136.607-.387.817-1.414.21-1.027.357-2.83.273-4.811-.084-1.981-.398-4.14-.692-5.377-.293-1.236-.567-1.552-.88-1.688a.666.666 0 0 0-.266-.059zm-13.646 1.914v1.435h1.11a.355.355 0 0 1-.047-.106c-.072-.272.077-.696-.084-.905-.185-.24-.778-.198-.979-.424zm-18.319.043h.04l-.081.08zm-2.664 5.982l-.656.656h-.655l-.427-.426v.003c-.08.43-.137.862-.174 1.296l-.001.02 1.257.418 1.312.656.656.656.655.656h1.312v1.311l-.656.656-.656 1.311v.656l.656.656.656.655.655 1.312.656.656 1.312.655v2.833l-.076.36c.703.145 1.456.284 2.295.409.063.009.112.02.176.03 1.191.17 2.554.31 3.972.433l.19-1.442v-.656l1.311-.655.656-.656.656-2.623.655-.656V31.94l-1.311-.656h-.656l-1.311-.655h-.656l-.656-1.312-.655-.656h-1.312l-1.311-1.311h-1.312l-1.967-.656-.656 1.312-1.31-.656h-.657v-1.311l-1.311-.656.656-1.312z" fill="url(#e)"/>
  <path transform="translate(-.692 -.907)" d="m5.981 29.555l4.455 4.455 2.4-3.563-3.922-3.922-2.933 3.03z" fill="url(#d)" opacity=".397"/>
  <g transform="translate(14.215 92.255) scale(.37955)" image-rendering="optimizeSpeed">
    <circle cx="-19.521" cy="-171.44" r="5.564" fill="url(#c)"/>
    <ellipse cx="-19.673" cy="-171.37" rx="5.223" ry="3.804" fill="url(#b)"/>
    <circle cx="-19.497" cy="-171.28" r="1.957" fill="#232629"/>
  </g>
</svg>
