<svg height="64" viewBox="0 0 64 64" width="64" xmlns="http://www.w3.org/2000/svg" xmlns:xlink="http://www.w3.org/1999/xlink"><linearGradient id="a" gradientUnits="userSpaceOnUse" spreadMethod="pad" x1="5.23" x2="15.26" y1="123.62" y2="133.64999"><stop offset="0" stop-color="#091142" stop-opacity=".2"/><stop offset="1" stop-color="#0d185f" stop-opacity="0"/></linearGradient><linearGradient id="b" gradientUnits="userSpaceOnUse" x1="5" x2="5" y1="11.999828" y2="58.999828"><stop offset="0" stop-color="#4495ec"/><stop offset="1" stop-color="#3665b6"/></linearGradient><linearGradient id="c" gradientTransform="matrix(.89260517 0 0 .9016038 16.27264 -89.642989)" gradientUnits="userSpaceOnUse" spreadMethod="pad" x1="2.661645" x2="12.018035" xlink:href="#a" y1="125.47116" y2="134.91846"/><linearGradient id="d" gradientTransform="matrix(.89260517 0 0 .9016038 16.272178 -89.888857)" gradientUnits="userSpaceOnUse" x1="17.561054" x2="27.702978" xlink:href="#a" y1="142.30719" y2="152.9373"/><path d="m9 11.999828c-2.216 0-4 1.784-4 4v28c0 2.216 1.784 4 4 4h7v11l15-11h22c2.216 0 4-1.784 4-4v-28c0-2.216-1.784-4-4-4z" fill="url(#b)" stroke-linejoin="round"/><path d="m18.649321 23.481763 11.307521 11.385172 5.65019-4.787516-10.802344-11.069791z" fill="url(#c)" stroke-width="1.00001"/><path d="m25.207031 7.076v.00195c-12.264395-.045074-19.5841088 6.970253-18.0488279 17.888675 1.704876 12.847853 14.0408819 24.885128 29.3847659 27.896484 15.388513 2.659731 23.395344-3.255196 24.296875-15.345703v-.171875c-.178521-4.111313-1.570674-8.098051-3.837891-11.767578v3.121094a11.66635 11.783962 0 0 1 1.285156 4.373047v.144531c.58912 4.066233.0716 7.354869-1.285156 9.861328l-.001953.107422v.814453c0 2.216001-1.767053 4-3.960938 4h-1.039062-.039062-.701172c-3.956126 1.567117-9.239734 1.514826-15.16211-.160156-12.353655-2.957261-23.967883-14.247583-24.851562-24.390625-.946162-10.864326 6.2034-16.534056 19.039062-14.2890627 2.784928.4868661 5.649505 1.4960007 8.44336 2.8574217h3.652343c-3.168748-1.803207-6.480343-3.3898656-9.988281-4.2734373-2.329699-.5950585-4.909404-.6679687-7.185547-.6679687z" fill="#ecffff" stroke-width="1.00001"/><path d="m57 25.577953c.000768.0012.0012.0027.002.0039v-.0039zm.002.0039v3.107422a11.66635 11.783962 0 0 1 1.292969 4.380859v.144532c.580193 4.066233.07272 7.356822-1.292969 9.863281l-.002.002v.919922c0 2.216001-1.767053 4-3.960938 4h-1.039062-.039062-.701172c-3.951622 1.559244-9.238074 1.515569-15.154297-.160156a36.302253 36.668226 0 0 1 -13.960938-7.04301c.330264.586042.722506 1.15435 1.177735 1.695313l7.355468 8.728515a39.265702 39.66155 0 0 0 5.865235 1.640625c15.388513 2.659731 23.402316-3.255196 24.294922-15.345703v-.179687c-.178461-4.100908-1.570082-8.085408-3.835938-11.753907z" fill="#bfc9c9" stroke-width="1.12032"/><path d="m50.412109 24.999828-18.464843 13.416016 9.583986 9.583984 15.478514-11.898438-.009766-4.513673z" fill="url(#d)" opacity=".65" stroke-width="1.12032"/><path d="m21 16.245922-.904297 2.753906-2.900391.0098 2.339844 1.71289-.886718 2.759766 2.351562-1.697266 2.351562 1.697266-.886718-2.759766 2.339844-1.71289-2.900391-.0098zm18 .46289-2.714844 8.261719-8.697265.0293 7.017578 5.136719-2.658203 8.279297 7.052734-5.087894 7.052734 5.087891-2.658203-8.279297 7.017578-5.136719-8.697265-.0293z" fill="#ecffff" stroke-linejoin="round"/></svg>
