<svg width="48" version="1.1" xmlns="http://www.w3.org/2000/svg" height="48" viewBox="0 0 48 48">
<path style="fill:#197fb5" d="m 47,23.6 a 23,23 0 0 1 -23,23 23,23 0 0 1 -23,-23 23,23 0 0 1 23,-23 23,23 0 0 1 23,23 z"/>
<g style="fill:#fff" transform="translate(0,-0.4)">
<path d="m 22.3027,18.8575 c -0.916995,-0.864255 -1.56152,-2.01269 -1.82812,-3.24316 -0.266601,-1.2334 -0.149414,-2.54297 0.328125,-3.71192 0.477539,-1.16602 1.31543,-2.17969 2.36719,-2.87109 1.05469,-0.694336 2.32031,-1.05762 3.58008,-1.03125 1.18945,0.023437 2.37012,0.395508 3.36035,1.05469 0.987307,0.65918 1.78418,1.60547 2.26465,2.69531 l 10.125,2.25 h -12.1817 c -0.679687,-1.11914 -1.8457,-1.93066 -3.13183,-2.17383 -0.884767,-0.169922 -1.81641,-0.07617 -2.64844,0.263672 -0.832035,0.339844 -1.56445,0.925785 -2.07715,1.66406 -0.512696,0.741211 -0.808591,1.62891 -0.834961,2.52832 -0.02929,0.899415 0.210938,1.80762 0.676758,2.57519"/>
<path d="M 23.375,22.625 8.75,10.25 c -1.44141,1.48828 -2.26758,3.55371 -2.25,5.625 0.017578,2.10058 0.905272,4.18067 2.40821,5.64844 1.50293,1.46777 3.60352,2.30567 5.7041,2.27637 -1.15429,-0.158202 -2.25,-0.723633 -3.04981,-1.57325 -0.799807,-0.846682 -1.29785,-1.97461 -1.38867,-3.13477 -0.08496,-1.125 0.210937,-2.27344 0.82617,-3.2168 l 12.375,6.75"/>
<path d="M 22.25,26 7.625,21.5 c -0.389648,1.48829 -0.269531,3.10254 0.333984,4.51758 0.606446,1.41211 1.69336,2.61328 3.04102,3.35742 1.02832,0.568359 2.20019,0.87012 3.375,0.87012 1.17481,0 2.34668,-0.301758 3.375,-0.87012 -0.94629,0.08496 -1.91016,-0.07031 -2.78027,-0.451172 -0.87012,-0.37793 -1.64356,-0.981442 -2.22363,-1.73144 -0.667969,-0.867188 -1.08106,-1.93067 -1.16602,-3.0205 l 10.6699,1.8281"/>
<path d="m 29.0439,17.75 c -0.626954,0.741211 -1.03711,1.66406 -1.16894,2.625 -0.123046,0.908205 0,1.83692 0.240234,2.72168 0.240235,0.881836 0.597658,1.73144 0.949223,2.57812 0.351562,0.846683 0.700195,1.69629 0.92871,2.58398 0.225586,0.887692 0.328125,1.82227 0.175781,2.72461 -0.254883,1.51172 -1.21875,2.85644 -2.47558,3.73242 -1.25683,0.875978 -2.78906,1.30957 -4.31836,1.40918 -1.93067,0.125977 -3.89062,-0.266602 -5.625,-1.125 l .0439,9 2.25,-4.4766 c 2.97363,0.87012 6.29883,0.442383 8.95605,-1.14844 1.3418,-0.802732 2.51954,-1.8955 3.33984,-3.22559 0.823245,-1.33008 1.27734,-2.89746 1.2041,-4.45606 -0.105468,-2.22363 -1.23925,-4.25098 -2.32325,-6.19336 -1.08692,-1.94238 -2.17969,-4.00195 -2.19433,-6.22852 0,-0.172851 0.0058,-0.348632 0.01758,-0.521484"/>
</g>
</svg>
