<?xml version="1.0" encoding="UTF-8" standalone="no"?>
<!-- Created with Inkscape (http://www.inkscape.org/) -->

<svg
   xmlns:dc="http://purl.org/dc/elements/1.1/"
   xmlns:cc="http://creativecommons.org/ns#"
   xmlns:rdf="http://www.w3.org/1999/02/22-rdf-syntax-ns#"
   xmlns:svg="http://www.w3.org/2000/svg"
   xmlns="http://www.w3.org/2000/svg"
   xmlns:xlink="http://www.w3.org/1999/xlink"
   xmlns:sodipodi="http://sodipodi.sourceforge.net/DTD/sodipodi-0.dtd"
   xmlns:inkscape="http://www.inkscape.org/namespaces/inkscape"
   id="svg1399"
   sodipodi:docname="modem-manager-gui.svg"
   viewBox="0 0 512.00001 512"
   sodipodi:version="0.32"
   version="1.0"
   inkscape:output_extension="org.inkscape.output.svg.inkscape"
   inkscape:version="0.92.2 (5c3e80d, 2017-08-06)"
   width="512"
   height="512">
  <defs
     id="defs3">
    <linearGradient
       id="linearGradient2171"
       inkscape:collect="always">
      <stop
         id="stop2173"
         style="stop-color:#f66200"
         offset="0" />
      <stop
         id="stop2175"
         style="stop-color:#f66200;stop-opacity:0"
         offset="1" />
    </linearGradient>
    <linearGradient
       id="linearGradient2105"
       y2="117.91"
       xlink:href="#linearGradient2171"
       gradientUnits="userSpaceOnUse"
       y1="486.25"
       gradientTransform="matrix(0.38888114,0,0,0.95773599,82.760626,-28.495786)"
       x2="361.42999"
       x1="321.63"
       inkscape:collect="always" />
    <linearGradient
       id="linearGradient2107"
       y2="117.91"
       xlink:href="#linearGradient2171"
       gradientUnits="userSpaceOnUse"
       y1="486.25"
       gradientTransform="matrix(0.35342944,0.18507743,-0.35017381,0.87039808,290.73923,-60.34512)"
       x2="361.42999"
       x1="321.63"
       inkscape:collect="always" />
    <linearGradient
       id="linearGradient2109"
       y2="117.91"
       xlink:href="#linearGradient2171"
       gradientUnits="userSpaceOnUse"
       y1="486.25"
       gradientTransform="matrix(0.26191885,0.32794421,-0.62048949,0.64503564,475.49061,1.052469)"
       x2="361.42999"
       x1="321.63"
       inkscape:collect="always" />
    <linearGradient
       id="linearGradient2111"
       y2="117.91"
       xlink:href="#linearGradient2171"
       gradientUnits="userSpaceOnUse"
       y1="486.25"
       gradientTransform="matrix(0.16452555,0.40200418,-0.76058727,0.4051867,592.87669,101.34282)"
       x2="361.42999"
       x1="321.63"
       inkscape:collect="always" />
    <linearGradient
       id="linearGradient2113"
       y2="117.91"
       xlink:href="#linearGradient2171"
       gradientUnits="userSpaceOnUse"
       y1="486.25"
       gradientTransform="matrix(-0.35342944,0.18507743,0.35017381,0.87039808,204.7512,-60.64323)"
       x2="361.42999"
       x1="321.63"
       inkscape:collect="always" />
    <linearGradient
       id="linearGradient2115"
       y2="117.91"
       xlink:href="#linearGradient2171"
       gradientUnits="userSpaceOnUse"
       y1="486.25"
       gradientTransform="matrix(-0.26191885,0.32794421,0.62048949,0.64503564,19.480048,-0.91182904)"
       x2="361.42999"
       x1="321.63"
       inkscape:collect="always" />
    <linearGradient
       id="linearGradient2117"
       y2="117.91"
       xlink:href="#linearGradient2171"
       gradientUnits="userSpaceOnUse"
       y1="486.25"
       gradientTransform="matrix(-0.16452555,0.40200418,0.76058727,0.4051867,-98.396143,98.885438)"
       x2="361.42999"
       x1="321.63"
       inkscape:collect="always" />
    <linearGradient
       id="linearGradient2119"
       y2="502.42999"
       gradientUnits="userSpaceOnUse"
       y1="428.60001"
       gradientTransform="matrix(0.54142231,0,0,1.0509555,-10.864559,66.429492)"
       x2="415.48999"
       x1="517.40997"
       inkscape:collect="always">
      <stop
         id="stop2085"
         style="stop-color:#00941a;stop-opacity:.88776"
         offset="0" />
      <stop
         id="stop2087"
         style="stop-color:#00b300;stop-opacity:.42857"
         offset="1" />
    </linearGradient>
  </defs>
  <sodipodi:namedview
     id="base"
     bordercolor="#666666"
     inkscape:pageshadow="2"
     inkscape:window-width="1600"
     pagecolor="#ffffff"
     inkscape:zoom="1.4"
     inkscape:window-x="0"
     showgrid="true"
     borderopacity="1.0"
     inkscape:current-layer="g2095"
     inkscape:cx="221.82764"
     inkscape:cy="267.84771"
     inkscape:window-y="27"
     inkscape:window-height="836"
     inkscape:pageopacity="0.0"
     inkscape:document-units="px"
     inkscape:pagecheckerboard="true"
     inkscape:window-maximized="1" />
  <g
     id="layer1"
     inkscape:label="Layer 1"
     inkscape:groupmode="layer"
     transform="translate(-15,-10.172198)">
    <g
       id="g2095"
       transform="matrix(0.83361,0,0,0.82131,65.629,-39.052)">
      <path
         id="path2212"
         style="fill:url(#linearGradient2105);fill-rule:evenodd;stroke:#e9001d;stroke-width:1.22055912;stroke-linecap:round;stroke-linejoin:round;stroke-miterlimit:0;stroke-opacity:0.83784"
         d="m 247.30736,109.61495 c -41.22849,30.53363 -70.04888,99.93101 -70.04888,180.63802 0,80.71506 28.82039,150.08586 70.04888,180.6219 41.22849,-30.53604 70.04889,-99.90684 70.04889,-180.6219 0,-80.70701 -28.8204,-150.11003 -70.04889,-180.63802 z"
         inkscape:connector-curvature="0"
         inkscape:transform-center-x="12.798266"
         inkscape:transform-center-y="-54.091331" />
      <path
         id="path2216"
         style="fill:url(#linearGradient2107);fill-rule:evenodd;stroke:#e9001d;stroke-width:1.22055912;stroke-linecap:round;stroke-linejoin:round;stroke-miterlimit:0;stroke-opacity:0.83784"
         d="m 389.79918,143.49545 c -27.8317,4.65051 -56.60972,22.84322 -81.68015,51.26027 9.51264,28.51374 14.96458,61.41048 14.96458,96.43428 0,78.50744 -27.32324,146.17015 -66.75796,177.90669 0.4661,0.89433 0.88277,1.84505 1.36299,2.72327 48.63662,-8.12952 100.21108,-57.47867 129.72356,-130.82963 29.51248,-73.35095 28.68621,-150.12614 2.38698,-197.49326 z"
         inkscape:connector-curvature="0"
         inkscape:transform-center-x="-58.579631"
         inkscape:transform-center-y="-39.790029" />
      <path
         id="path3067"
         style="fill:url(#linearGradient2109);fill-rule:evenodd;stroke:#e9001d;stroke-width:1.22055912;stroke-linecap:round;stroke-linejoin:round;stroke-miterlimit:0;stroke-opacity:0.83784"
         d="m 468.49207,228.68376 c -17.33743,-0.20142 -35.89661,3.5048 -54.66765,10.82862 -0.65677,33.30765 -7.76124,69.48359 -22.00548,104.89412 -29.39242,73.06897 -80.69146,122.2892 -129.16565,130.70071 0.0494,0.34646 0.0565,0.70902 0.10593,1.05547 47.55612,14.2045 111.9059,-8.23426 164.19363,-62.59486 52.29479,-54.3606 77.85956,-125.3992 69.87233,-180.72664 -8.91236,-2.66687 -18.42499,-4.03656 -28.33311,-4.15742 z"
         inkscape:connector-curvature="0"
         inkscape:transform-center-x="-98.197537"
         inkscape:transform-center-y="-1.3165896" />
      <path
         id="path3086"
         style="fill:url(#linearGradient2111);fill-rule:evenodd;stroke:#e9001d;stroke-width:1.22055912;stroke-linecap:round;stroke-linejoin:round;stroke-miterlimit:0;stroke-opacity:0.83784"
         d="m 494.30402,308.89123 c -10.63551,37.69872 -32.3232,76.39651 -63.75657,109.07572 -51.1366,53.1601 -113.76323,75.7036 -160.97331,63.40056 -1.1935,0.24976 -2.40111,0.57204 -3.59461,0.77347 -0.0353,0.19337 -0.0636,0.39479 -0.0918,0.5801 41.69458,29.70617 108.98926,30.14931 173.09186,-4.00433 64.09554,-34.14558 107.01894,-93.30816 113.82679,-148.85314 -16.18631,-11.52957 -36.27796,-18.57139 -58.50236,-20.97238 z"
         inkscape:connector-curvature="0"
         inkscape:transform-center-x="-122.27964"
         inkscape:transform-center-y="41.62676" />
      <path
         id="path3090"
         style="fill:url(#linearGradient2113);fill-rule:evenodd;stroke:#e9001d;stroke-width:1.22055912;stroke-linecap:round;stroke-linejoin:round;stroke-miterlimit:0;stroke-opacity:0.83784"
         d="m 105.6983,143.20299 c 27.82464,4.6513 56.60973,22.84563 81.67309,51.26268 -9.51264,28.51374 -14.96457,61.40242 -14.96457,96.43427 0,78.50745 27.33029,146.1621 66.76501,177.9067 -0.47316,0.89433 -0.88276,1.84505 -1.37004,2.72326 C 189.16516,463.40039 137.59071,414.05124 108.07823,340.70028 78.565744,267.34932 79.392008,190.57414 105.6983,143.20701 Z"
         inkscape:connector-curvature="0"
         inkscape:transform-center-x="83.442851"
         inkscape:transform-center-y="-40.029243" />
      <path
         id="path3094"
         style="fill:url(#linearGradient2115);fill-rule:evenodd;stroke:#e9001d;stroke-width:1.22055912;stroke-linecap:round;stroke-linejoin:round;stroke-miterlimit:0;stroke-opacity:0.83784"
         d="m 26.478581,226.71786 c 17.333904,-0.20143 35.900849,3.50479 54.664826,10.82861 0.656775,33.30765 7.761239,69.4836 22.005483,104.89413 29.39948,73.07702 80.69852,122.28919 129.16565,130.70071 -0.0424,0.34645 -0.0565,0.70901 -0.10593,1.05546 -47.55612,14.2045 -111.9059,-8.23425 -164.193631,-62.59486 C 15.721603,357.24131 -9.8445812,286.21077 -1.8580616,230.87527 7.057829,228.2084 16.570467,226.83871 26.478581,226.71786 Z"
         inkscape:connector-curvature="0"
         inkscape:transform-center-x="123.4999"
         inkscape:transform-center-y="-2.931207" />
      <path
         id="path3098"
         style="fill:url(#linearGradient2117);fill-rule:evenodd;stroke:#e9001d;stroke-width:1.22055912;stroke-linecap:round;stroke-linejoin:round;stroke-miterlimit:0;stroke-opacity:0.83784"
         d="M 0.17087726,306.43385 C 10.805681,344.13257 32.492658,382.83035 63.926028,415.50956 c 51.136612,53.16011 113.763232,75.7036 160.973322,63.40056 1.20055,0.24977 2.40111,0.57205 3.5946,0.77347 0.0353,0.19337 0.0706,0.3948 0.0918,0.58011 C 186.89116,509.96987 119.59649,510.413 55.500943,476.25937 -8.6023692,442.11379 -51.525055,382.95121 -58.332912,327.40623 c 16.186314,-11.52957 36.279377,-18.5714 58.50377926,-20.97238 z"
         inkscape:connector-curvature="0"
         inkscape:transform-center-x="147.99393"
         inkscape:transform-center-y="39.608488" />
      <path
         id="path1322"
         style="fill:none;stroke:url(#linearGradient2119);stroke-width:22.62948608;stroke-linecap:round"
         d="m 247.40623,484.99316 c 5.14827,97.83619 53.4671,120.74225 53.4671,120.74225"
         inkscape:connector-curvature="0"
         inkscape:transform-center-x="-9.5695042"
         inkscape:transform-center-y="155.44077" />
    </g>
  </g>
  <metadata
     id="metadata115">
    <rdf:RDF>
      <cc:Work>
        <dc:format>image/svg+xml</dc:format>
        <dc:type
           rdf:resource="http://purl.org/dc/dcmitype/StillImage" />
        <cc:license
           rdf:resource="http://creativecommons.org/publicdomain/zero/1.0/" />
        <dc:publisher>
          <cc:Agent
             rdf:about="http://openclipart.org/">
            <dc:title>Openclipart</dc:title>
          </cc:Agent>
        </dc:publisher>
        <dc:title></dc:title>
        <dc:date>2008-02-06T04:32:31</dc:date>
        <dc:description />
        <dc:source>https://openclipart.org/detail/12947/lotus-by-anonymous-12947</dc:source>
        <dc:creator>
          <cc:Agent>
            <dc:title>Anonymous</dc:title>
          </cc:Agent>
        </dc:creator>
        <dc:subject>
          <rdf:Bag>
            <rdf:li>flower</rdf:li>
            <rdf:li>icon</rdf:li>
            <rdf:li>kamal</rdf:li>
            <rdf:li>lotus</rdf:li>
            <rdf:li>nature</rdf:li>
            <rdf:li>plant</rdf:li>
            <rdf:li>tree</rdf:li>
          </rdf:Bag>
        </dc:subject>
      </cc:Work>
      <cc:License
         rdf:about="http://creativecommons.org/publicdomain/zero/1.0/">
        <cc:permits
           rdf:resource="http://creativecommons.org/ns#Reproduction" />
        <cc:permits
           rdf:resource="http://creativecommons.org/ns#Distribution" />
        <cc:permits
           rdf:resource="http://creativecommons.org/ns#DerivativeWorks" />
      </cc:License>
    </rdf:RDF>
  </metadata>
</svg>
