<?xml version="1.0" encoding="UTF-8"?>
<!DOCTYPE svg PUBLIC "-//W3C//DTD SVG 1.1//EN" "http://www.w3.org/Graphics/SVG/1.1/DTD/svg11.dtd">
<svg version="1.1" xmlns="http://www.w3.org/2000/svg" xmlns:xlink="http://www.w3.org/1999/xlink" x="0" y="0" width="1000" height="1000" viewBox="0, 0, 1000, 1000">
  <g id="icon">
    <g id="background">
      <path d="M975,500 C975,762.335 762.335,975 500,975 C237.665,975 25,762.335 25,500 C25,237.665 237.665,25 500,25 C762.335,25 975,237.665 975,500 z" fill="#19A2FF" id="background-2"/>
      <path d="M950,500 C950,748.528 748.528,950 500,950 C251.472,950 50,748.528 50,500 C50,251.472 251.472,50 500,50 C748.528,50 950,251.472 950,500 z" fill="#53B2FF" id="background-1"/>
    </g>
    <g id="ocs-url">
      <path d="M902.992,380.107 L924.992,380.107 L830.653,670.28 L808.653,670.28 z" fill="#FFFFFF" id="slash-2"/>
      <path d="M852.992,380.107 L874.992,380.107 L780.653,670.28 L758.653,670.28 z" fill="#FFFFFF" id="slash-1"/>
      <path d="M739.533,556.848 L775.533,556.848 L775.533,592.848 L739.533,592.848 z" fill="#FFFFFF" id="colon-2"/>
      <path d="M739.505,457.85 L775.505,457.85 L775.505,493.85 L739.505,493.85 z" fill="#FFFFFF" id="colon-1"/>
      <path d="M619.548,389.93 Q581.46,389.931 559.59,399.494 Q537.719,409.057 526.825,425.772 Q515.931,442.487 515.931,461.281 Q515.931,489.888 537.22,508.349 Q558.342,526.811 607.906,537.954 Q638.175,544.607 646.491,552.091 Q654.807,559.576 654.807,569.055 Q654.807,579.035 646.076,586.602 Q637.343,594.17 621.211,594.169 Q599.589,594.17 587.947,579.367 Q580.795,570.22 578.467,552.756 L506.784,557.247 Q509.943,594.17 533.893,618.12 Q557.843,642.07 620.047,642.069 Q655.472,642.07 678.757,631.84 Q702.041,621.612 715.014,601.82 Q727.987,582.029 727.987,558.577 Q727.987,538.619 718.258,522.486 Q708.528,506.354 687.156,495.459 Q665.784,484.566 616.388,473.921 Q596.429,469.764 591.108,464.94 Q585.618,460.283 585.619,454.462 Q585.618,446.479 592.272,440.907 Q598.924,435.336 612.063,435.335 Q628.03,435.336 637.094,442.819 Q646.158,450.304 648.986,466.77 L720.005,462.611 Q715.347,424.691 690.815,407.31 Q666.283,389.931 619.548,389.93 z" fill="#FFFFFF" id="s"/>
      <path d="M449.767,389.931 Q424.743,389.931 401.937,399.275 Q379.13,408.62 361.867,425.249 Q344.604,441.879 334.31,464.844 Q324.015,487.809 324.015,515.366 Q324.015,542.925 334.468,566.206 Q344.921,589.488 362.184,606.434 Q379.447,623.381 402.095,632.724 Q424.743,642.069 449.451,642.069 Q461.487,642.069 473.841,639.693 Q486.194,637.318 500.448,632.249 L506.784,630.032 L506.784,556.544 Q483.027,581.886 453.252,581.885 Q439.631,581.886 427.911,576.817 Q416.191,571.75 407.48,562.88 Q398.769,554.011 393.86,541.974 Q388.95,529.938 388.95,515.683 Q388.95,501.746 393.86,489.709 Q398.769,477.673 407.322,468.961 Q415.874,460.251 427.753,455.182 Q439.631,450.115 453.568,450.114 Q485.244,450.115 506.784,476.405 L506.784,402.284 Q491.579,395.95 477.8,392.94 Q464.021,389.931 449.767,389.931 z" fill="#FFFFFF" id="c"/>
      <path d="M223.997,389.93 Q252.822,389.932 277.212,399.591 Q301.602,409.254 319.183,426.357 Q336.762,443.463 346.582,466.427 Q356.401,489.393 356.402,515.999 Q356.401,542.608 346.582,565.572 Q336.762,588.538 319.183,605.641 Q301.602,622.748 277.212,632.407 Q252.822,642.07 223.997,642.068 Q194.855,642.07 170.624,632.407 Q146.392,622.748 128.97,605.641 Q111.548,588.538 101.729,565.572 Q91.91,542.608 91.91,515.999 Q91.91,489.393 101.729,466.427 Q111.548,443.463 128.97,426.357 Q146.392,409.254 170.624,399.591 Q194.855,389.932 223.997,389.93 z M223.997,450.114 Q210.377,450.115 198.182,455.024 Q185.986,459.935 176.801,468.803 Q167.614,477.673 162.23,489.709 Q156.845,501.747 156.845,515.999 Q156.845,530.255 162.23,542.29 Q167.614,554.328 176.801,563.196 Q185.986,572.067 198.182,576.975 Q210.377,581.886 223.997,581.885 Q237.618,581.886 249.813,576.975 Q262.008,572.067 271.352,563.196 Q280.697,554.328 286.082,542.29 Q291.466,530.255 291.466,515.999 Q291.466,501.747 286.082,489.709 Q280.697,477.673 271.352,468.803 Q262.008,459.935 249.813,455.024 Q237.618,450.115 223.997,450.114 z" fill="#FFFFFF" id="o"/>
    </g>
  </g>
</svg>
