<svg xmlns:rdf="http://www.w3.org/1999/02/22-rdf-syntax-ns#" xmlns="http://www.w3.org/2000/svg" height="100%" width="100%" version="1.1" xmlns:cc="http://creativecommons.org/ns#" viewBox="0 0 96 96" xmlns:dc="http://purl.org/dc/elements/1.1/"><metadata><rdf:RDF><cc:Work rdf:about=""><dc:format>image/svg+xml</dc:format><dc:type rdf:resource="http://purl.org/dc/dcmitype/StillImage"/><dc:title/></cc:Work></rdf:RDF></metadata><defs><linearGradient id="linearGradient3025" y2="3.28" gradientUnits="userSpaceOnUse" x2="40.5" gradientTransform="translate(0,16)" y1="76.3" x1="39.4"><stop stop-color="#a6ce39" offset="0"/><stop stop-color="#b5d65e" offset="1"/></linearGradient></defs><g transform="translate(8,-8)"><path d="M79,56c0,28.9-10.1,39-39,39s-39-10.1-39-39,10.1-39,39-39,39,10.1,39,39z" fill="url(#linearGradient3025)"/><path opacity="0.25" d="M40,17.1c-28.8,0-38.9,10.1-38.9,38.9s10.1,38.9,38.9,38.9,38.9-10.1,38.9-38.9-10.1-38.9-38.9-38.9zm0,76.8c-28.3,0-37.9-9.59-37.9-37.9,0-28.4,9.59-38,37.9-38,28.4,0,38,9.58,38,38s-9.58,38-38,38z" fill="#FFF"/><path d="m39.5,23.03c-13.3,0.18-25.7,9.07-30.2,21.6-4.35,11.4-1.59,25.1,6.75,33.9,8,8.79,21,12.6,32.6,9.43,3.7-0.969,7.22-2.6,10.4-4.77l6.39,6.88c2.68-1.6,5.68-3.68,8.64-8.65l-6.4-7c7.3-10.7,7.4-25.7,0.2-36.4-6.1-9.5-17.1-15.3-28.5-15zm0.9,11.7c10.1-0.475,19.5,7.69,21.1,17.7,1.85,9.41-3.52,19.6-12.3,23.4-8.7,4.12-19.9,1.31-25.7-6.32-6.33-7.74-6.05-19.9,0.657-27.3,3.95-4.65,10.1-7.53,16.2-7.48z" fill="#231f20"/><path d="M33.1,37.9,23,67h8.41l3.77-11.4c1.94,2.85,3.44,6.71,5.15,9.73,1.58-3.01,2.72-6.93,4.49-9.73l4.21,11.4h8.44l-9.95-28.9c-0.893-1.48-1.4,1.02-1.88,2.09-1.78,4.27-3.4,8.62-5.31,12.8-2.39-4.91-4.02-10.2-6.41-15.1-0.445-0.493-0.815,0-0.815,0z" stroke="#000" stroke-width="0.88770002" fill="#231f20"/></g></svg>