<?xml version="1.0" encoding="UTF-8" standalone="no"?>
<!-- Created with Inkscape (http://www.inkscape.org/) -->

<svg
   xmlns:dc="http://purl.org/dc/elements/1.1/"
   xmlns:cc="http://creativecommons.org/ns#"
   xmlns:rdf="http://www.w3.org/1999/02/22-rdf-syntax-ns#"
   xmlns:svg="http://www.w3.org/2000/svg"
   xmlns="http://www.w3.org/2000/svg"
   xmlns:xlink="http://www.w3.org/1999/xlink"
   version="1.0"
   width="320"
   height="320"
   viewBox="0.5 25.1 320 320"
   id="svg2478"
   xml:space="preserve"><metadata
     id="metadata54"><rdf:RDF><cc:Work
         rdf:about=""><dc:format>image/svg+xml</dc:format><dc:type
           rdf:resource="http://purl.org/dc/dcmitype/StillImage" /><dc:title></dc:title></cc:Work></rdf:RDF></metadata><defs
     id="defs2480"><linearGradient
       id="linearGradient3251"><stop
         id="stop3253"
         style="stop-color:#000000;stop-opacity:1"
         offset="0" /><stop
         id="stop3255"
         style="stop-color:#000000;stop-opacity:0"
         offset="1" /></linearGradient><linearGradient
       id="linearGradient3591"><stop
         id="stop3593"
         style="stop-color:#ffffff;stop-opacity:1"
         offset="0" /><stop
         id="stop3595"
         style="stop-color:#969696;stop-opacity:1"
         offset="1" /></linearGradient><linearGradient
       id="linearGradient3423"><stop
         id="stop3425"
         style="stop-color:#e7e7e8;stop-opacity:1"
         offset="0" /><stop
         id="stop3427"
         style="stop-color:#ffffff;stop-opacity:1"
         offset="1" /></linearGradient><linearGradient
       id="linearGradient3399"><stop
         id="stop3401"
         style="stop-color:#000000;stop-opacity:0.23529412"
         offset="0" /><stop
         id="stop3403"
         style="stop-color:#969696;stop-opacity:0"
         offset="1" /></linearGradient><linearGradient
       x1="80.5"
       y1="506"
       x2="229.86604"
       y2="357.5979"
       id="linearGradient3405"
       xlink:href="#linearGradient3399"
       gradientUnits="userSpaceOnUse"
       gradientTransform="matrix(0.62918911,0,0,0.62918911,-0.487383,11.005584)" /><linearGradient
       x1="262.18225"
       y1="86.313828"
       x2="258.51788"
       y2="495.98917"
       id="linearGradient3429"
       xlink:href="#linearGradient3423"
       gradientUnits="userSpaceOnUse"
       gradientTransform="matrix(0.62918911,0,0,0.62918911,-0.317944,10.836149)" /><linearGradient
       x1="368.36868"
       y1="115.66505"
       x2="389.52469"
       y2="95.825417"
       id="linearGradient3597"
       xlink:href="#linearGradient3591"
       gradientUnits="userSpaceOnUse"
       gradientTransform="matrix(0.62918911,0,0,0.62918911,-0.317944,10.836149)" /><filter
       x="-0.384"
       y="-0.384"
       width="1.768"
       height="1.768"
       color-interpolation-filters="sRGB"
       id="filter3715"><feGaussianBlur
         stdDeviation="14.421378"
         id="feGaussianBlur3717" /></filter><filter
       color-interpolation-filters="sRGB"
       id="filter3731"><feGaussianBlur
         stdDeviation="4.397419"
         id="feGaussianBlur3733" /></filter><linearGradient
       x1="348.03799"
       y1="139.48338"
       x2="394.19592"
       y2="83.418686"
       id="linearGradient3257"
       xlink:href="#linearGradient3251"
       gradientUnits="userSpaceOnUse"
       gradientTransform="matrix(0.62918911,0,0,0.62918911,-0.317944,10.836149)" /><filter
       color-interpolation-filters="sRGB"
       id="filter3181"><feFlood
         result="flood"
         flood-color="rgb(0,0,0)"
         flood-opacity="0.8"
         id="feFlood3183" /><feComposite
         in2="SourceGraphic"
         operator="in"
         in="flood"
         result="composite1"
         id="feComposite3185" /><feGaussianBlur
         result="blur"
         stdDeviation="4"
         id="feGaussianBlur3187" /><feOffset
         result="offset"
         dy="2"
         dx="2"
         id="feOffset3189" /><feComposite
         in2="offset"
         operator="over"
         in="SourceGraphic"
         result="fbSourceGraphic"
         id="feComposite3191" /><feColorMatrix
         id="feColorMatrix3328"
         values="0 0 0 -1 0 0 0 0 -1 0 0 0 0 -1 0 0 0 0 1 0"
         in="fbSourceGraphic"
         result="fbSourceGraphicAlpha" /><feFlood
         in="fbSourceGraphic"
         result="flood"
         flood-color="rgb(0,0,0)"
         flood-opacity="0.6"
         id="feFlood3330" /><feComposite
         in2="fbSourceGraphic"
         operator="in"
         in="flood"
         result="composite1"
         id="feComposite3332" /><feGaussianBlur
         result="blur"
         stdDeviation="4"
         id="feGaussianBlur3334" /><feOffset
         result="offset"
         dy="4"
         dx="4"
         id="feOffset3336" /><feComposite
         in2="offset"
         operator="over"
         in="fbSourceGraphic"
         result="composite2"
         id="feComposite3338" /></filter><radialGradient
       cx="316.60211"
       cy="410.13586"
       r="291.1347"
       fx="169.89993"
       fy="557.98413"
       id="radialGradient3193"
       xlink:href="#linearGradient485"
       gradientUnits="userSpaceOnUse"
       spreadMethod="pad" /><linearGradient
       id="linearGradient485"><stop
         id="stop486"
         style="stop-color:#0052ff;stop-opacity:1"
         offset="0" /><stop
         id="stop487"
         style="stop-color:#000072;stop-opacity:1"
         offset="1" /></linearGradient><radialGradient
       cx="316.20163"
       cy="410.48181"
       r="293.25412"
       fx="168.43147"
       fy="559.40643"
       id="radialGradient3195"
       xlink:href="#linearGradient485"
       gradientUnits="userSpaceOnUse"
       spreadMethod="pad" /><radialGradient
       cx="231.45271"
       cy="366.20547"
       r="508.57837"
       fx="231.45271"
       fy="366.20547"
       id="radialGradient3197"
       xlink:href="#linearGradient743"
       gradientUnits="userSpaceOnUse"
       gradientTransform="matrix(0.51694652,0,0,0.44645471,-19.568181,-18.428523)" /><linearGradient
       id="linearGradient743"><stop
         id="stop744"
         style="stop-color:#ffd7ff;stop-opacity:1"
         offset="0" /><stop
         id="stop745"
         style="stop-color:#4040df;stop-opacity:0.49803922"
         offset="1" /></linearGradient><linearGradient
       x1="239.45113"
       y1="121.25542"
       x2="239.4511"
       y2="373.43777"
       id="linearGradient3199"
       xlink:href="#linearGradient2267"
       gradientUnits="userSpaceOnUse"
       gradientTransform="matrix(0.71659119,-0.37399585,0.17304636,0.33156417,-95.624536,86.688328)" /><linearGradient
       id="linearGradient2267"><stop
         id="stop2269"
         style="stop-color:#ffffff;stop-opacity:1"
         offset="0" /><stop
         id="stop2271"
         style="stop-color:#ffffff;stop-opacity:0"
         offset="1" /></linearGradient><linearGradient
       id="linearGradient646"><stop
         id="stop647"
         style="stop-color:#ffffff;stop-opacity:0.49803922"
         offset="0" /><stop
         id="stop648"
         style="stop-color:#00007f;stop-opacity:0"
         offset="1" /></linearGradient><radialGradient
       cx="990.79266"
       cy="202.91145"
       r="52.038383"
       fx="990.44568"
       fy="200.55925"
       id="radialGradient3060"
       xlink:href="#linearGradient646"
       gradientUnits="userSpaceOnUse"
       gradientTransform="scale(0.98198,1.018351)"
       spreadMethod="pad" /></defs><path
     d="m 65.840457,40.220841 0,490.995019 388.895103,0 c 0,0 0.0879,-259.81807 0,-335.35727 -0.0227,-19.47263 -2.21033,-30.63677 -14.21047,-43.39131 C 385.21346,93.678448 362.19141,71.631941 340.14323,51.220087 333.95591,45.491962 327.07219,40.426681 305.47897,40.220841 c -30.32991,-0.289103 -136.66255,-0.192659 -239.638513,0 z"
     transform="matrix(0.60095009,0,0,0.60990025,7.405256,12.544777)"
     id="path3431"
     style="fill:#0a0a0a;fill-opacity:0.39215686;fill-rule:evenodd;stroke:#000000;stroke-width:0.42872402;stroke-linecap:butt;stroke-linejoin:miter;stroke-miterlimit:4;stroke-opacity:1;stroke-dasharray:none;filter:url(#filter3731)" /><rect
     width="512"
     height="512"
     x="-63.87389"
     y="-157.88264"
     id="rect2482"
     style="fill:none;stroke:#000000;stroke-width:1.06089997;display:none" /><path
     d="m 50.331779,35.437445 0,293.768395 223.991331,0 c 0,0 0.28117,-152.22456 0.23056,-197.42061 -0.013,-11.6507 -1.95096,-20.74724 -9.2223,-28.03658 -35.77723,-35.865747 -43.50383,-43.407781 -56.20288,-55.620448 -3.5637,-3.427212 -9.7188,-12.106492 -20.77247,-12.690757 -17.46989,-0.03146 -78.71332,-0.11528 -138.024241,0 z"
     id="path3419"
     style="fill:url(#linearGradient3429);fill-opacity:1;fill-rule:evenodd;stroke:#000000;stroke-width:0.25167564;stroke-linecap:butt;stroke-linejoin:miter;stroke-miterlimit:4;stroke-opacity:1;stroke-dasharray:none" /><rect
     width="166.49677"
     height="206.69617"
     x="50.331779"
     y="122.50967"
     id="rect3395"
     style="fill:url(#linearGradient3405);fill-opacity:1;stroke:#000030;stroke-width:0;stroke-miterlimit:4;stroke-opacity:1;stroke-dasharray:none" /><path
     d="m 279.33417,-90.544749 -3.25663,71.544694 67.47259,-17.08596 -64.21596,-54.458734 z"
     transform="matrix(0.62918911,0,0,0.62918911,40.185405,125.96684)"
     id="path3605"
     style="fill:#464646;fill-opacity:1;fill-rule:evenodd;stroke:#000000;stroke-width:1px;stroke-linecap:butt;stroke-linejoin:miter;stroke-opacity:1;filter:url(#filter3715)" /><path
     d="m 217.20738,99.68529 c 14.98975,0.595 39.58408,4.63362 48.86639,11.07976 3.92779,2.72767 8.57919,5.03706 8.4799,21.02018 -0.50827,-13.88667 -1.95096,-20.74724 -9.2223,-28.03658 C 229.55414,67.882903 221.82754,60.340869 209.12849,48.128202 198.87863,37.092596 193.88285,35.729577 188.35602,35.437445 c 16.95253,1.321769 25.12944,17.978884 28.85136,64.247845 z"
     id="path3587"
     style="fill:url(#linearGradient3597);fill-opacity:1;fill-rule:evenodd;stroke:url(#linearGradient3257);stroke-width:0.25167564;stroke-linecap:butt;stroke-linejoin:miter;stroke-miterlimit:4;stroke-opacity:1;stroke-dasharray:none" /><g
     transform="matrix(0.57019929,0,0,0.57019929,126.72925,139.46302)"
     id="g3102"
     style="filter:url(#filter3181)"><path
       d="m 707.05579,362.61322 a 335.4404,335.44043 0 1 1 -670.880802,0 335.4404,335.44043 0 1 1 670.880802,0 z"
       transform="matrix(0.45980947,-0.05503859,0.0446589,0.46020629,-28.934685,13.970499)"
       id="path650"
       style="fill:url(#radialGradient3193);fill-opacity:1;fill-rule:evenodd;stroke:#000000;stroke-width:4.99700022;stroke-linecap:butt;stroke-linejoin:miter;stroke-opacity:1;stroke-dasharray:none" /><path
       d="m 707.05579,362.61322 a 335.4404,335.44043 0 1 1 -670.880802,0 335.4404,335.44043 0 1 1 670.880802,0 z"
       transform="matrix(0.40396764,-0.04490247,0.0392352,0.37545102,-5.4316151,41.73224)"
       id="path651"
       style="fill:url(#radialGradient3195);fill-opacity:1;fill-rule:evenodd;stroke:#0000ff;stroke-width:9.91730022;stroke-linecap:butt;stroke-linejoin:miter;stroke-opacity:0.18829998;stroke-dasharray:none" /><path
       d="m 185.58264,109.32335 c -13.7325,-3.72577 -118.282566,9.18846 -107.134185,37.84031 12.406093,32.62541 105.882235,39.10302 102.254665,68.95499 -1.2899,10.37756 -33.15488,20.29672 -57.56309,19.24655 C 97.376201,234.2567 77.090049,229.05228 59.16016,208.75748 47.902055,196.01442 43.239058,180.52549 42.036449,162.09579 40.83384,143.66614 48.129962,123.26339 58.322519,108.16042 80.715746,74.978878 108.65453,55.751115 147.42718,50.610494 238.85246,38.928763 273.51461,116.4728 273.20134,114.84945 272.87034,113.13357 236.59438,38.266326 148.07564,45.690236 111.46329,48.760869 85.293424,67.194083 63.92097,89.294549 49.029288,104.7046 37.897769,126.45628 34.789424,148.07648 c -4.537515,31.56026 3.917643,59.39422 25.319833,79.57363 17.943821,16.91867 46.810803,23.13051 77.380893,23.81086 42.93976,0.95569 92.93986,-7.12927 93.34937,-24.93214 9.5e-4,-32.12325 -73.4622,-41.83319 -88.9924,-57.99205 -30.44258,-31.05534 48.15048,-24.5996 62.08572,-19.14243 1.34322,0.18019 -11.33671,-38.26086 -18.3502,-40.071 z"
       id="path652"
       style="font-size:12px;fill:url(#radialGradient3197);stroke:#58b8ff;stroke-width:4.15132999;stroke-opacity:0.72156863" /><path
       d="M 36.695334,136.51371 C 50.596723,161.667 98.15448,142.2852 140.84619,118.86155 183.53834,95.437612 225.38424,67.327901 211.48288,42.174643 197.58155,17.02141 131.35318,18.855748 95.363104,39.123198 53.005242,63.089397 22.794046,111.36052 36.695334,136.51371 z"
       id="path653"
       style="font-size:12px;fill:url(#linearGradient3199);fill-opacity:1;fill-rule:evenodd;stroke-width:5" /><path
       d="m 1043.894,213.02252 a 49.274689,51.099724 0 1 1 -98.54943,0 49.274689,51.099724 0 1 1 98.54943,0 z"
       transform="matrix(1.7116642,0,0,1.4232571,-1571.2435,-154.88305)"
       id="path709"
       style="fill:url(#radialGradient3060);fill-opacity:1;fill-rule:evenodd;stroke:none" /></g></svg>