<?xml version="1.0" encoding="utf-8"?>
<svg version="1.1" id="launcher_icon" xmlns="http://www.w3.org/2000/svg" xmlns:xlink="http://www.w3.org/1999/xlink" x="0px" y="0px"
	 viewBox="0 0 64 64" enable-background="new 0 0 64 64" xml:space="preserve">
<g>
	<g>
		<g>
			<path fill="#ED8312" d="M20,21v-2c0-0.55-0.45-1-1-1h-5c-2.66,0-5.5,0.8-7.56,2.17C5.62,20.72,6.02,22,7,22h12
				C19.55,22,20,21.55,20,21z"/>
			<path fill="#ED8312" d="M44,21v-2c0-0.55,0.45-1,1-1h5c2.66,0,5.5,0.8,7.56,2.17C58.38,20.72,57.98,22,57,22H45
				C44.45,22,44,21.55,44,21z"/>
			<path fill="#ED8312" d="M62.65,32c-1.35-5.73-6.5-10-12.65-10c-0.42,0-0.84,0.02-1.25,0.06V22H32H15.25v0.06
				C14.84,22.02,14.42,22,14,22C7.85,22,2.71,26.27,1.35,32H1v3c0,7.18,5.82,13,13,13c3.69,0,7.01-1.54,9.38-4H32h8.62
				c2.37,2.46,5.69,4,9.38,4c7.18,0,13-5.82,13-13v-3H62.65z"/>
			<path fill="#FABA0D" d="M50,19H32H14C6.82,19,1,24.82,1,32s5.82,13,13,13c3.69,0,7.01-1.54,9.38-4H32h8.62
				c2.37,2.46,5.69,4,9.38,4c7.18,0,13-5.82,13-13S57.18,19,50,19z"/>
		</g>
		<g>
			<path fill="#ED8312" d="M18,30h-3v-3c0-0.55-0.45-1-1-1h-1c-0.55,0-1,0.45-1,1v3H9c-0.55,0-1,0.45-1,1v1c0,0.55,0.45,1,1,1h3v3
				c0,0.55,0.45,1,1,1h1c0.55,0,1-0.45,1-1v-3h3c0.55,0,1-0.45,1-1v-1C19,30.45,18.55,30,18,30z"/>
			<path fill="#FFFFFF" d="M18,29h-3v-3c0-0.55-0.45-1-1-1h-1c-0.55,0-1,0.45-1,1v3H9c-0.55,0-1,0.45-1,1v1c0,0.55,0.45,1,1,1h3v3
				c0,0.55,0.45,1,1,1h1c0.55,0,1-0.45,1-1v-3h3c0.55,0,1-0.45,1-1v-1C19,29.45,18.55,29,18,29z"/>
		</g>
		<g>
			<g>
				<circle fill="#ED8312" cx="45" cy="32" r="2"/>
				<circle fill="#FFFFFF" cx="45" cy="31" r="2"/>
			</g>
			<g>
				<circle fill="#ED8312" cx="50" cy="28" r="2"/>
				<circle fill="#FFFFFF" cx="50" cy="27" r="2"/>
			</g>
			<g>
				<circle fill="#ED8312" cx="50" cy="36" r="2"/>
				<circle fill="#FFFFFF" cx="50" cy="35" r="2"/>
			</g>
			<g>
				<circle fill="#ED8312" cx="55" cy="32" r="2"/>
				<circle fill="#FFFFFF" cx="55" cy="31" r="2"/>
			</g>
		</g>
		<g>
			<path fill="#ED8312" d="M31.91,23c-4.73,0-8.57,3.83-8.57,8.56c0,1.62,0.46,3.14,1.25,4.44h0.49c1.67-1.67,5.47-5.47,6.5-6.5
				c0.6,0.59,1.41-0.21,1.65-0.47v-1.4c0.1,0.06,0.2,0.13,0.29,0.22c0.38,0.38,0.62,0.62,0.79,0.79l1.44-1.44v-0.74
				c0.05-0.14,0.13-0.27,0.25-0.38c0.42-0.42,1.09-0.42,1.51,0c0.42,0.42,0.42,1.09,0,1.51c-0.3,0.3-0.74,0.38-1.11,0.25l-0.44,0.44
				h-1v1c0.16,0.16,0.41,0.41,0.78,0.78c1.05,1.05,0.17,2.98,0.17,2.98l-1.24-1.24c0,0,0.46-0.26,0.49-0.62h0v-0.01
				c0-0.01,0-0.02,0-0.03v-0.98h-0.9v0.36h-0.38v0.99c0,0,0,0.01,0,0.01v0.33h0.1c0.03,0.05,0.07,0.1,0.11,0.14
				c-0.52,0.52-1.72,1.72-3.01,3H30v1h0.08h2.42h6.73c0.79-1.3,1.25-2.81,1.25-4.44C40.48,26.83,36.64,23,31.91,23z"/>
			<path fill="#FFFFFF" d="M31.91,22c-4.73,0-8.57,3.83-8.57,8.56c0,1.62,0.46,3.14,1.25,4.44h0.49c1.67-1.67,5.47-5.47,6.5-6.5
				c0.6,0.59,1.41-0.21,1.65-0.47c-0.13-0.13-0.27-0.27-0.41-0.41c-0.57-0.56-1.05,0.3-1.05,0.3l-1.24-1.24c0,0,1.93-0.88,2.98,0.17
				c0.38,0.38,0.62,0.62,0.79,0.79l1.44-1.44c-0.14-0.38-0.06-0.82,0.25-1.12c0.42-0.42,1.09-0.42,1.51,0
				c0.42,0.42,0.42,1.09,0,1.51c-0.3,0.3-0.74,0.38-1.11,0.25l-1.44,1.44c0.16,0.16,0.41,0.41,0.78,0.78
				c1.05,1.05,0.17,2.98,0.17,2.98l-1.24-1.24c0,0,0.86-0.49,0.3-1.05c-0.14-0.14-0.28-0.28-0.41-0.41
				c-0.26,0.24-1.06,1.05-0.47,1.65c-0.65,0.65-2.39,2.39-4.01,4h9.15c0.79-1.3,1.25-2.81,1.25-4.44C40.48,25.83,36.64,22,31.91,22z
				"/>
		</g>
	</g>
</g>
</svg>
