<?xml version="1.0" encoding="UTF-8" standalone="no"?>
<!-- Created with Inkscape (http://www.inkscape.org/) -->
<svg
   xmlns:dc="http://purl.org/dc/elements/1.1/"
   xmlns:cc="http://web.resource.org/cc/"
   xmlns:rdf="http://www.w3.org/1999/02/22-rdf-syntax-ns#"
   xmlns:svg="http://www.w3.org/2000/svg"
   xmlns="http://www.w3.org/2000/svg"
   xmlns:xlink="http://www.w3.org/1999/xlink"
   xmlns:sodipodi="http://inkscape.sourceforge.net/DTD/sodipodi-0.dtd"
   xmlns:inkscape="http://www.inkscape.org/namespaces/inkscape"
   sodipodi:docname="solfege_05.svg"
   sodipodi:docbase="/home/nicu/Desktop/solfege"
   inkscape:version="0.42"
   sodipodi:version="0.32"
   id="svg2"
   height="48.000000px"
   width="48.000000px"
   inkscape:export-filename="/home/nicu/Desktop/solfege_05.png"
   inkscape:export-xdpi="90.000000"
   inkscape:export-ydpi="90.000000">
  <defs
     id="defs3">
    <linearGradient
       id="linearGradient1338">
      <stop
         style="stop-color:#494066;stop-opacity:1;"
         offset="0"
         id="stop1340" />
      <stop
         style="stop-color:#8e83b2;stop-opacity:1.0000000;"
         offset="1.0000000"
         id="stop1342" />
    </linearGradient>
    <linearGradient
       inkscape:collect="always"
       id="linearGradient3554">
      <stop
         style="stop-color:#ffffff;stop-opacity:1;"
         offset="0"
         id="stop3556" />
      <stop
         style="stop-color:#ffffff;stop-opacity:0;"
         offset="1"
         id="stop3558" />
    </linearGradient>
    <linearGradient
       id="linearGradient1315">
      <stop
         style="stop-color:#26c726;stop-opacity:1;"
         offset="0"
         id="stop1317" />
      <stop
         style="stop-color:#95eb95;stop-opacity:1.0000000;"
         offset="1.0000000"
         id="stop1319" />
    </linearGradient>
    <linearGradient
       id="linearGradient8157">
      <stop
         id="stop8159"
         offset="0.0000000"
         style="stop-color:#000000;stop-opacity:1.0000000;" />
      <stop
         id="stop8161"
         offset="1.0000000"
         style="stop-color:#606060;stop-opacity:1.0000000;" />
    </linearGradient>
    <linearGradient
       inkscape:collect="always"
       xlink:href="#linearGradient1315"
       id="linearGradient1321"
       x1="24.897196"
       y1="31.028038"
       x2="11.364486"
       y2="16.672897"
       gradientUnits="userSpaceOnUse"
       gradientTransform="matrix(0.876977,0.000000,0.000000,0.876977,6.722441e-2,2.218228)" />
    <linearGradient
       inkscape:collect="always"
       xlink:href="#linearGradient3554"
       id="linearGradient3560"
       x1="8.6513023"
       y1="19.185068"
       x2="8.7443447"
       y2="13.044255"
       gradientUnits="userSpaceOnUse" />
    <linearGradient
       inkscape:collect="always"
       xlink:href="#linearGradient3554"
       id="linearGradient3562"
       x1="10.187553"
       y1="19.962616"
       x2="10.338610"
       y2="13.383178"
       gradientUnits="userSpaceOnUse" />
    <linearGradient
       inkscape:collect="always"
       xlink:href="#linearGradient3554"
       id="linearGradient3586"
       gradientUnits="userSpaceOnUse"
       x1="8.6513023"
       y1="19.185068"
       x2="8.7443447"
       y2="13.044255" />
    <linearGradient
       inkscape:collect="always"
       xlink:href="#linearGradient3554"
       id="linearGradient3588"
       gradientUnits="userSpaceOnUse"
       x1="10.187553"
       y1="19.962616"
       x2="10.338610"
       y2="13.383178" />
    <linearGradient
       inkscape:collect="always"
       xlink:href="#linearGradient1338"
       id="linearGradient1344"
       x1="22.728971"
       y1="27.289721"
       x2="9.1962614"
       y2="17.570093"
       gradientUnits="userSpaceOnUse"
       gradientTransform="matrix(0.996062,-8.866371e-2,8.866371e-2,0.996062,-1.905317,1.979743)" />
    <linearGradient
       inkscape:collect="always"
       xlink:href="#linearGradient1338"
       id="linearGradient3677"
       gradientUnits="userSpaceOnUse"
       gradientTransform="matrix(0.996062,-8.866371e-2,8.866371e-2,0.996062,0.265089,2.275707)"
       x1="22.728971"
       y1="27.289721"
       x2="9.1962614"
       y2="17.570093" />
    <linearGradient
       inkscape:collect="always"
       xlink:href="#linearGradient3554"
       id="linearGradient3679"
       gradientUnits="userSpaceOnUse"
       x1="8.6513023"
       y1="19.185068"
       x2="8.7443447"
       y2="13.044255" />
    <linearGradient
       inkscape:collect="always"
       xlink:href="#linearGradient3554"
       id="linearGradient3681"
       gradientUnits="userSpaceOnUse"
       x1="10.187553"
       y1="19.962616"
       x2="10.338610"
       y2="13.383178" />
    <radialGradient
       inkscape:collect="always"
       xlink:href="#linearGradient3554"
       id="radialGradient1350"
       cx="26.056074"
       cy="32.149532"
       fx="26.056074"
       fy="32.149532"
       r="1.5327103"
       gradientTransform="matrix(0.208011,0.839178,-0.797149,0.298583,46.26410,0.684548)"
       gradientUnits="userSpaceOnUse" />
    <linearGradient
       inkscape:collect="always"
       xlink:href="#linearGradient1338"
       id="linearGradient1352"
       gradientUnits="userSpaceOnUse"
       gradientTransform="matrix(0.996062,-8.866371e-2,8.866371e-2,0.996062,0.265089,2.275707)"
       x1="22.728971"
       y1="27.289721"
       x2="9.1962614"
       y2="17.570093" />
    <linearGradient
       inkscape:collect="always"
       xlink:href="#linearGradient1338"
       id="linearGradient1355"
       gradientUnits="userSpaceOnUse"
       gradientTransform="matrix(0.996062,-8.866371e-2,8.866371e-2,0.996062,0.265089,2.275707)"
       x1="22.728971"
       y1="27.289721"
       x2="9.1962614"
       y2="17.570093" />
    <linearGradient
       inkscape:collect="always"
       xlink:href="#linearGradient1338"
       id="linearGradient1358"
       gradientUnits="userSpaceOnUse"
       gradientTransform="matrix(0.996062,-8.866371e-2,8.866371e-2,0.996062,0.265089,2.275707)"
       x1="22.728971"
       y1="27.289721"
       x2="9.1962614"
       y2="17.570093" />
    <linearGradient
       inkscape:collect="always"
       xlink:href="#linearGradient1338"
       id="linearGradient1361"
       gradientUnits="userSpaceOnUse"
       gradientTransform="matrix(0.996062,-8.866371e-2,8.866371e-2,0.996062,0.265089,2.275707)"
       x1="22.728971"
       y1="27.289721"
       x2="9.1962614"
       y2="17.570093" />
    <linearGradient
       inkscape:collect="always"
       xlink:href="#linearGradient1338"
       id="linearGradient1364"
       gradientUnits="userSpaceOnUse"
       gradientTransform="matrix(0.996062,-8.866371e-2,8.866371e-2,0.996062,0.265089,2.275707)"
       x1="22.728971"
       y1="27.289721"
       x2="9.1962614"
       y2="17.570093" />
    <linearGradient
       inkscape:collect="always"
       xlink:href="#linearGradient1338"
       id="linearGradient1367"
       gradientUnits="userSpaceOnUse"
       gradientTransform="matrix(0.996062,-8.866371e-2,8.866371e-2,0.996062,0.265089,2.275707)"
       x1="22.728971"
       y1="27.289721"
       x2="9.1962614"
       y2="17.570093" />
    <linearGradient
       inkscape:collect="always"
       xlink:href="#linearGradient1338"
       id="linearGradient1370"
       gradientUnits="userSpaceOnUse"
       gradientTransform="matrix(0.996062,-8.866371e-2,8.866371e-2,0.996062,0.265089,2.275707)"
       x1="22.728971"
       y1="27.289721"
       x2="9.1962614"
       y2="17.570093" />
    <linearGradient
       inkscape:collect="always"
       xlink:href="#linearGradient1338"
       id="linearGradient1373"
       gradientUnits="userSpaceOnUse"
       gradientTransform="matrix(0.996062,-8.866371e-2,8.866371e-2,0.996062,0.265089,2.275707)"
       x1="22.728971"
       y1="27.289721"
       x2="9.1962614"
       y2="17.570093" />
    <linearGradient
       inkscape:collect="always"
       xlink:href="#linearGradient1338"
       id="linearGradient1376"
       gradientUnits="userSpaceOnUse"
       gradientTransform="matrix(0.996062,-8.866371e-2,8.866371e-2,0.996062,0.265089,2.275707)"
       x1="22.728971"
       y1="27.289721"
       x2="9.1962614"
       y2="17.570093" />
    <linearGradient
       inkscape:collect="always"
       xlink:href="#linearGradient1338"
       id="linearGradient1379"
       gradientUnits="userSpaceOnUse"
       gradientTransform="matrix(0.996062,-8.866371e-2,8.866371e-2,0.996062,0.265089,2.275707)"
       x1="22.728971"
       y1="27.289721"
       x2="9.1962614"
       y2="17.570093" />
    <linearGradient
       inkscape:collect="always"
       xlink:href="#linearGradient1338"
       id="linearGradient1382"
       gradientUnits="userSpaceOnUse"
       gradientTransform="matrix(0.996062,-8.866371e-2,8.866371e-2,0.996062,0.265089,2.275707)"
       x1="22.728971"
       y1="27.289721"
       x2="9.1962614"
       y2="17.570093" />
    <linearGradient
       inkscape:collect="always"
       xlink:href="#linearGradient1338"
       id="linearGradient1385"
       gradientUnits="userSpaceOnUse"
       gradientTransform="matrix(0.996062,-8.866371e-2,8.866371e-2,0.996062,0.265089,2.275707)"
       x1="22.728971"
       y1="27.289721"
       x2="9.1962614"
       y2="17.570093" />
    <linearGradient
       inkscape:collect="always"
       xlink:href="#linearGradient1338"
       id="linearGradient1388"
       gradientUnits="userSpaceOnUse"
       gradientTransform="matrix(0.996062,-8.866371e-2,8.866371e-2,0.996062,0.265089,2.275707)"
       x1="22.728971"
       y1="27.289721"
       x2="9.1962614"
       y2="17.570093" />
    <linearGradient
       inkscape:collect="always"
       xlink:href="#linearGradient1338"
       id="linearGradient1391"
       gradientUnits="userSpaceOnUse"
       gradientTransform="matrix(0.996062,-8.866371e-2,8.866371e-2,0.996062,0.265089,2.275707)"
       x1="22.728971"
       y1="27.289721"
       x2="9.1962614"
       y2="17.570093" />
    <linearGradient
       inkscape:collect="always"
       xlink:href="#linearGradient1338"
       id="linearGradient1394"
       gradientUnits="userSpaceOnUse"
       gradientTransform="matrix(0.996062,-8.866371e-2,8.866371e-2,0.996062,0.265089,2.275707)"
       x1="22.728971"
       y1="27.289721"
       x2="9.1962614"
       y2="17.570093" />
    <linearGradient
       inkscape:collect="always"
       xlink:href="#linearGradient1338"
       id="linearGradient1397"
       gradientUnits="userSpaceOnUse"
       gradientTransform="matrix(0.996062,-8.866371e-2,8.866371e-2,0.996062,0.265089,2.275707)"
       x1="22.728971"
       y1="27.289721"
       x2="9.1962614"
       y2="17.570093" />
  </defs>
  <sodipodi:namedview
     inkscape:window-y="31"
     inkscape:window-x="12"
     inkscape:window-height="793"
     inkscape:window-width="1152"
     inkscape:current-layer="layer1"
     inkscape:document-units="px"
     inkscape:cy="24.000000"
     inkscape:cx="24.000000"
     inkscape:zoom="13.375000"
     inkscape:pageshadow="2"
     inkscape:pageopacity="0.0"
     borderopacity="1.0"
     bordercolor="#666666"
     pagecolor="#ffffff"
     id="base"
     showgrid="false"
     fill="#494066" />
  <metadata
     id="metadata4">
    <rdf:RDF>
      <cc:Work
         rdf:about="">
        <dc:format>image/svg+xml</dc:format>
        <dc:type
           rdf:resource="http://purl.org/dc/dcmitype/StillImage" />
      </cc:Work>
    </rdf:RDF>
  </metadata>
  <g
     id="layer1"
     inkscape:groupmode="layer"
     inkscape:label="Layer 1">
    <g
       id="g5204"
       transform="matrix(9.999989e-2,0.000000,0.000000,9.999936e-2,4.647426,40.86316)"
       style="opacity:0.75378788">
      <path
         style="opacity:0.12499995;fill:#000000;fill-opacity:1.0000000;stroke:none;stroke-width:1.0000006;stroke-linecap:round;stroke-linejoin:miter;stroke-miterlimit:4.0000000;stroke-opacity:1.0000000"
         d="M 255.81250,-343.84375 C 242.22307,-279.07420 228.68421,-214.29400 215.06250,-149.53125 C 199.02012,-169.16296 178.53562,-186.03106 153.71404,-192.87767 C 149.50325,-194.69018 139.85172,-196.62336 138.86878,-198.36494 C 151.65374,-201.64822 164.16485,-206.58114 177.46875,-207.28125 C 175.94550,-214.53293 170.25243,-215.58712 163.81250,-213.78125 C 151.44545,-211.84712 141.00032,-204.57496 131.46875,-196.90625 C 107.45655,-198.47535 83.548749,-191.13467 63.500000,-178.09375 C 58.759707,-176.35611 54.575560,-170.08560 50.044748,-166.61578 C 18.839933,-137.59058 6.8905440,-90.708941 18.500938,-49.935014 C 30.401508,-4.3875453 72.703872,32.222773 120.23318,34.203693 C 160.55560,37.146059 200.61518,14.381192 220.29247,-20.668966 C 229.96747,-36.536529 234.37747,-54.931141 236.59302,-73.168907 C 253.16790,-155.89824 269.18007,-238.77503 285.53125,-321.56250 C 299.69249,-298.20252 310.06822,-272.83874 319.58379,-247.31875 C 327.47401,-223.54358 329.30537,-194.81398 313.22644,-173.90384 C 309.19021,-166.55824 299.92983,-162.91583 297.68750,-154.68750 C 298.61267,-144.62015 307.40582,-135.89343 316.54207,-132.33631 C 329.58728,-131.17900 344.75217,-134.16869 352.75491,-145.52925 C 369.37535,-163.28994 378.63280,-187.58703 376.81305,-211.96681 C 376.47490,-231.78215 370.81739,-252.25409 356.53341,-266.63076 C 337.29459,-291.56719 310.87088,-309.32482 289.10392,-331.82121 C 279.08231,-341.49062 269.06443,-351.17984 259.43750,-361.25000 C 258.22917,-355.44792 257.02083,-349.64583 255.81250,-343.84375 z M 19.375000,-192.81250 C 16.869153,-186.16354 16.559339,-182.01174 24.561156,-183.78522 C 36.941361,-183.80275 49.114438,-181.34392 61.281250,-179.34375 C 48.749713,-187.33093 34.533276,-193.50250 19.375000,-192.81250 z "
         id="path5206" />
      <path
         style="opacity:0.12499995;fill:#000000;fill-opacity:1.0000000;stroke:none;stroke-width:1.0000006;stroke-linecap:round;stroke-linejoin:miter;stroke-miterlimit:4.0000000;stroke-opacity:1.0000000"
         d="M 254.40625,-344.15625 C 241.02194,-280.29144 227.62864,-216.42850 214.25000,-152.56250 C 198.15710,-172.33860 176.84620,-188.28569 151.97550,-194.93853 C 143.08924,-196.95048 141.57789,-198.80654 151.44039,-200.42217 C 160.68448,-203.10067 170.11259,-205.92631 179.81250,-205.87500 C 176.98531,-210.35002 175.99427,-218.19694 169.00583,-215.76714 C 154.53261,-215.21406 141.87191,-207.26776 131.00000,-198.34375 C 107.19849,-199.76420 83.406766,-192.65157 63.500000,-179.71875 C 50.033414,-188.32931 34.582670,-195.40084 18.218750,-194.18750 C 17.826330,-189.09573 11.728652,-179.11601 21.156250,-182.43750 C 34.300303,-182.61939 47.256474,-180.33257 60.156250,-178.09375 C 44.460892,-164.64495 30.481537,-148.79237 22.442762,-129.52568 C 3.9252487,-87.228684 12.364900,-34.476486 44.169154,-0.75160257 C 71.110143,29.296346 115.01334,43.054102 154.10082,32.265623 C 199.26651,20.772294 232.92487,-21.763297 237.09232,-67.699136 C 253.51067,-150.87690 269.82288,-234.22344 286.18750,-317.46875 C 299.53356,-295.27289 309.04163,-271.07290 318.20879,-246.94375 C 325.96223,-223.57337 327.88081,-195.30040 312.07019,-174.71634 C 307.84935,-166.84718 297.13280,-163.19479 296.28224,-153.78177 C 297.78587,-143.29840 306.94944,-134.22915 316.71875,-130.78125 C 330.11383,-129.86591 345.55309,-132.91143 353.77486,-144.53984 C 370.13111,-162.07580 379.67628,-185.79702 378.31179,-209.90525 C 378.09816,-230.22223 373.14457,-251.67243 358.41599,-266.54376 C 339.02192,-291.97410 312.24101,-310.06511 290.10392,-332.85246 C 279.45646,-343.16347 268.73222,-353.42779 258.59375,-364.25000 C 257.19792,-357.55208 255.80208,-350.85417 254.40625,-344.15625 z "
         id="path5211" />
      <path
         style="opacity:0.12499995;fill:#000000;fill-opacity:1.0000000;stroke:none;stroke-width:1.0000006;stroke-linecap:round;stroke-linejoin:miter;stroke-miterlimit:4.0000000;stroke-opacity:1.0000000"
         d="M 253.00000,-344.43750 C 239.81911,-281.48821 226.58504,-218.54994 213.43750,-155.59375 C 197.08648,-175.67418 174.70348,-190.66314 149.59369,-197.24855 C 146.19689,-199.00490 159.36189,-200.41740 162.37500,-202.03125 C 168.86562,-203.46647 175.50523,-204.82049 182.18750,-204.40625 C 178.54327,-208.53565 178.49545,-218.45965 171.53216,-217.24134 C 156.04307,-217.52439 142.09841,-209.36979 130.53125,-199.78125 C 106.95616,-201.12474 83.322035,-194.10498 63.500000,-181.37500 C 49.714031,-190.17435 33.765585,-197.05362 17.062500,-195.56250 C 17.547250,-191.14288 10.254876,-180.06268 16.617745,-180.67726 C 30.188116,-181.82635 43.724845,-179.43927 57.062500,-177.15625 C 38.430115,-161.50125 23.526478,-141.11209 16.587814,-117.61487 C 2.9541000,-74.089044 16.104586,-23.225118 50.269283,7.3233956 C 80.469400,35.895869 127.08003,45.247621 165.84375,30.000000 C 207.28605,14.171018 235.83979,-27.255611 238.93750,-71.093750 C 249.46913,-120.81396 258.64510,-170.89298 268.65707,-220.75075 C 274.71802,-251.62575 280.78961,-282.49866 286.84375,-313.37500 C 299.38294,-291.98470 308.48252,-268.77451 317.10508,-245.60626 C 324.81635,-222.37598 326.15311,-194.20003 309.90625,-174.15625 C 304.97666,-166.37262 292.36452,-161.47890 295.23230,-150.57569 C 299.67057,-139.00260 310.92856,-127.11897 324.43356,-129.18489 C 336.16731,-130.07394 348.35211,-133.96541 355.32615,-144.09097 C 371.85606,-162.07051 381.28071,-186.36483 379.69004,-210.87361 C 379.48283,-231.64396 373.81221,-253.27294 358.80027,-268.36908 C 339.23414,-293.66673 312.46110,-311.74706 290.35260,-334.57762 C 279.33991,-345.30848 268.20725,-355.94002 257.75000,-367.21875 C 256.16667,-359.62500 254.58333,-352.03125 253.00000,-344.43750 z "
         id="path5216" />
      <path
         style="opacity:0.12499995;fill:#000000;fill-opacity:1.0000000;stroke:none;stroke-width:1.0000006;stroke-linecap:round;stroke-linejoin:miter;stroke-miterlimit:4.0000000;stroke-opacity:1.0000000"
         d="M 251.59375,-344.71875 C 238.59598,-282.68704 225.58040,-220.65902 212.59375,-158.62500 C 197.00448,-177.26211 176.01852,-191.28144 152.56250,-197.78125 C 162.95310,-200.80629 173.65672,-203.86532 184.59375,-202.87500 C 181.86458,-208.10417 179.13542,-213.33333 176.40625,-218.56250 C 159.80671,-220.12502 143.90054,-212.77051 131.45491,-202.24493 C 127.91130,-199.80446 122.91990,-202.16147 118.80807,-201.16466 C 99.482266,-200.13238 80.633340,-193.79309 64.298241,-183.47776 C 60.595781,-183.41424 56.925998,-187.42920 53.237003,-188.89508 C 41.843589,-194.84259 28.798511,-198.08749 15.906250,-196.93750 C 14.531250,-190.93750 13.156250,-184.93750 11.781250,-178.93750 C 25.889183,-180.49850 40.084978,-178.78855 53.968750,-176.21875 C 43.201462,-166.78020 33.625112,-156.11846 26.425108,-143.73450 C 16.760925,-126.94573 11.075052,-108.02753 10.025723,-88.673058 C 8.4997064,-59.901776 17.133690,-30.600459 34.659155,-7.6489020 C 54.994800,19.382250 87.363994,37.389652 121.36261,38.572834 C 155.95403,40.444692 190.67665,24.690059 212.52522,-2.1135851 C 228.72765,-21.315239 238.23162,-45.824315 240.34375,-70.843750 C 245.09883,-91.003178 248.46300,-111.63001 252.68648,-131.96931 C 264.28922,-191.07363 275.90603,-250.17521 287.50000,-309.28125 C 298.36188,-290.66658 305.90459,-270.34818 313.92886,-250.38350 C 320.70777,-231.58319 324.42902,-210.26793 317.60716,-190.93158 C 313.67009,-179.27381 305.03128,-170.05073 296.15625,-162.00000 C 289.92819,-153.99902 295.49385,-143.73000 301.66128,-137.58719 C 307.08272,-131.31096 314.86291,-126.38641 323.48415,-127.72753 C 334.67125,-128.65756 347.12214,-131.25482 354.20537,-140.82886 C 370.31449,-157.67223 381.20790,-180.11237 381.09710,-203.72129 C 381.65920,-225.69966 377.86656,-249.52139 362.36563,-266.20871 C 348.65172,-284.11634 331.84624,-299.29097 314.64222,-313.63884 C 294.87198,-331.90831 275.38959,-350.59714 256.90625,-370.18750 C 255.13542,-361.69792 253.36458,-353.20833 251.59375,-344.71875 z "
         id="path5221" />
      <path
         style="opacity:0.12499995;fill:#000000;fill-opacity:1.0000000;stroke:none;stroke-width:1.0000006;stroke-linecap:round;stroke-linejoin:miter;stroke-miterlimit:4.0000000;stroke-opacity:1.0000000"
         d="M 255.81250,-371.84375 C 241.18166,-301.77158 226.45309,-231.71985 211.78125,-161.65625 C 197.41515,-178.30099 178.50908,-191.19958 157.43750,-197.65625 C 166.97671,-200.62889 177.00093,-202.31016 187.00000,-201.34375 C 183.77560,-207.57035 180.50558,-213.77345 177.28125,-220.00000 C 160.65896,-221.57245 144.32977,-214.94161 131.79827,-204.27209 C 127.88186,-200.96535 122.10163,-203.68495 117.34988,-202.53362 C 98.813612,-201.21880 80.669145,-195.32731 64.915924,-185.46368 C 61.135300,-183.98493 57.360818,-189.15097 53.582657,-190.33592 C 41.699352,-196.43255 28.173496,-199.69308 14.781250,-198.31250 C 13.170188,-191.33493 11.580593,-184.35239 9.9687500,-177.37500 C 23.624205,-178.91396 37.404589,-177.78798 50.875000,-175.28125 C 37.240657,-163.52730 26.334905,-148.75834 19.017842,-132.32151 C 12.298954,-117.24980 8.8108381,-100.77903 8.4354598,-84.295496 C 7.8987709,-56.411439 16.866559,-28.460338 33.856940,-6.3186269 C 54.449418,20.728154 87.006482,38.763398 121.17568,40.002276 C 153.53064,41.766271 186.06667,28.388898 208.26243,4.8499839 C 227.68570,-15.401122 239.44724,-42.592178 241.75000,-70.531250 C 246.80602,-92.846549 250.66662,-115.49284 255.27225,-137.93303 C 266.22316,-193.68452 277.17408,-249.43601 288.12500,-305.18750 C 297.79815,-288.00419 304.70624,-269.42412 312.10687,-251.18688 C 319.06166,-232.31571 323.09657,-210.84690 316.26333,-191.40036 C 312.39078,-179.80435 303.64601,-170.90786 294.93750,-162.75000 C 289.53370,-155.90465 292.26217,-146.48254 297.42624,-140.38889 C 303.50699,-132.31047 312.62321,-124.67676 323.45299,-126.28823 C 333.17177,-127.20202 343.83647,-128.95679 351.35165,-135.66758 C 368.09283,-152.28700 380.95757,-174.01396 382.27075,-198.01073 C 383.55924,-219.56587 381.17482,-242.79876 368.50606,-260.92177 C 355.01232,-278.55277 339.66811,-294.71457 322.50881,-308.79628 C 301.66879,-326.71186 282.12571,-346.38756 262.80136,-366.02486 C 260.91346,-367.09451 256.47146,-374.76761 255.81250,-371.84375 z "
         id="path5226" />
      <path
         style="opacity:0.12499995;fill:#000000;fill-opacity:1.0000000;stroke:none;stroke-width:1.0000006;stroke-linecap:round;stroke-linejoin:miter;stroke-miterlimit:4.0000000;stroke-opacity:1.0000000"
         d="M 254.40625,-372.12500 C 239.97047,-302.98051 225.44304,-233.85519 210.96875,-164.71875 C 197.73405,-179.38909 180.95781,-190.94213 162.31250,-197.56250 C 171.11567,-200.15836 180.30557,-200.52687 189.40625,-199.81250 C 185.68900,-207.02737 181.91363,-214.21223 178.15625,-221.40625 C 160.12521,-223.32959 142.60942,-215.70609 129.15625,-204.09375 C 106.12402,-205.08795 82.983684,-198.56103 63.500000,-186.31250 C 48.827410,-195.87149 31.262666,-201.70384 13.625000,-199.68750 C 11.772154,-191.73370 9.9798724,-183.76585 8.1250000,-175.81250 C 21.350842,-177.25003 34.727968,-176.75514 47.812500,-174.34375 C 17.087291,-147.26289 2.1246655,-104.10002 8.3615145,-63.752987 C 14.508396,-15.952677 51.231380,26.731779 98.353156,38.117811 C 139.21449,48.892467 185.23953,34.379590 212.58612,2.1627078 C 230.70648,-17.949718 240.84570,-44.329573 243.44123,-71.073683 C 258.85904,-147.66734 273.61682,-224.43377 288.78125,-301.09375 C 298.22950,-282.79314 305.95040,-263.55124 313.04234,-244.23119 C 320.28059,-222.12000 321.91666,-195.09326 306.00469,-176.21015 C 300.00362,-168.31558 288.09649,-162.29018 290.75000,-150.59375 C 294.36971,-138.98615 303.99650,-128.32862 315.90625,-125.12500 C 328.37418,-124.16742 342.15673,-126.40475 352.08990,-134.38606 C 370.87270,-152.67855 384.34726,-177.59544 383.99183,-204.31031 C 384.69766,-227.99202 379.53067,-253.41537 362.30827,-270.81308 C 342.87325,-296.21297 316.13704,-314.22863 294.01863,-336.98623 C 280.81970,-349.76572 267.63599,-362.57850 255.25000,-376.15625 C 254.96875,-374.81250 254.68750,-373.46875 254.40625,-372.12500 z "
         id="path5231" />
      <path
         style="opacity:0.12499995;fill:#000000;fill-opacity:1.0000000;stroke:none;stroke-width:1.0000006;stroke-linecap:round;stroke-linejoin:miter;stroke-miterlimit:4.0000000;stroke-opacity:1.0000000"
         d="M 253.00000,-372.40625 C 238.75522,-304.17769 224.41146,-235.96984 210.12500,-167.75000 C 198.09312,-180.41356 183.47952,-190.77808 167.18750,-197.18750 C 175.24220,-199.32373 183.59076,-198.66976 191.81250,-198.28125 C 187.56655,-206.46586 183.27646,-214.62752 179.03125,-222.81250 C 160.60273,-224.83011 142.48974,-217.46829 128.68750,-205.53125 C 105.83008,-206.42467 82.897861,-199.98940 63.500000,-187.96875 C 48.483729,-197.70246 30.431457,-203.22418 12.468750,-201.06250 C 10.431579,-192.12161 8.3793129,-183.18410 6.3125000,-174.25000 C 19.096749,-175.57111 32.038354,-175.67933 44.718750,-173.37500 C 17.187228,-148.01185 2.9869395,-109.56427 5.9262540,-72.380574 C 8.9028360,-25.031021 40.921119,19.530395 85.814860,35.690830 C 127.40326,51.796566 177.72395,40.705349 208.62860,8.5109503 C 229.83019,-12.436316 242.05674,-41.340744 244.84280,-70.793980 C 260.02034,-146.09730 274.52018,-221.59195 289.43750,-296.96875 C 298.94471,-275.93835 309.10474,-254.97567 314.75493,-232.51308 C 319.41566,-212.42695 317.26274,-189.10843 302.07001,-173.84576 C 295.49455,-167.60648 286.83516,-160.44066 289.37500,-150.18750 C 293.18333,-138.04526 303.27181,-126.86741 315.81250,-123.68750 C 328.69545,-122.73252 342.95386,-125.04985 353.12115,-133.41731 C 372.44561,-152.14223 386.04394,-177.88565 385.42770,-205.27862 C 386.01547,-228.99525 380.57196,-254.29267 363.43327,-271.71933 C 343.73652,-297.37838 316.62639,-315.65255 294.26716,-338.74248 C 280.63867,-351.86710 267.15759,-365.16476 254.40625,-379.15625 C 253.93750,-376.90625 253.46875,-374.65625 253.00000,-372.40625 z "
         id="path5236" />
      <path
         style="opacity:0.12499995;fill:#000000;fill-opacity:1.0000000;stroke:none;stroke-width:1.0000006;stroke-linecap:round;stroke-linejoin:miter;stroke-miterlimit:4.0000000;stroke-opacity:1.0000000"
         d="M 251.59375,-372.71875 C 237.53485,-305.37595 223.38045,-238.05312 209.28125,-170.71875 C 198.56164,-181.49611 185.96544,-190.41553 172.12500,-196.71875 C 179.45223,-197.91386 186.84938,-196.85518 194.21875,-196.78125 C 189.45735,-205.93200 184.68602,-215.07759 179.90625,-224.21875 C 161.08168,-226.34427 142.39722,-219.21762 128.25000,-206.96875 C 105.57305,-207.74967 82.791995,-201.46960 63.500000,-189.59375 C 48.165161,-199.57820 29.600374,-204.70442 11.312500,-202.43750 C 9.0463797,-192.53017 6.7610681,-182.62724 4.5000000,-172.71875 C 16.860762,-173.79633 29.310926,-174.44924 41.625000,-172.46875 C 15.208567,-146.74922 1.6368561,-108.98104 4.4887540,-72.318074 C 7.4822797,-24.410291 39.889711,20.640510 85.283610,37.034580 C 124.71428,52.220270 171.92867,43.574973 203.44182,15.403728 C 228.35894,-6.1461522 243.24124,-37.871752 246.25373,-70.448683 C 261.11688,-144.38240 275.37090,-218.47427 290.00000,-292.46875 C 299.94025,-268.94195 312.53892,-245.80782 315.21423,-220.03161 C 317.47398,-201.53641 310.77964,-182.21390 296.34487,-170.14883 C 286.49395,-163.40633 285.03869,-149.13659 292.44935,-140.02514 C 299.60869,-129.11300 311.72313,-119.63677 325.52683,-122.09428 C 338.31597,-123.32589 351.87057,-127.29066 359.65288,-138.28701 C 377.70239,-157.43491 388.30363,-183.51772 386.87760,-209.96785 C 386.71062,-232.52435 380.76699,-256.13782 364.52702,-272.62558 C 344.78748,-298.33682 317.65774,-316.68691 295.23557,-339.80463 C 280.94332,-353.50642 266.94296,-367.52165 253.56250,-382.12500 C 252.90625,-378.98958 252.25000,-375.85417 251.59375,-372.71875 z "
         id="path5241" />
    </g>
    <g
       id="g2894"
       transform="translate(0.162997,0.800330)">
      <path
         style="fill:url(#linearGradient1397);fill-opacity:1.0000000;stroke:#000000;stroke-width:1.0000004;stroke-linecap:round;stroke-linejoin:miter;stroke-miterlimit:4.0000000;stroke-dasharray:none;stroke-opacity:1.0000000"
         d="M 29.126141,2.1094568 C 27.653065,9.1604419 26.170437,16.209426 24.693359,23.259573 C 21.160748,18.685077 13.822069,17.649644 9.2529949,21.254109 C 4.4728258,24.726331 2.8708945,31.917086 5.8731505,37.038527 C 8.1942283,41.355883 13.405001,44.103156 18.273332,43.030872 C 23.028268,42.096245 26.918135,37.886215 27.479669,33.072944 C 28.173531,29.125323 28.974126,25.198436 29.762689,21.269176 C 30.593481,17.030611 31.417109,12.790632 32.258862,8.5542231 C 33.906197,11.838302 35.723102,15.309480 35.513113,19.096198 C 35.259435,21.148304 34.113830,21.883543 33.141257,23.072969 C 32.321073,24.076029 32.907280,25.853325 34.224820,26.313142 C 36.669603,27.166363 39.413917,25.759764 40.545909,23.546366 C 42.028261,20.647903 42.060606,17.083923 40.763734,14.127944 C 39.359131,11.361922 36.760143,9.5280941 34.556025,7.4463070 C 32.668792,5.7487744 30.822291,4.0001418 29.126141,2.1094568 z "
         id="path1291"
         sodipodi:nodetypes="cccccccccsssccc" />
      <path
         sodipodi:nodetypes="ccc"
         id="path1342"
         d="M 7.7290050,35.005173 C 12.283982,36.240619 18.616891,35.122540 23.202029,33.095666 C 19.648935,42.341469 10.166576,42.790104 7.7290050,35.005173 z "
         style="fill:#ffffff;fill-opacity:1.0000000;fill-rule:evenodd;stroke:#000000;stroke-width:1.0000004px;stroke-linecap:butt;stroke-linejoin:miter;stroke-opacity:1.0000000" />
      <path
         sodipodi:nodetypes="cc"
         id="path2078"
         d="M 23.592498,30.077899 C 23.230180,31.529312 24.117512,33.335149 25.771964,33.675715"
         style="fill:none;fill-opacity:0.75000000;fill-rule:evenodd;stroke:#000000;stroke-width:1.0000004px;stroke-linecap:butt;stroke-linejoin:miter;stroke-opacity:1.0000000" />
      <path
         sodipodi:type="arc"
         style="opacity:1.0000000;fill:#ffffff;fill-opacity:1.0000000;stroke:#000000;stroke-width:1.0712341;stroke-linejoin:miter;stroke-miterlimit:4.0000000;stroke-dasharray:none;stroke-opacity:1.0000000"
         id="path2801"
         sodipodi:cx="-6.1682243"
         sodipodi:cy="20.261683"
         sodipodi:rx="3.0280373"
         sodipodi:ry="5.3084111"
         d="M -3.1401870 20.261683 A 3.0280373 5.3084111 0 1 1  -9.1962616,20.261683 A 3.0280373 5.3084111 0 1 1  -3.1401870 20.261683 z"
         transform="matrix(1.027724,-9.148215e-2,7.488360e-2,0.841254,22.06319,8.413450)" />
      <path
         transform="matrix(1.090074,-9.703214e-2,0.100683,1.131094,4.579180,9.794851)"
         d="M 11.289720 14.579439 A 1.6448598 2.0934579 0 1 1  8.0000005,14.579439 A 1.6448598 2.0934579 0 1 1  11.289720 14.579439 z"
         sodipodi:ry="2.0934579"
         sodipodi:rx="1.6448598"
         sodipodi:cy="14.579439"
         sodipodi:cx="9.6448603"
         id="path2820"
         style="opacity:1.0000000;fill:#000000;fill-opacity:1.0000000;stroke:none;stroke-width:1.0000000;stroke-linejoin:miter;stroke-miterlimit:4.0000000;stroke-dasharray:none;stroke-opacity:1.0000000"
         sodipodi:type="arc" />
      <path
         transform="matrix(0.996062,-8.866371e-2,7.208572e-2,0.809822,14.55771,10.21134)"
         d="M -3.1401870 20.261683 A 3.0280373 5.3084111 0 1 1  -9.1962616,20.261683 A 3.0280373 5.3084111 0 1 1  -3.1401870 20.261683 z"
         sodipodi:ry="5.3084111"
         sodipodi:rx="3.0280373"
         sodipodi:cy="20.261683"
         sodipodi:cx="-6.1682243"
         id="path1346"
         style="opacity:1.0000000;fill:#ffffff;fill-opacity:1.0000000;stroke:#000000;stroke-width:1.1090426;stroke-linejoin:miter;stroke-miterlimit:4.0000000;stroke-dasharray:none;stroke-opacity:1.0000000"
         sodipodi:type="arc" />
      <path
         sodipodi:type="arc"
         style="opacity:1.0000000;fill:#000000;fill-opacity:1.0000000;stroke:none;stroke-width:1.0000000;stroke-linejoin:miter;stroke-miterlimit:4.0000000;stroke-dasharray:none;stroke-opacity:1.0000000"
         id="path3548"
         sodipodi:cx="9.6448603"
         sodipodi:cy="14.579439"
         sodipodi:rx="1.6448598"
         sodipodi:ry="2.0934579"
         d="M 11.289720 14.579439 A 1.6448598 2.0934579 0 1 1  8.0000005,14.579439 A 1.6448598 2.0934579 0 1 1  11.289720 14.579439 z"
         transform="matrix(0.925987,-8.242604e-2,8.160049e-2,0.916712,-0.921063,13.51420)" />
      <path
         sodipodi:type="arc"
         style="opacity:1.0000000;fill:url(#linearGradient3679);fill-opacity:1.0000000;stroke:none;stroke-width:1.0000000;stroke-linejoin:miter;stroke-miterlimit:4.0000000;stroke-dasharray:none;stroke-opacity:1.0000000"
         id="path3550"
         sodipodi:cx="9.6448603"
         sodipodi:cy="14.579439"
         sodipodi:rx="1.6448598"
         sodipodi:ry="2.0934579"
         d="M 11.289720 14.579439 A 1.6448598 2.0934579 0 1 1  8.0000005,14.579439 A 1.6448598 2.0934579 0 1 1  11.289720 14.579439 z"
         transform="matrix(0.875952,-7.797220e-2,8.090634e-2,0.908914,6.984233,12.80305)" />
      <path
         transform="matrix(0.762577,-6.788023e-2,6.720044e-2,0.754940,0.889623,15.76819)"
         d="M 11.289720 14.579439 A 1.6448598 2.0934579 0 1 1  8.0000005,14.579439 A 1.6448598 2.0934579 0 1 1  11.289720 14.579439 z"
         sodipodi:ry="2.0934579"
         sodipodi:rx="1.6448598"
         sodipodi:cy="14.579439"
         sodipodi:cx="9.6448603"
         id="path3552"
         style="opacity:1.0000000;fill:url(#linearGradient3681);fill-opacity:1.0000000;stroke:none;stroke-width:1.0000000;stroke-linejoin:miter;stroke-miterlimit:4.0000000;stroke-dasharray:none;stroke-opacity:1.0000000"
         sodipodi:type="arc" />
      <path
         sodipodi:nodetypes="ccccc"
         id="path2086"
         d="M 20.243453,34.695899 C 17.032181,35.751874 13.374833,36.202853 10.141933,35.970191 L 10.261075,37.308649 C 13.493975,37.541310 17.165360,37.118405 20.376632,36.062431 L 20.243453,34.695899 z "
         style="fill:#c8c8c8;fill-opacity:1.0000000;fill-rule:evenodd;stroke:none;stroke-width:1.0000004px;stroke-linecap:butt;stroke-linejoin:miter;stroke-opacity:1.0000000" />
      <path
         sodipodi:nodetypes="cccc"
         id="path1347"
         d="M 11.738319,22.355140 C 9.4205613,21.831776 7.0280377,21.158878 4.5607477,21.457944 L 5.0093459,19.514019 C 7.7009349,19.239876 10.018693,20.834891 11.738319,22.355140 z "
         style="fill:#000000;fill-opacity:1.0000000;fill-rule:evenodd;stroke:none;stroke-width:1.0000000px;stroke-linecap:butt;stroke-linejoin:miter;stroke-opacity:1.0000000" />
      <path
         style="fill:#000000;fill-opacity:1.0000000;fill-rule:evenodd;stroke:none;stroke-width:1.0000000px;stroke-linecap:butt;stroke-linejoin:miter;stroke-opacity:1.0000000"
         d="M 14.654205,20.934580 C 16.971963,20.037384 19.588786,18.766355 22.056076,19.065421 L 21.158881,17.345795 C 18.018694,17.520250 16.373831,19.414331 14.654205,20.934580 z "
         id="path2075"
         sodipodi:nodetypes="cccc" />
    </g>
  </g>
</svg>
