<?xml version="1.0" encoding="UTF-8"?>
<svg viewBox="0 0 14 15" version="1.1" xmlns="http://www.w3.org/2000/svg" xmlns:xlink="http://www.w3.org/1999/xlink">
    <defs>
        <radialGradient cx="100%" cy="12.7067462%" fx="100%" fy="12.7067462%" r="123.069205%" gradientTransform="translate(1.000000,0.127067),scale(1.000000,0.880952),rotate(90.000000),translate(-1.000000,-0.127067)" id="radialGradient-1">
            <stop stop-color="#1D52FD" offset="0%"></stop>
            <stop stop-color="#140E56" offset="100%"></stop>
        </radialGradient>
        <linearGradient x1="55.6991393%" y1="31.7278611%" x2="66.6494713%" y2="50%" id="linearGradient-2">
            <stop stop-color="#DDDEE1" offset="0%"></stop>
            <stop stop-color="#A5A8B7" offset="100%"></stop>
        </linearGradient>
        <radialGradient cx="50%" cy="50%" fx="50%" fy="50%" r="100%" gradientTransform="translate(0.500000,0.500000),scale(0.945946,1.000000),rotate(90.000000),translate(-0.500000,-0.500000)" id="radialGradient-3">
            <stop stop-color="#FFFFFF" offset="0%"></stop>
            <stop stop-color="#FFFFFF" stop-opacity="0" offset="100%"></stop>
        </radialGradient>
        <path d="M8.69999985,6.04980458 L8.5694504,6.45058583 C8.50219769,6.65468741 8.41912077,6.83745106 8.32021964,6.99887683 C8.22131851,7.16030261 8.10461528,7.30039053 7.97010975,7.4191405 C7.83560423,7.53789047 7.68428555,7.63530258 7.51615372,7.71137682 C7.34802188,7.78745107 7.1630768,7.84218737 6.96131856,7.8755858 C6.97714277,7.79765612 6.9890109,7.71787099 6.99692296,7.63623034 C7.00483502,7.55458969 7.00879109,7.47480456 7.00879109,7.39687487 L7.00879109,4.37988274 C7.00879109,4.11640621 7.09978007,3.87148434 7.28175812,3.64511713 C7.46373617,3.41874991 7.93648335,3.30556635 8.69999985,3.30556635 L8.69999985,6.04980458 Z M4.3147252,3.61728509 L4.3147252,3.92900384 L4.65296695,3.92900384 L4.65296695,3.61728509 L4.3147252,3.61728509 Z M4.65296695,4.09042962 L4.99120871,4.09042962 L4.99120871,4.40214836 L4.65296695,4.40214836 L4.65296695,4.09042962 Z M4.3147252,4.48564445 L4.64703289,4.48564445 L4.64703289,4.7973632 L4.3147252,4.7973632 L4.3147252,4.48564445 Z M3.97648345,4.95322257 L4.30879114,4.95322257 L4.30879114,5.27050772 L3.97648345,5.27050772 L3.97648345,4.95322257 Z M3.29999994,3.29999994 L3.29999994,3.61728509 L3.6382417,3.61728509 L3.6382417,3.29999994 L3.29999994,3.29999994 Z M3.97648345,5.58222647 L4.3147252,5.58222647 L4.3147252,6.27802724 L4.65296695,6.27802724 L4.65296695,5.10908194 L4.99120871,5.10908194 L4.99120871,7.39130847 C4.99120871,7.66220693 5.04362626,7.89877919 5.14846145,8.10102525 C5.25329664,8.30327131 5.36901093,8.47119126 5.4956043,8.60478501 C5.62219768,8.73837876 5.73791196,8.83764631 5.84274715,8.90258774 L5.9999999,8.99999985 C5.57670323,8.99999985 5.19791197,8.94340802 4.86362629,8.83022446 C4.52934061,8.7170409 4.24648344,8.559326 4.01505488,8.35707994 C3.78362631,8.15483387 3.60659338,7.91640609 3.48395598,7.64179674 C3.36131859,7.3671874 3.29999994,7.07031235 3.29999994,6.75117176 L3.29999994,4.1683593 L3.6382417,4.1683593 L3.6382417,5.89394521 L3.97648345,5.89394521 L3.97648345,5.58222647 Z M6.23736253,8.04814439 C6.54989003,8.05927721 6.83670318,8.03701158 7.09780208,7.98134752 C7.35890097,7.92568346 7.59329657,7.83383776 7.80098888,7.70581042 C8.00868118,7.57778307 8.1876922,7.41264633 8.33802184,7.21040027 C8.48835147,7.00815421 8.60901087,6.76601554 8.69999985,6.48398426 L8.69999985,6.75117176 C8.69999985,7.05546866 8.64560422,7.33842761 8.53681304,7.6000487 C8.42802186,7.86166979 8.26879104,8.09174788 8.05912074,8.29028306 C7.84945045,8.48881824 7.59428562,8.64931626 7.29362625,8.77177719 C6.99296688,8.89423813 6.65076915,8.96660141 6.26703286,8.98886703 L6.06527462,8.88867172 C6.04945042,8.87753891 5.91890097,8.7801268 5.67362628,8.5964354 C5.42835159,8.412744 5.26021966,8.13535145 5.16923068,7.76425768 C5.3037362,7.84218737 5.45901087,7.90620104 5.63505485,7.95629869 C5.81109883,8.00639635 6.01186803,8.03701158 6.23736253,8.04814439 Z M3.97648345,3.93457025 L4.30879114,3.93457025 L4.30879114,4.24628899 L3.97648345,4.24628899 L3.97648345,3.93457025 Z" id="path-4"></path>
        <filter x="-18.5%" y="-17.5%" width="137.0%" height="135.1%" filterUnits="objectBoundingBox" id="filter-5">
            <feGaussianBlur stdDeviation="0.5" in="SourceAlpha" result="shadowBlurInner1"></feGaussianBlur>
            <feOffset dx="0" dy="1" in="shadowBlurInner1" result="shadowOffsetInner1"></feOffset>
            <feComposite in="shadowOffsetInner1" in2="SourceAlpha" operator="arithmetic" k2="-1" k3="1" result="shadowInnerInner1"></feComposite>
            <feColorMatrix values="0 0 0 0 0   0 0 0 0 0   0 0 0 0 0  0 0 0 0.5 0" type="matrix" in="shadowInnerInner1"></feColorMatrix>
        </filter>
    </defs>
    <g stroke="none" stroke-width="1" fill="none" fill-rule="evenodd">
        <g transform="translate(-88.000000, -411.000000)">
            <g transform="translate(89.000000, 412.000000)">
                <path d="M5.85092345,0.317412198 C6.1980451,0.221309165 8.04643021,0.55173872 11.3999998,1.30703061 C11.3999998,7.54829898 9.54787088,11.4117569 5.84361303,12.8974043 L5.85299999,12.893 L5.85347361,12.8999998 L5.84599999,12.896 L5.84361303,12.8974043 L5.84299999,12.895 L5.61464275,12.7996269 C2.07154758,11.2434847 0.299999995,7.41261924 0.299999995,1.30703061 C3.67284298,0.547397962 5.52315079,0.217525157 5.85092345,0.317412198 Z" id="Combined-Shape-Copy" fill="url(#radialGradient-1)" opacity="0.29"></path>
                <path d="M5.85092345,0.317412198 C6.1980451,0.221309165 8.04643021,0.55173872 11.3999998,1.30703061 C11.3999998,7.54829898 9.54787088,11.4117569 5.84361303,12.8974043 L5.85299999,12.893 L5.85347361,12.8999998 L5.84599999,12.896 L5.84361303,12.8974043 L5.84299999,12.895 L5.61464275,12.7996269 C2.07154758,11.2434847 0.299999995,7.41261924 0.299999995,1.30703061 C3.67284298,0.547397962 5.52315079,0.217525157 5.85092345,0.317412198 Z" id="Combined-Shape-Copy-2" fill="url(#radialGradient-1)"></path>
                <path d="M6,0.00479241185 L5.94519876,0.00479241185 C5.30990938,-0.034415149 3.52023054,0.29826201 0.289002914,1.0237344 L0,1.08862108 L0,1.3796117 C0,7.75711246 1.90475569,11.7856095 5.7458791,13.3891512 L5.85061016,13.4319183 L5.85178208,13.4324547 C5.92981231,13.4557877 5.99741934,13.4783028 6.05460316,13.5 C6.14245335,13.4831115 6.22747069,13.4125393 6.27419823,13.3891512 C6.30534993,13.3735591 6.37291273,13.3400549 6.47688666,13.2886384 C10.1696649,11.6228494 12,7.62963141 12,1.3796117 L12,1.08862108 L10.9344861,0.850874262 C8.08839473,0.223243992 6.53633446,-0.0396173518 6,0.00479241185 Z M7.61270039,0.916959046 L7.95529914,0.979692923 C8.70778845,1.1206949 9.66778771,1.31993602 10.8346726,1.57733089 L11.2545846,1.67047648 L11.2539888,1.74367411 C11.1850999,7.58354714 9.44595352,11.2024752 6.06535572,12.6699064 L5.99553662,12.6995788 L5.92934527,12.6714149 C2.58685557,11.2181495 0.849791932,7.65583474 0.748576354,1.9182126 L0.745229202,1.67029395 L1.43092263,1.51896728 C2.58207027,1.26699659 3.52036992,1.07484818 4.24516184,0.94261207 L4.40863114,0.913159618 C5.26323394,0.761222049 5.80963133,0.70355947 5.89153866,0.728118784 C5.92536503,0.728423446 5.96151878,0.728423446 5.9999999,0.728118784 C6.03848102,0.727814121 6.07677091,0.727224737 6.11486957,0.726350631 C6.20217559,0.703701933 6.75009177,0.763040646 7.61270039,0.916959046 Z" id="Combined-Shape-Copy-3" stroke="url(#linearGradient-2)" stroke-width="0.5" fill="#FFFFFF" fill-rule="nonzero"></path>
                <path d="M11.3999998,1.53863173 C7.08761659,4.35505368 4.32159096,7.44217643 3.10192291,10.8 C2.11221232,9.50559552 1.37761714,8.13153309 0.89813737,6.67781269 L0.299999995,1.53863173 L5.36134786,0.299999995 L11.3999998,1.53863173 Z" id="Path-3-Copy" fill="url(#radialGradient-3)" opacity="0.275320871"></path>
                <g>
                    <use fill="#1D136A" fill-rule="evenodd" xlink:href="#path-4"></use>
                    <use fill="black" fill-opacity="1" filter="url(#filter-5)" xlink:href="#path-4"></use>
                </g>
            </g>
        </g>
    </g>
</svg>
