<svg width="16px" height="16px" viewBox="0 0 16 16" version="1.1" xmlns="http://www.w3.org/2000/svg" xmlns:xlink="http://www.w3.org/1999/xlink">
    <g id="Login-&amp;-Set-Up" stroke="none" stroke-width="1" fill="none" fill-rule="evenodd">
        <g id="Setup-01-Copy-3" transform="translate(-17.000000, -17.000000)" fill="#FFFFFF">
            <g id="Group-2">
                <g id="Group" transform="translate(17.000000, 17.000000)">
                    <path d="M10.6706349,3.03125 C10.6706349,2.29166297 10.9140187,1.60416984 11.4007937,0.96875 C11.8875686,0.333330156 13.1521062,0.015625 15.1944444,0.015625 L15.1944444,7.71875 L14.8452381,8.84375 C14.665343,9.41666953 14.443123,9.92968523 14.1785714,10.3828125 C13.9140198,10.8359398 13.6018537,11.229165 13.2420635,11.5625 C12.8822733,11.895835 12.4775155,12.1692698 12.0277778,12.3828125 C11.5780401,12.5963552 11.083336,12.7552078 10.5436508,12.859375 C10.585979,12.6302072 10.6177248,12.4010428 10.6388889,12.171875 C10.660053,11.9427072 10.6706349,11.7187511 10.6706349,11.5 L10.6706349,3.03125 Z M3.46428571,0.890625 L4.36904762,0.890625 L4.36904762,1.765625 L3.46428571,1.765625 L3.46428571,0.890625 Z M4.36904762,2.21875 L5.27380952,2.21875 L5.27380952,3.09375 L4.36904762,3.09375 L4.36904762,2.21875 Z M3.46428571,3.328125 L4.36904762,3.328125 L4.36904762,4.203125 L3.46428571,4.203125 L3.46428571,3.328125 Z M2.55952381,4.640625 L3.46428571,4.640625 L3.46428571,5.53125 L2.55952381,5.53125 L2.55952381,4.640625 Z M0.75,0 L1.6547619,0 L1.6547619,0.890625 L0.75,0.890625 L0.75,0 Z M5.27380952,11.5 C5.27380952,12.2604205 5.41401976,12.9218722 5.69444444,13.484375 C5.97486913,14.0468778 6.28438984,14.5156231 6.62301587,14.890625 C6.9616419,15.2656269 7.27116262,15.5442699 7.5515873,15.7265625 L7.97222222,16 C6.83994143,16 5.82672405,15.8411474 4.93253968,15.5234375 C4.03835532,15.2057276 3.28174913,14.7630237 2.66269841,14.1953125 C2.0436477,13.6276013 1.57010746,12.9583372 1.24206349,12.1875 C0.914019524,11.4166628 0.75,10.5833378 0.75,9.6875 L0.75,2.4375 L1.6547619,2.4375 L1.6547619,7.28125 L2.55952381,7.28125 L2.55952381,6.40625 L3.46428571,6.40625 L3.46428571,8.359375 L4.36904762,8.359375 L4.36904762,5.078125 L5.27380952,5.078125 L5.27380952,11.5 Z M8.60714286,13.328125 C9.44312587,13.3593752 10.210314,13.2968758 10.9087302,13.140625 C11.6071463,12.9843742 12.2341242,12.7265643 12.7896825,12.3671875 C13.3452409,12.0078107 13.8240721,11.5442737 14.2261905,10.9765625 C14.6283089,10.4088513 14.951057,9.72917063 15.1944444,8.9375 L15.1944444,9.6875 C15.1944444,10.5416709 15.0489433,11.3359338 14.7579365,12.0703125 C14.4669298,12.8046912 14.0410081,13.450518 13.4801587,14.0078125 C12.9193094,14.565107 12.2367765,15.0156233 11.4325397,15.359375 C10.6283029,15.7031267 9.7129681,15.9062497 8.68650794,15.96875 L8.1468254,15.6875 C8.10449714,15.6562498 7.75529429,15.3828151 7.09920635,14.8671875 C6.44311841,14.3515599 5.99338746,13.5729219 5.75,12.53125 C6.10979016,12.7500011 6.52512992,12.9296868 6.99603175,13.0703125 C7.46693357,13.2109382 8.00396524,13.2968748 8.60714286,13.328125 Z M2.55952381,1.78125 L3.4484127,1.78125 L3.4484127,2.65625 L2.55952381,2.65625 L2.55952381,1.78125 Z" id="îš-copy-3"></path>
                </g>
            </g>
        </g>
    </g>
</svg>