<svg id="Layer_1" data-name="Layer 1" xmlns="http://www.w3.org/2000/svg" xmlns:xlink="http://www.w3.org/1999/xlink" viewBox="0 0 549.67 500"><defs><style>.cls-1{fill:none;}.cls-2{fill:#666;}.cls-3{fill:#b3b3b3;}.cls-4{fill:#4d4d4d;}.cls-5{fill:url(#linear-gradient);}.cls-6{clip-path:url(#clip-path);}.cls-7{fill:url(#Emerald);}.cls-8{fill:url(#Emerald-2);}</style><linearGradient id="linear-gradient" x1="86.48" y1="196.89" x2="412.88" y2="196.89" gradientUnits="userSpaceOnUse"><stop offset="0" stop-color="#282882"/><stop offset="0.1" stop-color="#2a2c85"/><stop offset="0.2" stop-color="#2f398d"/><stop offset="0.3" stop-color="#384e9a"/><stop offset="0.4" stop-color="#446bac"/><stop offset="0.49" stop-color="#5189bf"/><stop offset="0.6" stop-color="#3b5c99"/><stop offset="0.72" stop-color="#273478"/><stop offset="0.83" stop-color="#191860"/><stop offset="0.93" stop-color="#100651"/><stop offset="1" stop-color="#0d004c"/></linearGradient><clipPath id="clip-path"><rect class="cls-1" x="240.17" y="71.09" width="257.19" height="249.84"/></clipPath><linearGradient id="Emerald" x1="244.95" y1="193.31" x2="490.42" y2="193.31" gradientUnits="userSpaceOnUse"><stop offset="0" stop-color="#008145"/><stop offset="0.09" stop-color="#048346"/><stop offset="0.18" stop-color="#108a4b"/><stop offset="0.27" stop-color="#249552"/><stop offset="0.36" stop-color="#40a45d"/><stop offset="0.44" stop-color="#63b86a"/><stop offset="0.49" stop-color="#78c372"/><stop offset="0.53" stop-color="#64b86b"/><stop offset="0.63" stop-color="#40a45d"/><stop offset="0.72" stop-color="#249553"/><stop offset="0.81" stop-color="#108a4b"/><stop offset="0.91" stop-color="#048347"/><stop offset="1" stop-color="#008145"/></linearGradient><linearGradient id="Emerald-2" x1="240.17" y1="194.15" x2="497.33" y2="194.15" xlink:href="#Emerald"/></defs><title>share-my-desktop-icon-final</title><path class="cls-2" d="M283.7,373.16h-68l8.54-38.4,2.67-12h45.61l2.67,12Zm0,0"/><path class="cls-3" d="M431.28,84.78V309a13.76,13.76,0,0,1-13.76,13.76H81.84A13.76,13.76,0,0,1,68.08,309V84.78A13.76,13.76,0,0,1,81.84,71H417.52a13.76,13.76,0,0,1,13.76,13.76h0Zm-18.4,219.59V89.42H86.48V304.36h326.4Zm0,0"/><path class="cls-4" d="M272.48,322.76H226.87l-2.67,12h51Zm0,0"/><rect class="cls-5" x="86.48" y="89.42" width="326.4" height="214.94"/><rect class="cls-3" x="184.56" y="367.16" width="130.23" height="12"/><g class="cls-6"><path class="cls-7" d="M392.59,144.13v-59l97.83,98.39-97.83,98.36v-59s-86.88-21-146.22,78.7c0,0-14.81-76.11,51.47-131.28,0,0,30-28.08,94.75-26.12h0Zm0,0"/><path class="cls-8" d="M244,315.06l-2.44-12.61c-0.15-.79-14.57-79.61,53.15-136,1-.93,30-27.37,91.5-27.37h1.48V73.24L497.33,183.48,387.68,293.72V226.92a103.77,103.77,0,0,0-15-1.05C344.41,225.86,291,236,250.57,304ZM386.2,148.94c-57.7,0-84.75,24.63-85,24.9-46.77,38.92-51.81,89-51.21,112.9,60.56-88.46,142.68-68.94,143.76-68.67l3.75,0.91v51l86-86.49L397.49,97v52.19l-5-.17q-3.19-.07-6.24-0.07h0Zm0,0"/></g><rect class="cls-3" x="240.17" y="305.36" width="16.57" height="16.57"/></svg>