<?xml version="1.0" encoding="UTF-8" standalone="no"?>
<!-- Created with Inkscape (http://www.inkscape.org/) -->

<svg
   xmlns:dc="http://purl.org/dc/elements/1.1/"
   xmlns:cc="http://creativecommons.org/ns#"
   xmlns:rdf="http://www.w3.org/1999/02/22-rdf-syntax-ns#"
   xmlns:svg="http://www.w3.org/2000/svg"
   xmlns="http://www.w3.org/2000/svg"
   xmlns:sodipodi="http://sodipodi.sourceforge.net/DTD/sodipodi-0.dtd"
   xmlns:inkscape="http://www.inkscape.org/namespaces/inkscape"
   width="100"
   height="100"
   id="svg2833"
   sodipodi:version="0.32"
   inkscape:version="0.48+devel r10321 custom"
   version="1.0"
   sodipodi:docname="xboard.svg"
   inkscape:output_extension="org.inkscape.output.svg.inkscape"
   inkscape:export-filename="/home/arun/src/Prog/xboard/xboard.png"
   inkscape:export-xdpi="250"
   inkscape:export-ydpi="250">
  <defs
     id="defs2835">
    <inkscape:perspective
       sodipodi:type="inkscape:persp3d"
       inkscape:vp_x="0 : 526.18109 : 1"
       inkscape:vp_y="0 : 1000 : 0"
       inkscape:vp_z="744.09448 : 526.18109 : 1"
       inkscape:persp3d-origin="372.04724 : 350.78739 : 1"
       id="perspective2841" />
    <inkscape:perspective
       id="perspective2851"
       inkscape:persp3d-origin="0.5 : 0.33333333 : 1"
       inkscape:vp_z="1 : 0.5 : 1"
       inkscape:vp_y="0 : 1000 : 0"
       inkscape:vp_x="0 : 0.5 : 1"
       sodipodi:type="inkscape:persp3d" />
    <inkscape:perspective
       id="perspective2873"
       inkscape:persp3d-origin="0.5 : 0.33333333 : 1"
       inkscape:vp_z="1 : 0.5 : 1"
       inkscape:vp_y="0 : 1000 : 0"
       inkscape:vp_x="0 : 0.5 : 1"
       sodipodi:type="inkscape:persp3d" />
    <inkscape:perspective
       id="perspective2916"
       inkscape:persp3d-origin="0.5 : 0.33333333 : 1"
       inkscape:vp_z="1 : 0.5 : 1"
       inkscape:vp_y="0 : 1000 : 0"
       inkscape:vp_x="0 : 0.5 : 1"
       sodipodi:type="inkscape:persp3d" />
    <inkscape:perspective
       id="perspective2959"
       inkscape:persp3d-origin="0.5 : 0.33333333 : 1"
       inkscape:vp_z="1 : 0.5 : 1"
       inkscape:vp_y="0 : 1000 : 0"
       inkscape:vp_x="0 : 0.5 : 1"
       sodipodi:type="inkscape:persp3d" />
    <inkscape:perspective
       id="perspective3002"
       inkscape:persp3d-origin="0.5 : 0.33333333 : 1"
       inkscape:vp_z="1 : 0.5 : 1"
       inkscape:vp_y="0 : 1000 : 0"
       inkscape:vp_x="0 : 0.5 : 1"
       sodipodi:type="inkscape:persp3d" />
    <inkscape:perspective
       id="perspective3045"
       inkscape:persp3d-origin="0.5 : 0.33333333 : 1"
       inkscape:vp_z="1 : 0.5 : 1"
       inkscape:vp_y="0 : 1000 : 0"
       inkscape:vp_x="0 : 0.5 : 1"
       sodipodi:type="inkscape:persp3d" />
    <inkscape:perspective
       id="perspective3513"
       inkscape:persp3d-origin="0.5 : 0.33333333 : 1"
       inkscape:vp_z="1 : 0.5 : 1"
       inkscape:vp_y="0 : 1000 : 0"
       inkscape:vp_x="0 : 0.5 : 1"
       sodipodi:type="inkscape:persp3d" />
  </defs>
  <sodipodi:namedview
     id="base"
     pagecolor="#ffffff"
     bordercolor="#666666"
     borderopacity="1.0"
     inkscape:pageopacity="0.0"
     inkscape:pageshadow="2"
     inkscape:zoom="0.29609665"
     inkscape:cx="875.69075"
     inkscape:cy="-115.80754"
     inkscape:document-units="px"
     inkscape:current-layer="layer1"
     showgrid="false"
     inkscape:window-width="1280"
     inkscape:window-height="970"
     inkscape:window-x="0"
     inkscape:window-y="0"
     inkscape:window-maximized="1" />
  <metadata
     id="metadata2838">
    <rdf:RDF>
      <cc:Work
         rdf:about="">
        <dc:format>image/svg+xml</dc:format>
        <dc:type
           rdf:resource="http://purl.org/dc/dcmitype/StillImage" />
        <dc:title />
      </cc:Work>
    </rdf:RDF>
  </metadata>
  <g
     inkscape:label="Layer 1"
     inkscape:groupmode="layer"
     id="layer1"
     transform="translate(-67.582896,-53.165653)">
    <path
       style="fill:#ffffff;fill-opacity:1;stroke-width:1px"
       d="m 113.3125,57.03125 c -1.58577,0.04984 -2.47509,1.487318 -3.5,2.46875 -0.67425,1.053857 -1.79438,1.924061 -2.42634,3.101938 -0.66164,1.000438 -1.44813,1.916003 -2.04241,2.960562 -0.77581,-0.736287 -1.5167,-1.737923 -2.3088,-2.585687 -1.68921,-1.843027 -3.529616,-3.581198 -5.544084,-5.034224 C 95.924903,57.140856 93.811249,56.942081 92.34375,58 c -0.705358,0.525182 -1.077546,1.282967 -1.266435,2.133179 -0.644907,2.735748 0.389956,5.45886 0.666349,8.165785 0.153383,1.531519 -0.393901,3.017942 -1.319454,4.220971 -0.648672,1.002459 -1.365462,1.79159 -2.08046,2.761315 -0.628636,0.847135 -1.569787,1.710173 -2.015539,2.775879 -2.089075,4.09356 -1.871767,8.916378 -3.853144,13.053658 -1.21144,2.49413 -2.853735,4.758245 -4.220907,7.173947 -2.28335,3.742686 -4.417045,7.626506 -5.675835,11.847246 -0.885032,3.20694 -1.169709,6.78592 0.296675,9.86802 0.740297,1.63405 2.143463,2.84502 3.519423,3.93235 2.212122,1.46632 5.001,1.75376 7.582546,1.36535 1.337649,0.29703 1.788538,2.09594 3.179281,2.3273 2.185246,0.97054 5.015582,0.29912 6.4455,-1.61812 2.725921,-3.08545 5.512519,-6.11428 7.96075,-9.41313 0.30098,-0.47037 0.88758,-0.9495 1.36069,-1.2795 2.54755,-1.72484 5.25185,-3.21929 7.92056,-4.75175 2.45898,-1.353 4.92337,-2.6962 7.375,-4.0625 -0.88134,3.52057 -2.61218,6.75257 -4.75622,9.6591 -1.34305,1.96589 -2.88061,3.7878 -4.27503,5.7159 -0.30772,0.45344 -0.9191,1.01833 -1.19403,1.49441 -2.75019,3.25539 -5.82797,6.2564 -8.05799,9.89992 -1.766243,3.23248 -3.197805,6.75137 -3.572545,10.44754 -0.199035,1.68785 0.09318,3.63042 1.480815,4.72063 1.776203,0.96391 3.90212,0.61125 5.84989,0.69226 6.16331,0.009 12.32903,-0.15703 18.49386,-0.12976 9.73786,-0.0338 19.47531,0.0779 29.2125,0.15625 2.34335,-0.0534 4.70793,0.0698 7.03512,-0.22638 1.29796,-0.21264 2.73177,-0.51497 3.75127,-1.32131 1.35286,-1.95305 0.96934,-4.46326 1.00111,-6.70856 0.0184,-7.26977 -0.73271,-14.51736 -1.81234,-21.69885 -0.96574,-6.49991 -2.22332,-12.97783 -4.11502,-19.276845 -1.44816,-4.679041 -3.27629,-9.264721 -5.63514,-13.549305 -0.89947,-1.71364 -1.93586,-3.377532 -3.09375,-4.9375 -1.30263,-1.588892 -2.77656,-3.083553 -4.28951,-4.498066 -2.15889,-2.116759 -4.40365,-4.205399 -6.80424,-6.001934 -2.33759,-1.133695 -4.72609,-2.18408 -7.25929,-2.798516 -2.76515,-0.823184 -5.76367,-1.405269 -8.33446,-2.545234 -0.81963,-0.596818 -1.10029,-1.612707 -1.71396,-2.446456 -1.24808,-2.13748 -2.53758,-4.401456 -4.66104,-5.741044 -0.65197,-0.341889 -1.429,-0.455514 -2.15625,-0.375 z"
       id="path16"
       inkscape:connector-curvature="0" />
    <path
       style="stroke-width:1px"
       d="m 105.23203,67.719809 c 2.52182,-1.891358 5.04364,-8.82637 8.19591,-9.456822 3.78274,-0.630453 5.04365,7.565464 8.19592,8.826369 5.04364,1.891369 10.08729,1.891369 15.13095,5.043643 15.76137,10.087286 20.80501,29.631391 23.32683,46.653681 1.26092,6.93501 1.89137,13.87001 1.89137,20.80502 0,1.89137 0.51112,5.56512 -0.63045,6.935 -2.01805,2.42166 -11.3482,1.26092 -14.50048,1.26092 0,0 -29.20073,0 -37.82732,0 -8.62659,0 -12.493001,1.82522 -11.348188,-5.04364 2.642478,-15.85482 21.435468,-22.69638 22.065928,-39.08822 -5.67409,4.41318 -12.60911,6.30455 -17.65275,10.71774 -3.782725,3.15227 -6.934999,9.45682 -10.717737,11.97864 -2.521821,1.26091 -5.043642,0 -6.304548,-2.52182 -6.304548,1.89137 -12.609107,-2.52182 -11.978644,-9.45682 0.630453,-8.19593 6.304549,-14.500476 10.087275,-21.435488 2.521822,-4.413179 1.891369,-8.826369 3.782738,-13.239549 1.260905,-3.152284 4.413179,-5.043643 5.674095,-8.195917 1.891359,-2.521821 -2.521821,-10.087285 0.630453,-12.609107 3.152274,-2.521821 10.717738,6.304548 11.978648,8.82637 z m 13.23956,3.152274 c 1.89136,3.782737 5.67409,3.152285 8.82637,5.043643 4.41319,1.260916 7.56548,5.043643 10.71775,8.195917 9.45684,11.978654 13.87002,30.892307 13.87002,46.023227 0,5.6741 -1.26091,14.50048 6.30455,14.50048 0,-20.80503 -1.89136,-44.762326 -15.76138,-61.784613 -5.04364,-6.304558 -15.13094,-13.870012 -23.95731,-11.978654 z m -32.783672,50.436417 1.891369,0.63045 1.891368,-6.30454 -0.630463,0 z m -4.41318,-6.30455 c 3.152274,-0.63045 4.41318,-5.67409 0.630453,-5.67409 -3.152274,0 -3.782737,6.30455 -0.630453,5.67409 z m 38.457762,-13.87001 1.26091,0 1.89137,-6.935012 c -2.52183,1.260906 -3.15228,4.413191 -3.15228,6.935012 z M 93.253382,89.785738 94.514288,86.633464 c 3.782737,0.630453 5.674092,-1.260905 5.043642,-5.043643 l 3.15227,-0.630452 0,-0.630453 C 97.036109,79.068 91.992466,84.111643 93.253382,89.785738 z m 5.043643,-13.870012 c 1.260905,0 3.152275,0 4.413175,-0.630453 11.97866,-3.782727 -3.15227,-6.304548 -4.413175,0.630453 z"
       id="BlackKnight"
       inkscape:connector-curvature="0"
       sodipodi:nodetypes="cccccssszsccccccccsccccsccccccccsssccccccccccccc" />
  </g>
</svg>
