<?xml version="1.0" encoding="UTF-8" standalone="no"?>
<svg
   xmlns:dc="http://purl.org/dc/elements/1.1/"
   xmlns:cc="http://creativecommons.org/ns#"
   xmlns:rdf="http://www.w3.org/1999/02/22-rdf-syntax-ns#"
   xmlns:svg="http://www.w3.org/2000/svg"
   xmlns="http://www.w3.org/2000/svg"
   xmlns:sodipodi="http://sodipodi.sourceforge.net/DTD/sodipodi-0.dtd"
   xmlns:inkscape="http://www.inkscape.org/namespaces/inkscape"
   version="1.1"
   width="16"
   height="16"
   id="svg7384"
   sodipodi:docname="notification-disabled-new-symbolic.svg"
   inkscape:version="0.92.1 r15371">
  <sodipodi:namedview
     pagecolor="#ffffff"
     bordercolor="#666666"
     borderopacity="1"
     objecttolerance="10"
     gridtolerance="10"
     guidetolerance="10"
     inkscape:pageopacity="0"
     inkscape:pageshadow="2"
     inkscape:window-width="1651"
     inkscape:window-height="926"
     id="namedview8"
     showgrid="false"
     inkscape:zoom="9.8333333"
     inkscape:cx="-24.40678"
     inkscape:cy="12"
     inkscape:window-x="0"
     inkscape:window-y="25"
     inkscape:window-maximized="0"
     inkscape:current-layer="svg7384" />
  <title
     id="title9167">elementary Symbolic Icon Theme</title>
  <metadata
     id="metadata90">
    <rdf:RDF>
      <cc:Work
         rdf:about="">
        <dc:format>image/svg+xml</dc:format>
        <dc:type
           rdf:resource="http://purl.org/dc/dcmitype/StillImage" />
        <dc:title>elementary Symbolic Icon Theme</dc:title>
      </cc:Work>
    </rdf:RDF>
  </metadata>
  <defs
     id="defs7386" />
  <path
     id="path3355"
     d="m 7.5644919,1.7014656 c -1.142683,0.3676665 -2.1237693,1.2320849 -2.5976561,2.373047 0,0 -1.9146213,4.6200292 -3.6855469,4.5585932 -0.019301,0.0035 -0.03383,0.02032 -0.052734,0.02539 -0.078769,0.02104 -0.1487633,0.05436 -0.2167968,0.09961 -0.026525,0.01757 -0.05389,0.02981 -0.078125,0.05078 -0.085966,0.07418 -0.1604545,0.162944 -0.2070313,0.27539 -0.1590049,0.38387 0.022378,0.821465 0.40625,0.9804692 l 9.7011712,4.017577 c 0.383872,0.159006 0.81951,-0.02238 0.978516,-0.40625 0.04659,-0.112445 0.05719,-0.228547 0.04883,-0.341797 -0.0022,-0.03197 -0.01321,-0.05866 -0.01953,-0.08984 -0.01609,-0.0801 -0.04121,-0.154036 -0.08203,-0.22461 -0.0098,-0.01695 -0.0085,-0.0385 -0.01953,-0.05469 -0.753336,-0.702821 -0.419155,-2.54603 -0.0098,-3.9765622 A 5,5 0 0 1 7.0000389,4.0002938 5,5 0 0 1 7.5644919,1.7014656 Z M 5.6621483,13.021777 a 2,2 0 0 0 1.2128906,2.126954 2,2 0 0 0 2.3613281,-0.646485 z"
     style="color:#bebebe;clip-rule:nonzero;display:inline;overflow:visible;visibility:visible;opacity:0.4;isolation:auto;mix-blend-mode:normal;color-interpolation:sRGB;color-interpolation-filters:linearRGB;solid-color:#000000;solid-opacity:1;fill:#bebebe;fill-opacity:1;fill-rule:nonzero;stroke:none;stroke-width:1;stroke-linecap:butt;stroke-linejoin:miter;stroke-miterlimit:4;stroke-dasharray:none;stroke-dashoffset:0;stroke-opacity:1;marker:none;color-rendering:auto;image-rendering:auto;shape-rendering:auto;text-rendering:auto;enable-background:accumulate"
     inkscape:connector-curvature="0" />
  <path
     style="color:#bebebe;clip-rule:nonzero;display:inline;overflow:visible;visibility:visible;opacity:0.4;isolation:auto;mix-blend-mode:normal;color-interpolation:sRGB;color-interpolation-filters:linearRGB;solid-color:#000000;solid-opacity:1;fill:#009dff;fill-opacity:1;fill-rule:nonzero;stroke:none;stroke-width:1.78124988;stroke-linecap:butt;stroke-linejoin:miter;stroke-miterlimit:4;stroke-dasharray:none;stroke-dashoffset:0;stroke-opacity:1;marker:none;color-rendering:auto;image-rendering:auto;shape-rendering:auto;text-rendering:auto;enable-background:new"
     id="path3009"
     d="m 16.000039,4.0002938 a 4.0000001,4.0000002 0 0 1 -8.0000001,0 4.0000001,4.0000002 0 1 1 8.0000001,0 z"
     class="error"
     inkscape:connector-curvature="0" />
</svg>
